
<svg version="1.1" xmlns="http://www.w3.org/2000/svg" xmlns:xlink="http://www.w3.org/1999/xlink" x="0px" y="0px"
	 width="460.818px" height="540.875px" viewBox="0 0 460.818 540.875" enable-background="new 0 0 460.818 540.875"
	 xml:space="preserve">
<g>
	<path fill="#FFFFFF" stroke="#000000" stroke-miterlimit="10" d="M170.257,540.875"/>
	<polygon points="342.458,213.308 414.963,147.276 417.121,141.016 388.204,108.003 383.458,110.16 317.859,189.571 	"/>
	<polygon points="308.363,193.886 378.279,106.275 385.615,103.686 332.962,69.161 271.678,167.992 	"/>
	<polygon points="214.495,154.559 222.749,137.404 214.576,130.93 197.501,118.954 186.658,143.61 	"/>
	<path d="M224.367,152.778l5.826-15.213c0,0,39.49-0.647,51.79-26.38c12.3-25.732-25.247-40.46-25.247-40.46l15.698-38.356
		l36.414,12.947l19.798,15.699l-64.628,107.139L224.367,152.778z"/>
	<polygon points="182.126,47.582 241.9,68.297 250.855,68.297 270.059,18.559 232.297,2.373 202.735,0 	"/>
	<path d="M460.797,368.676c-0.116-2.83-3.168-5.099-6.938-5.099c-0.127,0-0.243,0.023-0.364,0.028l-0.46-79.942l0.002-0.638
		c-0.207-3.224-5.649-78.24-58.662-99.573l1.386-8.769l-1.08-1.511l-49.63,50.062l-29.779-27.837l-7.12,6.044l-38.412-28.269
		l-6.257,1.511l-41.431-17.264l-3.237,4.964l-40.25-18.528l14.083-29.11c0,0,27.675,10.682,30.103,16.184
		c0,0,57.454,2.914,55.512-29.293S233.43,72.02,233.43,72.02l-54.703-22.334l-20.594-3.153
		c-25.011-11.708-47.191-12.296-65.917-1.755c-42.102,23.69-50.31,95.208-50.639,98.241l0.279,183.81
		c-0.039-0.003-0.076-0.013-0.115-0.013c-2.927,0-5.298,2.291-5.47,5.176h-0.018v0.175c-0.001,0.053-0.015,0.101-0.015,0.151
		s0.014,0.099,0.015,0.152v16.3H20.473C9.166,348.769,0,357.936,0,369.242c0,0.172,0.021,0.339,0.025,0.511H0V419.6h23.738
		l-0.219,32.222h0.064c-0.018,0.215-0.064,0.42-0.064,0.64c0,4.355,3.53,7.885,7.885,7.885s7.885-3.529,7.885-7.885
		c0-0.164-0.038-0.315-0.048-0.478h0.048l-0.23-32.384H56.97v32.561c-0.004,0.102-0.03,0.197-0.03,0.301
		c0,4.355,3.53,7.885,7.884,7.885c4.355,0,7.885-3.529,7.885-7.885c0-0.093-0.024-0.182-0.027-0.275h0.04V419.6h23.305v-49.28
		c0.019-0.359,0.055-0.713,0.055-1.077c0-10.811-8.387-19.644-19.006-20.4l0.017-0.073h-0.647H59.343V331.99H59.31
		c-0.153-2.557-2.032-4.638-4.501-5.077c-0.016-29.65-0.095-179.842,0.002-185.217c0.108-5.964,11.56-67.52,43.753-85.636
		c14.882-8.37,33.075-7.634,54.082,2.197l0.904,0.313v7.26l-55.147,85.764l99.296,145.749l-27.441,243.531h171.769l6.019-233.052
		l0.022,0.002l26.978-35.604l17.165-75.654c42.984,19.899,47.862,86.6,47.905,87.293l0.293,79.803
		c-0.366-0.045-0.733-0.086-1.115-0.086c-3.771,0-6.822,2.269-6.937,5.099h-0.022v30.75c0.275,2.185,2.496,4.041,5.503,5.037v14.813
		h18.126v-15.009c2.695-1.036,4.598-2.802,4.855-4.842v-30.75H460.797z M445.605,411.401h-2.59v-2.589h2.59V411.401z
		 M450.743,411.401h-2.589v-2.589h2.589V411.401z"/>
</g>
</svg>
