<?xml version="1.0" encoding="utf-8"?>
<!-- Generator: Adobe Illustrator 16.0.0, SVG Export Plug-In . SVG Version: 6.00 Build 0)  -->
<!DOCTYPE svg PUBLIC "-//W3C//DTD SVG 1.1//EN" "http://www.w3.org/Graphics/SVG/1.1/DTD/svg11.dtd">
<svg version="1.1" id="Layer_1" xmlns="http://www.w3.org/2000/svg" xmlns:xlink="http://www.w3.org/1999/xlink" x="0px" y="0px"
	 width="434.327px" height="508.984px" viewBox="0 0 434.327 508.984" enable-background="new 0 0 434.327 508.984"
	 xml:space="preserve">
<g>
	<path fill-rule="evenodd" clip-rule="evenodd" d="M231.622,358.805c0,9.81-0.423,18.21,0.228,26.528
		c0.229,2.92,2.604,6.119,4.831,8.364c28.484,28.711,57.129,57.263,85.702,85.884c2.218,2.223,4.516,4.463,6.253,7.047
		c4,5.943,3.15,13.22-1.743,17.999c-5.168,5.048-12.679,5.526-18.682,1.023c-1.876-1.407-3.493-3.175-5.162-4.843
		c-26.376-26.362-52.761-52.717-79.072-79.145c-2.021-2.03-3.498-4.604-5.649-7.488c-3.336,3.082-5.433,4.892-7.386,6.844
		c-27.5,27.468-54.987,54.947-82.459,82.444c-4.668,4.67-10.453,7.536-16.202,3.819c-3.904-2.524-7.932-7.495-8.479-11.806
		c-0.511-4.024,2.505-9.595,5.669-12.816c28.332-28.859,56.876-57.517,85.771-85.81c5.94-5.817,9.027-11.595,8.107-19.896
		c-0.601-5.422-0.114-10.965-0.114-17.472c-62.751,0-125.057,0-187.969,0c0-94.363,0-187.705,0-281.77
		c134.317,0,268.803,0,403.709,0c0,93.428,0,186.816,0,281.091C356.85,358.805,294.767,358.805,231.622,358.805z M43.436,330.083
		c116.382,0,231.793,0,347.123,0c0-75.107,0-149.591,0-224.231c-115.885,0-231.297,0-347.123,0
		C43.436,180.787,43.436,255.237,43.436,330.083z"/>
	<path fill-rule="evenodd" clip-rule="evenodd" d="M217.821,39.172c66.659,0,133.317-0.018,199.975,0.017
		c10.97,0.006,17.274,5.978,16.461,15.292c-0.611,7.004-5.39,11.988-12.638,12.919c-2.327,0.299-4.716,0.137-7.076,0.137
		c-131.48,0.004-262.961,0.006-394.439-0.009c-2.879,0-5.826,0.162-8.625-0.37C4.308,65.799-0.348,59.6,0.021,52.416
		c0.371-7.239,5.595-12.579,13.105-13.151c3.132-0.239,6.295-0.091,9.444-0.091C87.654,39.17,152.737,39.17,217.821,39.172z"/>
	<path fill-rule="evenodd" clip-rule="evenodd" d="M217.122,28.395c-7.873,0.001-15.749,0.163-23.616-0.04
		c-9.425-0.242-15.43-5.979-15.403-14.318c0.027-8.557,5.862-13.928,15.477-13.977c15.744-0.079,31.49-0.082,47.233,0.003
		c9.483,0.051,15.47,5.617,15.414,14.038c-0.054,8.36-6.035,14.014-15.487,14.252C232.872,28.553,224.995,28.395,217.122,28.395z"/>
</g>
</svg>
