<?xml version="1.0" encoding="utf-8"?>
<!-- Generator: Adobe Illustrator 16.0.0, SVG Export Plug-In . SVG Version: 6.00 Build 0)  -->
<!DOCTYPE svg PUBLIC "-//W3C//DTD SVG 1.1//EN" "http://www.w3.org/Graphics/SVG/1.1/DTD/svg11.dtd">
<svg version="1.1" xmlns="http://www.w3.org/2000/svg" xmlns:xlink="http://www.w3.org/1999/xlink" x="0px" y="0px"
	 width="511.841px" height="511.104px" viewBox="0 0 511.841 511.104" enable-background="new 0 0 511.841 511.104"
	 xml:space="preserve">
<g>
	<path fill-rule="evenodd" clip-rule="evenodd" fill="none" d="M511.92,19.552c0,163.882,0,327.763,0,492c-67,0-134,0-201,0
		c1.07-0.367,2.118-0.838,3.216-1.084c25.525-5.734,41.504-29.813,36.882-55.615c-4.214-23.521-24.001-39.391-48.847-39.176
		c-22.761,0.199-42.181,17.826-45.856,41.621c-3.392,21.963,10.587,44.49,32.107,51.693c2.805,0.938,5.664,1.711,8.498,2.561
		c-38,0-76,0-114,0c0.902-0.344,1.776-0.816,2.709-1.014c26.341-5.613,42.705-30.746,37.193-57.162
		c-4.203-20.15-21.682-35.746-42.16-37.619c-20.923-1.914-40.559,9.613-48.744,28.613c-8.347,19.373-3.121,41.869,12.588,55.494
		c7.129,6.184,15.588,9.232,24.414,11.688c-56.334,0-112.666,0-169,0c0-142.666,0-285.332,0-428c0.4,0.701,0.883,1.368,1.191,2.108
		c26.307,63.093,52.595,126.192,78.9,189.286c4.107,9.852,8.09,12.48,18.613,12.48c81.646,0,163.295,0,244.941,0
		c2.085,0,4.17,0,6.709,0c-3.978,21.828-7.812,42.877-11.706,64.25c-2.42,0-4.393,0-6.364,0c-67.818,0-135.635-0.006-203.452,0.008
		c-9.872,0.002-16.722,6.574-16.707,15.908c0.015,9.316,6.874,15.826,16.79,15.828c73.982,0.012,147.965,0.01,221.948,0.002
		c9.706-0.002,15.366-4.875,17.106-14.598c1.113-6.225,2.271-12.441,3.403-18.662c10.518-57.781,21.032-115.563,31.553-173.343
		c8.522-46.807,17.103-93.604,25.483-140.436c0.693-3.873,1.97-5.107,5.978-5.06c19.159,0.229,38.332-0.256,57.48,0.252
		C501.514,31.835,508.121,28.443,511.92,19.552z"/>
	<path fill-rule="evenodd" clip-rule="evenodd" d="M511.92,19.552c-3.799,8.891-10.406,12.283-20.132,12.024
		c-19.148-0.508-38.321-0.023-57.48-0.252c-4.008-0.048-5.284,1.187-5.978,5.06c-8.381,46.832-16.961,93.629-25.483,140.436
		c-10.521,57.781-21.035,115.562-31.553,173.343c-1.133,6.221-2.29,12.438-3.403,18.662c-1.74,9.723-7.4,14.596-17.106,14.598
		c-73.983,0.008-147.966,0.01-221.948-0.002c-9.916-0.002-16.775-6.512-16.79-15.828c-0.015-9.334,6.835-15.906,16.707-15.908
		c67.817-0.014,135.634-0.008,203.452-0.008c1.972,0,3.944,0,6.364,0c3.895-21.373,7.729-42.422,11.706-64.25
		c-2.539,0-4.624,0-6.709,0c-81.646,0-163.295,0-244.941,0c-10.523,0-14.506-2.629-18.613-12.48
		c-26.306-63.094-52.594-126.193-78.9-189.286c-0.309-0.74-0.791-1.407-1.191-2.108c0-2.667,0-5.333,0-8
		c3.871-9.18,10.801-12.046,20.63-12.026c121.253,0.232,242.507,0.151,363.761,0.151c2.134,0,4.268,0,6.598,0
		c2.779-15.342,5.772-30.178,8.057-45.122c1.324-8.663,4.352-15.581,12.955-19.003c29.333,0,58.667,0,88,0
		c5.657,2.343,9.657,6.343,12,12C511.92,14.219,511.92,16.885,511.92,19.552z M385.093,95.752c-115.294,0-229.847,0-344.815,0
		c0.642,1.8,1.072,3.207,1.636,4.559c20.921,50.221,41.907,100.416,62.682,150.698c1.559,3.773,3.456,4.76,7.331,4.754
		c79.498-0.113,158.996-0.086,238.494-0.086c1.789,0,3.578,0,5.612,0C365.755,202.176,375.39,149.153,385.093,95.752z"/>
	<path fill-rule="evenodd" clip-rule="evenodd" fill="none" d="M411.92-0.448c-8.604,3.422-11.631,10.34-12.955,19.003
		c-2.284,14.944-5.277,29.78-8.057,45.122c-2.33,0-4.464,0-6.598,0c-121.254,0-242.508,0.081-363.761-0.151
		c-9.829-0.02-16.759,2.847-20.63,12.026c0-25.333,0-50.667,0-76C137.254-0.448,274.586-0.448,411.92-0.448z"/>
	<path fill-rule="evenodd" clip-rule="evenodd" d="M168.92,511.552c-8.826-2.455-17.285-5.504-24.414-11.688
		c-15.709-13.625-20.935-36.121-12.588-55.494c8.186-19,27.821-30.527,48.744-28.613c20.479,1.873,37.957,17.469,42.16,37.619
		c5.512,26.416-10.853,51.549-37.193,57.162c-0.933,0.197-1.807,0.67-2.709,1.014C178.254,511.552,173.586,511.552,168.92,511.552z"
		/>
	<path fill-rule="evenodd" clip-rule="evenodd" d="M296.92,511.552c-2.834-0.85-5.693-1.623-8.498-2.561
		c-21.521-7.203-35.499-29.73-32.107-51.693c3.676-23.795,23.096-41.422,45.856-41.621c24.846-0.215,44.633,15.654,48.847,39.176
		c4.622,25.803-11.356,49.881-36.882,55.615c-1.098,0.246-2.146,0.717-3.216,1.084C306.253,511.552,301.587,511.552,296.92,511.552z
		"/>
	<path fill-rule="evenodd" clip-rule="evenodd" fill="none" d="M511.92,11.552c-2.343-5.657-6.343-9.657-12-12c3.918,0,7.837,0,12,0
		C511.92,3.549,511.92,7.55,511.92,11.552z"/>
	<path fill-rule="evenodd" clip-rule="evenodd" fill="none" d="M385.093,95.752c-9.703,53.4-19.338,106.424-29.061,159.924
		c-2.034,0-3.823,0-5.612,0c-79.498,0-158.996-0.027-238.494,0.086c-3.875,0.006-5.772-0.98-7.331-4.754
		C83.82,200.727,62.834,150.532,41.913,100.311c-0.563-1.352-0.994-2.759-1.636-4.559C155.246,95.752,269.799,95.752,385.093,95.752
		z"/>
</g>
</svg>
