<?xml version="1.0" encoding="utf-8"?>
<!-- Generator: Adobe Illustrator 16.0.0, SVG Export Plug-In . SVG Version: 6.00 Build 0)  -->
<!DOCTYPE svg PUBLIC "-//W3C//DTD SVG 1.1//EN" "http://www.w3.org/Graphics/SVG/1.1/DTD/svg11.dtd">
<svg version="1.1" id="Layer_1" xmlns="http://www.w3.org/2000/svg" xmlns:xlink="http://www.w3.org/1999/xlink" x="0px" y="0px"
	 width="444.622px" height="445.191px" viewBox="0 0 444.622 445.191" enable-background="new 0 0 444.622 445.191"
	 xml:space="preserve">
<g>
	<path fill-rule="evenodd" clip-rule="evenodd" fill="none" d="M-97.377,575.88c0-235.333,0-470.667,0-706
		c213.333,0,426.667,0,640,0c0,235.333,0,470.667,0,706C329.29,575.88,115.957,575.88-97.377,575.88z M220.393,392.335
		c-82.19-2.155-144.925-58.777-161.46-131.868c-14.835-65.575,11.029-138.648,71.456-178.604
		c58.019-38.365,131.243-35.733,186.27,0.07c-12.188,12.109-24.25,24.094-36.728,36.492c39.371,0,77.891,0,116.257,0
		c0-38.75,0-77.103,0-116.064c-13.854,13.919-27.218,27.346-40.677,40.87C308.747,10.551,257.512-4.376,201.158,1.114
		C144.509,6.634,96.75,31.14,58.361,72.941c-63.505,69.152-79.169,176.165-27.112,263.751
		c48.161,81.031,133.572,110.818,189.144,108.359C220.393,427.597,220.393,410.138,220.393,392.335z M208.071,101.12
		c0,47.121,0,93.79,0,140.408c44.945,0,89.502,0,134.062,0c0-8.66,0-17.021,0-25.77c-35.668,0-70.906,0-106.716,0
		c0-38.419,0-76.442,0-114.639C226.058,101.12,217.272,101.12,208.071,101.12z M379.116,153.692
		c4.316,14.526,8.492,28.58,12.827,43.17c17.031-1.31,34.691-2.668,52.679-4.051c-4.089-20.971-8.056-41.398-17.274-60.767
		C410.604,139.56,394.303,146.875,379.116,153.692z M430.535,305.045c7.252-19.777,12.913-39.213,14.798-59.902
		c-17.849-1.013-35.509-2.015-52.566-2.982c-3.724,14.632-7.289,28.643-10.944,43.006C397.44,291.54,413.68,298.167,430.535,305.045
		z M258.908,443.229c19.109-2.465,36.354-8.883,53.714-15.665c-7.226-16.811-14.213-33.066-21.024-48.916
		c-13.572,4.222-26.504,8.245-39.747,12.366C254.127,407.856,256.455,425.081,258.908,443.229z M332.295,354.152
		c10.275,13.481,20.983,27.53,32.36,42.457c13.472-13.769,26.448-27.031,39.726-40.601c-15.372-11.432-29.701-22.088-43.401-32.276
		C351.22,334.083,341.896,343.971,332.295,354.152z"/>
	<path fill-rule="evenodd" clip-rule="evenodd" d="M220.393,392.335c0,17.803,0,35.262,0,52.717
		c-55.572,2.459-140.983-27.328-189.144-108.359C-20.809,249.106-5.144,142.093,58.361,72.941
		C96.75,31.14,144.509,6.634,201.158,1.114c56.354-5.491,107.589,9.437,154.352,42.115c13.459-13.523,26.823-26.95,40.677-40.87
		c0,38.961,0,77.314,0,116.064c-38.366,0-76.886,0-116.257,0c12.478-12.397,24.54-24.383,36.728-36.492
		c-55.026-35.803-128.25-38.435-186.27-0.07c-60.426,39.956-86.291,113.029-71.456,178.604
		C75.468,333.558,138.203,390.18,220.393,392.335z"/>
	<path fill-rule="evenodd" clip-rule="evenodd" d="M208.071,101.12c9.201,0,17.986,0,27.346,0c0,38.196,0,76.22,0,114.639
		c35.81,0,71.048,0,106.716,0c0,8.748,0,17.109,0,25.77c-44.56,0-89.116,0-134.062,0C208.071,194.91,208.071,148.241,208.071,101.12
		z"/>
	<path fill-rule="evenodd" clip-rule="evenodd" d="M379.116,153.692c15.187-6.816,31.487-14.132,48.231-21.647
		c9.219,19.369,13.186,39.796,17.274,60.767c-17.987,1.383-35.647,2.741-52.679,4.051
		C387.608,182.271,383.433,168.218,379.116,153.692z"/>
	<path fill-rule="evenodd" clip-rule="evenodd" d="M430.535,305.045c-16.855-6.878-33.095-13.505-48.713-19.879
		c3.655-14.363,7.221-28.374,10.944-43.006c17.058,0.968,34.718,1.97,52.566,2.982C443.448,265.832,437.787,285.268,430.535,305.045
		z"/>
	<path fill-rule="evenodd" clip-rule="evenodd" d="M258.908,443.229c-2.453-18.147-4.781-35.372-7.058-52.215
		c13.243-4.121,26.175-8.145,39.747-12.366c6.812,15.85,13.799,32.105,21.024,48.916
		C295.263,434.346,278.018,440.764,258.908,443.229z"/>
	<path fill-rule="evenodd" clip-rule="evenodd" d="M332.295,354.152c9.601-10.182,18.925-20.069,28.685-30.42
		c13.7,10.188,28.029,20.845,43.401,32.276c-13.277,13.569-26.254,26.832-39.726,40.601
		C353.278,381.683,342.57,367.634,332.295,354.152z"/>
</g>
</svg>
