<?xml version="1.0" encoding="utf-8"?>
<!-- Generator: Adobe Illustrator 16.0.0, SVG Export Plug-In . SVG Version: 6.00 Build 0)  -->
<!DOCTYPE svg PUBLIC "-//W3C//DTD SVG 1.1//EN" "http://www.w3.org/Graphics/SVG/1.1/DTD/svg11.dtd">
<svg version="1.1" id="Layer_1" xmlns="http://www.w3.org/2000/svg" xmlns:xlink="http://www.w3.org/1999/xlink" x="0px" y="0px"
	 width="511.841px" height="511.104px" viewBox="0 0 511.841 511.104" enable-background="new 0 0 511.841 511.104"
	 xml:space="preserve">
<g>
	<path fill-rule="evenodd" clip-rule="evenodd" d="M0,274.965c0-12.665,0-25.329,0-37.995c0.285-0.925,0.697-1.83,0.834-2.776
		c1.381-9.537,2.342-19.151,4.123-28.612C24.021,104.295,108.667,21.298,210.467,3.975C219.271,2.476,228.134,1.317,236.97,0
		c12.665,0,25.331,0,37.995,0c1.092,0.295,2.168,0.759,3.277,0.861C339.436,6.474,392.39,30.564,435.73,73.917
		c55.891,55.907,81.193,123.973,75.266,202.943c-4.629,61.666-28.979,115.151-72.764,158.568
		c-64.658,64.114-142.809,88.114-232.41,71.489C103.768,487.979,21.35,403.44,3.978,301.487C2.477,292.677,1.317,283.807,0,274.965z
		 M144.391,239.641c32.115,0,63.689,0,95.189,0c0-26.711,0-53.09,0-79.447c-27.687,0-54.981,0-82.361,0
		C149.49,186.195,145.462,212.597,144.391,239.641z M239.615,351.828c0-26.854,0-53.228,0-79.56c-31.928,0-63.5,0-95.068,0
		c0.021,23.103,7.06,65.965,13.35,79.56C184.993,351.828,212.121,351.828,239.615,351.828z M354.707,160.333
		c-27.718,0-55.097,0-82.348,0c0,26.722,0,53.088,0,79.422c31.825,0,63.256,0,95.166,0
		C366.434,212.549,362.472,186.094,354.707,160.333z M272.313,272.152c0,26.792,0,53.158,0,79.624c27.614,0,54.883,0,82.364,0
		c7.748-26,11.846-52.431,12.798-79.624C335.535,272.152,304.109,272.152,272.313,272.152z M122.385,160.1
		c0.533,0.08-0.098-0.098-0.729-0.098c-21.63-0.018-43.262-0.088-64.89,0.126c-1.555,0.016-3.979,1.817-4.495,3.309
		c-5.26,15.193-10.777,30.339-15.037,45.823c-2.687,9.769-3.363,20.09-4.992,30.488c27.282,0,53.342,0,78.548,0
		C114.68,213.025,118.521,186.638,122.385,160.1z M478.66,239.729c0.149-0.678,0.368-1.145,0.335-1.594
		c-1.95-26.47-8.601-51.729-19.861-75.741c-0.59-1.256-3.053-2.302-4.652-2.313c-21.132-0.151-42.267-0.104-63.401-0.087
		c-0.916,0.001-1.833,0.188-1.52,0.153c3.87,26.648,7.7,53.016,11.559,79.582C426.485,239.729,452.547,239.729,478.66,239.729z
		 M33.129,272.211c-0.072,0.852-0.213,1.484-0.166,2.102c2.004,26.289,8.592,51.39,19.836,75.225
		c0.594,1.257,3.051,2.305,4.648,2.316c21.131,0.152,42.263,0.104,63.395,0.088c0.914,0,1.828-0.184,1.529-0.151
		c-3.877-26.651-7.713-53.021-11.576-79.579C85.432,272.211,59.373,272.211,33.129,272.211z M401.148,272.218
		c-3.917,26.858-7.763,53.22-11.63,79.731c21.517,0,43.97,0.063,66.42-0.155c1.336-0.013,3.34-2.036,3.866-3.533
		c4.891-13.924,10.172-27.762,14.025-41.982c2.965-10.942,4.042-22.398,6.033-34.061C452.58,272.218,426.52,272.218,401.148,272.218
		z M239.781,35.423c-32.017,25.005-54.426,56.003-70.658,92.262c24.026,0,47.249,0,70.658,0
		C239.781,97.138,239.781,66.89,239.781,35.423z M239.625,476.363c0-31.408,0-61.77,0-92.108c-23.529,0-46.713,0-70.537,0
		C185.49,420.572,207.801,451.575,239.625,476.363z M342.941,127.836c-16.576-36.517-38.867-67.571-70.636-92.239
		c0,31.381,0,61.738,0,92.239C295.739,127.836,318.833,127.836,342.941,127.836z M272.283,384.092c0,30.81,0,61.125,0,92.3
		c31.875-24.899,54.275-55.89,70.592-92.3C318.852,384.092,295.756,384.092,272.283,384.092z M439.177,127.984
		c-20.564-33.776-86.953-83.363-110.043-82.425c0.943,1.156,1.771,2.176,2.605,3.191c17.344,21.063,31.182,44.242,41.873,69.322
		c4.224,9.912,4.226,9.912,15.091,9.912C405.289,127.984,421.875,127.984,439.177,127.984z M439.045,383.951
		c-19.398,0-38.17,0.122-56.937-0.104c-3.71-0.045-5.07,1.352-6.342,4.551c-10.754,27.067-25.26,51.961-43.784,74.479
		c-0.968,1.176-1.839,2.43-3.061,4.053C360.788,461.47,420.449,416.514,439.045,383.951z M182.09,44.574
		c-45.066,16.315-81.42,43.693-109.748,83.408c20.494,0,39.783,0.078,59.068-0.158c1.469-0.018,3.499-1.977,4.271-3.528
		c6.061-12.187,11.09-24.957,17.969-36.646C162.301,72.95,172.402,59.104,182.09,44.574z M72.291,383.955
		c28.586,39.806,64.884,67.255,110.153,82.862c-20.028-24.491-35.677-51.367-47.372-80.598c-0.407-1.017-2.092-2.162-3.188-2.169
		C112.436,383.919,92.985,383.955,72.291,383.955z"/>
</g>
</svg>
