<?xml version="1.0" encoding="utf-8"?>
<!-- Generator: Adobe Illustrator 16.0.0, SVG Export Plug-In . SVG Version: 6.00 Build 0)  -->
<!DOCTYPE svg PUBLIC "-//W3C//DTD SVG 1.1//EN" "http://www.w3.org/Graphics/SVG/1.1/DTD/svg11.dtd">
<svg version="1.1" id="Layer_1" xmlns="http://www.w3.org/2000/svg" xmlns:xlink="http://www.w3.org/1999/xlink" x="0px" y="0px"
	 width="525.36px" height="224.517px" viewBox="0 0 525.36 224.517" enable-background="new 0 0 525.36 224.517"
	 xml:space="preserve">
<g>
	<path fill="#231F20" d="M52.442,155.032l-22.944,69.484H0L75.057,3.605h34.415l75.385,220.912h-30.48l-23.599-69.484H52.442z
		 M124.875,132.743l-21.632-63.585c-4.916-14.422-8.192-27.533-11.471-40.315h-0.656c-3.278,13.111-6.883,26.549-11.144,39.986
		L58.34,132.743H124.875z"/>
	<path fill="#231F20" d="M366.746,217.306c-10.489,5.244-31.466,10.488-58.341,10.488c-62.274,0-109.144-39.332-109.144-111.767
		C199.261,46.87,246.131,0,314.633,0c27.531,0,44.903,5.898,52.442,9.833l-6.884,23.271c-10.815-5.243-26.22-9.177-44.576-9.177
		c-51.786,0-86.2,33.104-86.2,91.117c0,54.082,31.139,88.823,84.889,88.823c17.372,0,35.072-3.605,46.543-9.178L366.746,217.306z"/>
	<path fill="#231F20" d="M402.452,3.605h28.513V200.59h94.396v23.927H402.452V3.605z"/>
</g>
</svg>
