<?xml version="1.0" encoding="utf-8"?>
<!-- Generator: Adobe Illustrator 16.0.0, SVG Export Plug-In . SVG Version: 6.00 Build 0)  -->
<!DOCTYPE svg PUBLIC "-//W3C//DTD SVG 1.1 Tiny//EN" "http://www.w3.org/Graphics/SVG/1.1/DTD/svg11-tiny.dtd">
<svg version="1.1" baseProfile="tiny" id="Layer_1" xmlns="http://www.w3.org/2000/svg" xmlns:xlink="http://www.w3.org/1999/xlink"
	 x="0px" y="0px" width="730.063px" height="332.285px" viewBox="0 501.285 730.063 332.285" overflow="scroll"
	 xml:space="preserve">
<g>
	<path fill-rule="evenodd" d="M199.538,755.582c13.964,0,26.296,0,39.105,0c0.506,5.542-0.43,10.977,1.668,14.702
		c3.332,5.912,8.067,14.325,13.311,15.218c12.581,2.146,26.234,2.438,38.579-0.376c6.002-1.368,14.059-11.229,14.292-17.502
		c1.353-36.593,0.664-73.262,0.664-112.434c-7.504,6.846-13.374,12.202-20.337,18.555c-5.994-5.664-11.747-11.104-16.701-15.788
		c18.763-19.386,36.709-37.93,55.002-56.83c17.911,18.371,35.723,36.638,54.61,56.007c-5.229,4.712-11.131,10.035-17.649,15.914
		c-6.065-5.62-12.207-11.309-20.406-18.902c0,38.638,0.229,74.452-0.106,110.259c-0.147,15.479-2.93,30.312-17.176,39.963
		c-0.358,0.241-0.679,0.539-1.04,0.777c-20.055,13.344-87.374,11.371-106.872-3.107
		C201.043,790.575,199.027,774.325,199.538,755.582z"/>
	<path fill-rule="evenodd" d="M164.603,682.241c4.237-3.354,9.969-7.894,16.822-13.323c5.781,5.341,12.174,11.251,20.587,19.025
		c0-26.733-0.074-50.804,0.028-74.872c0.059-13.43-0.25-26.906,0.763-40.275c2.108-27.877,13.036-40.672,40.614-43.098
		c20.101-1.768,40.847-1.333,60.806,1.566c30.08,4.372,43.014,24.365,38.775,55.694c-12.248,0-24.602,0-37.455,0
		c-0.295-4.054-0.094-7.568-0.9-10.834c-1.119-4.547-1.836-9.946-4.738-13.168c-12.878-14.295-30.083-7.675-45.397-7.194
		c-11.927,0.376-18.211,10.782-18.435,21.827c-0.722,35.784-0.27,71.591-0.27,110.61c8.107-7.719,14.17-13.486,20.826-19.821
		c5.488,6.49,10.648,12.591,15.701,18.567c-16.591,16.917-34.391,35.067-52.154,53.184
		C202.03,721.229,184.19,702.647,164.603,682.241z"/>
	<path fill-rule="evenodd" d="M518.891,807.909c-13.558,0-25.627,0.634-37.544-0.43c-3.107-0.279-6.811-5.379-8.415-9.059
		c-8.672-19.882-8.474-19.969-30.464-19.969c-3.904,0-7.849,0.361-11.706-0.059c-22.829-2.494-43.505-1.744-43.487,28.88
		c-15.579,0-28.854,0-43.98,0c10.353-23.712,20.121-46.211,29.998-68.664c9.773-22.209,19.896-44.268,29.343-66.611
		c2.757-6.523,6.229-8.949,13.469-9.049c38.416-0.536,38.362-0.729,53.873,34.454C485.999,733.752,502.13,770.054,518.891,807.909z
		 M408.332,750.827c15.704,0,29.854,0,45.22,0c-7.65-18.959-14.613-36.215-22.84-56.598
		C422.427,715.182,415.521,732.645,408.332,750.827z"/>
	<path fill-rule="evenodd" d="M201.493,807.922c-6.882,0-11.701-0.574-16.339,0.102c-17.914,2.612-30.884-1.457-34.692-21.851
		c-0.586-3.138-6.973-7.187-10.843-7.372c-16.867-0.809-33.817-0.796-50.685-0.003c-3.923,0.184-10.438,4.069-11.012,7.139
		c-3.813,20.416-16.735,24.72-34.795,22.09c-4.631-0.677-9.442-0.102-15.7-0.102c1.35-4.217,2.057-7.353,3.325-10.244
		c18.437-42.024,36.758-84.105,55.754-125.879c1.783-3.921,7.902-5.907,12.094-8.659c0.603-0.396,1.726,0.107,2.56-0.056
		c27.358-5.267,42.658,4.445,52.05,32.333c11.831,35.128,29.548,68.27,44.672,102.292
		C199.08,800.404,199.866,803.281,201.493,807.922z M91.336,751.376c15.903,0,29.827,0,45.637,0
		c-7.653-19.119-14.741-36.827-22.9-57.21C105.921,714.681,98.963,732.188,91.336,751.376z"/>
	<path fill-rule="evenodd" d="M608.996,759.025c-10.856,15.01-20.225,28.521-30.288,41.496c-2.581,3.329-7.223,6.795-11.124,7.052
		c-13.236,0.87-26.564,0.331-42.96,0.331c21.445-26.085,41.086-49.975,61.413-74.696c-18.184-22.634-36.268-45.143-56.235-69.999
		c16.023,0,30.014-0.396,43.944,0.32c2.907,0.15,6.167,3.99,8.301,6.849c8.781,11.782,17.189,23.839,26.846,37.346
		c9.162-12.629,17.155-24.836,26.494-35.911c3.575-4.237,10.012-7.69,15.513-8.329c11.047-1.281,22.349-0.381,37.355-0.381
		c-19.877,24.841-37.727,47.148-56.142,70.164c20.047,24.319,39.77,48.245,61.391,74.475c-17.031,0-31.496,0.396-45.903-0.33
		c-2.912-0.147-6.129-4.158-8.315-7.06C629.418,787.264,619.871,773.933,608.996,759.025z"/>
	<path fill-rule="evenodd" fill="#FFFFFF" d="M408.332,750.827c7.189-18.182,14.095-35.645,22.38-56.598
		c8.227,20.383,15.189,37.639,22.84,56.598C438.185,750.827,424.036,750.827,408.332,750.827z"/>
	<path fill-rule="evenodd" fill="#FFFFFF" d="M91.336,751.376c7.627-19.188,14.584-36.694,22.737-57.21
		c8.159,20.383,15.247,38.091,22.9,57.21C121.163,751.376,107.24,751.376,91.336,751.376z"/>
</g>
</svg>
