<?xml version="1.0" encoding="utf-8"?>
<!-- Generator: Adobe Illustrator 16.0.0, SVG Export Plug-In . SVG Version: 6.00 Build 0)  -->
<!DOCTYPE svg PUBLIC "-//W3C//DTD SVG 1.1 Tiny//EN" "http://www.w3.org/Graphics/SVG/1.1/DTD/svg11-tiny.dtd">
<svg version="1.1" baseProfile="tiny" id="Layer_1" xmlns="http://www.w3.org/2000/svg" xmlns:xlink="http://www.w3.org/1999/xlink"
	 x="0px" y="0px" width="730.063px" height="762.347px" viewBox="0 0 730.063 762.347" overflow="scroll" xml:space="preserve">
<g>
	<path fill-rule="evenodd" fill="#B1B0B0" d="M11.979,132.44c-1.987-5.639,1.725-7.688,6.885-9.495
		C134.374,82.478,249.862,41.956,365.27,1.2c5.891-2.082,10.738-1.194,16.146,0.664C496.411,41.371,611.388,80.925,726.527,120.01
		c8.924,3.029,8.969,7.502,8.051,15.042c-18.334,150.989-36.5,301.997-54.443,453.033c-0.77,6.473-3.513,9.753-8.898,12.725
		c-97.384,53.706-194.692,107.549-291.923,161.537c-4.569,2.537-7.602,3.149-12.661,0.356
		C269.999,709.332,173.183,656.257,76.34,603.228c-5.16-2.825-8.507-5.55-9.31-12.315C49.008,439.081,30.654,287.287,12.364,135.488
		C12.267,134.693,12.162,133.899,11.979,132.44z M371.834,724.999c3.239-1.522,6.578-2.867,9.706-4.595
		c84.421-46.624,168.712-93.483,253.374-139.662c9.44-5.15,12.585-11.421,13.811-21.284
		c16.41-132.265,33.018-264.506,50.008-396.696c1.239-9.64-1.633-13.163-10.363-16.091c-67.899-22.768-135.597-46.131-203.433-69.08
		c-37.494-12.684-75.137-24.92-112.708-37.355c-5.053-0.634-9.361,1.898-13.815,3.478C261.11,78.252,163.921,113.105,66.465,147.205
		c-11.628,4.069-14.845,8.927-13.381,21.209c15.732,131.972,30.909,264.009,45.927,396.063c0.972,8.552,4.463,13.259,11.905,17.326
		c53.383,29.176,106.409,59.008,159.773,88.222C304.347,688.451,337.258,708.262,371.834,724.999z"/>
	<path fill-rule="evenodd" fill="#A5120D" d="M372.223,40.233c37.576,12.438,75.219,24.673,112.713,37.357
		c67.836,22.948,135.533,46.312,203.433,69.08c8.73,2.929,11.603,6.451,10.363,16.091c-16.99,132.19-33.598,264.432-50.008,396.696
		c-1.226,9.863-4.37,16.134-13.811,21.284c-84.662,46.179-168.953,93.038-253.374,139.662c-3.128,1.728-6.467,3.072-9.706,4.593
		c0.097-92.575,0.193-185.148,0.287-277.724l0.157-0.807c31.147,0.162,62.3,0.621,93.445,0.283
		c8.028-0.086,11.891,2.324,15.077,9.838c14.794,34.893,30.317,69.477,45.58,104.17c3.818,5.712,8.038,4.313,12.384,0.699
		c17.183,0.113,34.363,0.184,51.546,0.354c14.91,0.146,14.895,0.202,8.438-13.566c-57.22-122.012-114.366-244.057-171.688-366.022
		c-17.842-37.963-36.15-75.705-54.249-113.548c-0.29-1.143-0.581-2.283-0.875-3.424C372.034,56.911,372.128,48.573,372.223,40.233z"
		/>
	<path fill-rule="evenodd" fill="#DC1B16" d="M372.121,447.273c-0.094,92.575-0.19,185.148-0.287,277.724
		c-34.576-16.734-67.486-36.546-101.145-54.972c-53.364-29.214-106.39-59.046-159.773-88.222
		c-7.441-4.067-10.933-8.774-11.905-17.326C83.992,432.424,68.816,300.386,53.084,168.415c-1.464-12.283,1.753-17.141,13.381-21.209
		c97.457-34.1,194.645-68.953,291.949-103.492c4.454-1.579,8.762-4.111,13.813-3.48c-0.099,8.34-0.192,16.678-0.284,25.021
		c-1.736,3.119-3.718,6.125-5.177,9.366C303.193,215.75,239.656,356.897,176.142,498.052c-9.14,20.311-18.151,40.68-27.344,61.294
		c24.814,0,48.408-0.401,71.979,0.216c8.298,0.218,11.867-2.793,14.728-10.218c12.074-31.348,24.967-62.378,37.071-93.713
		c2.577-6.67,5.888-8.993,13.079-8.859C314.469,447.308,343.298,447.166,372.121,447.273z"/>
	<path fill-rule="evenodd" fill="#F1F0F0" d="M372.121,447.273c-28.823-0.107-57.652,0.035-86.467-0.502
		c-7.19-0.134-10.502,2.189-13.079,8.859c-12.104,31.335-24.997,62.365-37.071,93.713c-2.86,7.425-6.43,10.436-14.728,10.218
		c-23.57-0.617-47.164-0.216-71.979-0.216c9.192-20.614,18.204-40.983,27.344-61.294C239.656,356.897,303.193,215.75,366.765,74.619
		c1.459-3.241,3.44-6.247,5.177-9.366c0.289,1.138,0.58,2.279,0.873,3.426c-0.176,46.366-0.403,92.728-0.477,139.091
		c-0.01,6.817-0.296,13.538-1.932,20.167c-20.88,49.764-41.762,99.531-62.643,149.297c-0.81,2.307,0.314,2.922,2.375,2.716
		c19.299,0.358,38.596,0.717,57.894,1.079c-0.09,0.487-0.033,0.96,0.168,1.413l0.662,0.598l0.798-0.422
		c0.974,0.612,1.945,1.225,2.92,1.837c-0.102,20.67-0.202,41.34-0.303,62.01L372.121,447.273z"/>
	<path fill-rule="evenodd" fill="#B2B1B1" d="M370.407,227.939c1.636-6.629,1.922-13.35,1.932-20.167
		c0.073-46.364,0.301-92.725,0.477-139.091c18.096,37.838,36.404,75.58,54.246,113.543
		c57.321,121.965,114.468,244.01,171.688,366.022c6.456,13.769,6.472,13.712-8.438,13.566c-17.183-0.171-34.363-0.241-51.546-0.354
		c-4.128-0.234-8.256-0.467-12.384-0.699c-15.263-34.693-30.786-69.277-45.58-104.17c-3.187-7.514-7.049-9.924-15.077-9.838
		c-31.146,0.338-62.298-0.121-93.445-0.283c0.101-20.67,0.201-41.34,0.303-62.012c7.143-1.298,15.241,3.079,21.479-3.614
		c16.023-0.271,32.05-0.547,48.072-0.818c7.578-1.814,1.58-4.436,0.401-6.771c-0.619-2.249-0.915-4.654-1.905-6.724
		c-21.031-43.963-42.126-87.894-63.265-131.803c-1.15-2.389-1.57-5.5-4.889-6.258C371.83,228.115,371.142,227.939,370.407,227.939z"
		/>
	<path fill-rule="evenodd" fill="#A40400" d="M526.381,560.758c4.128,0.232,8.256,0.465,12.384,0.699
		C534.419,565.071,530.199,566.469,526.381,560.758z"/>
	<path fill-rule="evenodd" fill="#DB1C17" d="M370.407,227.939c0.735,0,1.423,0.176,2.067,0.528
		c-0.204,49.619-0.41,99.237-0.609,148.854c-1.314,0.776-2.638,1.553-3.961,2.332c-0.078,0.47-0.035,0.93,0.131,1.378
		c-19.299-0.362-38.596-0.721-57.896-1.079c-0.791-0.904-1.584-1.811-2.375-2.716C328.645,327.469,349.527,277.703,370.407,227.939z
		"/>
	<path fill-rule="evenodd" fill="#B4C0C1" d="M394.059,380.841c-6.237,6.693-14.336,2.316-21.479,3.614
		c-0.975-0.61-1.946-1.223-2.917-1.835c-0.47-0.188-0.96-0.246-1.463-0.176c-0.201-0.453-0.258-0.926-0.168-1.413
		c-0.164-0.448-0.207-0.908-0.129-1.378c1.527-0.004,3.06-0.01,4.59-0.012c0.83,0.072,1.659,0.144,2.489,0.216
		C381.344,380.186,387.7,380.514,394.059,380.841z"/>
	<path fill-rule="evenodd" fill="#D90702" d="M307.764,377.236c0.791,0.905,1.584,1.812,2.375,2.716
		C308.079,380.158,306.955,379.543,307.764,377.236z"/>
	<path fill-rule="evenodd" fill="#F3FEFE" d="M368.201,382.444c0.503-0.07,0.993-0.012,1.463,0.176
		c-0.003,0-0.801,0.422-0.801,0.422L368.201,382.444z"/>
	<path fill-rule="evenodd" fill="#A5130E" d="M394.059,380.841c-6.359-0.326-12.716-0.654-19.076-0.983
		c-0.842-0.854-1.687-1.71-2.529-2.567l-0.597,0.033c0.207-49.619,0.413-99.237,0.617-148.856c3.318,0.758,3.738,3.87,4.889,6.258
		c21.139,43.909,42.233,87.84,63.265,131.803c0.99,2.07,1.286,4.475,1.903,6.726c-0.134,2.258-0.266,4.513-0.399,6.769
		C426.109,380.294,410.083,380.569,394.059,380.841z"/>
	<path fill-rule="evenodd" fill="#A40501" d="M442.132,380.022c0.134-2.256,0.266-4.511,0.399-6.769
		C443.712,375.587,449.71,378.208,442.132,380.022z"/>
	<path fill-rule="evenodd" fill="#D90702" d="M372.494,379.641c-1.53,0.002-3.063,0.008-4.59,0.012
		c1.323-0.779,2.646-1.556,3.961-2.332c-0.008,0.002,0.589-0.031,0.589-0.031C372.424,378.074,372.437,378.858,372.494,379.641z"/>
	<path fill-rule="evenodd" fill="#A40501" d="M372.494,379.641c-0.057-0.783-0.07-1.567-0.04-2.352
		c0.843,0.857,1.688,1.713,2.529,2.567C374.153,379.785,373.324,379.714,372.494,379.641z"/>
</g>
</svg>
