<?xml version="1.0" encoding="utf-8"?>
<!-- Generator: Adobe Illustrator 16.0.0, SVG Export Plug-In . SVG Version: 6.00 Build 0)  -->
<!DOCTYPE svg PUBLIC "-//W3C//DTD SVG 1.1//EN" "http://www.w3.org/Graphics/SVG/1.1/DTD/svg11.dtd">
<svg version="1.1" id="Layer_1" xmlns="http://www.w3.org/2000/svg" xmlns:xlink="http://www.w3.org/1999/xlink" x="0px" y="0px"
	 width="1542.83px" height="600px" viewBox="0 0 1542.83 600" enable-background="new 0 0 1542.83 600" xml:space="preserve">
<path fill-rule="evenodd" clip-rule="evenodd" fill="#F5D93E" d="M371.435,466.953c1.982-6.563,4.037-13.104,5.904-19.697
	c0.589-2.078,1.405-3.941,2.825-5.535c11.738-13.182,20.572-28.373,29.911-43.215c15.131-24.043,30.264-48.086,45.391-72.133
	c0.811-1.289,1.763-2.527,2.337-3.92c1.308-3.172-0.02-5.002-3.517-4.977c-3.615,0.025-7.172,0.592-10.67,1.471
	c-4.438,1.115-9.181,1.15-13.421,2.301c-6.051,1.643-12.235,1.982-18.247,3.438c-1.373,0.334-2.297,1.156-2.92,2.475
	c-15.503,32.801-41.721,55.971-69.849,77.35c-6.973,5.301-14.497,9.871-21.711,14.857c-19.776,13.67-39.283,27.746-57.959,42.857
	c-11.581,9.371-24.65,14.109-38.91,16.633c-2.31,0.41-4.79,0.342-7.254,2.252c2.509,1.852,4.354,0.217,6.184-0.061
	c1.817-0.277,3.477-1.52,5.439-1.104c0.504,2.256-1.322,2.715-2.41,3.523c-10.632,7.895-22.835,12.08-35.621,14.773
	c-5.405,1.137-10.85,2.164-16.391,2.416c-1.767,0.078-3.375,0.541-4.916,1.338c-31.289,16.156-64.474,27.406-98.108,37.344
	c-7.109,2.1-11.584,5.441-14.99,12.105c-8.02,15.689-18.908,29.508-30.445,42.785c-0.5,0.574-1.032,1.123-1.563,1.67
	c-1.074,1.109-2.491,1.285-3.666,0.59c-1.307-0.773-0.38-2.098-0.054-3.086c3.159-9.596,6.41-19.119,12.404-27.484
	c3.224-4.498,5.65-9.529,6.536-15.102c0.965-6.076-1.495-8.146-7.333-6.195c-2.314,0.771-4.201,1.607-5.096-1.943
	c-0.432-1.715-2.195-0.654-3.304,0.033c-4.27,2.648-9.025,4.023-13.817,5.303c-1.761,0.471-3.628,1.699-5.146-0.486
	c-1.464-2.107-1.341-4.012,0.043-6.299c10.367-17.125,20.078-34.625,29.471-52.301c33.643-63.305,63.668-128.338,92.469-193.946
	c19.831-45.174,39.512-90.418,58.093-136.128c3.227-7.938,6.337-15.925,8.959-24.097c1.131-3.526,2.05-6.828-0.217-10.317
	c-1.275-1.963-0.875-3.702,1.295-5.318c3.076-2.29,5.049-5.68,7.246-8.797c0.65-0.922,1.467-1.841,1.411-3.061
	c-0.076-1.648-0.326-3.219-2.682-2.272c-1.235,0.497-2.497,0.93-3.75,1.383c-27.825,10.066-53.163,24.714-77.146,41.86
	c-1.24,0.887-2.374,1.982-3.724,2.639c-1.913,0.93-3.908,1.473-5.74-0.482c-0.754-0.804-1.873-1.28-2.854-1.859
	c-2.962-1.748-5.53-1.251-8.357,0.756c-8.583,6.095-16.645,12.765-23.985,20.31c-0.523,0.538-1.124,1-1.877,1.664
	c-2.275-1.343-3.067-3.692-4.394-5.626c5.346-3.988,5.346-3.988,4.145-8.269c-3.917,1.79-6.654,4.99-9.86,7.544
	c-0.969,0.772-1.877,2.361-3.337,1.118c-1.463-1.246-0.871-2.721,0.16-4.051c4.351-5.615,9.116-10.755,15.449-14.241
	c4.474-2.463,9.133-3.405,14.249-1.563c-0.116-0.939-0.103-1.141-0.168-1.315c-0.701-1.896-4.163-3.207-2.749-5.043
	c1.394-1.811,4.425-2.553,7.157-2.263c0.915,0.097,1.811,0.576,2.743,0.112c0.024-3.637,0.001-3.669,2.909-5.743
	c10.56-7.529,21.183-14.98,31.221-23.203c2.4-1.966,5.447-3.583,6.101-7.055c-1.222-1.033-2.302-0.789-3.372-0.234
	c-0.833,0.432-1.929,1.272-2.568,0.403c-3.086-4.2-6.163-0.524-9.246-0.142c-2.024-2.878,0.03-4.017,2.152-5.197
	c11.166-6.212,22.099-12.813,32.821-19.76c4.641-3.006,9.401-5.878,13.756-9.263c6.113-4.752,12.938-7.863,20.135-10.522
	c31.646-11.701,63.607-22.347,96.567-29.778c14.147-3.189,28.418-5.638,42.848-7.053c7.054-0.692,14.108,0.344,21.147,0.731
	c19.069,1.048,38.061,3.006,56.289,9.063c17.116,5.687,32.786,14.412,47.231,25.121c10.999,8.154,19.002,18.728,22.068,32.415
	c1.896,8.461,1.794,16.975,0.683,25.588c-1.613,12.506-3.714,24.858-7.963,36.786c-3.904,10.957-9.54,20.478-18.802,28.061
	c-13.13,10.751-25.625,22.282-38.326,33.553c-2.729,2.423-5.623,4.532-8.792,6.326c-4.484,2.539-8.78,5.379-12.835,8.566
	c-2.408,1.891-4.695,3.928-6.484,6.428c-2.589,3.619-2.511,4.541,0.424,7.927c7.997,9.227,16.054,18.402,23.98,27.687
	c3.961,4.641,7.89,9.357,10.704,14.811c1.034,2.003,2.238,2.277,4.124,1.686c3.845-1.206,7.485-1.593,11.473,0.311
	c2.455,1.171,5.642,0.332,8.423-0.499c10.556-3.156,21.458-4.804,32.144-7.393c4.228-1.025,8.153-2.72,12.088-4.452
	c-0.634-1.5-1.438-1.092-2.086-1.083c-0.964,0.015-1.991,0.12-2.196-1.146c-0.165-1.019,0.34-1.847,1.172-2.435
	c1.124-0.797,2.464-0.939,3.764-1.248c4.26-1.011,8.537-1.978,12.745-3.182c7.742-2.215,13.887-6.766,19.273-12.74
	c4.495-4.987,8.735-10.038,11.833-16.037c1.034-2.001,2.654-3.725,4.133-5.466c20.354-23.974,38.499-49.699,58.914-73.652
	c20.29-23.806,38.863-49.025,57.74-73.973c10.934-14.45,21.723-29.007,31.897-44.009c0.627-0.924,1.081-2.03,2.199-2.533
	c0.309,0.164,0.874,0.347,0.862,0.473c-0.768,7.715,4.857,11.63,9.799,15.552c3.493,2.773,4.925,5.206,4.317,9.95
	c-2.935,22.901-7.218,45.538-12.229,68.054c-0.988,4.44-2.007,8.874-3.348,14.79c5.917-4.326,10.898-8.188,17.516-6.488
	c0.167-1.847-1.369-2.564-1.471-4.018c0.113-0.146,0.285-0.461,0.539-0.684c1.977-1.737,4.534-1.071,6.801-1.618
	c-0.417-2.799,1.655-3.842,3.495-5.178c7.408-5.378,14.787-10.795,22.103-16.296c1.904-1.432,3.942-2.884,5.016-5.585
	c-2.181-1.075-4.851,0.985-6.347-1.472c-0.149-0.246-1.055-0.078-1.602-0.024c-1.391,0.137-3.176,2.352-3.959,0.632
	c-1.118-2.456,1.869-2.837,3.337-3.69c13.199-7.662,26.18-15.658,38.656-24.462c1.386-0.979,2.915-1.838,4.496-2.444
	c29.021-11.108,58.408-20.934,88.915-27.325c18.609-3.898,37.1-3.61,55.736-1.204c6.996,0.903,13.936,2.109,20.764,3.926
	c15.332,4.081,28.977,11.651,41.616,20.928c12.786,9.385,18.633,22.396,17.394,38.311c-0.996,12.771-2.985,25.362-7.955,37.302
	c-2.676,6.429-6.375,12.003-11.892,16.5c-7.833,6.386-15.343,13.173-22.929,19.86c-5.581,4.919-11.152,9.811-17.662,13.539
	c-3.475,1.991-6.688,4.43-9.419,7.404c-3.391,3.693-3.405,4.908-0.086,8.67c7.194,8.156,14.202,16.465,21.162,24.822
	c4.682,5.623,5.844,11.683,4.998,18.625c-1.386,11.377-5.333,21.798-11.33,31.477c-9.46,15.27-22.013,27.747-35.691,39.178
	c-6.588,5.506-13.419,10.678-20.597,15.422c-18.311,12.1-35.894,25.223-53.165,38.744c-6.477,5.072-13.604,8.299-21.478,10.215
	c-1.499,0.363-3.294,0.086-3.447,2.762c-0.11,1.939-2.511,2.695-4.079,3.713c-10.152,6.59-21.558,9.523-33.376,10.941
	c-4.063,0.488-7.738,1.559-11.388,3.365c-23.471,11.627-48.26,19.779-73.264,27.293c-3.589,1.078-5.846,2.703-7.549,6.051
	c-6.348,12.48-14.701,23.609-23.852,34.158c-0.625,0.719-1.181,1.547-1.938,2.088c-0.76,0.543-1.805,0.787-2.648,0.172
	c-0.72-0.527-0.456-1.398-0.206-2.105c2.471-7.004,4.805-14.049,9.217-20.195c2.785-3.881,5.196-8.041,5.542-12.975
	c0.282-4.027-1.117-5.219-5.106-4.24c-1.854,0.453-3.412,1.637-4.709-1.01c-0.648-1.322-1.996-0.229-2.939,0.313
	c-3.007,1.723-6.304,2.693-9.6,3.625c-1.378,0.389-2.934,1.033-4.131-0.639c-1.197-1.674-0.871-3.191,0.198-4.727
	c0.218-0.313,0.417-0.639,0.61-0.969c28.156-47.869,52.141-97.852,75.079-148.36c22.056-48.567,43.363-97.459,63.139-147.007
	c1.481-3.712,2.739-7.514,4.059-11.289c1.011-2.895,1.981-5.75,0.261-8.812c-0.831-1.477-0.188-2.85,1.15-3.996
	c2.486-2.13,4.291-4.848,6.006-7.604c0.512-0.821,0.747-1.804-0.125-2.583c-0.641-0.572-1.428-0.389-2.145-0.102
	c-5.835,2.333-11.752,4.487-17.481,7.058c-15.359,6.892-29.73,15.526-43.363,25.373c-3.008,2.172-5.53,3.718-8.943,0.569
	c-2.24-2.067-4.735-1.322-7.222,0.494c-6.792,4.958-12.978,10.59-18.828,16.446c-1.413-0.474-1.831-1.596-2.504-2.469
	c-1.001-1.298-1.097-2.503,0.655-3.14c2.461-0.896,2.399-2.561,1.601-4.857c-4.399,2.095-7.49,4.801-8.625,9.814
	c-5.76,25.453-11.731,50.857-17.63,76.279c-1.125,4.845-1.111,4.797,3.375,6.344c2.303,0.794,4.836,1.115,7.102,3.199
	c-1.575,2.571-4.114,3.578-6.711,4.534c-1.5,0.552-3.049,1.124-1.457,3.158c1.314,1.68-0.241,2.395-1.222,3.13
	c-3.236,2.427-6.042,5.258-8.352,8.569c-2.2,3.153-3.949,6.568-4.806,10.308c-5.235,22.858-12.739,45.062-19.52,67.468
	c-15.944,52.684-32.589,105.145-51.53,156.848c-6.094,16.635-12.509,33.146-19.762,49.316c-0.816,1.818-1.21,3.986-3.563,5.619
	c-1.714-5.631-3.148-10.463-0.822-16.398c10.032-25.596,16.637-52.238,22.805-78.973c1.165-5.051,2.957-9.836,4.753-14.648
	c0.725-1.943,1.871-3.836,0.727-6.045c-2.264-0.236-2.755,1.721-3.525,3.105c-2.229,4.01-3.926,8.287-5.144,12.688
	c-4.163,15.045-10.625,29.334-14.343,44.535c-2.802,11.451-7.675,22.313-10.057,33.91c-0.219,1.064-0.744,2.383-1.564,2.951
	c-3.46,2.398-3.931,5.932-3.923,9.611c0.005,2.748-0.655,5.24-1.802,7.699c-1.345,2.887-3.394,4.355-6.682,4.432
	c-2.099,0.049-5.438-1.156-4.925,3.188c-2.536,1.176-5.002,2.908-8.188,0.859c1.825-11.168,4.402-22.275,7.177-33.33
	c4.874-19.412,11.292-38.338,17.752-57.279c6.821-19.996,13.069-40.227,18.542-60.629c3.258-12.146,7.248-24.074,10.302-36.248
	c5.843-23.285,14.996-45.602,19.9-69.148c1.286-6.17,2.468-12.356,2.496-18.67c0.016-3.672-0.5-4.065-3.987-3.264
	c-19.498,4.482-38.933,9.21-57.671,16.367c-2.485,0.949-4.896,2.132-7.25,3.379c-3.049,1.615-5.978,3.37-6.95,7.131
	c-0.269,1.037-1.189,1.932-1.883,2.834c-29.636,38.584-57.239,78.641-85.554,118.182c-11.995,16.748-23.919,33.553-37.094,49.414
	c-1.402,1.689-2.675,3.58-5.041,4.988c-1.449-4.215,0.652-6.484,3.664-8.648c-2.781-1.846-5.523-0.869-7.99-1.35
	c-1.585-0.309-1.614,1.137-1.964,2.203c-0.979,2.979-2.662,5.523-5.319,7.223c-1.357,0.869-2.267,1.092-3.104-1.271
	c-1.72-4.855-1.217-9.473,0.287-14.291c-3.116-1.166-5.067,2.363-7.757,1.246L371.435,466.953z M92.475,480.73
	c2.143,0.826,4.15,0.203,6.187-0.26c5.964-1.354,11.705-3.391,17.331-5.736c37.352-15.566,72.731-35.049,107.853-54.965
	c13.741-7.793,26.708-16.953,40.004-25.525c1.919-1.236,3.757-2.611,5.549-4.029c13.613-10.762,27.196-21.564,40.814-32.32
	c2.538-2.006,5.032-4.148,7.829-5.727c4.773-2.689,8.558-6.361,11.768-10.678c7.479-10.057,12.273-21.477,16.322-33.203
	c1.918-5.557,0.325-9.31-4.438-12.817c-3.864-2.846-8.076-5.025-12.573-6.682c-8.704-3.207-17.776-4.408-26.956-4.342
	c-12.407,0.088-24.527,1.361-36.27,6.385c-12.051,5.157-24.633,9.114-37.086,13.282c-17.354,5.809-34.932,10.887-53.156,13.111
	c-3.182,0.389-4.614,1.658-5.895,4.248c-6.837,13.832-13.846,27.58-20.711,41.398c-18.22,36.674-36.785,73.18-53.935,110.377
	C94.017,475.619,92.45,477.891,92.475,480.73z M395.907,92.145c0.041,0.703,0.075,1.274,0.108,1.845
	c0.065,1.132,0.307,2.425-1.244,2.726c-1.844,0.358-2.111-0.983-2.43-2.376c-1.693-7.398-6.692-11.739-13.51-14.283
	c-2.132-0.796-4.328-1.499-6.553-1.957c-11.724-2.414-23.539-1.909-35.31-0.59c-8.706,0.976-17.351,2.484-26.025,3.742
	c-1.679,0.244-3.559,0.819-3.705-1.933c-0.144-2.704-1.894-2.785-4.02-2.604c-6.501,0.555-12.77,2.122-18.911,4.223
	c-5.428,1.856-10.19,4.448-11.078,10.973c-0.123,0.908-0.722,1.752-1.108,2.622c-12.668,28.547-25.328,57.098-38.028,85.632
	c-0.765,1.719-1.346,3.55-2.8,4.935c-3.136,2.988-4.618,6.94-6.039,10.893c-2.001,5.566-3.444,11.294-4.549,17.095
	c-0.755,3.962-1.883,7.679-4.099,11.14c-2.465,3.849-4.398,8.024-5.64,12.456c-0.977,3.49-1.858,7.018-1.33,10.7
	c0.187,1.297,0.188,2.959,1.901,3.106c3.655,0.313,7.125,1.729,11.022-0.333c6.039-3.196,12.493-5.63,18.835-8.229
	c20.777-8.512,41.155-18.08,62.97-23.865c1.25-0.332,2.423-1.087,3.53-1.804c8.962-5.803,17.919-11.628,26.392-18.132
	c9.228-7.082,18.302-14.371,25.016-24.079c0.895-1.293,1.931-2.317,3.475-2.796c4.333-1.346,7.59-4.29,10.742-7.361
	c7.416-7.226,13.362-15.637,19.436-23.959c3.201-4.386,6.008-8.793,5.39-14.553c-0.079-0.741,0.113-1.518,0.224-2.272
	c0.162-1.105,0.886-1.613,1.946-1.707c1.005-0.088,1.896,0.04,2.233,1.206c0.105,0.366,0.184,0.764,0.388,1.072
	c2.261,3.402,3.381,3.487,5.816,0.032c1.748-2.479,3.372-5.104,4.643-7.853c3.485-7.537,2.161-14.481-3.165-20.716
	c-2.245-2.628-5.001-4.674-7.88-6.575c-1.86-1.227-3.94-2.098-5.889-1.029C394.874,88.518,396.192,90.671,395.907,92.145z
	 M706.092,392.416c4.036-0.127,7.594-1.271,11.149-2.506c13.891-4.82,27.005-11.375,40.052-18.053
	c11.523-5.896,22.895-12.092,34.363-18.1c17.074-8.947,33.271-19.334,48.841-30.633c13.559-9.84,25.762-21.459,39.648-30.911
	c2.066-1.404,3.692-3.3,5.216-5.264c5.916-7.63,9.648-16.395,12.797-25.396c1.67-4.776,0.343-7.658-3.887-10.725
	c-3.273-2.374-6.841-4.297-10.707-5.293c-14.686-3.787-29.329-4.117-43.762,1.326c-3.204,1.209-6.371,2.518-9.59,3.688
	c-20.222,7.349-40.467,14.65-61.945,17.513c-2.414,0.321-3.077,1.806-3.929,3.508c-3.582,7.149-7.215,14.274-10.785,21.429
	c-15.383,30.834-31.106,61.502-45.592,92.776C707.047,387.75,705.605,389.641,706.092,392.416z M935.701,100.372
	c-1.085,0.008-1.603-0.186-1.765-0.825c-2.343-9.203-9.376-12.265-17.749-13.698c-7.592-1.299-15.194-1.153-22.782-0.258
	c-6.996,0.826-13.952,1.971-20.935,2.919c-1.229,0.167-3.172,0.908-3.429-0.833c-0.553-3.739-3.123-2.726-5.166-2.452
	c-2.627,0.353-5.182,1.216-7.783,1.788c-6.872,1.511-11.345,4.79-14.298,12.009c-8.858,21.657-18.839,42.855-28.394,64.227
	c-0.542,1.214-0.952,2.604-1.828,3.53c-4.119,4.359-5.606,9.886-6.996,15.421c-1.664,6.633-3.154,13.253-6.788,19.239
	c-2.182,3.593-3.056,7.783-3.224,12.031c-0.104,2.638,0.699,4.227,3.869,4.308c2.37,0.062,4.443-0.262,6.608-1.166
	c20.354-8.508,40.304-18.067,61.659-24.008c0.895-0.249,1.742-0.77,2.525-1.294c10.13-6.781,20.275-13.495,29.419-21.674
	c6.011-5.377,10.369-12.665,18.159-16.016c8.806-9.831,19.357-18.494,21.585-32.693c0.336-2.143,1.464-2.322,3.036-0.723
	c3.095,3.149,3.104,3.156,5.406-0.355c1.468-2.237,2.671-4.593,3.422-7.189c2.13-7.364-3.808-17.605-11.282-19.319
	c-1.524-0.35-2.613,0.066-2.741,1.886C936.107,96.981,936.963,98.937,935.701,100.372z M111.849,500.365
	c3.896-0.354,6.508-0.592,9.121-0.824c1.194-0.107,2.276-0.105,2.491,1.51c0.192,1.447-0.598,2.105-1.778,2.477
	c-0.906,0.283-1.858,0.418-2.768,0.691c-6.191,1.873-12.56,3.324-18.508,5.789c-4.942,2.049-9.527,3.324-14.633,1.08
	c-0.829-0.365-1.88-0.238-2.83-0.313c-8.049-0.633-14.259,4.605-15.113,12.686c-0.167,1.588-0.35,3.229,1.404,3.936
	c3.677,1.484,7.238,3.166,11.427,0.977c18.079-9.453,37.035-16.938,55.923-24.568c1.754-0.709,3.808-1.232,5.072-2.494
	c3.495-3.488,7.886-5.33,12.215-7.236c12.2-5.369,24.736-9.887,37.314-14.289c2.13-0.746,4.3-1.385,6.122-2.951
	c4.206-3.617,9-6.408,13.772-9.191c13.005-7.584,26.42-14.393,39.898-21.086c6.899-3.426,12.678-8.408,18.361-13.498
	c1.785-1.6,3.073-3.406,1.166-6.26c-1.613,0.904-3.238,1.775-4.825,2.711c-21.007,12.375-42.026,24.736-63.496,36.301
	c-14.416,7.764-28.792,15.658-44.246,21.238c-4.323,1.563-8.448,3.186-11.971,6.266c-1.839,1.609-4.107,2.744-6.244,3.984
	c-1.072,0.623-2.236,0.404-3.196-0.381c-1.016-0.832-1.01-1.992-0.756-3.141c0.392-1.768,1.543-3.033,2.918-4.107
	c2.31-1.807,5.075-2.484,7.824-3.313c1.802-0.541,4.08,0.002,5.801-1.895C146.409,483.164,122.386,492.504,111.849,500.365z
	 M629.692,178.526c0,0.104,0.037-0.661-0.009-1.421c-0.078-1.306,0.09-2.712-1.68-3.201c-1.504-0.416-2.594,0.02-3.463,1.245
	c-0.331,0.466-0.707,0.9-1.052,1.356c-12.635,16.74-25.461,33.338-37.435,50.568c-1.086,1.564-2.278,3.094-3.102,4.794
	c-1.987,4.105-0.251,6.76,4.204,6.558c3.666-0.167,7.07-1.437,10.462-2.709c1.6-0.601,3.254-1.832,4.791-1.699
	c8.534,0.735,12.588-4.954,16.243-11.07c2.156-3.609,3.271-7.707,3.899-11.879c0.824-5.468,2.125-10.8,3.866-16.057
	C628.093,189.948,629.465,184.781,629.692,178.526z M721.981,406.635c1.516,0,3.032-0.023,4.547,0.008
	c0.897,0.02,2.105-0.367,2.473,0.768c0.515,1.588-0.942,1.867-1.959,2.18c-4.549,1.396-9.241,2.416-13.657,4.143
	c-4.539,1.777-8.739,2.584-13.729,1.338c-6.407-1.604-11.761,2.715-12.665,9.045c-0.201,1.402-0.234,2.697,1.318,3.377
	c2.805,1.229,5.52,2.447,8.664,0.668c17.225-9.756,36.674-14.729,53.665-25.109c5.611-3.43,12.171-5.393,18.436-7.641
	c8.252-2.961,16.145-6.375,23.55-11.273c10.323-6.83,21.57-12.143,32.679-17.617c5.196-2.563,9.572-6.223,13.885-9.979
	c1.534-1.338,3.236-2.775,1.408-5.561c-3.966,2.314-7.879,4.588-11.784,6.877c-20.384,11.941-40.767,23.875-62.063,34.174
	c-7.982,3.861-17.074,5.514-23.815,11.896c-0.964,0.914-2.289,1.512-3.608,0.416c-1.313-1.09-0.906-2.289-0.234-3.572
	c0.443-0.848,1.82-1.564,0.393-3.096C733.375,399.762,727.407,402.373,721.981,406.635z M390.861,44.887
	c-0.046,0.403-0.091,0.807-0.137,1.21c16.824,7.018,33.639,14.06,50.483,21.032c2.909,1.204,4.809-0.204,4.5-3.342
	c-0.249-2.519-1.519-4.682-3.316-6.491c-2.457-2.472-5.408-4.212-8.623-5.444C419.927,46.547,405.396,45.689,390.861,44.887z
	 M933.18,60.973c-0.048,0.426-0.097,0.852-0.146,1.277c12.233,5.164,24.463,10.337,36.706,15.477
	c1.002,0.42,2.146,1.113,3.179,0.167c1.277-1.17,1.34-2.725,0.731-4.216c-1.294-3.179-3.843-5.199-6.845-6.548
	C956.073,62.303,944.603,61.748,933.18,60.973z M34.786,530.451c-0.526-0.992-0.819-1.637-1.192-2.23
	c-0.984-1.572-2.251-2.645-4.25-1.939c-1.943,0.684-3.139,1.898-3.251,4.164c-0.199,4.045,0.558,5.01,4.742,5.783
	c1.866,0.344,3.703,0.879,5.527,1.414c4.48,1.318,6.605,0.639,9.191-3.227c2.049-3.064,3.053-6.533,3.527-10.158
	c0.212-1.627,0.92-3.221-1.386-4.318c-2.272-1.08-3.563-0.246-4.914,1.322C40.186,524.273,37.564,527.26,34.786,530.451z
	 M662.591,429.188c-1.03,0.121-1.084-0.516-1.367-0.926c-0.939-1.357-2.034-2.229-3.823-1.414c-1.711,0.777-1.841,2.184-1.815,3.793
	c0.035,2.133,0.433,3.672,3.128,3.611c1.275-0.029,2.574,0.582,3.848,0.947c4.072,1.174,5.93,0.486,7.948-3.119
	c1.22-2.18,1.812-4.598,2.256-7.031c0.241-1.318,0.339-2.705-1.33-3.332c-1.47-0.553-2.55-0.029-3.496,1.119
	C666.134,425.029,664.28,427.188,662.591,429.188z M572.999,248.929c3.024-0.151,5.499,0.339,7.417-0.478
	c8.053-3.429,16.641-5.053,24.878-7.823c1.256-0.423,2.547-0.768,3.743-1.32c0.368-0.17,0.679-0.923,0.65-1.387
	c-0.049-0.801-0.592-1.396-1.494-1.338c-0.556,0.036-1.101,0.237-1.652,0.357c-9.073,1.975-18.077,4.227-26.801,7.433
	C577.505,245.195,575.062,245.903,572.999,248.929z M450.968,106.953c-0.355-9.412-5.547-19.03-10.871-20.787
	C439.948,91.522,445.306,102.043,450.968,106.953z M571.532,279.388c-0.604-2.34-1.509-3.237-3.413-2.268
	c-6.864,3.496-14.484,4.299-21.806,6.169c-1.303,0.333-3.012,0.226-3.656,1.969c1.089,1.741,2.755,1.45,4.123,1.08
	C555.047,284.098,563.278,281.722,571.532,279.388z M939.601,243.142c0.536,6.054,1.074,12.118,1.625,18.332
	c2.825-0.468,3.949-2.225,4.109-4.001c0.355-3.957,0.13-7.982-0.917-11.842C943.88,243.649,942.339,242.546,939.601,243.142z
	 M92.605,437.828c4.33-4.152,6.062-8.631,7.308-18.32C93.7,424.156,91.538,429.307,92.605,437.828z M374.419,251.445
	c1.288-0.242,2.299-0.71,2.786-1.898c0.397-0.969,0.375-2.034-0.521-2.575c-2.749-1.656-5.188-4.018-8.528-4.429
	c-1.937-0.238-3.467,0.421-2.859,2.906c0.225,0.917,0.253,2.36,0.819,2.633C368.83,249.39,371.698,250.379,374.419,251.445z
	 M414.461,320.561c5.209-0.076,10.182-1.248,15.287-1.258c1.991-0.004,3.531-1.221,5.021-2.406c0.612-0.488,1.08-1.086,0.867-1.92
	c-0.327-1.279-1.432-1.139-2.285-0.955C426.803,315.424,420.433,317.381,414.461,320.561z M332.691,278.173
	c2.755,4.244,6.406,6.804,11.188,7.811c0.913,0.192,1.937,0.412,2.507-0.58c0.507-0.88,0.215-1.825-0.263-2.671
	C343.96,278.896,338.273,276.867,332.691,278.173z M969.742,92.329c0.466,6.28,3.666,11.148,8.063,15.398
	C976.703,101.776,975.628,95.811,969.742,92.329z M753.36,392.563c0.18-0.018,0.387,0.016,0.538-0.061
	c6.385-3.256,12.709-6.645,19.596-8.781c0.453-0.139,0.627-0.514,0.395-0.924c-0.264-0.463-0.535-1.072-0.963-1.266
	c-1.711-0.773-2.854,0.393-3.994,1.391c-3.95,3.453-8.599,5.391-13.695,6.389c-0.916,0.182-1.868,0.346-2.692,0.746
	c-0.288,0.139-0.375,0.982-0.315,1.475C752.298,392.08,752.667,392.566,753.36,392.563z M711.087,346.076
	c-3.765,3.309-6.447,7.146-5.1,13.357C710.167,355.475,710.239,350.662,711.087,346.076z M922.22,215.518
	c-0.277-0.355-0.529-0.9-0.955-1.181c-1.583-1.04-3.181-2.071-4.857-2.946c-1.001-0.522-2.321-0.822-3.039,0.344
	c-0.722,1.172-0.797,2.881,0.372,3.614c1.881,1.178,3.967,2.248,6.25,2.425C921.235,217.871,922.041,216.988,922.22,215.518z
	 M581.714,276.432c5.937-1.825,11.873-3.651,17.809-5.477C593.179,270.037,585.919,272.115,581.714,276.432z M167.575,475.273
	c-4.186,0.391-8.109,1.703-12.211,2.314c-1.56,0.232-1.589,1.414-1.347,2.592c0.341,1.664,1.601,1.48,2.628,0.953
	C160.322,479.246,163.937,477.236,167.575,475.273z M888.242,238.066c2.037,3.424,4.873,5.289,8.554,5.983
	c0.739,0.14,1.603,0.074,1.826-0.823c0.124-0.496-0.017-1.167-0.271-1.628C896.814,238.826,892.729,237.334,888.242,238.066z
	 M198.533,157.91c1.559-1.821,3.044-3.71,4.692-5.446c2.72-2.868,2.764-2.826-0.284-7.945
	C203.007,150.284,198.047,152.67,198.533,157.91z M414.56,313.479c5.594-0.775,11.184-1.563,16.382-3.984
	C423.447,309.449,417.642,310.846,414.56,313.479z M169.365,473.537c4.096-0.957,7.753-2.447,11.552-3.535
	c0.897-0.256,1.999-0.504,1.631-1.781c-0.266-0.926-1.05-1.549-2.036-1.795c-1.201-0.301-2.188,0.072-3.145,0.842
	C174.729,469.395,172.036,471.453,169.365,473.537z M174.889,208.343c5.149-0.439,5.62-4.028,6.454-7.265
	c0.275-1.067,0.476-2.325-1.156-2.591c-1.198-0.196-2.475,0.017-2.629,1.393C177.244,202.681,175.524,205.026,174.889,208.343z
	 M91.158,497.236c-2.852-1.148-5.495-0.746-7.963,0.656c-0.786,0.445-1.501,1.297-0.95,2.371c0.41,0.797,1.259,0.691,1.991,0.58
	C86.863,500.445,89.16,499.32,91.158,497.236z M203.841,268.072c0.844,0,1.228,0.052,1.593-0.009
	c1.521-0.253,3.794,0.487,3.715-2.179c-0.084-2.85-2.25-1.708-3.779-1.669c-0.374,0.009-0.747,0.076-1.118,0.131
	c-1.417,0.208-3.246-0.071-2.978,2.284C201.504,268.649,203.116,267.986,203.841,268.072z M164.778,224.865
	c2.963,1.388,4.626,1.525,5.698-0.138c1.187-1.842,2.919-3.485,2.893-5.917c-0.003-0.241-0.454-0.558-0.761-0.697
	c-0.677-0.304-1.192,0.188-1.27,0.698C170.862,221.958,168.905,223.749,164.778,224.865z M162.337,246.096
	c2.113-3.243,2.009-5.863,2.192-8.416c0.082-1.149-0.433-1.758-1.584-1.751c-1.007,0.006-1.973,0.326-1.885,1.507
	C161.245,239.948,160.769,242.58,162.337,246.096z M401.751,290.585c1.254-2.227,3.75-1.535,4.537-3.943
	c-1.558-1.459-3.115-2.852-5.513-2.98C400.39,285.863,400.417,287.694,401.751,290.585z M768.205,185.381
	c4.421-0.669,4.401-3.617,4.999-6.122c0.15-0.632-0.231-1.094-0.764-1.336c-0.78-0.355-1.716-0.163-1.987,0.532
	C769.648,180.515,769.066,182.661,768.205,185.381z M539.201,542.371c-0.285-1.588-1.051-2.713-2.924-2.719
	c-1.748-0.004-2.183,1.096-2.294,2.576c-0.093,1.238-0.083,2.469,1.604,2.111C536.899,544.063,538.805,544.625,539.201,542.371z
	 M83.736,149.019c-2.761-0.762-4.929-0.174-7.053,0.039c-1.195,0.12-1.389,1.064-1.287,2.087c0.123,1.23,1.03,1.69,1.965,1.329
	C79.365,151.699,81.625,151.313,83.736,149.019z M185.428,185.079c-1.205,2.498-0.99,4.884,0.841,8.221
	C187.206,189.742,186.607,187.402,185.428,185.079z M217.702,297.873c4.667,1.23,4.667,1.23,8.58-1.121
	C223.246,296.533,220.639,296.251,217.702,297.873z M758.858,213.262c1.638-1.951,1.143-3.948,1.593-5.705
	c0.221-0.86-0.436-1.374-1.267-1.41c-0.799-0.033-1.488,0.291-1.455,1.243C757.792,209.189,757.415,211.071,758.858,213.262z
	 M792.095,227.238c-1.199,0.5-3.544-0.502-3.588,2.117c-0.022,1.324,1.271,1.229,2.109,1.053c1.283-0.27,3.217,0.75,3.662-1.388
	C794.576,227.598,793.65,227.026,792.095,227.238z M443.147,313.406c2.363,3.105,4.739,1.719,6.919,1.301
	c0.279-0.053,0.642-0.955,0.542-1.361c-0.112-0.459-0.633-0.996-1.097-1.162C447.402,311.428,445.595,312.561,443.147,313.406z
	 M488.216,269.723c2.674,0.932,4.565,0.596,6.443,0.445c0.822-0.067,1.447-0.529,1.373-1.433c-0.069-0.833-0.714-1.607-1.462-1.397
	C492.67,267.87,490.5,267.77,488.216,269.723z M699.187,140.739c-1.943-1.524-3.446-0.831-4.863-0.77
	c-0.992,0.043-1.862,0.528-1.393,1.801c0.416,1.13,1.244,1.187,2.236,0.73C696.343,141.959,697.536,141.459,699.187,140.739z
	 M86.327,449.568c1.648-0.393,2.546-1.42,2.545-3.102c-0.001-0.818,0.366-2.066-1.025-2.066c-1.845,0.002-2.46,1.371-2.59,2.961
	C85.185,448.248,85.14,449.232,86.327,449.568z M776.415,167.173c-1.114,1.274-0.936,2.411-0.735,3.468
	c0.144,0.759-0.272,1.956,1.392,2.089C777.528,170.9,777.583,169.204,776.415,167.173z M702.867,365.916
	c0.003-0.588-0.103-1.295-0.734-1.332c-1.455-0.088-1.891,1.002-2.002,2.193c-0.07,0.742,0.08,1.828,0.956,1.701
	C702.325,368.301,702.846,367.172,702.867,365.916z M406.87,297.084c-1.366-0.043-3.094-0.918-3.915,1.313
	C404.799,299.015,405.927,298.307,406.87,297.084z"/>
<path fill-rule="evenodd" clip-rule="evenodd" fill="#F5D93E" d="M1450.287,342.195c-4.719,2.332-7.459,6.146-12.552,4.146
	c-2.172-0.854-4.435,0.281-7.013,0.939c1.441,3.055,4.4,3.256,6.249,3.098c8.286-0.707,16.532-1.955,24.933-4.354
	c-2.283-2.301-4.689-1.357-6.761-1.881c-1.322-0.336-3.6,0.092-3.479-2.068c0.131-2.361,2.27-1.402,3.616-1.359
	c1.513,0.047,3.079,0.227,4.509,0.693c1.686,0.553,3.46,0.488,4.964,0.148c7.186-1.625,14.543-1.498,21.789-2.436
	c2.154-0.277,4.739-0.9,5.387,2.51c0.146,0.768,1.098,1.146,1.854,1.01c4.244-0.771,8.649,0.838,12.86-1.223
	c3.264-1.598,6.964-1.854,10.573-2.254c2.153-0.24,3.38,0.717,3.489,2.725c0.13,2.371-1.36,2.883-3.4,2.289
	c-0.764-0.223-1.482-0.217-2.189,0.18c-6.149,3.443-12.858,3.014-19.539,2.865c-1.174-0.027-2.944-0.584-2.744,1.697
	c0.15,1.707,1.387,2.234,2.838,2.082c6.063-0.641,12.122-1.332,18.172-2.094c1.112-0.141,2.168-0.779,3.344-0.496
	c1.719,0.414,3.076,0.611,2.408,3.313c-1.213,4.908-3.292,7.703-8.818,8.768c-22.453,4.326-44.826,9.121-67.614,11.342
	c-8.718,0.85-17.523,0.875-26.294,1.096c-6.383,0.16-12.547,1.543-18.754,2.373c-0.066,2.016,1.187,1.594,1.931,1.551
	c9.506-0.535,19.034-0.68,28.511-1.793c2.629-0.311,5.33-0.055,7.997,0.016c1.089,0.029,1.736,0.713,1.726,1.822
	c-0.01,1.025-0.873,1.1-1.608,1.18c-17.746,1.955-35.164,5.986-52.834,8.367c-7.242,0.975-14.598,1.627-21.781,2.746
	c-9.44,1.471-18.915,2.184-28.374,3.223c-3.03,0.332-6.084,0.48-9.132,0.605c-1.156,0.049-2.464-0.223-2.222-1.816
	c0.214-1.402,1.361-1.398,2.615-1.441c6.321-0.211,12.653-0.467,18.832-2.006c0.963-0.24,2.67-0.109,2.268-1.797
	c-0.402-1.689-1.82-1.635-3.204-1.072c-0.881,0.357-1.735,0.824-2.65,1.037c-0.695,0.162-1.569,0.135-1.777-0.855
	c-0.23-1.102,0.673-1.217,1.384-1.352c1.623-0.307,3.425-0.025,5.089-1.65c-2.494-1.244-4.888-1.477-7.248-1.596
	c-7.15-0.363-14.273-0.719-21.438,0.436c-7.36,1.184-14.851,0.879-22.286,0.752c-4.27-0.072-8.345,0.449-12.275,2.105
	c-3.934,1.658-8.029,2.098-12.291,2.053c-8.775-0.094-17.554,0.139-26.331,0.139c-3.106,0-5.977,0.389-8.721,2.09
	c-2.71,1.68-5.641,2.15-8.607,0.162c-2.243-1.504-5.138-1.143-7.53-2.184c-0.802-1.986,0.569-3.387,1.146-4.9
	c1.002-2.631,2.281-4.893,0.936-8.064c-1.157-2.73,0.856-5.492,2.153-8.037c1.004-1.971,0.08-2.766-1.755-3.133
	c-3.723-0.744-5.585,0.305-7.252,3.912c-1.295,2.803-2.892,5.344-6.845,5.449c-0.672-3.652,2.159-6.512,1.947-10.238
	c-3.894,0.924-5.364,3.629-5.696,6.932c-0.345,3.408-2.071,4.428-5.267,4.445c-4.579,0.023-9.127,0.707-13.525,2.016
	c-2.37,0.705-4.521-0.66-6.778-0.363c-5.29,0.695-10.569,1.471-15.732,2.893c-1.982,0.545-3.417,1.406-3.725,3.707
	c-0.499,3.742-3.334,5.314-6.478,6.52c-3.619,1.387-7.468,1.586-11.242,1.934c-12.153,1.123-24.314,2.49-36.497,2.795
	c-4.721,0.119-9.459,2.391-14.223,0.377c-6.987,3.078-14.557,2.535-21.879,3.361c-20.841,2.352-41.712,4.428-62.576,6.57
	c-9.483,0.975-18.968,1.975-28.472,2.709c-3.443,0.266-5.484,1.732-7.101,4.709c-6.554,12.086-11.751,24.779-17.031,37.436
	c-3.374,8.086-6.598,16.232-9.897,24.35c-0.501,1.234-0.901,2.545-1.614,3.648c-0.853,1.32-1.815,0.887-2.674-0.205
	c-1.119-1.422-0.735-2.813-0.14-4.293c6.75-16.781,12.751-33.881,21.228-49.928c1.653-3.131-0.097-7.506-3.455-8.568
	c-1.767-0.559-2.376,0.408-2.75,1.914c-1.595,6.439-5.391,11.727-9.047,17.078c-0.614,0.898-1.106,2.102-2.88,1.719
	c0.918-7.449,3.262-14.775,3.05-22.471c-7.122,1.568-13.634-0.791-20.266-1.826c-1.308-0.205-2.593-0.637-3.848-1.078
	c-5.221-1.84-7.374-6.666-5.255-11.771c0.289-0.697,0.806-1.295,1.15-1.971c2.252-4.428,1.737-5.463-3.193-6.311
	c-2.446-0.42-5.573-0.453-6.397-2.973c-0.896-2.736,1.543-4.889,3.391-6.805c4.1-4.254,9.393-6.473,14.86-8.213
	c2.199-0.699,3.436-1.674,4.259-3.939c10.604-29.203,23.589-57.428,35.483-86.102c20.749-50.02,45.587-98.12,68.636-147.06
	c5.194-11.03,10.247-22.127,15.433-33.162c1.511-3.216,1.945-6.458,1.513-9.992c-0.284-2.329-1.716-3.733-2.986-5.367
	c-1.796-2.308-3.428,0.259-5.144,0.135c-0.344-0.024-0.673-0.247-1.196-0.451c-0.057-2.72,2.119-3.861,3.964-4.937
	c3.78-2.204,7.703-4.171,11.624-6.12c1.754-0.872,3.18-1.708,3.813-3.853c1.658-5.606,5.623-9.37,10.533-12.288
	c1.41-0.838,3.021-1.312,3.688-3.281c2.038-6.012,0.796-7.775-5.672-8.015c-2.215-0.082-4.079,0.746-6.067,1.338
	c-1.309,0.39-2.311-0.084-2.645-1.393c-0.289-1.135,0.604-1.719,1.511-2.07c11.698-4.519,22.821-10.679,35.47-12.488
	c1.317-0.188,2.761-0.573,3.973-0.239c8.11,2.229,15.857-0.668,23.696-1.658c10.771-1.36,21.467-3.318,32.198-5.004
	c0.938-0.147,1.941-0.405,2.837-0.223c8.794,1.784,16.589-2.254,24.824-4.07c-1.428-1.279-3.026-0.638-4.529-0.663
	c-1.708-0.029-3.417-0.007-5.175-0.007c0.072-1.913,1.517-1.485,2.435-1.317c4.269,0.778,8.623,0.638,12.858,2.207
	c3.111,1.152,6.746,0.741,10.256-1.555c-2.976-1.044-5.805,0.305-8.772-0.895c4.023-1.118,7.47-3.092,11.394-1.243
	c0.459,0.216,1.257,0.292,1.622,0.037c4.356-3.033,9.237-1.49,13.884-1.569c12.99-0.221,25.853-2.009,38.784-2.938
	c16.548-1.188,33.071-2.722,49.605-4.098c11.782-0.98,23.563-2.002,35.352-2.902c9.787-0.747,19.585-1.338,29.412-0.953
	c0.76,0.03,1.539,0.018,2.271,0.188c0.529,0.124,0.951,0.543,0.979,1.2c0.038,0.945-0.455,1.477-1.341,1.338
	c-4.408-0.691-8.665,1.368-13.219,0.349c-2.621-0.586-5.565,0.896-8.238,1.938c-1.528,0.596-2.883,1.446-2.165,3.354
	c0.693,1.841,0.938,4.284,4.014,3.787c1.687-0.273,3.471-0.032,5.126-0.401c4.937-1.1,9.039-0.968,11.884,4.36
	c0.78,1.461,1.764,2.62,1.752,4.365c-0.028,3.793-0.009,7.586-0.009,11.255c1.229,0.63,1.988-0.26,2.884-0.337
	c1.854-0.158,3.169,0.692,2.938,2.548c-0.421,3.39-1.173,6.742-1.866,10.093c-0.168,0.813-0.891,1.18-1.745,1.119
	c-0.916-0.066-1.21-0.773-1.483-1.488c-0.941-2.471-0.934-5.249-2.51-7.722c-2.591,0.679-3.075,3.165-4.151,5.006
	c-2.323,3.971-4.141,8.178-4.378,12.862c-0.101,2.001-0.68,4.221,2.396,4.941c3.282,0.769,3.347-1.396,3.758-3.489
	c0.102-0.513,0.334-1.121,1.434-1.047c1.481,1.625,0.347,3.583,0.019,5.374c-2.546,13.89-6.255,27.487-10.932,40.799
	c-12.497,35.572-24.298,71.401-38.927,106.192c-3.239,7.706-7.28,15.044-9.622,23.174c-1.024,3.558-2.252,7.816-7.053,8.791
	c-0.813,0.165-0.987,1.061-1.073,1.831c-0.528,4.75-2.848,8.603-5.909,12.139c-1.29,1.491-1.728,3.383-1.575,5.362
	c0.069,0.894-0.158,1.95,1.075,2.336c0.837,0.263,2.097,0.324,1.434,1.709c-0.452,0.945-1.494,1.253-2.459,0.979
	c-1.818-0.518-2.802-0.065-3.339,1.87c-2.459,8.855-6.668,17.002-10.432,25.328c-0.47,1.038-1.029,2.068-1.284,3.164
	c-0.796,3.412-0.254,4.146,3.568,5.258c0.011,0.992-0.897,1.162-1.487,1.498c-2.189,1.25-3.616,2.355-1.853,5.305
	c1.158,1.938,0.206,2.656-2.333,2.023c-0.393-0.096-0.507-0.854-1.236-0.383c-2.726,1.76-7.326,12.502-6.864,15.826
	c0.191,1.379,0.952,1.701,2.049,2.264c2.413,1.232,1.695,3.26,0.296,4.682c-0.821,0.836-1.822,3.639-3.783,0.76
	c-1.348-1.977-2.808-0.434-3.637,0.549c-2.825,3.348-3.424,7.566-3.912,11.73c-0.191,1.619,1.262,2.307,2.564,2.631
	c4.527,1.127,8.959,3.527,13.802,1.268c11.353,1.426,22.189-3.137,33.459-2.852c7.935,0.201,15.784-1.139,23.648-1.713
	c8.819-0.645,17.474-3.912,26.467-2.115c6.765-2.316,14.005-1.553,20.875-3.223c5.833-1.418,11.524-2.98,17.749-2.949
	c6.398,0.031,12.802-1.787,19.208-2.764c8.404-1.277,16.826-1.975,25.356-2.174c8.161-0.189,16.308-1.535,24.434-2.58
	c7.748-0.996,15.488-2.092,23.126-3.791c0.923-0.207,1.888-0.314,2.833-0.313c0.519,0.002,1.175,0.201,1.145,0.963
	c-0.013,0.348-0.082,0.908-0.287,0.996c-3.424,1.469-6.064,4.479-9.971,5.002c-10.902,1.461-21.716,3.219-32.78,3.859
	c-11.421,0.662-22.771,3.293-34.245,4.393c-1.113,0.107-2.498,0.42-2.352,1.895c0.157,1.582,1.61,1.32,2.703,1.234
	c8.736-0.684,17.553-0.355,26.213-2.041C1445.879,341.438,1447.383,341.07,1450.287,342.195z M1105.355,106.926
	c-1.482-0.179-1.974,0.472-2.45,1.035c-3.472,4.1-6.065,8.776-8.656,13.438c-9.539,17.164-17.958,34.892-26.354,52.629
	c-0.484,1.022-1.157,2.125-1.133,3.178c0.033,1.481,1.016,3.751,2.466,2.966c3.848-2.082,7.469-0.227,11.153-0.185
	c16.218,0.186,32.425-0.167,48.639-0.491c28.707-0.573,57.371-4.312,86.129-1.309c1.003,0.105,2.521-0.456,2.505,1.337
	c-0.01,1.076-0.976,1.621-1.955,1.767c-2.451,0.365-4.912,0.661-7.376,0.926c-1.255,0.135-2.24,0.443-2.168,1.988
	c0.066,1.454,0.983,1.901,2.256,1.972c1.905,0.106,3.839,0.056,5.705,0.385c2.065,0.364,5.791-1.115,5.862,1.397
	c0.099,3.436-3.831,1.957-5.961,2.198c-6.99,0.795-14.11,0.657-20.896,2.796c-1.543,0.486-4.373,0.146-3.949,3.053
	c0.39,2.67,2.767,1.223,4.239,1.519c3.325,0.667,7.248,0.446,8.394,4.619c0.903,3.295,3.084,3.963,5.957,4.148
	c1.336,0.085,3.431-0.826,3.616,1.535c0.168,2.136-1.99,1.883-3.271,2.476c-0.344,0.16-0.716,0.267-1.082,0.37
	c-15.828,4.465-31.945,7.126-48.352,8.378c-10.62,0.81-21.36,0.954-31.729,3.89c-1.533,0.435-2.959,0.399-4.48-0.02
	c-3.439-0.947-6.785-0.411-10.077,0.822c-6.608,2.476-13.369,4.473-20.231,6.087c-6.306,1.482-12.705,3.586-19.143,2.862
	c-5.949-0.67-11.292,0.263-16.645,2.417c-2.133,0.858-4.303,1.8-6.629,0.9c-3.068-1.188-5.063,0.281-6.951,2.434
	c-3.299,3.759-5.786,8.028-8.108,12.419c-3.749,7.089-6.411,14.653-9.669,21.957c-10.009,22.437-20.171,44.81-28.556,67.927
	c-1.038,2.861-2.029,5.758-2.762,8.707c-1.085,4.369-0.971,4.355,3.359,5.156c3.802,0.705,7.576,0.447,11.395,0.102
	c8.923-0.807,17.831-2.018,26.812-1.857c7.449,0.131,14.813-0.016,22.108-1.92c3.475-0.908,7.157-1.186,10.766-1.369
	c4.803-0.246,9.566,0.729,14.418-1.063c2.449-0.904,5.757-0.254,8.457,0.492c3.237,0.893,5.058-1.963,8.009-2.023
	c26.701-0.559,53.396-1.389,80.095-2.135c0.952-0.027,1.907-0.023,2.86,0.006c0.799,0.025,1.493,0.275,1.59,1.213
	c0.104,1.02-0.108,1.939-1.283,2.168c-3.991,0.783-8.163,3.863-11.77-1.586c-2.687,5.135-7.163,6.791-11.748,8.109
	c-11.367,3.266-23.014,5.066-34.733,6.518c-2.97,0.367-6.208,0.096-9.115,1.719c0.966,1.498,2.003,1.34,2.844,1.178
	c5.798-1.111,11.53-3.859,17.462-0.51c0.124,0.07,0.365-0.061,0.55-0.107c5.803-1.453,11.737-1.85,17.677-2.115
	c5.907-0.266,11.821-0.383,17.733-0.559c1.898-0.059,3.837,0.131,5.59-0.854c1.955-1.098,3.928-0.744,6.056-0.479
	c6.578,0.822,13.179,2.115,19.722-0.67c1.591-0.676,3.831-1.508,5.474-0.189c1.443,1.156,1.88,0.496,2.463-0.604
	c0.981-1.85,1.803-3.805,2.943-5.549c1.738-2.662,4.726-2.629,6.453-0.006c0.513,0.777,0.863,1.727,1.047,2.645
	c0.503,2.506,2.115,2.242,3.91,1.736c2.129-0.598,2.467-2.184,2.173-4.029c-0.629-3.951-1.383-7.881-1.979-11.838
	c-0.305-2.023-0.77-3.979,0.604-6.023c5.141-7.645,8.202-16.307,11.694-24.75c5.531-13.374,9.478-27.347,15.499-40.537
	c1.67-3.659,2.206-7.661,2.769-11.636c0.453-3.204-0.156-5.837-3.557-7.403c4.857-4.963,7.342-10.756,9.302-16.727
	c3.393-10.334,7.743-20.272,11.915-30.29c3.367-8.087,6.725-16.178,10.016-24.297c18.103-44.665,33.814-90.216,50.252-135.498
	c0.741-2.043,0.752-4.562,2.884-5.879c1.753,0.531,1.686,2.06,2.164,3.251c0.349,0.87,0.643,1.896,1.766,1.965
	c1.266,0.078,2.126-0.589,2.559-1.827c1.293-3.693,2.615-7.375,4.004-11.278c-2.604-0.662-4.398,2.254-6.244,1.134
	c-2.815-1.71-5.18-0.145-7.605,0.43c-3.911,0.926-7.81,1.63-11.828,1.896c-5.324,0.352-10.641,0.896-15.94,1.521
	c-2.129,0.251-4.565,0.522-4.581,3.868c3.006,0.65,5.802,1.058,8.672,1.185c2.632,0.116,3.252,1.494,1.736,3.591
	c-1.678,2.323-4.002,3.312-6.876,3.456c-8.202,0.41-16.308,1.573-24.292,3.527c-1.095,0.268-2.429,0.87-3.306,0.5
	c-5.37-2.27-10.239,1.008-15.364,1.256c-1.323,0.064-4.021,0.104-3.775,2.54c0.264,2.623,2.589,1.459,4.135,1.48
	c1.331,0.018,2.668-0.118,3.996-0.242c3.607-0.338,7.208-0.738,10.817-1.041c0.914-0.077,1.99-0.041,2.062,1.298
	c0.062,1.153-0.652,1.689-1.711,1.852c-0.565,0.086-1.133,0.163-1.7,0.23c-28.956,3.462-57.822,7.522-86.479,12.968
	c-1.503,0.286-2.967,0.763-4.481,0.124c-2.803-1.182-5.657-0.6-8.459-0.111c-5.629,0.982-11.254,2.007-16.84,3.206
	c-5.02,1.078-10.231,1.876-14.622,4.663c-3.347,2.125-6.771,3.551-10.673,3.538c-7.346-0.025-11.929,4.075-15.628,9.836
	c-3.823,5.957-6.907,12.281-9.792,18.718c-0.546,1.217-0.949,2.52-1.649,3.639c-0.539,0.863-1.672,1.025-2.578,0.716
	c-1.314-0.448-0.726-1.543-0.436-2.363C1104.204,111.41,1105.452,109.443,1105.355,106.926z M1369.094,21.856
	c-6.819,1.337-10.076,7.308-15.917,8.742c-0.383,0.094-0.707,0.882-0.854,1.404c-2.229,7.858-5.137,15.478-8.056,23.094
	c-0.347,0.902-0.548,1.777,0.081,2.685c2.119,3.06,5.962,3.378,8.354,0.527C1361.453,47.872,1365.874,35.497,1369.094,21.856z
	 M960.327,332.6c-0.218-0.984,0.467-2.383-1.261-2.645c-1.215-0.184-2.253,0.176-2.844,1.336c-0.341,0.67-0.606,1.379-0.876,2.082
	c-1.959,5.105-3.936,10.203-5.845,15.326c-0.458,1.23-0.688,2.545-1.019,3.822c-0.22,0.846,0.063,1.707,0.875,1.748
	c1.805,0.09,4.072,0.697,4.929-1.613C956.713,346.113,958.971,339.508,960.327,332.6z M1386.449,352.361
	c-2.205-1.451-3.851,1.023-4.827,0.59c-5.139-2.281-9.96,2.273-14.942,0.34c-8.667,2.105-17.615,2.121-26.365,3.594
	c-0.947,0.16-2.453-0.242-2.51,1.941c7.624-0.645,15.235-1.006,22.753-2.043c3.688-0.51,8.039,1.121,11.058-2.635
	c0.28-0.348,1.461-0.146,2.157,0.043C1378.146,355.385,1382.18,354.264,1386.449,352.361z M1317.777,108.506
	c1.636-4.685,6.063-8.47,4.453-14.14c-0.45-1.586,1.315-2.09,2.057-3.109c3.758-5.166,4.746-11.049,5.007-17.756
	c-2.234,1.23-2.728,2.722-3.377,4.01c-2.144,4.245-3.449,8.81-4.7,13.372c-0.553,2.019-0.682,4.437-2.184,5.761
	C1314.936,100.255,1316.542,104.306,1317.777,108.506z M1250.744,57.191c-4.518-2.153-10.579-2.204-15.776-1.412
	c-8.775,1.337-17.451,3.747-26.477,2.687c-0.568-0.067-1.056,0.29-1.204,0.842c1.17,2.016,3.061,1.98,5.017,1.936
	c3.803-0.086,7.57-0.318,11.192-1.63c4.158-1.505,8.304-2.654,12.486,0.034c0.549,0.353,1.472,0.357,2.16,0.219
	C1242.352,59.023,1246.545,58.093,1250.744,57.191z M1021.462,382.705c-7.938-0.365-14.631,1.225-21.418,1.299
	c-0.365,0.004-0.749,0.107-1.089,0.25c-0.768,0.32-1.145,0.922-1.071,1.766c0.072,0.828,0.481,1.441,1.344,1.496
	c4.324,0.277,8.679,0.922,12.969,0.637C1015.468,387.936,1018.569,386.371,1021.462,382.705z M1146.065,38.259
	c3.526,2.738,7,2.65,9.792,1.864c3.74-1.054,7.305-1.071,11.041-0.892c1.304,0.063,3.358,0.642,3.742-1.419
	c0.457-2.453-2.128-2.183-3.38-3.082c-0.4-0.288-1.142-0.37-1.631-0.224C1159.501,36.341,1153.1,36.922,1146.065,38.259z
	 M1179.417,35.423c5.315-0.211,10.447-0.934,15.157-3.394C1189.431,32.918,1183.553,30.367,1179.417,35.423z M1346.53,380.879
	c5.871-0.004,11.963,1.305,18.347-2.205C1359.06,378.256,1349.479,379.291,1346.53,380.879z M1090.636,49.561
	c0.686-0.042,1.256-0.079,1.825-0.111c1.989-0.114,4.229-0.488,3.902-2.958c-0.298-2.251-2.712-2.324-4.572-2.351
	c-0.882-0.013-1.884,0.441-2.632,0.967c-1.143,0.803-1.848,2.033-1.34,3.468C1088.324,50,1089.668,49.526,1090.636,49.561z
	 M1191.751,67.75c1.005-0.112,2.33-0.21,3.637-0.423c0.917-0.149,1.948-0.337,1.765-1.671c-0.116-0.85-0.725-1.299-1.508-1.476
	c-2.277-0.514-4.521,0.008-6.765,0.3c-0.979,0.127-1.075,0.996-1.025,1.741c0.05,0.758,0.321,1.501,1.305,1.525
	C1189.917,67.765,1190.674,67.75,1191.751,67.75z M1314.739,111.661c-2.854,3.099-5.817,6.161-3.268,11.621
	C1313.847,119.289,1315.13,115.739,1314.739,111.661z M1329.523,70.484c2.457-1.93,3.98-3.595,4.783-6.244
	C1328.872,65.644,1328.872,65.644,1329.523,70.484z M1022.511,383.979c3.549,1.736,4.467,1.699,8.743-0.623
	C1028.582,383.547,1025.909,383.736,1022.511,383.979z M1207.104,53.371c7.21,0.704,7.21,0.704,10.323-1.608
	C1213.73,51.857,1210.271,51.657,1207.104,53.371z M1207.144,16.649c5.147,0.776,10.329,2.022,16.204-1.373
	C1217.188,15.798,1212.167,16.224,1207.144,16.649z M1392.862,352.432c2.02,0.125,3.305,0.283,4.587,0.26
	c0.987-0.02,2.508,0.383,2.345-1.367c-0.113-1.219-1.183-1.9-2.391-1.922C1395.649,349.373,1394.355,350.27,1392.862,352.432z
	 M1226.294,379.496c-0.278-0.939,0.144-2.398-1.597-2.35c-0.836,0.021-1.453,0.561-1.394,1.379c0.098,1.324,0.553,2.678,2.123,2.744
	C1226.343,381.311,1226.232,380.24,1226.294,379.496z M1172.06,36.432c2.048,0.35,3.923,1.483,4.973-1.051
	c0.281-0.681,0.054-1.617-0.763-1.846C1174.323,32.991,1173.128,33.993,1172.06,36.432z M1420.378,350.205
	c-0.045-2.436-2.518-1.795-3.67-2.822c-0.509-0.453-1.347,0.262-1.629,1.039c-0.319,0.875,0.109,1.553,0.865,1.764
	C1417.38,350.586,1418.871,350.869,1420.378,350.205z M1185.743,56.563c-2.65-0.101-4.603-0.675-6.442,0.583
	c-0.139,0.095-0.051,0.903,0.068,0.94C1181.298,58.688,1183.241,59.157,1185.743,56.563z M963.717,324.645
	c-0.166-0.676-0.156-1.563-1.232-1.42c-1.532,0.203-2.194,1.275-2.35,2.68c-0.08,0.727,0.044,1.662,0.951,1.672
	C962.936,327.596,963.636,326.365,963.717,324.645z"/>
<path fill-rule="evenodd" clip-rule="evenodd" fill="#F5D93E" d="M1251.792,398.045c-0.397,0.041-1.762,0.359-1.846-1.324
	c-0.076-1.502,0.783-2.568,2.415-2.508c3.394,0.127,6.713,0.744,10.191,0.365c9.619-1.047,19.281-1.719,28.93-2.5
	c1.114-0.09,2.252,0.012,3.368,0.129c0.213,0.023,0.507,0.529,0.524,0.826c0.018,0.318-0.177,0.879-0.397,0.947
	c-1.078,0.332-2.184,0.672-3.3,0.766C1278.628,395.85,1265.575,396.912,1251.792,398.045z"/>
<path fill-rule="evenodd" clip-rule="evenodd" fill="#F5D93E" d="M1461.377,372.729c1.84-2.188,4.583-1.369,6.879-1.951
	c5.688-1.438,11.473-2.504,17.22-3.711c0.893-0.186,2.041-0.643,2.394,0.586c0.393,1.367-0.675,2.121-1.833,2.373
	c-2.036,0.443-4.104,0.795-6.176,1.01c-6.171,0.645-12.352,1.207-18.529,1.801L1461.377,372.729z"/>
<path fill-rule="evenodd" clip-rule="evenodd" fill="#F5D93E" d="M1272.809,328.207c0.234-5.033,1.793-8.303,2.983-11.66
	c0.255-0.719,0.744-1.379,1.656-1.189c1.202,0.246,1.442,1.24,1.189,2.188C1277.67,321.158,1276.731,324.818,1272.809,328.207z"/>
<path fill-rule="evenodd" clip-rule="evenodd" fill="#F5D93E" d="M377.023,498.453c-0.884-0.135-2.013-0.426-1.696-1.643
	c0.424-1.629,1.938-2.33,3.457-2.551c1.127-0.166,1.705,0.791,1.604,1.842C380.201,498.037,378.835,498.533,377.023,498.453z"/>
<path fill-rule="evenodd" clip-rule="evenodd" fill="#F5D93E" d="M1542.83,343.271c-1.793,0.459-3.533,2.068-5.359,0.088
	c-0.138-0.148,0.011-0.867,0.214-0.977C1539.566,341.357,1541.151,342.525,1542.83,343.271z"/>
<path fill-rule="evenodd" clip-rule="evenodd" fill="#F5D93E" d="M371.585,466.896c-1.935,1.143,0.62,2.697-0.364,3.969
	c-0.341,0.441-0.53,1.074-1.184,1c-1.004-0.115-0.787-0.969-1.004-1.674c-0.716-2.322,3.742-0.609,2.414-3.238
	C371.435,466.953,371.585,466.896,371.585,466.896z"/>
<path fill-rule="evenodd" clip-rule="evenodd" fill="#F5D93E" d="M1497.052,366.393c1.115,0.344,2.845-0.254,3.027,1.654
	c0.104,1.074-0.937,0.939-1.606,0.92c-1.101-0.031-2.388-0.008-2.784-1.326C1495.398,366.674,1496.26,366.48,1497.052,366.393z"/>
<path fill-rule="evenodd" clip-rule="evenodd" fill="#F5D93E" d="M451.153,278.785c-1.127,0.327-1.492-0.263-1.669-1.042
	c-0.194-0.851,0.176-1.396,1.031-1.558c1.079-0.205,1.856,0.275,1.964,1.324C452.571,278.4,451.637,278.548,451.153,278.785z"/>
<path fill-rule="evenodd" clip-rule="evenodd" fill="#F5D93E" d="M1056.588,45.712c0.037,1.672-1.244,1.493-2.293,1.548
	c-1.061,0.056-2.402,0.281-2.429-1.332c-0.024-1.467,1.275-1.526,2.349-1.718C1055.459,43.99,1056.39,44.254,1056.588,45.712z"/>
<path fill-rule="evenodd" clip-rule="evenodd" fill="#F5D93E" d="M1527.019,338.898c0.017-1.967,0.903-2.975,1.586-4.084
	C1530.67,337.014,1530.67,337.014,1527.019,338.898z"/>
<path fill-rule="evenodd" clip-rule="evenodd" fill="#F5D93E" d="M1449.112,373.129c-2.242,2.629-4.184,3.199-6.469,2.357
	c-0.22-0.08-0.483-0.752-0.38-0.895C1443.897,372.371,1446.169,373.855,1449.112,373.129z"/>
<path fill-rule="evenodd" clip-rule="evenodd" fill="#F5D93E" d="M1461.332,372.836c-2.401-1.352-4.817,1.273-7.404-0.125
	c2.606,0,5.027,0,7.449,0.008C1461.377,372.729,1461.332,372.836,1461.332,372.836z"/>
<path fill-rule="evenodd" clip-rule="evenodd" fill="#F5D93E" d="M1097.608,127.718c1.269,2.843-0.019,4.929-0.544,7.027
	c-0.217,0.867-1.417,1.125-2.415,0.871c-1.3-0.331-1.167-1.278-0.828-2.208C1094.573,131.353,1095.085,129.131,1097.608,127.718z"/>
<path fill-rule="evenodd" clip-rule="evenodd" fill="#F5D93E" d="M1235.046,295.826c-0.948-0.115-1.409-0.809-1.378-1.514
	c0.072-1.624,1.322-2.08,2.684-2.045c0.976,0.024,1.021,0.85,0.909,1.631C1237.074,295.213,1236.267,295.793,1235.046,295.826z"/>
</svg>
