<?xml version="1.0" encoding="utf-8"?>
<!-- Generator: Adobe Illustrator 16.0.0, SVG Export Plug-In . SVG Version: 6.00 Build 0)  -->
<!DOCTYPE svg PUBLIC "-//W3C//DTD SVG 1.1 Tiny//EN" "http://www.w3.org/Graphics/SVG/1.1/DTD/svg11-tiny.dtd">
<svg version="1.1" baseProfile="tiny" id="Layer_1" xmlns="http://www.w3.org/2000/svg" xmlns:xlink="http://www.w3.org/1999/xlink"
	 x="0px" y="0px" width="600px" height="600px" viewBox="0 0 600 600" xml:space="preserve">
<g>
	<path fill-rule="evenodd" fill="#002A41" d="M534.975,275.946c0.008,102.631,0.019,205.262,0.019,307.893
		c0,6.461-0.197,6.558-5.839,3.342c-73.65-41.984-147.299-83.976-220.96-125.942c-2.303-1.312-4.549-2.814-7.251-3.268
		c0.166-2.141,0.475-4.281,0.479-6.422c0.034-23.07,0.043-46.141,0.005-69.212c-0.009-5.135-0.229-10.27-0.351-15.404l0.247-0.102
		l0.229,0.136c24.981,14.172,49.957,28.353,74.954,42.495c1.698,0.961,3.211,2.439,5.382,2.351c1.052,1.882,3.017,2.55,4.733,3.531
		c21.694,12.394,43.4,24.768,65.091,37.171c5.678,3.247,6.199,2.981,6.204-3.744c0.018-24.659,0.012-49.318-0.001-73.979
		c-0.002-1.981,0.249-4.024-0.957-5.817c1.07-14.447,0.22-28.915,0.464-43.371c0.029-1.7-0.741-2.78-2.194-3.568
		c-12.836-6.969-25.097-14.973-38.305-21.272c-1.332-0.971-2.586-2.076-4.007-2.891c-31.444-18.021-62.858-36.097-94.413-53.925
		c-5.739-3.243-11.09-7.375-17.661-9.039c0.199-1.643,0.571-3.284,0.573-4.927c0.036-26.983,0.032-53.967,0.01-80.951
		c-0.001-1.456,0.335-2.991-0.906-4.856c-24.502,13.914-49.027,27.84-73.552,41.766c-0.674-2.382-2.84-3.141-4.679-4.191
		c-23.535-13.436-47.09-26.835-70.63-40.262c-5.836-3.329-6.572-2.938-6.576,3.854c-0.015,26.943-0.011,53.886,0.002,80.829
		c0.001,1.979-0.252,4.016,0.911,5.821c-2.118,1.28-4.206,2.613-6.358,3.833c-23.816,13.5-47.643,26.982-71.466,40.469
		c-0.057-2.497-0.163-4.993-0.164-7.489C68,185.543,68.001,102.28,68.001,19.018c0-1.166,0.056-2.334-0.002-3.497
		c-0.215-4.288,1.435-4.319,4.704-2.448c37.997,21.75,76.043,43.416,114.077,65.101c36.299,20.696,72.597,41.394,108.907,62.072
		c2.016,1.148,4.004,2.418,6.374,2.783c0.39,0.496,0.676,1.174,1.184,1.462c23.936,13.59,47.892,27.146,71.845,40.706
		c1.081,0.774,2.104,1.652,3.253,2.308c24.578,14.02,49.161,28.032,73.77,42c4.408,2.502,4.755,2.25,4.761-3.083
		c0.032-29.138,0.039-58.276,0.054-87.414c1.906,1.329,0.887,3.303,0.892,4.912c0.084,27.939,0.13,55.88-0.023,83.819
		c-0.021,3.61,1.018,5.6,4.23,7.401c23.036,12.922,45.942,26.074,68.903,39.13C532.193,274.99,533.317,276.136,534.975,275.946z"/>
	<path fill-rule="evenodd" fill="#0572B5" d="M68.171,276.295c23.824-13.487,47.65-26.969,71.466-40.469
		c2.152-1.22,4.24-2.553,6.358-3.833c26.99-15.351,53.981-30.701,80.972-46.052c24.525-13.926,49.05-27.853,73.552-41.766
		c1.241,1.865,0.905,3.4,0.906,4.856c0.022,26.983,0.026,53.967-0.01,80.951c-0.002,1.643-0.374,3.284-0.573,4.926
		c-38.239,21.782-76.479,43.564-114.718,65.346c-12.306,6.974-24.563,14.035-36.953,20.856c-2.905,1.599-3.792,3.527-3.793,6.74
		c-0.008,40.811-0.159,81.621-0.216,122.432c-0.002,1.538-0.776,3.357,0.914,4.61c0.911-0.335,1.892-0.549,2.724-1.022
		c24.044-13.695,48.073-27.416,72.105-41.133c16.274-9.284,32.605-18.469,48.801-27.888c10.143-5.898,20.691-11.109,30.366-17.805
		c0.334-0.038,0.669-0.075,1.004-0.112c0.122,5.135,0.342,10.27,0.351,15.404c0.038,23.071,0.029,46.142-0.005,69.212
		c-0.004,2.141-0.313,4.281-0.479,6.422c-45.197,25.72-90.398,51.432-135.59,77.162c-31.048,17.678-62.082,35.38-93.125,53.066
		c-1.117,0.637-2.265,1.218-3.339,1.793c-1.387-1.067-0.862-2.329-0.862-3.38C67.998,484.337,68,382.061,68.007,279.785
		C68.007,278.622,68.114,277.458,68.171,276.295z"/>
	<path fill-rule="evenodd" fill="#0572B5" d="M534.975,275.946c-1.657,0.19-2.781-0.956-4.048-1.676
		c-22.961-13.056-45.867-26.208-68.903-39.13c-3.213-1.802-4.251-3.792-4.23-7.401c0.153-27.939,0.107-55.88,0.023-83.819
		c-0.005-1.609,1.015-3.583-0.891-4.911c-0.762,0.258-1.591,0.4-2.277,0.792c-26.528,15.118-53.044,30.259-79.561,45.397
		c-23.953-13.56-47.909-27.116-71.845-40.706c-0.508-0.288-0.794-0.966-1.184-1.462c45.214-25.73,90.432-51.452,135.64-77.193
		c31.06-17.685,62.104-35.396,93.158-53.09c1.107-0.631,2.254-1.194,4.117-2.177C534.975,99.499,534.975,187.722,534.975,275.946z"
		/>
	<path fill-rule="evenodd" fill="#FFFFFF" d="M301.076,366.933c-0.334,0.037-0.669,0.074-1.004,0.112
		c-0.866-1.757-2.508-2.598-4.104-3.506c-27.201-15.477-54.454-30.865-81.569-46.49c-9.495-5.471-19.436-10.213-28.273-16.795
		c38.239-21.782,76.479-43.563,114.718-65.346c6.571,1.664,11.922,5.796,17.661,9.039c31.555,17.828,62.969,35.904,94.413,53.925
		c1.421,0.814,2.675,1.92,4.007,2.89c-14.542,8.35-29.082,16.701-43.626,25.047c-23.914,13.722-47.83,27.438-71.745,41.158
		l-0.229-0.136L301.076,366.933z"/>
	<path fill-rule="evenodd" fill="#0572B5" d="M301.553,366.967c23.915-13.72,47.831-27.437,71.745-41.158
		c14.544-8.346,29.084-16.697,43.626-25.047c13.208,6.301,25.469,14.305,38.305,21.273c1.453,0.788,2.224,1.868,2.194,3.568
		c-0.244,14.456,0.606,28.924-0.464,43.371c-25.023,14.279-50.047,28.559-75.07,42.838c-2.171,0.089-3.684-1.39-5.382-2.351
		C351.51,395.319,326.534,381.139,301.553,366.967z"/>
	<path fill-rule="evenodd" fill="#FFFFFF" d="M226.967,185.941c-26.991,15.351-53.981,30.701-80.972,46.052
		c-1.163-1.805-0.91-3.843-0.911-5.821c-0.013-26.943-0.017-53.886-0.002-80.829c0.003-6.792,0.74-7.183,6.576-3.854
		c23.54,13.427,47.095,26.827,70.63,40.262C224.127,182.8,226.293,183.56,226.967,185.941z"/>
	<path fill-rule="evenodd" fill="#FFFFFF" d="M375.088,185.196c26.517-15.138,53.032-30.279,79.561-45.397
		c0.687-0.392,1.516-0.533,2.277-0.792c-0.016,29.137-0.022,58.275-0.055,87.413c-0.006,5.332-0.353,5.584-4.761,3.083
		c-24.608-13.967-49.191-27.979-73.77-42C377.191,186.848,376.169,185.97,375.088,185.196z"/>
	<path fill-rule="evenodd" fill="#FFFFFF" d="M381.889,411.813c25.023-14.279,50.047-28.559,75.07-42.838
		c1.206,1.793,0.955,3.836,0.957,5.817c0.013,24.66,0.019,49.319,0.001,73.979c-0.005,6.726-0.526,6.991-6.204,3.744
		c-21.69-12.403-43.396-24.777-65.091-37.171C384.905,414.362,382.94,413.694,381.889,411.813z"/>
	<path fill-rule="evenodd" fill="#002A41" d="M186.125,300.254c8.838,6.582,18.779,11.324,28.273,16.795
		c27.116,15.625,54.368,31.014,81.569,46.49c1.596,0.908,3.238,1.749,4.104,3.506c-9.674,6.695-20.223,11.906-30.366,17.805
		c-16.196,9.419-32.527,18.604-48.801,27.888c-0.599-1.972-2.352-2.737-3.919-3.631c-21.837-12.455-43.684-24.894-65.542-37.313
		c-5.063-2.876-5.313-2.718-5.319,3.159c-0.026,26.646-0.034,53.293-0.049,79.939c-1.689-1.253-0.916-3.072-0.914-4.61
		c0.057-40.811,0.208-81.621,0.216-122.432c0-3.213,0.888-5.142,3.793-6.74C161.563,314.289,173.819,307.228,186.125,300.254z"/>
	<path fill-rule="evenodd" fill="#FFFFFF" d="M146.077,454.893c0.015-26.646,0.022-53.293,0.049-79.939
		c0.005-5.877,0.256-6.035,5.319-3.159c21.858,12.419,43.704,24.857,65.542,37.313c1.567,0.894,3.32,1.659,3.919,3.631
		c-24.032,13.717-48.061,27.438-72.105,41.133C147.968,454.344,146.988,454.558,146.077,454.893z"/>
</g>
</svg>
