<?xml version="1.0" encoding="utf-8"?>
<!-- Generator: Adobe Illustrator 16.0.0, SVG Export Plug-In . SVG Version: 6.00 Build 0)  -->
<!DOCTYPE svg PUBLIC "-//W3C//DTD SVG 1.1 Tiny//EN" "http://www.w3.org/Graphics/SVG/1.1/DTD/svg11-tiny.dtd">
<svg version="1.1" baseProfile="tiny" id="Layer_1" xmlns="http://www.w3.org/2000/svg" xmlns:xlink="http://www.w3.org/1999/xlink"
	 x="0px" y="0px" width="100px" height="100px" viewBox="0 0 100 100" overflow="scroll" xml:space="preserve">
<g>
	<path d="M0,21.485h23.402v6.883H0V21.485z M0,8.702h23.402v6.883H0V8.702z M41.986,34.169H0v6.883h40.413
		c4.425,0,14.749,0.098,18.584,6.293V43.51C57.129,37.414,51.623,34.169,41.986,34.169z M42.084,46.952H0v6.883h40.413
		c9.833,0,16.027,0.394,18.584,1.77v-3.048C57.03,47.738,48.771,46.952,42.084,46.952z M41.986,79.4H0v-6.883h40.413
		c4.425,0,14.749-0.099,18.584-6.293v3.834C57.129,76.155,51.623,79.4,41.986,79.4z M42.084,66.617H0v-6.883h40.413
		c9.833,0,16.027-0.393,18.584-1.77v3.048C57.03,65.831,48.771,66.617,42.084,66.617z M69.223,91.298h30.875V87.07h-29.99
		c-2.654,0-8.947-0.099-11.209-3.736v2.359C59.98,89.332,63.324,91.298,69.223,91.298z M69.125,83.529H100v-4.228H70.107
		c-5.997,0-9.734-0.196-11.209-1.081v1.867C60.078,83.039,65.094,83.529,69.125,83.529z"/>
</g>
</svg>
