<?xml version="1.0" encoding="utf-8"?>
<!-- Generator: Adobe Illustrator 16.0.0, SVG Export Plug-In . SVG Version: 6.00 Build 0)  -->
<!DOCTYPE svg PUBLIC "-//W3C//DTD SVG 1.1//EN" "http://www.w3.org/Graphics/SVG/1.1/DTD/svg11.dtd">
<svg version="1.1" id="Layer_1" xmlns="http://www.w3.org/2000/svg" xmlns:xlink="http://www.w3.org/1999/xlink" x="0px" y="0px"
	 width="480.018px" height="409.757px" viewBox="0 0 480.018 409.757" enable-background="new 0 0 480.018 409.757"
	 xml:space="preserve">
<g>
	<path fill-rule="evenodd" clip-rule="evenodd" fill="#392615" d="M284.525,158.647c18.238,2.44,36.396,4.567,54.452,7.348
		c36.741,5.658,73.639,10.836,108.705,23.981c19.893,7.457,32.161,24.066,32.333,42.446c0.101,10.748-5.016,18.156-15.258,21.316
		c-3.012,0.93-4.739,1.377-3.926,5.332c0.797,3.873-1.448,7.49-3.945,10.416c-9.557,11.193-21.569,16.244-36.354,13.945
		c-1.501-0.232-3.025-1.344-3.869,1.322c-2.324,7.344-8.212,10.977-14.982,13.48c-10.554,3.904-21.134,4.076-31.601-0.229
		c-2.228-0.916-3.16-1.031-4.401,1.527c-1.726,3.557-5.321,5.344-9.042,6.574c-15.949,5.273-30.72,2.652-44.459-6.713
		c-3.791,7.293-11.05,10.543-21.036,9.324c-3.608-0.439-8.486-2.129-10.392,0.426c-1.953,2.623,2.297,5.924,3.864,8.875
		c4.2,7.906,8.79,15.605,11.773,24.109c2.533,7.221,2.181,14.361-0.352,21.475c-1.075,3.021-2.384,6.709-5.213,7.607
		c-5.762,1.828-6.739,6.482-8.776,10.98c-4.864,10.738-19.519,17.965-32.833,16.238c-3.955-0.514-6.508,0.205-9.476,3.207
		c-10.153,10.27-22.39,9.484-34.721,4.848c-3.244-1.219-5.408-1.287-8.527,0.406c-9.149,4.969-24.986-1.365-30.04-11.932
		c-3.142-6.57-5.887-13.357-8.333-20.219c-1.209-3.391-3.035-5.268-6.5-5.723c-0.65-0.086-1.288-0.314-1.916-0.525
		c-4.711-1.576-9.468-4.547-14.113-4.379c-5.088,0.182-5.913,6.936-9.394,10.225c-8.689,8.211-18.918,10.174-29.733,4.877
		c-10.675-5.227-18.063-13.979-24.709-23.453c-11.543-16.455-19.345-34.73-25.728-53.66c-1.079-3.197-2.565-6.035-4.528-8.76
		C16.784,259.027,6.937,220.639,9.611,178.624c2.266-35.587,12.143-68.647,32.464-98.047c30.274-43.8,71.974-70.147,124.617-78.38
		C189-1.293,211.21-0.222,232.208,9.457c27.537,12.694,45.315,34.04,54.983,62.513c0.55,1.618,0.32,4.025,2.483,4.58
		c3.991,1.022,8.044,1.872,12.119,2.458c1.253,0.18,1.409-1.695,1.947-2.645c22.463-39.69,57.113-61.902,101.208-70.428
		C416.683,3.667,428.531,1.99,440.581,0c-0.006,1.596-1.237,2.224-2.001,3.067c-2.238,2.469-4.337,5.126-6.874,7.252
		c-21.753,18.224-30.254,43.406-36.663,69.66c-1.455,5.959-2.088,12.117-3.502,18.087c-6.041,25.512-23.154,41.059-46.359,51.02
		c-12.525,5.377-25.817,7.31-39.227,8.746c-1.725,0.185-2.722-0.167-3.391-1.933c-1.174-3.096-2.521-6.14-4.025-9.089
		c-0.745-1.459-0.547-4.52-2.529-4.052c-2.825,0.667-6.496,0.856-7.756,4.491C286.955,150.999,285.781,154.792,284.525,158.647z
		 M299.705,126.998c0.402-3.683-0.861-4.854-4.523-3.383c-2.422,0.973-5.046,1.501-7.62,2.023
		c-8.418,1.705-16.829,3.08-24.477-2.592c11.993,0.421,23.766,0.08,35.069-5.096c7.518-3.442,15.672-3.451,23.956-2.384
		c8.695,1.12,17.18,3.022,25.799,5.391c-0.225-0.665-0.234-1.079-0.445-1.261c-20.802-18.047-44.129-30.452-72.179-32.394
		c-2.543-0.176-3.967,0.852-5.294,2.802c-6.339,9.319-9.517,19.582-9.501,30.843c0.014,0.682,0.026,1.363,0.04,2.045
		c-0.043,6.221,1.308,12.164,3.506,17.953c0.674,1.775,1.242,2.846,3.454,1.489c9.916-6.08,20.791-10.11,31.518-14.445
		C299.648,127.946,299.952,127.666,299.705,126.998z M374.106,220.766c-22.733-5.125-45.745-8.84-68.657-13.098
		c0.916-0.605,1.744-0.811,2.566-0.79c3.165,0.077,6.327,0.227,9.49,0.349c8.56,0.904,17.128,1.737,25.678,2.727
		c18.617,2.155,37.236,4.299,55.834,6.617c17.111,2.135,34.2,4.45,51.282,6.809c2.053,0.283,2.554-0.303,2.843-2.17
		c0.862-5.58-2.742-8.209-6.832-10.268c-10.274-5.17-21.315-8.121-32.456-10.727c-46.137-11.247-93.086-17.417-140.213-22.499
		c-1.675-0.181-2.804,0.11-3.81,1.562c-4.319,6.229-10.133,10.979-15.893,15.774c-21.859,14.063-46.141,18.852-71.866,19.088
		c0.228-0.518,0.264-0.776,0.366-0.806c1.742-0.503,3.499-0.954,5.239-1.461c25.06-7.304,47.575-18.705,64.98-38.946
		c5.709-6.639,8.948-12.832,2.951-20.777c-0.489-0.647-0.714-1.498-1.044-2.262c-11.406-26.489-8.207-50.937,10.404-73.12
		c1.628-1.94,1.954-3.414,0.943-5.705c-9.204-20.867-23.813-36.306-45.077-45.061c-19.984-8.228-40.508-6.759-60.91-2.455
		C88.986,38.514,32.474,98.842,29.056,183.677c-1.043,25.895,3.425,50.673,14.107,74.308c1.401,2.607,2.707,5.271,4.218,7.813
		c29.048,48.867,72.402,77.27,127.551,88.178c43.079,8.521,80.773-19.842,88.493-59.494c0.657-3.375,2.638-6.83,0.64-10.43
		c1.935-0.457,3.054,0.965,4.396,1.891c3.452,2.383,7.206,4.061,11.291,5.074c4.501,1.115,8.857,1.381,13.011-1.18
		c3.626-2.234,3.259-6.027,3.227-10.277c9.101,6.803,18.492,9.965,29.039,9.508c10.96-0.475,14.024-5.352,9.318-15.016
		c-0.084-0.174,0.187-0.52,0.354-0.939c1.185,0.568,2.352,1.166,3.548,1.693c8.974,3.969,18.358,5.914,28.154,5.074
		c4.655-0.398,9.534-1.266,11.907-6.027c2.17-4.357-1.02-7.51-3.289-10.752c-0.131-0.186-0.017-0.543-0.017-1.018
		c2.278,0.492,4.501,1.152,6.771,1.43c7.97,0.973,15.93,1.332,23.651-1.535c4.337-1.609,8.668-3.703,9.206-8.814
		c0.485-4.604-3.02-7.488-6.377-10.074c-1.223-0.942-2.532-1.773-4.837-3.374c14.965,2.021,28.604,3.335,42.574-4.46
		c-8.038-1.785-14.78-3.383-21.565-4.77C407.69,227.064,391.039,223.186,374.106,220.766z M376.967,40.515
		c-0.367,0.508-0.667,1.087-1.113,1.513c-15.334,14.625-26.835,32.07-37.281,50.328c-1.587,2.774-1.398,4.104,1.342,5.834
		c8.754,5.528,16.514,12.356,24.012,19.452c1.922,1.819,3.017,2.361,4.9-0.061c5.502-7.072,9.701-14.784,11.003-23.672
		c2.075-14.179,5.721-27.932,10.446-41.408c4.184-11.931,9.077-23.566,16.734-34.581c-18.54,3.31-34.928,9.799-50.021,19.497
		c-17.059,10.961-31.161,24.811-41.32,42.546c-1.799,3.139-1.415,4.419,1.875,5.682c3.395,1.304,6.746,2.906,9.795,4.875
		c3.108,2.007,4.529,1.636,6.304-1.78c7.484-14.417,17.072-27.354,28.806-38.622C366.596,46.134,370.929,42.31,376.967,40.515z
		 M322.485,127.744c-0.713-7.253-1.189-7.713-8.353-7.76c-1.496-0.01-2.996,0.075-4.486,0.207c-3.315,0.293-5.199,1.436-3.922,5.37
		c0.86,2.65,0.81,5.582,1.466,8.315c2.794,11.625,2.966,11.695,14.82,9.263c0.487-0.1,0.996-0.095,1.481-0.202
		c10.739-2.356,20.975-5.92,30.436-12.383c-7.45-3.767-15.104-5.336-22.535-7.603C326.778,121.542,323.22,121.376,322.485,127.744z"
		/>
	<path fill-rule="evenodd" clip-rule="evenodd" fill="#EC6736" d="M43.163,257.984c-10.682-23.635-15.151-48.413-14.107-74.308
		C32.474,98.842,88.986,38.514,159.928,23.549c20.401-4.304,40.925-5.773,60.91,2.455c21.263,8.754,35.873,24.193,45.077,45.061
		c1.011,2.291,0.685,3.765-0.943,5.705c-18.611,22.183-21.811,46.63-10.404,73.12c0.33,0.764,0.555,1.614,1.044,2.262
		c5.997,7.946,2.758,14.139-2.951,20.777c-17.405,20.241-39.921,31.642-64.98,38.946c-1.74,0.507-3.497,0.958-5.239,1.461
		c-0.103,0.029-0.139,0.288-0.366,0.806c25.726-0.236,50.007-5.025,71.867-19.089c-1.972,4.976-5.144,9.276-7.932,13.774
		c-10.466,16.889-22.962,31.918-40.528,41.897c-23.004,13.067-47.482,14.036-72.466,7.554c-6.763-1.754-12.063-1.408-18.58,1.75
		c-15.304,7.42-31.85,7.02-48.391,4.537C58.103,263.373,50.887,259.834,43.163,257.984z M149.969,105.335
		c-0.03,21.78,17.64,39.59,39.199,39.511c21.349-0.078,38.877-17.8,38.88-39.311c0.003-21.492-17.493-39.151-38.936-39.299
		C167.871,66.09,149.999,83.942,149.969,105.335z"/>
	<path fill-rule="evenodd" clip-rule="evenodd" fill="#FCED4B" d="M43.163,257.984c7.724,1.85,14.939,5.389,22.88,6.58
		c16.541,2.482,33.087,2.883,48.391-4.537c6.517-3.158,11.817-3.504,18.58-1.75c24.984,6.482,49.462,5.514,72.466-7.554
		c17.566-9.979,30.062-25.009,40.528-41.897c2.788-4.499,5.96-8.798,7.932-13.774c5.759-4.794,11.572-9.544,15.892-15.774
		c1.006-1.452,2.135-1.742,3.81-1.562c47.127,5.081,94.076,11.252,140.213,22.499c-18.536,3.629-37.359,4.406-56.13,5.799
		c-13.398,0.994-26.817,0.664-40.219,1.213c-3.163-0.122-6.325-0.271-9.49-0.349c-0.822-0.021-1.65,0.185-2.566,0.79
		c22.912,4.258,45.924,7.973,68.657,13.098c-1.223,3.941-4.075,5.289-7.991,5.316c-5.417,0.037-10.813-0.123-16.286-0.869
		c0.369,0.742,0.864,1.096,1.348,1.467c6.186,4.752,5.523,9.891-1.703,12.945c-2.149,0.908-4.399,1.404-6.77,1.488
		c-4.411,0.158-8.789-0.102-13.373-1.06c5.188,8.744,3.653,12.089-6.029,14.38c-6.221,1.471-12.041-0.215-18.021-2.39
		c1.839,6.749,0.98,9.163-3.868,11.296c-2.286,1.006-4.688,1.516-7.227,1.666c-5.816,0.348-10.846-1.953-16.64-5.158
		c1.863,5.021,0.87,8.611-3.037,10.604c-6.925,3.533-12.693,0.535-18.871-4.986c2.792,7.184,4.807,13.234,8.427,18.586
		c1.998,3.6,0.018,7.055-0.64,10.43c-7.72,39.652-45.414,68.016-88.493,59.494c-55.149-10.908-98.503-39.311-127.551-88.178
		C45.87,263.256,44.564,260.592,43.163,257.984z"/>
	<path fill-rule="evenodd" clip-rule="evenodd" fill="#71BE45" d="M264.065,284.051c-3.62-5.352-5.635-11.402-8.427-18.586
		c6.178,5.521,11.946,8.52,18.871,4.986c3.907-1.992,4.9-5.582,3.037-10.604c5.794,3.205,10.823,5.506,16.64,5.158
		c2.539-0.15,4.94-0.66,7.227-1.666c4.849-2.133,5.707-4.547,3.868-11.296c5.979,2.175,11.8,3.86,18.021,2.39
		c9.683-2.291,11.217-5.636,6.029-14.38c4.584,0.958,8.962,1.218,13.373,1.06c2.37-0.084,4.62-0.58,6.77-1.488
		c7.227-3.055,7.889-8.193,1.703-12.945c-0.483-0.371-0.979-0.725-1.348-1.467c5.473,0.746,10.869,0.906,16.286,0.869
		c3.916-0.027,6.769-1.375,7.991-5.316c16.933,2.42,33.584,6.299,50.322,9.719c6.785,1.387,13.527,2.984,21.565,4.77
		c-13.971,7.795-27.609,6.48-42.574,4.46c2.305,1.601,3.614,2.432,4.837,3.374c3.357,2.586,6.862,5.471,6.377,10.074
		c-0.538,5.111-4.869,7.205-9.206,8.814c-7.722,2.867-15.682,2.508-23.651,1.535c-2.27-0.277-4.492-0.938-6.771-1.43
		c0,0.475-0.114,0.832,0.017,1.018c2.27,3.242,5.459,6.395,3.289,10.752c-2.373,4.762-7.252,5.629-11.907,6.027
		c-9.796,0.84-19.181-1.105-28.154-5.074c-1.196-0.527-2.363-1.125-3.548-1.693c-0.168,0.42-0.438,0.766-0.354,0.939
		c4.706,9.664,1.642,14.541-9.318,15.016c-10.547,0.457-19.938-2.705-29.039-9.508c0.032,4.25,0.399,8.043-3.227,10.277
		c-4.153,2.561-8.51,2.295-13.011,1.18c-4.085-1.014-7.839-2.691-11.291-5.074C267.119,285.016,266,283.594,264.065,284.051z"/>
	<path fill-rule="evenodd" clip-rule="evenodd" fill="#56ABDC" d="M376.967,40.515c-6.038,1.795-10.371,5.62-14.52,9.604
		c-11.733,11.268-21.321,24.204-28.806,38.622c-1.774,3.416-3.195,3.788-6.304,1.78c-3.049-1.969-6.4-3.571-9.795-4.875
		c-3.29-1.263-3.674-2.543-1.875-5.682c10.159-17.735,24.262-31.585,41.32-42.546c15.094-9.698,31.481-16.187,50.021-19.497
		c-7.657,11.015-12.551,22.649-16.734,34.581c-4.726,13.476-8.371,27.229-10.446,41.408c-1.302,8.888-5.501,16.6-11.003,23.672
		c-1.884,2.421-2.979,1.88-4.9,0.061c-7.498-7.096-15.258-13.923-24.012-19.452c-2.74-1.73-2.929-3.06-1.342-5.834
		c10.446-18.258,21.947-35.702,37.281-50.328C376.3,41.602,376.6,41.022,376.967,40.515z"/>
	<path fill-rule="evenodd" clip-rule="evenodd" fill="#E3E3E2" d="M260.49,120.948c-0.016-11.261,3.162-21.524,9.501-30.843
		c1.327-1.95,2.751-2.979,5.294-2.802c28.05,1.942,51.377,14.346,72.179,32.394c0.211,0.183,0.221,0.597,0.445,1.261
		c-8.619-2.369-17.104-4.271-25.799-5.391c-8.284-1.067-16.438-1.059-23.956,2.384c-11.304,5.176-23.076,5.517-35.069,5.096
		l-0.157-0.144C263.003,121.144,261.862,120.901,260.49,120.948z"/>
	<path fill-rule="evenodd" clip-rule="evenodd" fill="#71BC45" d="M317.506,207.227c13.401-0.549,26.82-0.219,40.219-1.213
		c18.771-1.393,37.594-2.17,56.13-5.799c11.141,2.606,22.182,5.557,32.456,10.727c4.09,2.059,7.694,4.688,6.832,10.268
		c-0.289,1.867-0.79,2.453-2.843,2.17c-17.082-2.358-34.171-4.674-51.282-6.809c-18.598-2.318-37.217-4.462-55.834-6.617
		C334.634,208.964,326.065,208.131,317.506,207.227z"/>
	<path fill-rule="evenodd" clip-rule="evenodd" fill="#57AAD9" d="M322.485,127.744c0.734-6.367,4.293-6.201,8.907-4.793
		c7.431,2.267,15.085,3.836,22.535,7.603c-9.461,6.462-19.696,10.027-30.436,12.383c-0.485,0.106-0.994,0.102-1.481,0.202
		c-11.854,2.433-12.026,2.362-14.82-9.263c-0.656-2.733-0.605-5.665-1.466-8.315c-1.277-3.934,0.606-5.076,3.922-5.37
		c1.49-0.132,2.99-0.217,4.486-0.207C321.296,120.031,321.772,120.491,322.485,127.744z"/>
	<path fill-rule="evenodd" clip-rule="evenodd" fill="#E3E3E2" d="M263.085,123.046c7.647,5.672,16.059,4.297,24.477,2.592
		c2.574-0.522,5.198-1.05,7.62-2.023c3.662-1.471,4.926-0.3,4.523,3.383c-0.232,0.331-0.465,0.662-0.697,0.992
		c-10.727,4.335-21.602,8.365-31.518,14.445c-2.212,1.356-2.78,0.286-3.454-1.489c-2.198-5.789-3.549-11.732-3.506-17.953
		c0.8-0.03,1.599-0.06,2.397-0.09L263.085,123.046z"/>
	<path fill-rule="evenodd" clip-rule="evenodd" fill="#DEDDDB" d="M262.928,122.902c-0.799,0.03-1.598,0.06-2.397,0.09
		c-0.014-0.682-0.026-1.363-0.04-2.045C261.862,120.901,263.003,121.144,262.928,122.902z"/>
	<path fill-rule="evenodd" clip-rule="evenodd" fill="#DEDDDB" d="M299.008,127.99c0.232-0.331,0.465-0.662,0.697-0.992
		C299.952,127.666,299.648,127.946,299.008,127.99z"/>
	<path fill-rule="evenodd" clip-rule="evenodd" fill="#F9EB52" d="M149.969,105.335c0.03-21.394,17.901-39.246,39.143-39.099
		c21.443,0.148,38.939,17.807,38.936,39.299c-0.003,21.511-17.531,39.233-38.88,39.311
		C167.609,144.926,149.939,127.115,149.969,105.335z M213.118,105.824c0.069-13.61-10.678-24.559-24.097-24.551
		c-13.254,0.008-24.042,10.762-24.116,24.04c-0.075,13.527,10.757,24.574,24.103,24.581
		C202.165,129.9,213.051,119.032,213.118,105.824z"/>
	<path fill-rule="evenodd" clip-rule="evenodd" fill="#0E0F05" d="M213.118,105.824c-0.067,13.208-10.953,24.076-24.11,24.069
		c-13.345-0.006-24.178-11.054-24.103-24.581c0.074-13.277,10.862-24.031,24.116-24.04
		C202.44,81.265,213.187,92.214,213.118,105.824z M189.452,85.968c-4.874-0.017-8.813,1.108-11.5,3.212
		c-4.053,3.173-4.166,7.637-0.276,10.973c5.651,4.847,17.205,4.808,22.759-0.077c3.807-3.348,3.675-7.929-0.463-10.941
		C196.796,86.825,193.175,85.733,189.452,85.968z"/>
	<path fill-rule="evenodd" clip-rule="evenodd" fill="#F9F9F3" d="M189.452,85.968c3.723-0.235,7.344,0.856,10.519,3.167
		c4.139,3.012,4.27,7.593,0.463,10.941c-5.554,4.885-17.108,4.924-22.759,0.077c-3.889-3.336-3.777-7.8,0.276-10.973
		C180.639,87.076,184.578,85.952,189.452,85.968z"/>
</g>
</svg>
