<?xml version="1.0" encoding="utf-8"?>
<!-- Generator: Adobe Illustrator 16.0.0, SVG Export Plug-In . SVG Version: 6.00 Build 0)  -->
<!DOCTYPE svg PUBLIC "-//W3C//DTD SVG 1.1//EN" "http://www.w3.org/Graphics/SVG/1.1/DTD/svg11.dtd">
<svg version="1.1" id="Layer_1" xmlns="http://www.w3.org/2000/svg" xmlns:xlink="http://www.w3.org/1999/xlink" x="0px" y="0px"
	 width="648.82px" height="412.391px" viewBox="0 0 648.82 412.391" enable-background="new 0 0 648.82 412.391"
	 xml:space="preserve">
<g>
	<path fill="#3D6A92" d="M280.809,81.059c0.113-0.121,0.323-0.235,0.332-0.362c0.584-10.337,0.771-20.598-6.796-30.657
		c-3.702,14.781-9.754,27.071-25.353,30.95c-3.588,1.354-6.515-0.524-9.534-1.952c-1.858-2.146-0.186-4.121,0.292-6.154
		c1.026-2.307,2.24-4.565,1.855-7.234c1.396-7.68,2.502-15.427,4.255-23.024c3.089-13.389,11.739-23.906,20.034-34.107
		c4.019-4.94,11.154-8.336,18.801-7.186c3.811,0.573,7.563,0.24,11.391-0.423c21.857-3.794,39.376,4.64,54.768,19.438
		c8.229,7.91,11.676,18.461,16.336,28.281c1.678,3.539,2.193,7.942,3,11.967c0.871,4.347,2.752,7.688,5.92,10.607
		c3.34,3.078,5.342,6.933,7.191,11.158c7.383,16.881,9.42,34.833,11.563,52.81c0.314,2.623,0.49,5.313,1.906,7.681
		c-0.021,0.274-0.043,0.55-0.063,0.825c-9.074,17.403-22.449,28.814-42.506,31.81c-10.678,1.595-21.248,4.291-32.075,4.182
		c-8.188-0.083-16.531,0.889-24.572-1.712c-0.202-0.56-0.092-1.051,0.332-1.469c7.67-1.108,15.361-0.693,22.992-0.264
		c-7.817-0.462-15.568-0.764-23.313,0.182c-0.354,0.399-0.751,0.73-1.205,1.007c-4.863,0.624-9.498-1.687-14.356-1.09
		c-9.79-0.773-18.195-5.128-25.935-10.693c-3.483-2.505-5.088-6.513-4.097-11.076c5.854-2.333,7.174-8.203,10.017-12.889
		c0.346-0.57,0.11,0.219,0.271-0.409c2.526-9.889,11.02-17.32,11.407-28.192c0.086-2.393,1.86-4.99,3.71-6.915
		c2.367-2.462,4.668-5.507,8.823-2.676c1.339,0.912,3.188-0.735,5.303,0.877c-2.305-2.031-6.343,1.164-6.505-3.465
		c0.096-0.521,0.318-0.967,0.671-1.358c0.438-0.313,0.917-0.521,1.441-0.631c6.393,0.181,11.275,3.512,15.655,7.711
		c3.138,3.007,2.392,7.063,2.385,10.823c-0.021,12.578-6.646,21.968-15.238,30.146c-3.139,2.988-7.41,4.327-11.841,4.307
		c-0.28-0.013-0.5,0.008-0.528,0.062c0.664-0.036,1.25,0.046,1.85,0.204c3.35,0.511,6.674,0.647,9.982-0.142
		c0.708-0.201,1.433-0.313,2.16-0.377c1.634-0.127,3.31,0.035,4.861-0.676c7.156-2.11,11.556-7.384,15.359-13.352
		c0.979-1.535,2.063-2.995,3.142-4.461c1.89-2.5,2.796-5.289,2.496-8.438c0.013-1.193,0.127-2.375,0.382-3.539
		c0.61-2,0.925-4.001,0.009-6.007c-1.856-8.978-6.51-15.546-15.69-18.211c-0.476-0.093-0.934-0.229-1.386-0.386
		c-3.354-0.758-6.83,0.198-10.164-0.724c-1.229-0.395-2.487-1.906-3.664,0.112c-2.517,1.676-5.446,2.413-8.146,3.675
		c-2.368,0.229-4.474-0.375-2.915-3.141C278.557,91.628,277.958,85.8,280.809,81.059z"/>
	<path fill="#3D6A92" d="M423.746,218.87c-11.668,3.504-22.834,9.608-35.479,8.313c-6.709-0.687-13.389-1.481-19.379,1.762
		c-7.986,4.322-16.754,3.363-25.135,4.937c-16.021,2.233-32.151,0.47-48.21,1.354c-2.04,0.112-3.305-1.295-4.954-1.938
		c-1.635-1.88-0.964-4.433-1.91-6.517c-0.354-1.717-0.313-3.459-0.349-5.196c0.812-11.986,1.989-23.944,2.751-35.94
		c1.272-2.406,3.601-2.04,5.73-2.189c16.282,0.022,32.531-0.686,48.716-2.43c8.336-1.354,16.58-3.343,24.676-5.614
		c12.492-3.507,20.793-12.301,26.402-23.789c1.428-2.928-0.998-5.875,0.16-8.777l0.004,0.006c6.691,1.863,13.393,3.695,20.074,5.601
		c9.721,2.77,19.277,5.934,28.035,11.164c7.646,4.567,15.383,8.971,23.207,13.244c7.352,4.017,8.223,11.918,1.92,20.121
		c-7.4,9.631-16.078,18.118-28.689,20.983c-3.201,0.729-6.279,1.994-9.412,3.015C429.094,217.202,426.223,217.191,423.746,218.87z"
		/>
	<path fill="#3D6A92" d="M285.736,100.846c1.042,3.773,4.803,1.019,6.72,2.781c0.501,0.461,1.912,0.209,1.326,1.429
		c-0.304,0.633-1.224,0.972-1.865,1.442c-1.308-2.563-3.645-1.491-5.693-1.934c-4.434-0.956-7.01,0.122-9.475,4.518
		c-1.933,3.446-3.011,7.406-3.477,10.892c-0.636,4.756-3.811,8.028-4.839,12.332c-0.312,1.292-1.108,2.373-2.681,2.614
		c-0.583,0.091-1.608,0.792-1.574,0.882c1.561,4.012-2.271,6.442-2.744,9.367c-0.618,3.817-4.192,5.104-4.728,8.384
		c-1.438-1.236-2.55,1.272-3.961,0.343c-6.604,7.629-6.413,12.969,4.278,19.486c1.562,0.953,3.605,1.586,3.707,3.664
		c0.106,2.234-2.112,2.771-3.657,3.578c-13.562,7.083-24.284,17.898-36.063,27.322c-1.6,1.278-2.658,3.55-5.306,2.961
		c-7.106-1.393-13.91-3.924-21.034-5.45c-7.893-1.689-16.004-5.59-18.789-15.125c-0.766-2.624-0.604-4.521,1.084-6.323
		c4.165-4.452,7.795-9.508,13.464-12.321c1.858-0.325,3.595-1.035,5.325-1.751c14.4-8.214,29.448-14.868,45.961-17.282
		c10.056-1.47,15.622-7.251,19.026-16.303c4.366-11.606,9.137-23.063,13.733-34.584c0.951-0.487,1.688-1.46,2.924-1.292
		c0.831,0.195,1.686,1.069,2.496-0.09c0.377-0.239,0.767-0.408,1.189-0.528C282.781,99.539,284.39,99.579,285.736,100.846z"/>
	<path fill="#E6B35A" d="M569.906,404.237c-3.902,6.892-8.832,9.354-14.947,7.615c-3.338-0.951-4.885-2.756-3.352-6.215
		c5.471-12.339,11.125-24.568,21.789-33.529c3.166-2.662,3.191-2.631,5.424-7.297c-8.328,5.59-14.648,11.541-21.262,17.106
		c-0.354-0.242-0.709-0.483-1.064-0.728c3.984-6.935,7.637-14.09,12.029-20.754c6.77-10.269,14.113-20.156,21.084-30.293
		c3.063-4.455,2.797-5.011-2.426-6.851c-2.975-1.049-5.996-1.974-9.045-2.771c-2.904-0.762-4.166-1.867-1.758-4.629
		c2.605-2.99,2.773-5.457,0.773-9.621c-2.41-5.021-6.58-8.967-8.09-14.437c-0.723-2.617-3.148-4.829-1.516-7.938
		c0.363-0.693,0.252-1.276-0.938-1.664c-3.93-1.276-4.061-3.373-0.992-6.03c1.879-1.63,3.543-3.505,5.307-5.269
		c0.809-0.029,1.402,0.117,0.938,1.139c0.619,2.03,0.805,4.43,4.137,3.011c1.779-0.758,2.846,0.243,2.676,2.26
		c-0.919,10.896,3.438,19.966,9.682,28.451c2.361,3.214,4.311,6.726,6.527,10.05c0.801,1.2,1.451,3.036,3.131,2.855
		c1.422-0.151,1.506-1.969,1.982-3.159c1.3-3.239,2.591-6.483,3.85-9.739c1.188-3.076,0.868-7.41,6.561-6.064
		c2.037,0.482,2.633-2.313,2.939-4.034c0.936-5.231,1.713-10.496,2.407-15.767c1.39-10.521,4.265-13.796,14.536-16.229
		c2.91-0.688,5.852-1.261,8.748-1.992c1.703-0.43,4.117-0.247,4.502-2.446c0.479-2.719-2.805-1.493-3.814-2.901
		c0.271-0.179,0.489-0.44,0.719-0.452c9.475-0.438,10.113,0.126,5.883,8.521c-3.084,6.123-6.521,12.173-13.414,15.468
		c-2.438,1.167-4.26,4.453-5.5,7.165c-7.756,16.946-15.864,33.589-28.711,47.514c-6.162,6.681-9.688,15.444-15.959,22.53
		c7.271-3.457,14.543-6.912,21.813-10.366c1.141-0.481,1.293,0.127,1.16,1.051c-15.521,11.81-28.822,25.856-41.072,40.937
		c-3.131,3.854-5.879,8.022-7.324,12.883c-1.117,3.761,0.078,5.316,3.975,4.972c3.236-0.286,5.959-1.817,8.378-3.929
		C570.223,403.114,570.303,403.639,569.906,404.237z"/>
	<path fill="#E6B35A" d="M561.922,309.901c-0.123,0.974-0.244,1.943-0.342,2.703c-0.424,0.578-0.717,0.504-0.705-0.019
		c0.137-5.51-2.137-7.412-7.938-7.078c-8.822,0.509-11.121,1.839-12.795,10.72c-1.033,5.476-2.941,10.674-6.316,15.019
		c-3.254,4.185-2.998,9.743-6.232,13.803c2.637,0.572,1.391,4.05,3.641,4.886c1.189,0.44,1.976,1.155,2.121,2.678
		c-7.279,1.912-14.656,3.104-20.758,8.593c-5.49,4.938-11.718,9.094-16.9,14.604c-0.285-2.377,1.297-3.813,2.459-5.334
		c4.037-5.287,8.209-10.472,12.314-15.707c9.381-11.965,14.496-25.651,16.203-40.658c0.635-5.588-1.055-7.303-6.561-7.147
		c-1.822,0.052-3.688,0.647-5.449,0.396c-3.896-0.563-6.279,0.131-4.818,5.416c-4.891-5.657-4.67-10.569,0.551-16.26
		c-1.555,5.94,1.565,5.271,4.965,5.229c11.674-0.148,14.631-3.937,10.086-14.854c-4.584-11.008-6.274-22.313-5.928-34.092
		c0.063-2.098,1.035-2.646,2.623-3.924c2.789-2.242,1.961-6.785,3.555-10.102c-7.438-1.901-7.438-1.901-11.047,5.079
		c-0.317,0.333-0.646,0.356-0.979,0.022c2.649-11.248,11.729-14.914,21.285-17.937c2.366-0.747,4.924-0.894,7.288-1.646
		c9.212-2.929,21.593,3.979,23.173,13.521c1.252,7.563,3.685,14.879,0.793,22.533c-0.263,0.692-0.313,1.791,0.062,2.348
		c2.553,3.779,0.539,6.702-1.935,9.179c-3.153,3.155-6.709,5.912-10.575,9.264c0.436-4.438,0.637-8.26,1.26-12.013
		c0.289-1.732,0.961-4.196,2.224-4.847c7.879-4.05,2.69-10.759,3.303-16.095c0.56-4.863-4.313-6.563-7.896-8.638
		c-3.42-1.979-6.852-1.144-10.035,0.335c-12.834,5.957-17.381,18.292-11.202,31.158c3.834,7.981,6.914,16.188,9.299,24.682
		c1.021,3.627,2.871,5.924,7.067,5.256c1.142-0.183,2.328-0.043,3.494-0.088c4.556-0.177,10.365,1.62,10.043-7.252
		c-0.719,6.678,2.584,8.678,7.826,9.637c-1.74,0.479-3.479,0.959-5.224,1.438C560.555,305.403,563.166,308.395,561.922,309.901z"/>
	<path fill="#E6B35A" d="M220.628,280.836c-0.233-0.764-0.896-1.789-0.619-2.231c0.612-0.984,1.319-0.111,1.842,0.438
		c1.747,1.849,3.473,3.718,5.318,5.699c1.285-2.41-0.291-3.882-0.613-5.563c-0.373-1.084,0.194-1.333,1.123-1.267
		c2.933,3.422,4.339,7.407,4.469,11.89c0.033,1.146,0.013,2.354,0.376,3.411c0.457,1.33,0.774,3.274,2.695,3.035
		c1.645-0.207,1.519-1.922,1.615-3.242c0.068-0.928,0.145-1.854,0.278-3.602c2.827,3.407,3.206,6.782,2.293,9.842
		c-1.12,3.752-3.464,2.635-5.285-0.261c-1.14,2.979-1.28,5.423-0.887,7.938c1.056,6.775,0.218,13.527-0.332,20.279
		c-0.104,1.256-0.415,2.377-0.13,3.771c0.637,3.133,0.931,6.532-3.897,6.75c0.713,2.438,2.635,3.323,4.063,4.618
		c6.086,5.521,8.476,5.324,13.91-1.021c0.507-0.592,1.149-0.979,1.074-2.018c-0.594-8.125-1.417-16.25-1.548-24.386
		c-0.161-9.948-0.246-19.879-1.671-29.748c-0.336-2.329,0.675-3.353,3.082-3.311c4.974,0.09,9.951,0.026,14.915,0.026
		c0.021-0.326,0.087,0.171-0.027,0.217c-6.893,2.787-6.877,8.246-5.527,14.217c2.34,10.359,0.681,20.688-0.275,31.015
		c-0.343,3.711,0.352,7.3,0.846,10.922c0.047,0.326,0.075,0.683,0.226,0.966c1.663,3.159,12.932,6.223,16.038,4.414
		c1.089-0.636,1.957-1.449,1.835-2.729c-0.271-2.834-0.825-5.644-1.049-8.478c-0.585-7.427-2.765-14.668-1.783-22.302
		c0.728-5.666-1.943-11.06-2.718-16.65c-1.319-9.529-1.511-9.514,7.871-10.479c3.609-0.372,7.226-0.695,12.382-1.188
		c-12.579,6.797-6.949,17.176-7.094,25.894c-0.144,8.769,1.17,17.601,2.348,26.334c0.503,3.733-2.121,5.222-3.431,7.772
		c-3.433,6.703-8.956,12.067-11.714,19.129c-0.165,0.423-0.61,0.736-1.382,1.623c-2.896-7.276-7.574-12.987-12.298-18.685
		c-1.484-1.789-2.224-2.146-4.018-0.039c-5.2,6.103-10.146,12.324-13.862,20.847c-3.844-9.746-9.762-17.106-14.694-25.088
		c-0.703-1.138-0.503-2.91-0.511-4.39c-0.074-13.817-0.083-27.637-0.179-41.456c-0.01-1.228,0.729-2.941-0.749-3.615
		c-1.726-0.787-2.53,1.067-3.923,2.377c-0.81-3.292,0.338-5.386,2.629-6.985c1.715-1.199,2.346-2.277,0.041-3.462
		C221.415,281.584,220.797,281.401,220.628,280.836z"/>
	<path fill="#E4B25A" d="M215.707,210.91c14.271-12.076,27.75-25.192,45.396-33.958c-4.155-2.285-8.248-3.718-11.204-6.991
		c-4.947-5.479-3.77-12.677,2.849-16.063c-0.313,6.263,2.268,10.795,8.031,13.41c6.711,3.043,12.969,7.308,20.671,7.688
		c5.51,0.519,10.905,1.697,16.313,2.816c17.8,0.948,35.33-0.381,53.046-3.075c20.492-3.115,34.572-13.363,44.35-30.862
		c0.273-0.491,1.063-0.694,1.611-1.033c2.598,7.33-0.691,15.037-6.582,21.632c-11.729,13.128-27.877,14.135-43.285,17.486
		c-5.904,0.225-11.729,1.565-17.652,1.391c-10.405-0.311-20.729,1.721-31.136,1.02c-1.024,0.004-2.058-0.007-3.079,0.007
		c-1.237,0.262-2.792-1.396-3.761,0.6c0.029,0.377,0.156,0.717,0.385,1.02c1.37,6.209-0.367,12.353-0.484,18.529
		c-0.106,5.748-0.979,11.479-1.516,17.222c-0.928,2.397-0.165,4.774,0.024,7.176c0.148,1.92,0.338,3.936-1.2,5.527
		c-1.291,4.239-1.313,8.45,0.081,12.694c0.399,1.221,0.914,2.767-0.029,3.832c-1.2,1.356-2.366-0.45-3.549-0.477
		c-6.005-0.13-6.521-3.997-6.021-8.596c0.369-3.404-0.682-6.592-1.414-9.831c-0.545-0.91-0.638-1.9-0.298-2.871
		c3.563-10.185,4.469-21.061,8.131-31.212c0.867-2.4,1.129-4.815,0.867-7.309c-0.125-0.43-0.263-0.864-0.438-1.275
		c-0.435-1.502-1.505-1.788-2.889-1.484c-1.385,0.192-2.754,0.174-4.107-0.182c-9.008-4.573-16.965-3.604-24.124,3.957
		c-2.944,3.109-7.086,4.83-10.742,7.093c-7.001,4.331-13.696,9.028-18.61,15.817c-3.018,6.301-2.326,12.995-1.7,19.741
		c-9.071-2.372-9.098-2.373-8.689-11.065C215.136,219.155,215.448,215.034,215.707,210.91z"/>
	<path fill="#E6B35A" d="M400.885,352.825c-0.248-3.123-0.908-4.962-4.332-2.146c-7.188,5.907-15.385,10.506-22.164,16.942
		c-2.535,2.405-4.102,0.246-5.266-1.295c-2.432-3.222-4.572-6.474-9.104-7.087c-1.049-0.143-2.418-1.567-2.758-2.674
		c-1.432-4.646-4.436-7.573-8.77-9.537c-1.998-0.903-2.885-2.354-2.18-5.065c2.309-8.881-0.84-17.832-0.23-26.797
		c0.111-1.627-2.02-2.742-3.463-3.207c4.563-4.539,10.188-8.039,12.688-14.396c0.697-1.771,1.887-3.358,3.572-4.018
		c4.52-1.761,7.689-5.204,10.99-8.436c2.084-2.041,3.979-2.725,6.543-1.134c8.512,5.273,18.361,7.905,26.594,13.9
		c3.113,2.271,1.428,4.649,1.742,6.8c0.578,3.936-0.043,8.03,0.066,12.053c0.066,2.412-0.832,3.281-3.188,3.104
		c-8.584-0.646-17.027,2.063-25.826,0.483c-3.146-0.565-8.633-1.782-11.263,4.326c-2.056,4.772-7.153,3.291-10.933-2.715
		c-1.91-4.396,1.525-5.841,4.24-7.685c7.512-0.931,14.92-2.423,22.264-4.248c1.957-0.485,3.895-0.657,5.847-0.084
		c1.308,0.487,2.036,1.407,2.099,2.256c-0.133,1.257,0.748,0.896,0.463,0.627c-0.611-0.573-0.418-1.479,0.141-2.192
		c0.619-0.375,1.273-0.433,1.957-0.24c0.297,0.134,0.521,0.38,0.785,0.527c0.496,0.274,0.197,1.117,0.908,1.194
		c-0.369-0.353-0.404-0.838-0.535-1.313c-0.207-0.832-0.551-1.752-0.24-2.471c2.432-5.611-1.646-7.558-5.373-9.713
		c-1.436-0.832-2.947-1.52-4.402-2.314c-5.775-3.162-5.822-3.188-9.168,2.668c-0.922,1.613-2.453,2.097-3.91,2.859
		c-5.143,2.698-8.754,6.887-11.424,11.961c-2.416,2.635-5.479,4.948-4.588,9.229c3.342,4.729,3.648,10.133,3.521,15.647
		c-0.016,0.61,0.773,1.469,0.557,1.812c-3.391,5.349,1.479,6.271,4.363,8.122c3.697,2.378,7.84,4.232,9.277,9.382
		c3.914-3.371,6.26-7.606,10.59-10.487c3.857-2.564,7.549-5.234,12.123-6.691c-1.471-3.504-4.535-4.518-7.271-5.938
		c-0.604-2.076,1.479-1.1,2.065-1.822c3.969-0.074,7.941-0.094,11.908-0.24c3.037-0.112,4.105,1.214,3.832,4.214
		c-0.482,5.26-0.729,10.543-1.072,15.813C402.014,353.467,401.453,353.463,400.885,352.825z"/>
	<path fill="#E6B35A" d="M320.71,355.116c4.05-7.8,6.679-15.854,6.875-24.373c0.188-8.104-6.008-11.406-14.656-8.084
		c-2.831,1.088-5.629,1.725-8.584,2.075c-9.536,1.134-15.113-5.703-11.914-14.625c3.673-10.243,10.022-18.731,17.428-26.507
		c2.382-2.501,4.209-3.655,7.488,0.025c5.426,6.093,13.768,6.865,21.229,9.033c0.768,0.221,1.262-0.29,1.604-0.88
		c0.576-0.991-0.063-1.28-0.855-1.797c-2.385-1.545-3.068-4.039-1.859-6.385c0.826-1.606,3.039-1.167,4.588-0.563
		c2.739,1.069,2.826,3.073,2.066,5.724c-1.414,4.944-2.868,9.932-2.221,17c-6.053-8.134-13.813-7.326-21.141-7.718
		c-3.225-0.172-6.162-0.735-8.816-2.571c-2.526-1.746-3.612-0.438-3.858,1.983c-0.251,2.474-0.526,5.01-0.236,7.455
		c0.585,4.924,3.38,6.907,8.305,5.979c3.916-0.738,7.733-2.009,11.652-2.724c6.157-1.123,9.325,1.25,11.082,7.114
		c1.563,5.234,0.977,10.392-0.584,15.246c-4.219,13.125-9.979,25.438-21.069,34.438c-1.573,1.277-3.069,2.615-5.133,2.899
		c-2.08,0.289-3.344,0.104-3.109-2.844c0.575-7.229-4.368-15.526-10.669-18.271c-2.197-0.959-5.761-3.235-4.444,2.621
		c0.578,2.567-0.019,5.131-2.937,6.149c-2.063,0.724-3.521-0.479-4.562-2.156c-1.652-2.666-0.553-5.114,1.479-6.639
		c3.309-2.479,7.016-4.435,10.585-6.562c1.433-0.854,2.526,0.354,3.695,0.842C309.37,344.042,314.27,350.196,320.71,355.116z"/>
	<path fill="#3D6A92" d="M286.867,188.732c1.575,2.887,1.038,5.94,0.083,8.713c-3.905,11.342-4.675,23.521-9.403,34.627
		c-10.291-3.811-21.165-5.178-31.807-7.487c-7.68-1.668-13.792-6.271-20.404-9.978c1.018-6.155,6.08-9.083,10.505-12.007
		c8.452-5.586,17.097-10.885,25.062-17.165c3.176-2.504,6.326-3.419,10.165-1.654c2.553,1.175,5.268,1.999,7.91,2.979
		c1.527,1.859,3.053,1.604,4.571-0.011c2.776-2.211,2.829,0.228,3.31,1.938c-1.246,1.588-0.187,3.528-0.802,5.213
		c-0.007,0.667,1.113-0.274,0.503-0.01c-0.108,0.046-0.176-0.075-0.185-0.365C286.329,191.906,285.826,190.24,286.867,188.732z"/>
	<path fill="#E6B35A" d="M137.932,296.92c-3.441,2.524-4.961-0.265-6.719-2.422c-1.615-1.985-2.695-4.567-5.946-4.555
		c-4.896,0.021-6.202,1.473-6.712,7.866c-0.608,0.726-0.586,1.433,0.062,2.121c0.041,4.813-0.511,9.729,0.29,14.412
		c0.788,4.604-0.125,8.928-1.168,13.059c-1.573,6.231-0.175,12.642-1.962,18.767c-0.415,1.42,1.225,2.119,1.742,3.351
		c-8.534,1.198-13.313,8.83-20.822,11.418c-1.034-1.049-0.148-1.797,0.287-2.174c8.162-7.109,6.407-16.478,6.605-25.765
		c0.298-13.679-2.401-27.263-0.864-40.925c0.313-2.78-0.766-4.303-3.168-5.467c-2.271-1.099-4.652-1.559-7.186-2.379
		c4.227-1.11,8.452-2.213,12.672-3.34c2.917-0.778,5.918-1.606,7.595-4.354c1.974-3.238,4.533-1.35,6.845-0.999
		c2.562,0.388,1.289,2.606,1.248,3.879c-0.091,2.821,1.058,2.629,3.272,2.28c7.104-1.114,14.04-4.687,21.482-1.733
		c3.683,1.461,7.64,2.406,9.662,6.444c3.316,6.628,1.549,13.894-4.603,18.146c-1.853,1.283-4.223,1.486-5.426-0.28
		c-1.419-2.086-6.682-0.869-4.808-5.625c0.425-1.08-1.258-0.854-1.274-1.744c-0.097-0.489,0.19-0.961,0.071-1.452
		C138.871,296.065,138.373,296.469,137.932,296.92z"/>
	<path fill="#E6B35A" d="M405.76,283.893c10.082-1.006,18.961-5.513,28.443-10.488c-0.453,3.173-0.773,5.426-1.203,8.414
		c5.957-2.508,11.875-3.281,17.988-3.032c8.482,0.344,14.088,4.133,17.98,11.901c3.02,6.024-1.617,13.599-8.566,13.99
		c-5.545,0.313-9.383-6.449-6.779-12.427c-5.854-1.304-11.693-1.808-17.59-1.121c-1.805,0.209-3.832,0.933-3.889,3.209
		c-0.146,5.953-1.34,11.75-2.313,17.584c-0.242,2.957,1.318,5.943-0.148,8.882c-0.316,0.094-0.633,0.187-0.949,0.278
		c4.433,3.854,2.18,7.578,0.297,11.81c-2.471,5.549-2.227,11.978-4.771,17.59c-0.693,1.531,0.008,2.072,1.313,2.479
		c2.047,0.64,4.07,1.347,6.105,2.022c-0.814,2.554-2.607,1.168-4.096,1.021c-5.688-0.674-10.797,0.879-15.482,4.043
		c-1.313,0.531-1.51-0.178-1.385-1.243c-1.115-3.988,2.184-5.976,3.818-8.791c2.871-4.943,1.367-10.421,0.889-15.604
		c-1.283-13.859-3.182-27.636-0.768-41.607c1.152-6.672,0.666-6.763-5.867-7.735c-0.98-0.146-1.98-0.193-2.975-0.286
		c-0.375-0.175-0.508-0.363-0.398-0.566C405.525,283.999,405.641,283.893,405.76,283.893z"/>
	<path fill="#E6B35A" d="M493.586,339.938c-0.381,3.358-0.271,6.467,2.275,9.246c1.904,2.073,0.65,2.683-1.719,2.558
		c-6.398-0.339-12.176,2.209-15.705,7.026c-4.012,5.476-10.119,7.104-15.121,10.805c1.49-3.745,3.971-7.155,7.037-9.063
		c7.883-4.904,7.783-12.755,8.121-20.148c0.27-5.914-0.705-11.885,0.295-17.852c0.328-1.953,0.902-4.367-2.426-4.906
		c-0.986-0.158-0.828-1.688-0.668-2.664c0.215-1.31,0.539-2.601,0.854-3.89c0.615-2.521-1.609-3.991-2.648-5.565
		c-1.066-1.614-2.707,0.854-4.035,1.591c-1.443,0.801-2.729,1.887-4.084,2.848c-1.133,0.203-2.65,1.552-2.879-0.961
		c10.297-5.41,15.375-14.828,18.918-25.224c1.693-4.969,4.457-8.754,8.75-11.666c3.01-2.04,4.893-1.074,6.375,1.791
		c1.033,1.995,0.992,4.161,1.02,6.328c0.076,5.925-1.02,11.847,0.807,17.777c0.693,2.264,1.264,5.45-2.203,6.838
		c-0.906,0.362-1.08,1.207-1.137,2.039c-0.582,8.664-1.145,17.327-1.713,25.993c-1.42,1.082-3.107,0.142-4.332,0.606
		c1.264,0.148,2.889-0.555,4.34,0.468c-0.043,1.301-0.086,2.603-0.129,3.901C492.072,338.526,492.18,339.235,493.586,339.938z"/>
	<path fill="#668AC6" d="M487.83,263.939c-4.902-5.479-4.387-13.2,1.137-17.41c0.504-0.384,0.998-0.943,1.203-1.524
		c2.334-6.609,8.27-10.837,11.268-17.396c0.85,5.231,0.297,9.78-3.393,13.499c1.723,1.073,2.104-1.086,3.48-0.599
		c-0.602,3.35-3.449,5.556-4.799,8.906c6.844-0.412,1.813,3.008,1.77,5.334c2.668-0.72,5.588-1.301,3.447,3.048
		c-0.465,0.941-0.824,1.833,0.74,2.219c1.063,0.262,1.02,1.051,0.564,1.938c-1.803,3.522-10.85,5.36-14.502,2.923
		c0.682-0.827,1.645-1.036,2.627-1.264c4.83-1.116,4.479-0.954,2.479-5.008c-1.178-2.385-2.59-5.063-1.92-8.098
		c-3.914,2.124-5.451,4.961-3.49,9.247C489.055,261.098,489.074,262.7,487.83,263.939z"/>
	<path fill="#C5D9EA" d="M487.83,263.939c-0.047-0.993,0.281-2.257-0.201-2.939c-4.195-5.901,0.865-9.11,3.665-12.953
		c0.319-0.438,1.146-0.858,1.625-0.758c1.048,0.221,1.128,1.603,0.769,1.997c-2.766,3.038,1.453,5.279,0.797,8.105
		c-0.438,1.883,0.957,0.81,1.787,0.856c2.018,0.118,0.979,3.043,2.891,3.394c-0.713,0.661-1.332,1.48-2.15,1.954
		c-2.564,1.478-5.443,1.251-8.262,1.282C488.441,264.565,488.137,264.252,487.83,263.939z"/>
	<path fill="#487299" d="M288.48,234.448c0.307-4.241-0.072-8.549,1.177-12.702c0.067,1.769,0.136,3.536,0.204,5.306
		c1.025,1.829-0.35,4.026,0.895,5.821c2.645,1.769,5.57,0.916,8.438,1.094c11.67,0.726,23.363-0.983,35.02,0.505
		c3.188,0.405,6.213-2.697,9.543-0.589c-5.855,2.282-12.063,2.529-18.146,2.227C313.235,235.489,300.719,237.913,288.48,234.448z"/>
	<path fill="#457097" d="M277.752,100.891c-1.091,0.293-2.183,0.586-3.273,0.879c-1.229-6.337,4.005-11.271,3.8-17.439
		c-0.043-1.308,0.791-2.875,2.532-3.271c0.72,1.237,1.034,2.385-0.36,3.46c-0.604,0.467-1.558,1.546-1.426,1.75
		c2.848,4.422-1.852,7.104-2.46,10.711c-0.421,2.496,1.154,1.642,2.186,1.896c2.788-0.462,5.834-3.175,8.099,0.931
		c-0.417,0.08-0.835,0.159-1.252,0.239c-1.852,0.899-4.006-0.362-5.815,0.814l-0.037,0.012
		C279.083,101.502,278.42,101.464,277.752,100.891z"/>
	<path fill="#E6B662" d="M571.861,272.077c-0.313-0.381-0.625-0.761-0.938-1.14c2.158-4.782,4.453-9.521,4.916-14.861
		c0.928-0.493,1.217-0.165,1.018,0.792c0.041,2.796-0.758,5.688,0.549,8.354c2.141,4.357,0.738,6.104-3.939,5.828
		C572.953,271.018,572.396,271.716,571.861,272.077z"/>
	<path fill="#E6B663" d="M401.828,355.881c-0.063,1.476-0.063,2.955-0.205,4.423c-0.137,1.42-0.822,2.5-2.369,2.711
		c-0.939,0.127-1.666-0.361-1.828-1.246c-0.254-1.377-0.006-2.867,1.639-2.994c2.107-0.164,1.525-1.726,1.879-2.832
		C401.217,355.586,401.512,355.583,401.828,355.881z"/>
	<path fill="#EDE6DA" d="M357.922,315c-2.992,1.345-4.621,3.533-4.311,6.933c-0.313,0.354-0.627,0.709-0.939,1.063
		c-2.012-4.537,0.654-7.015,4.045-9.172C357.369,313.958,357.783,314.338,357.922,315z"/>
	<path fill="#477198" d="M423.746,218.87c-0.105-0.701-1.211-1.771-0.906-1.692c3.076,0.788,6.043-2.433,9.066-0.203
		C429.287,218.04,426.629,218.929,423.746,218.87z"/>
	<path fill="#4C749A" d="M239.46,79.036c3.428-0.562,5.981,3.13,9.533,1.951C245.284,82.939,242.131,82.162,239.46,79.036z"/>
	<path fill="#EBD3A8" d="M513.611,248.739c0.086,1.566,0.428,3.173-0.842,5.5c-1.412-3.063-1.314-5.27-0.256-7.532
		C513.605,246.992,512.986,248.202,513.611,248.739z"/>
	<path fill="#ECDAB9" d="M462.885,308.961c0.637,1.291,1.896,0.715,2.879,0.961c-2.301,1.646-4.688,1.021-7.352,0.572
		C459.658,308.313,461.375,308.999,462.885,308.961z"/>
	<path fill="#EACC96" d="M429.682,320.805c-0.52-2.443,1.619-5.519-1.877-7.359c-0.383-0.2,1.188-1.141,2.025-1.521
		C430.83,314.903,431.574,317.875,429.682,320.805z"/>
	<path fill="#E9C78C" d="M120.261,354.387c1.612,1.92,1.386,3.389,0.158,4.729c-0.198,0.219-1.065,0.219-1.237,0.006
		C117.633,357.211,119.384,355.981,120.261,354.387z"/>
	<path fill="#E8C17E" d="M427.582,356.004c1.34-0.448,2.988,0.363,4.096-1.021c1.352,0.345,2.703,0.687,4.055,1.027
		C432.939,356.803,430.227,357.35,427.582,356.004z"/>
	<path fill="#ECDCBF" d="M561.922,309.901c-0.121-1.756-0.182-3.521-0.387-5.266c-0.102-0.861-0.318-1.664,0.925-1.597
		c0.974,0.056,1.229,0.89,1.459,1.672C561.914,305.926,563.533,308.536,561.922,309.901z"/>
	<path fill="#4C749A" d="M241.608,65.647c1.868,3.049-0.208,5.087-1.855,7.234C239.745,70.31,240.618,67.963,241.608,65.647z"/>
	<path fill="#E7BB6F" d="M68.924,276.805c-0.666,0.036-1.332,0.073-1.995,0.108c0.372-0.522,0.668-1.137,1.138-1.55
		c0.771-0.681,0.896-2.211,2.387-1.935c0.198,0.036,0.334,0.509,0.465,0.796C71.885,276.342,69.14,275.598,68.924,276.805z"/>
	<path fill="#E8C280" d="M493.586,339.938c-1.365-0.293-3.059,0.449-4.064-1.328c1.156-1.383,2.742-0.473,4.061-0.793
		C493.58,338.524,493.582,339.231,493.586,339.938z"/>
	<path fill="#ECDDC2" d="M406.621,366.76c-0.383,2.008-0.764,4.014-1.146,6.021c-0.604-2.073-1.547-4.161,0.477-5.926
		C406.176,366.825,406.396,366.792,406.621,366.76z"/>
	<path fill="#E7B763" d="M569.906,404.237c-0.08-0.524-0.158-1.051-0.236-1.577c0.205-1.479-0.131-3.322,2.525-3.394
		C571.783,401.178,571.459,402.958,569.906,404.237z"/>
	<path fill="#E7BA6D" d="M227.677,277.913c-0.374,0.422-0.748,0.844-1.122,1.267c-1.124-1.091-2.132-2.246-2.313-4.146
		C226.307,275.108,227.046,276.444,227.677,277.913z"/>
	<path fill="#E9C88D" d="M406.621,366.76c-0.227,0.021-0.447,0.055-0.672,0.096c0.039-1.916,0.332-3.726,2.029-4.961
		c0.395-0.36,0.717-0.324,0.955,0.172C408.164,363.631,407.393,365.196,406.621,366.76z"/>
	<path fill="#ECDBBD" d="M387.9,333.02c-0.688,0.606-1.377,1.215-2.066,1.821c-1.023-0.411-2.051-0.821-3.076-1.231
		c0.021-0.196,0.043-0.394,0.063-0.59C384.514,333.02,386.207,333.02,387.9,333.02z"/>
	<path fill="#EDE6D8" d="M576.857,256.868c-0.34-0.266-0.68-0.529-1.018-0.793c-0.146-1.396,0.416-2.464,1.494-3.551
		C577.941,254.249,578.053,255.639,576.857,256.868z"/>
	<path fill="#E8BF79" d="M398.449,280.895c-2-0.476-2.936-1.146-3.037-2.838C397.441,277.616,397.773,279.04,398.449,280.895z"/>
	<path fill="#EEE6D8" d="M137.932,296.92c0.87-1.479,0.695-3.17,0.892-4.829c1.118,1.612,1.526,3.188,0.21,4.813
		C138.668,296.909,138.3,296.915,137.932,296.92z"/>
	<path fill="#E8BF77" d="M513.611,248.739c-0.365-0.678-0.729-1.354-1.098-2.032c0.197-1.021,0.137-2.146,1.154-2.832
		c0.324-0.008,0.65-0.017,0.979-0.022C514.302,245.48,513.957,247.11,513.611,248.739z"/>
	<path fill="#EBCF9D" d="M513.777,255.475c1.367,0.774,1.326,1.871,1.496,3.871C513.568,258.002,513.01,257.165,513.777,255.475z"/>
	<path fill="#5C7EA1" d="M195.757,169.939c-1.422,1.656-3.242,2.1-5.324,1.751C191.885,170.13,193.83,170.063,195.757,169.939z"/>
	<path fill="#E7BA6E" d="M605.715,347.797c-0.389-0.353-0.771-0.7-1.16-1.051c1.098-0.929,2.152-1.955,3.854-1.552
		C608.078,346.758,606.927,347.307,605.715,347.797z"/>
	<path fill="#E9C484" d="M401.828,355.881c-0.295,0.033-0.59,0.054-0.887,0.062c-0.02-1.039-0.037-2.077-0.057-3.116
		c0.563-0.007,1.123-0.013,1.684-0.019C402.738,353.932,402.84,355.04,401.828,355.881z"/>
	<path fill="#E7BD73" d="M220.628,280.836c0.352,0.41,0.7,0.821,1.051,1.231c-1.74-0.108-3.481-0.221-5.521-0.351
		C217.719,280.381,219.249,281.085,220.628,280.836z"/>
	<path fill="#E6B35A" d="M408.934,362.067c-0.301-0.16-0.619-0.217-0.955-0.172c0.346-1.531,1.684-2.187,2.734-3.092
		c0.461,0.413,0.922,0.827,1.383,1.241C411.045,360.719,409.988,361.393,408.934,362.067z"/>
	<path fill="#EACA93" d="M405.76,283.893c-0.02,0.296,0,0.59,0.055,0.883c-1.385,0.229-2.639,0.081-3.547-1.236
		C403.596,282.186,404.623,283.627,405.76,283.893z"/>
	<path fill="#E9C382" d="M118.617,299.932c-0.728-0.195-2.08-0.394-2.079-0.588c0.002-1.203,1.088-1.33,2.019-1.533
		C118.575,298.518,118.596,299.225,118.617,299.932z"/>
	<path fill="#EBCD99" d="M493.707,333.915c-1.279,0-2.563,0-3.846,0c-0.02-0.276-0.037-0.554-0.057-0.83
		c1.299-0.082,2.596-0.164,3.895-0.244C493.703,333.198,493.705,333.555,493.707,333.915z"/>
	<path fill="#E5B25A" d="M286.845,99.807c-2.541-1.688-5.451-0.16-8.099-0.931c1.863-2.884,5.654-1.98,7.938-4.039
		c0.938-0.894,1.96-0.823,3.021-0.253c3.976,1.03,8.277-1.129,12.112,1.248c-3.534,1.146-7.169,0.208-9.361,0.452
		c2.185-0.394,5.831,0.872,9.354-0.463c7.501,1.008,14.396,7.505,15.794,14.817c0.274,1.433,0.752,2.825,1.135,4.236
		c0.802,1.993,0.738,3.992,0.045,5.995c-0.048,1.23-0.096,2.463-0.144,3.693c-0.413,3.278-1.555,6.328-2.897,9.316
		c-1.974,2.88-4.007,5.721-5.905,8.646c-3.137,4.828-7.453,7.958-13.014,9.401c-0.575,0.468-1.239,0.441-1.915,0.346
		c-1.021-0.421-2.157-0.409-3.184-0.855c-0.603-0.263-0.889-0.238-0.222-0.238s-0.428,0.813,0.13,0.445
		c0.556-0.366,0.452,0.926,0.4,0.271c0.117,0.396,0.003,0.697-0.334,0.915c-0.61,0.055-1.222,0.109-1.833,0.165
		c-3.76,0.656-7.521,0.564-11.288,0.049c-0.892-0.085-1.784-0.17-2.676-0.255c-0.755-1.208,0.307-1.365,1.003-1.732
		c13.08-0.908,18.608-10.742,24.061-20.533c3.185-5.721,2.624-12.204,3.136-18.445c0.15-1.83-0.898-3.125-2.108-4.329
		C297.766,103.519,292.883,100.561,286.845,99.807z"/>
	<path fill="#DFAF5C" d="M325.723,97.972c-3.916-0.127-4.009,4.403-7.23,5.966c-0.53-4.949-2.194-8.903-9.149-8.792
		c4.059-3.257,8.271-4.153,7.801-9.207c-0.181-1.947,1.989-0.905,2.946-0.096c1.693,1.435,3.308,2.578,5.779,2.047
		c2.77-0.596,5.793-1.334,2.893,3.459c-1.352,2.227,2.307,2.751,2.936,4.549c-2.277,1.029-4.734,0.159-7.074,0.586
		c-0.649,0.177,0.287,1.103-0.029,0.517c-0.127-0.234-0.033-0.374,0.277-0.408c2.428-0.271,4.854-0.478,7.258,0.176
		c0.622,0.067,1.49,0.145,1.389,0.892c-0.223,1.639-1.688,0.906-2.646,1.138C329.27,97.795,327.33,98.928,325.723,97.972z"/>
	<path fill="#D2A961" d="M300.616,88.933c-0.488-0.381-0.935-0.854-1.479-1.126c-1.429-0.714-4.911,0.788-4.144-1.456
		c0.634-1.854,0.166-4.392,3.438-6.453c6.053-3.813,4.495,4.729,8.185,3.183c-1.749,1.886-4.431,2.568-3.936,5.753
		c0.158,1.016-1.27,0.313-1.989,0.193L300.616,88.933z"/>
	<path fill="#D6AB5F" d="M325.744,112.827c5.438-1.097,6.281,0.526,4.979,11.187c-1.16-4.531-8.372-0.57-6.968-7.131
		c-0.609-1.241-2.103-2.359-1.043-3.901C323.485,111.853,324.691,112.207,325.744,112.827z"/>
	<path fill="#346694" d="M296.771,176.854c-0.01-0.324-0.018-0.646-0.021-0.972c10.002-0.815,20.002-0.817,30.002,0.002
		c-2.688,2.002-5.767,0.855-8.646,0.937c-6.785,0.189-13.58,0.07-20.371,0.076C297.395,177.308,297.073,177.313,296.771,176.854z"/>
	<path fill="#406B8F" d="M326.754,175.885c-10,0-20-0.002-30.002-0.002c5.385-2.153,10.996-0.827,16.482-0.889
		C317.721,174.944,322.375,173.797,326.754,175.885z"/>
	<path fill="#4B6D8E" d="M296.771,176.854c0.319,0.018,0.644,0.031,0.965,0.043c0.01,0.306,0.021,0.609,0.024,0.916
		c-5.665,0.391-10.835-2.104-16.311-2.817C286.707,174.376,291.702,175.919,296.771,176.854z"/>
	<path fill="#456B90" d="M315.746,133.883c0.354-3.296,1.816-6.244,2.897-9.314C319.155,128.131,318.261,131.26,315.746,133.883z"/>
	<path fill="#A89670" d="M278.584,153.026c3.764-0.017,7.524-0.032,11.287-0.05C286.116,154.535,282.353,154.545,278.584,153.026z"
		/>
	<path fill="#426B90" d="M325.744,112.827c-4.627-0.594-1.997,2.375-1.988,4.056c-2.121-1.162-2.7-2.963-1.325-4.854
		C323.77,110.19,324.898,111.43,325.744,112.827z"/>
	<path fill="#336594" d="M287.467,155.628c-2.546,0-5.092,0-7.638,0c0-0.164,0.001-0.328,0.001-0.491c2.558,0,5.111,0,7.667,0
		C287.487,155.3,287.477,155.464,287.467,155.628z"/>
	<path fill="#F1B856" d="M332.125,96.767c-2.758,0-5.514,0-8.271,0c0.001-0.29,0.002-0.58,0.004-0.87c2.613,0,5.228,0,7.837,0
		C331.902,96.156,332.047,96.446,332.125,96.767z"/>
	<path fill="#326494" d="M300.692,89.026c-1.867,2.237-3.923,0.197-5.892-0.094c1.938,0,3.878,0,5.813,0L300.692,89.026z"/>
	<path fill="#2F6495" d="M289.709,94.584c-1.008,0.084-2.015,0.168-3.021,0.253c-0.693-0.684-0.813-1.455,0.207-1.766
		C288.2,92.675,289.423,92.869,289.709,94.584z"/>
	<path fill="#306495" d="M296.223,93.063c1.774,0,3.554,0,5.33,0C299.641,94.099,297.728,93.943,296.223,93.063z"/>
	<path fill="#346694" d="M335.025,100.216c-3.006,0.815-4.537,0.812-7.555,0C330.469,100.216,331.998,100.216,335.025,100.216z"/>
	<path fill="#75817E" d="M276.911,151.038c-0.334,0.577-0.669,1.154-1.003,1.732c-0.977-0.087-2.806,0.661-2.418-1.082
		C273.796,150.305,275.689,151.046,276.911,151.038z"/>
	<path fill="#316495" d="M356.836,172.474c-2.949,0.392-4.504,0.764-6.223-0.173C352.432,171.672,354.018,171.744,356.836,172.474z"
		/>
	<path fill="#2A6097" d="M279.778,100.862c1.749-1.625,3.853-0.728,5.816-0.815c0.092,0.261,0.139,0.525,0.142,0.801
		C283.75,100.851,281.764,100.857,279.778,100.862z"/>
	<path fill="#2C6296" d="M304.092,89.337c-0.292-1.693-0.646-3.011,1.896-3.41C305.291,87.179,304.777,88.104,304.092,89.337z"/>
	<path fill="#456B90" d="M318.787,120.872c-0.016-1.999-0.028-3.997-0.045-5.995C320.279,116.864,320.246,118.862,318.787,120.872z"
		/>
	<path fill="#6D7C83" d="M325.723,97.972c1.775-0.114,3.586-0.431,5.146,0.822C329.086,98.953,327.248,99.431,325.723,97.972z"/>
	<path fill="#2F6495" d="M323.474,86.372c1.321-0.623,2.239-0.63,3.393-0.08C325.802,87.046,324.863,86.994,323.474,86.372z"/>
	<path fill="#2E6396" d="M335.57,175.378c1.063-0.731,2.664-0.724,2.803-0.237c0.359,1.25-0.936,0.507-1.486,0.646
		C336.547,175.873,336.102,175.559,335.57,175.378z"/>
	<path fill="#336595" d="M292.476,154.38c1.315-0.637,2.234-0.644,3.393-0.08C294.805,155.071,293.864,155.012,292.476,154.38z"/>
	<path fill="#A89670" d="M294.707,151.823c0.706,0.036,1.413,0.072,2.119,0.107c-1.493,1.53-3.35,0.96-5.121,0.881
		c0.048-0.291,0.1-0.582,0.148-0.873C292.772,151.135,293.73,151.257,294.707,151.823z"/>
	<path fill="#CBA566" d="M296.639,183.955c11.629-0.354,23.264-0.578,34.882-1.128c5.125-0.242,10.195-1.493,15.377-0.868
		c-16.58,2.856-33.332,2.724-50.067,2.871c-0.342-0.129-0.482-0.303-0.428-0.519C296.466,184.073,296.544,183.955,296.639,183.955z"
		/>
	<path fill="#366694" d="M294.278,186.073c7.407,0,14.813,0,22.222,0c0,0.165-0.002,0.33-0.003,0.496c-7.547,0-15.094,0-22.642,0
		C293.997,186.404,294.137,186.239,294.278,186.073z"/>
	<path fill="#326494" d="M293.564,193.406c0,5.074,0,10.148,0,15.224c-0.166-0.001-0.333-0.002-0.499-0.003
		c0-5.213,0-10.427,0-15.642C293.231,193.126,293.398,193.267,293.564,193.406z"/>
	<path fill="#707F80" d="M296.639,183.955c0.076,0.289,0.142,0.581,0.189,0.875c-1.663,0.662-3.781-0.699-5.175,1.163
		c-0.258-0.037-0.513-0.093-0.763-0.167c-0.556-2.37-0.116-2.676,2.854-1.988C294.711,183.877,295.675,183.916,296.639,183.955z"/>
	<path fill="#2F6396" d="M290.755,232.872c-1.746-1.72-0.748-3.859-0.896-5.823C291.535,228.779,290.413,230.938,290.755,232.872z"
		/>
	<path fill="#2F6395" d="M364.322,179.369c1.549-0.518,2.473-0.667,3.457-0.065C366.803,180.208,365.816,179.959,364.322,179.369z"
		/>
	<path fill="#2F6396" d="M400.268,151.068c-0.742-1.063-0.732-2.668-0.24-2.813c1.271-0.373,0.523,0.938,0.658,1.492
		C400.771,150.091,400.451,150.534,400.268,151.068z"/>
	<path fill="#E6B35A" d="M90.438,291.151c-2.504-0.08-5.415-3.887-8.688-5.259c-4.447-1.868-10.352-1.839-11.628-8.269
		c-0.066-0.339-0.784-0.547-1.199-0.818c-0.697-0.557-1.36-0.469-1.995,0.112c-5.387,6.107-13.705,5.475-20.313,8.788
		c-0.972,0.49-2.478,0.657-2.82-0.983c-0.624-2.998-2.633-6.226-0.569-9.021c1.524-2.065,1.092-3.643,0.424-5.486
		c-1.184-3.26-2.955-6.432,0.621-9.471c0.86-0.731,0.421-2.211-0.085-3.315c-2.298-5.014-1.39-10.49-2.152-15.724
		c-0.227-1.564-1.118-6.009,3.378-2.531c1.988,1.537,2.938-0.664,3.884-1.847c2.392-2.983,3.817-6.663,6.645-9.338
		c1.432-1.352,2.638-3.13,1.581-4.82c-1.155-1.85-2.913-0.044-4.354,0.339c-13.05,3.476-24.088,11.118-35.862,17.252
		c-2.587,1.349-5.476,5.15-8.339,2.339c-3.31-3.25,1.082-5.374,2.776-7.736c1.867-2.603,0.928-4.252-1.951-4.405
		c-3.572-0.192-6.795,1.72-8.432,4.53c-1.964,3.369-1.821,7.35,0.627,10.868c1.972,2.835,4.722,3.352,7.901,2.956
		c3.081-0.382,5.61-1.832,8.101-3.59c4.102-2.896,8.342-5.604,14.759-7.195c-4.082,5.588-4.145,11.183-6.651,15.938
		c-0.961,1.82-3.771,2.222-3.728,3.664c0.088,2.886,2.745,0.187,3.859,1.084c0.723,0.584,1.031,1.675,1.544,2.529
		c3.762,6.288,3.896,13.159,3.848,20.258c-0.052,7.444-0.896,13.882-9.374,16.229c-0.464,0.129-0.867,0.485-1.295,0.744
		c-1.388,0.84-1.629,2.059-0.988,3.437c0.813,1.742,1.992,1.129,3.295,0.514c2.345-1.104,4.377-2.991,7.569-3.153
		c0,6.31,0.176,12.467-0.05,18.612c-0.219,5.957-1.233,11.873-0.085,18.621c-4.848-3.474-7.481-7.375-10.319-11.012
		c-2.337-2.994-4.42-2.525-7.251-0.968c-3.592,1.976-4.838,4.213-3.416,8.442c1.131,3.361,2.823,3.705,5.822,3.449
		c8.93-0.767,9.487-0.261,12.242,8.705c0.487,1.586,1.141,3.123,1.599,4.717c0.608,2.113,2.761,4.81-2.004,4.979
		c-1.17,0.041-2.499,1.343-1.771,2.979c1.094,2.458,2.182,0.781,3.369-0.063c0.616-0.435,2.118-0.785,2.222-0.604
		c2.6,4.578,6.123,1.403,9.41,1.481c11.115,0.261,21.02-4.709,31.604-6.61c0.768-0.14,1.932-0.549,2.116-1.099
		c1.681-5.053,6.378-7.467,9.606-11.139c4.218-4.794,7.714-9.851,9.999-15.933c2.882-7.673,1.552-15.498,1.626-23.228
		C95.581,297.585,99.2,291.431,90.438,291.151z M78.42,308.276c-0.96-0.334-1.859-0.635-2.751-0.963
		c-1.426-0.524-2.643-0.313-3.442,1.063c-0.71,1.224-1.146,2.888-0.057,3.726c6.199,4.758,2.817,10.387,1.035,15.305
		c-3.701,10.22-10.968,17.269-21.368,20.884c-3.103,1.078-6.313-1.59-6.981-6.295c-0.584-4.104-1.033-8.279-0.979-12.416
		c0.153-11.815,0.613-23.629,0.899-35.442c0.043-1.798,0.229-3.396,2.326-3.808c5.281-1.031,10.266-3.052,16.042-1.523
		C72.659,291.319,78.831,298.497,78.42,308.276z"/>
	<path fill="#336593" d="M245.047,161.08c0.874,1.175,0.813,2.394,0.406,3.699C243.968,163.626,245.275,162.272,245.047,161.08z"/>
	<path fill="#3D6A92" d="M277.752,100.891c0.663-0.006,1.326-0.013,1.989-0.019c0.13,0.672,0.92,1.615-0.341,1.843
		C278.167,102.939,277.871,101.898,277.752,100.891z"/>
	<path fill="#EFEBE4" d="M528.701,300.782c1.729-2.287,4.018-3.638,6.785-2.556c2.076,0.813,3.955,2.022,4.313,4.903
		c0.504,4.063-1.912,5.601-4.867,7.019c-3.492,1.679-4.496-1.448-6.222-3.188C528.008,304.901,528.02,302.842,528.701,300.782z"/>
	<path fill="#EEE3CF" d="M528.701,300.782c0.002,2.059,0.006,4.116,0.012,6.176C527.396,304.901,527.529,302.842,528.701,300.782z"
		/>
	<path fill="#366793" d="M283.548,186.75c1.506,1.463,0.528,2.146-0.885,2.037c-1.791-0.137-3.939,1.107-5.333-1.071
		c0.548-0.317,1.096-0.637,1.646-0.955C280.5,186.757,282.024,186.753,283.548,186.75z"/>
	<path fill="#F2B955" d="M325.828,179.146c2.547,0,5.096,0,7.643,0c0.006,0.135,0.014,0.271,0.02,0.406c-2.551,0-5.1,0-7.646,0
		C325.838,179.417,325.832,179.281,325.828,179.146z"/>
	<path fill="#EFB656" d="M286.938,228.381c0-2.424,0-4.848,0-7.271C287.976,223.668,287.874,226.229,286.938,228.381z"/>
	<path fill="#F5BA53" d="M289.943,194.791c0-1.215,0-2.431,0-3.961C291.281,192.174,290.582,193.441,289.943,194.791z"/>
	<path fill="#CBA566" d="M293.747,183.838c-1.252,0.231-3.157-0.474-2.854,1.989c-0.987-0.593-1.464-1.505-0.563-2.332
		C291.437,182.483,292.704,182.74,293.747,183.838z"/>
	<path fill="#F0EDE8" d="M359.5,317.86c2.094-0.11,2.932,1.172,3.141,2.972c0.221,1.92-0.895,3.366-2.572,3.642
		c-2.188,0.356-3.205-1.421-3.41-3.306C356.449,319.276,357.592,318.141,359.5,317.86z"/>
	<path fill="#ECD9B9" d="M386.736,310.891c0.723,0.037,1.443,0.073,2.166,0.108c-0.084,0.959-0.168,1.918-0.332,3.81
		C387.717,312.981,387.225,311.936,386.736,310.891z"/>
	<path fill="#E9C688" d="M390.699,311.135c0.66-0.117,1.32-0.234,1.979-0.353c0.033,1.049,0.436,2.139-0.414,3.299
		C391.703,313.026,391.201,312.081,390.699,311.135z"/>
	<path fill="#E6B35A" d="M217.302,303.023c-1.566-2.151-3.652-3.802-5.827-5.396c-4.78-3.501-10.438-5.219-15.739-7.438
		c-7.891-3.303-15.442-7.687-24.522-9.608c0.638,2.508,6.014,3.396,2.364,5.48c-7.547,4.311-10.104,12.179-14.962,18.356
		c-1.182,1.502-5.754,3.041-1.472,6.215c0.233,0.173-0.239,1.237-0.309,1.894c-0.696,6.711,1.356,13.686-1.946,20.156
		c-0.2,0.391-0.199,1.08,0.015,1.457c2.721,4.775,4.615,9.928,9.363,13.549c6.033,4.604,12.854,8.391,17.262,14.979
		c1.421,2.125,3.359,1.125,5.235-0.082c7.282-4.688,13.799-10.392,20.763-15.496c1.695-1.241,2.802-2.698,2.925-4.928
		c0.629-11.451,0.264-22.904,0.198-34.356c-0.008-1.349-0.773-2.944,0.636-4.103c0.773,0.338,1.117,0.873,1,1.594
		c-0.32,1.959-0.153,3.74,1.989,4.531c1.371,0.506,2.644,0.149,3.466-1.179C218.962,306.679,218.516,304.693,217.302,303.023z
		 M197.565,325.127c-0.586,6.263,0.204,12.522-0.542,18.84c-0.373,3.156-0.782,5.089-3.559,6.421
		c-1.646,0.791-3.279,1.639-4.816,2.62c-1.978,1.263-3.484,0.604-3.596-1.428c-0.395-7.08-6.027-8.11-10.981-9.72
		c-7.871-2.555-7.907-2.414-7.447-10.649c0.121-2.162,0.521-4.383,0.187-6.479c-1.318-8.269,1.71-15.043,6.343-21.608
		c1.921-2.726,3.076-6.037,5.379-8.584c2.71-2.996,5.659-4.455,9.542-1.795c2.188,1.498,4.521,2.885,6.969,3.873
		c4.118,1.662,4.794,5.173,5.287,8.676C198.93,311.939,198.183,318.516,197.565,325.127z"/>
	<path fill="#2D6296" d="M286.867,188.732c-0.098,1.965-0.196,3.931-0.294,5.895c-0.683-2.031-1.508-4.074,0.283-5.938
		C286.856,188.688,286.867,188.732,286.867,188.732z"/>
	<path fill="#326594" d="M280.237,214.7c0.746,1.063,0.74,2.666,0.238,2.813c-1.277,0.379-0.527-0.938-0.66-1.493
		C279.731,215.674,280.051,215.231,280.237,214.7z"/>
	<path fill="#F2B855" d="M301.813,95.822c-3.844,2.184-7.896,0.583-11.869,0.011c3.958,0,7.917,0,11.876,0L301.813,95.822z"/>
	<path fill="#F3B955" d="M294.707,151.823c-0.952,0.038-1.902,0.077-2.854,0.115c-0.63-0.07-1.264-0.144-1.895-0.214
		C291.577,150.963,293.183,150.357,294.707,151.823z"/>
	<path fill="#F0B856" d="M318.59,85.858c0,2.056,0,2.979,0,4.493C317.578,88.925,317.645,87.981,318.59,85.858z"/>
	<path fill="#E6B560" d="M532.287,300.086c3.242-0.131,4.654,1.651,4.818,3.533c0.15,1.726-0.264,4.135-3.16,4.194
		c-2.49,0.054-3.691-1.397-4.029-3.526C529.559,302.018,530.809,300.608,532.287,300.086z"/>
</g>
</svg>
