<?xml version="1.0" encoding="utf-8"?>
<!-- Generator: Adobe Illustrator 16.0.0, SVG Export Plug-In . SVG Version: 6.00 Build 0)  -->
<!DOCTYPE svg PUBLIC "-//W3C//DTD SVG 1.1 Tiny//EN" "http://www.w3.org/Graphics/SVG/1.1/DTD/svg11-tiny.dtd">
<svg version="1.1" baseProfile="tiny" id="Layer_1" xmlns="http://www.w3.org/2000/svg" xmlns:xlink="http://www.w3.org/1999/xlink"
	 x="0px" y="0px" width="730.063px" height="833.57px" viewBox="0 0 730.063 833.57" overflow="scroll" xml:space="preserve">
<g>
	<path fill-rule="evenodd" fill="#9BDB10" d="M368.237,833.342c-1.085,0-2.169,0-3.254,0c-0.672-1.485-2.132-1.378-3.399-1.743
		c-95.309-27.509-190.596-55.087-285.955-82.417c-4.954-1.419-7.08-3.302-7.476-8.486c-1.378-18.067-3.189-36.102-4.854-54.146
		c-3.032-32.856-6.118-65.71-9.105-98.569c-2.423-26.67-4.691-53.354-7.107-80.023c-3.025-33.401-6.151-66.792-9.196-100.191
		c-2.407-26.4-4.728-52.809-7.143-79.207c-3.007-32.859-6.112-65.711-9.097-98.572c-2.423-26.67-4.692-53.355-7.101-80.027
		c-3.042-33.67-5.917-67.357-9.358-100.988C3.861,35.964,4.329,22.707,0.497,9.995C-1.341,1.649,1.912-0.011,10.26,0
		c237.024,0.288,474.048,0.232,711.072,0.232c11.39,0,11.39,0,11.39,11.39c-3.634,9.154-2.826,18.915-3.742,28.417
		c-3.218,33.387-6.216,66.796-9.246,100.203c-2.369,26.131-4.634,52.274-6.998,78.407c-3.072,33.943-6.207,67.882-9.298,101.825
		c-2.354,25.861-4.665,51.728-7.021,77.589c-3.068,33.673-6.177,67.345-9.242,101.018c-2.38,26.13-4.703,52.267-7.084,78.396
		c-2.501,27.478-5.032,54.95-7.562,82.425c-2.479,26.933-5.074,53.855-7.37,80.804c-0.438,5.138-2.584,7.079-7.542,8.493
		c-74.918,21.386-149.79,42.939-224.599,64.712C411.376,820.21,389.36,825.3,368.237,833.342z M368.083,674.186
		c-0.008,28.459,0.139,56.919-0.132,85.377c-0.068,7.193,1.931,8.818,9.002,6.794c74.222-21.25,148.5-42.301,222.828-63.177
		c5.975-1.678,8.493-4.891,9.002-10.672c2.756-31.256,5.606-62.503,8.392-93.757c2.88-32.334,5.654-64.679,8.6-97.006
		c3.02-33.133,6.263-66.245,9.272-99.378c2.938-32.329,5.603-64.683,8.572-97.009c3.537-38.52,7.39-77.011,10.89-115.534
		c3.552-39.063,6.547-78.179,10.486-117.202c0.8-7.918-1.596-9.145-8.44-9.135c-93.514,0.141-187.026,0.173-280.539-0.046
		c-7.69-0.017-9.668,2.767-9.58,9.965c0.321,26.559,0.134,53.125,0.138,79.688c-3.243,0.118-6.486,0.34-9.731,0.34
		c-70.205,0.021-140.412,0.016-210.618,0.018c-2.167,0-4.341,0.11-6.504-0.006c-3.271-0.173-4.077,1.221-3.771,4.405
		c1.743,18.045,3.251,36.112,4.909,54.164c3.065,33.41,6.248,66.808,9.248,100.222c2.952,32.877,5.66,65.774,8.624,98.65
		c2.987,33.146,6.192,66.271,9.239,99.41c3.243,35.294,6.537,70.583,9.462,105.902c0.402,4.848,2.446,6.299,6.588,7.37
		c12.792,3.305,25.483,6.991,38.224,10.497C270.855,647.447,319.47,660.814,368.083,674.186z"/>
	<path fill-rule="evenodd" fill="#C1F74F" d="M366.573,153.095c-0.004-26.564,0.184-53.129-0.138-79.688
		c-0.088-7.198,1.89-9.982,9.58-9.965c93.513,0.219,187.025,0.188,280.539,0.046c6.845-0.01,9.24,1.217,8.44,9.135
		c-3.939,39.023-6.935,78.139-10.486,117.202c-3.5,38.523-7.353,77.014-10.89,115.534c-2.97,32.326-5.635,64.68-8.572,97.009
		c-3.01,33.133-6.253,66.245-9.272,99.378c-2.945,32.327-5.72,64.672-8.6,97.006c-2.785,31.254-5.636,62.501-8.392,93.757
		c-0.509,5.781-3.027,8.994-9.002,10.672c-74.328,20.876-148.606,41.927-222.828,63.177c-7.071,2.024-9.07,0.399-9.002-6.794
		c0.271-28.458,0.124-56.918,0.134-85.377c1.759-0.66,3.483-1.445,5.283-1.96c58.137-16.623,116.268-33.258,174.442-49.743
		c4.616-1.308,7.279-2.75,7.729-8.399c2.23-28.022,4.931-56.01,7.733-83.983c0.615-6.144-0.264-8.11-7.056-6.056
		c-41.087,12.425-82.251,24.595-123.468,36.584c-22,6.401-43.674,13.953-66.096,18.878c-0.025-110.716-0.049-221.432-0.074-332.147
		c7.571-0.189,15.142-0.526,22.714-0.539c31.985-0.06,63.97-0.068,95.953,0.043c3.334,0.011,8.265-1.675,7.558,5.074
		c-0.82,7.806-1.357,15.641-1.912,23.47c-1.381,19.443-2.648,38.893-4.09,58.332c-0.314,4.232,0.502,6.544,5.516,6.514
		c27.376-0.162,54.753-0.089,82.129-0.067c3.035,0.001,5.042-0.578,5.361-4.339c2.611-30.738,5.376-61.462,8.125-92.189
		c2.438-27.223,4.584-54.479,7.597-81.64c0.806-7.254-1.009-8.719-7.795-8.698c-69.118,0.195-138.238,0.125-207.357,0.103
		C375.775,153.421,371.176,153.209,366.573,153.095z"/>
	<path fill-rule="evenodd" fill="#FEFEFD" d="M366.573,153.095c4.603,0.114,9.202,0.326,13.805,0.327
		c69.119,0.022,138.239,0.092,207.357-0.103c6.786-0.021,8.601,1.444,7.795,8.698c-3.013,27.161-5.159,54.417-7.597,81.64
		c-2.749,30.727-5.514,61.451-8.125,92.189c-0.319,3.761-2.326,4.341-5.361,4.339c-27.376-0.022-54.753-0.095-82.129,0.067
		c-5.014,0.03-5.83-2.282-5.516-6.514c1.441-19.438,2.709-38.888,4.09-58.332c0.555-7.829,1.092-15.665,1.912-23.47
		c0.707-6.749-4.224-5.063-7.558-5.074c-31.983-0.111-63.968-0.103-95.953-0.043c-7.572,0.013-15.143,0.35-22.714,0.539
		c-2.423-0.166-4.847-0.472-7.27-0.474c-37.681-0.03-75.363,0.154-113.042-0.18c-6.923-0.061-8.887,1.883-8.155,8.671
		c1.915,17.752,3.316,35.563,4.854,53.355c2.402,27.773,4.726,55.551,7.125,83.324c2.49,28.846,5.048,57.686,7.542,86.531
		c1.842,21.301,3.734,42.599,5.366,63.915c0.448,5.842,2.554,8.967,8.689,10.479c13.341,3.287,26.381,7.778,39.672,11.298
		c18.483,4.893,36.458,11.625,55.293,15.228c22.422-4.925,44.096-12.477,66.096-18.878c41.217-11.989,82.381-24.159,123.468-36.584
		c6.792-2.055,7.671-0.088,7.056,6.056c-2.803,27.974-5.503,55.961-7.733,83.983c-0.45,5.649-3.113,7.092-7.729,8.399
		c-58.175,16.485-116.306,33.12-174.442,49.743c-1.8,0.515-3.524,1.3-5.283,1.96c-48.615-13.372-97.23-26.739-145.841-40.12
		c-12.741-3.506-25.433-7.192-38.224-10.497c-4.143-1.071-6.186-2.522-6.588-7.37c-2.925-35.319-6.219-70.608-9.462-105.902
		c-3.046-33.14-6.251-66.265-9.239-99.41c-2.963-32.875-5.671-65.773-8.624-98.65c-3-33.415-6.183-66.813-9.248-100.222
		c-1.658-18.051-3.166-36.119-4.909-54.164c-0.307-3.184,0.499-4.578,3.771-4.405c2.163,0.116,4.336,0.006,6.504,0.006
		c70.207-0.001,140.413,0.003,210.618-0.018C360.087,153.435,363.33,153.213,366.573,153.095z"/>
	<path fill-rule="evenodd" fill="#9BDB10" d="M366.654,579.507c-18.834-3.603-36.81-10.335-55.293-15.228
		c-13.291-3.52-26.331-8.011-39.672-11.298c-6.135-1.512-8.241-4.637-8.689-10.479c-1.632-21.316-3.524-42.614-5.366-63.915
		c-2.493-28.846-5.051-57.686-7.542-86.531c-2.399-27.773-4.723-55.551-7.125-83.324c-1.538-17.792-2.94-35.603-4.854-53.355
		c-0.732-6.788,1.231-8.732,8.155-8.671c37.679,0.334,75.361,0.149,113.042,0.18c2.423,0.001,4.847,0.308,7.27,0.474
		C366.605,358.075,366.629,468.791,366.654,579.507z"/>
</g>
</svg>
