<?xml version="1.0" encoding="utf-8"?>
<!-- Generator: Adobe Illustrator 16.0.0, SVG Export Plug-In . SVG Version: 6.00 Build 0)  -->
<!DOCTYPE svg PUBLIC "-//W3C//DTD SVG 1.1 Tiny//EN" "http://www.w3.org/Graphics/SVG/1.1/DTD/svg11-tiny.dtd">
<svg version="1.1" baseProfile="tiny" id="Layer_1" xmlns="http://www.w3.org/2000/svg" xmlns:xlink="http://www.w3.org/1999/xlink"
	 x="0px" y="0px" width="513.96px" height="405.671px" viewBox="0 0 513.96 405.671" overflow="scroll" xml:space="preserve">
<g>
	<path fill-rule="evenodd" fill="#29344C" d="M40.776,111.735c9.983,11.314,23.395,16.89,37.057,21.958
		c21.466,7.963,43.813,12.354,66.323,16.054c23.856,3.923,47.865,6.548,71.977,8.143c31.374,2.075,62.785,2.379,94.216,1.373
		c27.474-0.879,54.846-2.98,82.063-6.796c28.584-4.008,57.038-8.734,84.457-18.184c8.71-3.001,17.102-6.718,24.837-11.796
		c3.626-2.382,6.981-5.077,9.958-8.242c0.477-0.507,0.952-1.451,1.72-1.104c0.954,0.43,0.468,1.455,0.329,2.22
		c-2.072,11.484-4.55,22.883-7.459,34.186c-8.553,33.244-20.408,65.234-36.874,95.397c-6.611,12.108-15.015,23.104-22.97,34.353
		c-8.86,12.529-17.941,24.904-26.78,37.447c-6.551,9.294-9.899,20.037-13.327,30.717c-0.281,0.874-0.655,1.756-0.727,2.654
		c-0.933,11.946-8.819,19.445-17.12,26.598c-9.908,8.541-21.537,13.889-33.875,17.934c-24.607,8.063-49.805,11.582-75.703,11.025
		c-13.963-0.302-27.928,0.072-41.776-2.196c-19.039-3.116-37.509-8.259-55.053-16.305c-10.593-4.858-19.366-12.244-26.558-21.465
		c-1.271-1.632-2.147-3.365-2.623-5.382c-3.201-13.581-8.121-26.572-14.667-38.838c-4.451-8.339-10.576-15.678-16.061-23.386
		c-11.08-15.575-22.45-30.951-32.918-46.945c-7.872-12.026-13.488-25.266-19.381-38.33c-0.907-2.011-1.824-4.021-2.589-6.087
		c-0.831-2.245-1.783-2.067-3.291-0.553c-9.03,9.078-15.109,19.95-16.94,32.487c-4.496,30.801,4.055,57.022,28.884,77.028
		c10.494,8.455,21.674,15.492,35.057,18.386c3.687,0.798,7.39,1.449,11.174,1.555c0.885,0.026,1.82-0.041,2.584,0.49
		c-0.096,0.701-0.583,0.813-0.982,0.979c-14.335,5.983-29.101,9.662-44.799,8.432c-14.169-1.111-26.888-6.124-37.885-14.974
		c-16.086-12.947-27.2-29.179-29.951-50.071c-2.834-21.537,1.732-41.694,12.974-60.252c8.104-13.377,18.505-24.663,31.617-33.328
		c2.839-1.875,2.973-1.805,4.188,1.379c1.671,4.377,3.399,8.734,5.002,13.136c0.822,2.254,1.819,2.342,3.557,0.829
		c10.356-9.009,22.526-14.183,35.997-16.067c16.97-2.375,33.12,0.723,48.347,8.526c3.82,1.957,7.481,4.229,11.2,6.348
		c0.524-0.563,0.144-0.933-0.143-1.254c-12.406-13.933-27.3-23.748-45.956-26.832c-19.295-3.189-37.389,1.324-54.79,9.475
		c-0.416,0.195-0.811,0.433-1.217,0.646c-2.982,1.557-3.174,1.498-4.251-1.641c-6.515-18.975-11.721-38.293-15.218-58.058
		c-0.686-3.879-1.713-7.717-1.599-11.707L40.776,111.735z"/>
	<path fill-rule="evenodd" fill="#29344C" d="M73.576,38.069c-1.246,1.202-2.565,2.34-3.728,3.619
		c-6.188,6.811-6.145,15.594,0.076,22.373c5.88,6.409,13.486,10.114,21.338,13.323c18.554,7.579,37.95,12.116,57.633,15.541
		c24.004,4.176,48.184,6.799,72.494,8.39c28.081,1.837,56.175,2.468,84.294,1.502c44.521-1.528,88.729-5.704,132.101-16.471
		c13.214-3.279,26.27-7.078,38.463-13.32c4.605-2.355,8.894-5.157,12.471-8.967c5.877-6.258,6.462-13.404,1.621-20.51
		c-0.246-0.36-0.426-0.765-0.584-1.055c0.315-0.611,0.703-0.527,1.029-0.384c7.399,3.225,14.313,7.196,19.451,13.609
		c6.34,7.914,5.922,16.225-1.207,23.532c-6.882,7.053-15.533,11.372-24.466,15.11c-19.767,8.275-40.538,13.09-61.446,17.323
		c-24.07,4.873-48.422,7.694-72.902,9.507c-28.791,2.132-57.624,2.948-86.479,2.549c-33.361-0.464-66.661-2.134-99.758-6.585
		c-30.104-4.048-59.814-9.947-88.522-20.126c-10.68-3.786-21.032-8.323-29.818-15.757c-1.76-1.49-3.357-3.129-4.744-4.976
		c-5.284-7.048-5.008-14.167,0.849-20.795c3.27-3.701,7.319-6.407,11.56-8.831c5.835-3.337,11.977-6.033,18.205-8.539
		c0.576-0.231,1.185-0.382,1.778-0.57C73.381,37.732,73.479,37.9,73.576,38.069z"/>
	<path fill-rule="evenodd" fill="#29344C" d="M335.75,22.319c-24.597-0.168-47.249,6.521-68.636,18.14
		c-11.539,6.27-22.942,12.89-35.51,16.993c-21.253,6.939-42.69,8.129-64.215,1.314c-8.348-2.643-15.917-6.721-21.589-13.672
		c-2.79-3.418-4.664-7.274-5.147-11.698c-0.871-7.968,2.75-13.651,9.328-17.661c6.251-3.812,13.257-5.333,20.404-6.269
		c9.243-1.209,18.497-1.525,27.713,0.247c3.264,0.627,6.443,1.592,9.207,3.523c4.493,3.142,4.274,7.529-0.391,10.344
		c-1.367,0.825-2.515,0.549-3.896,0.092c-12.762-4.207-25.628-4.198-38.533-0.699c-1.314,0.356-2.594,0.954-3.789,1.621
		c-6.017,3.362-6.697,9.465-1.502,14.042c4.291,3.779,9.646,4.79,15.101,5.225c20.683,1.648,39.428-3.847,56.615-15.302
		c10.095-6.727,20.305-13.28,31.651-17.823c13.516-5.413,27.608-8.239,42.029-9.642c17.179-1.673,34.315-1.729,51.282,1.979
		c11.252,2.459,21.891,6.365,30.81,13.979c4.043,3.449,7.265,7.545,9.161,12.564c3.666,9.691,1.211,18.894-6.774,25.537
		c-3.349,2.785-7.026,5.104-11.111,6.561c-23.362,8.326-47.129,9.952-71.255,3.806c-5.195-1.323-10.06-3.573-13.939-7.471
		c-5.276-5.3-4.55-11.728,1.765-15.759c3.481-2.225,7.405-3.176,11.418-3.82c1.042-0.167,2.064-0.018,2.588,1.094
		c3.974,8.454,11.585,11.206,19.968,12.195c11.092,1.309,22.013,0.194,32.515-3.886c2.41-0.938,4.681-2.163,6.655-3.848
		c4.469-3.806,4.74-9.341,0.641-13.542c-2.639-2.706-6.005-4.19-9.53-5.331C351.252,22.717,343.486,22.159,335.75,22.319z"/>
	<path fill-rule="evenodd" fill="#29344C" d="M40.812,111.696c0,0-0.035,0.04-0.036,0.039L40.812,111.696z"/>
</g>
</svg>
