<?xml version="1.0" encoding="utf-8"?>
<!-- Generator: Adobe Illustrator 16.0.0, SVG Export Plug-In . SVG Version: 6.00 Build 0)  -->
<!DOCTYPE svg PUBLIC "-//W3C//DTD SVG 1.1 Tiny//EN" "http://www.w3.org/Graphics/SVG/1.1/DTD/svg11-tiny.dtd">
<svg version="1.1" baseProfile="tiny" id="Layer_1" xmlns="http://www.w3.org/2000/svg" xmlns:xlink="http://www.w3.org/1999/xlink"
	 x="0px" y="0px" width="766.462px" height="401.979px" viewBox="-115.358 248.378 766.462 401.979" overflow="scroll"
	 xml:space="preserve">
<g>
	<path fill-rule="evenodd" fill="none" d="M275.139,698.381c-156,0-312-0.016-468,0.094c-3.75,0.002-4.596-0.846-4.594-4.594
		c0.109-163.668,0.109-327.333,0-491c-0.002-3.749,0.845-4.595,4.594-4.593c312,0.101,624,0.101,936,0
		c3.75-0.002,4.598,0.844,4.594,4.593c-0.107,163.667-0.107,327.333,0,491c0.004,3.748-0.844,4.596-4.594,4.594
		C587.139,698.365,431.139,698.381,275.139,698.381z M540.86,569.685c0,13.998,0.063,27.996-0.043,41.994
		c-0.027,3.729,1.213,5.559,5.189,5.498c9.83-0.148,19.67,0.131,29.492-0.166c14.115-0.426,27-3.793,36.094-15.93
		c9.221-12.307,11.109-26.139,8.781-40.801c-3.008-18.945-16.973-32.793-35.813-36.178c-12.402-2.229-24.91-1.393-37.383-1.758
		c-4.797-0.141-6.48,1.539-6.398,6.348C541.008,542.353,540.86,556.021,540.86,569.685z M176.75,574.601
		c2.195-0.15,3.636-0.223,5.07-0.352c13.74-1.232,23.55-10.965,23.853-23.652c0.371-15.508-7.644-25.391-22.332-27.361
		c-11.268-1.512-22.609-0.564-33.915-0.838c-3.668-0.088-4.406,2.061-4.403,5.148c0.034,28.131,0.095,56.262-0.046,84.393
		c-0.026,5.309,3.056,5.277,6.854,5.32c3.951,0.043,6.804-0.313,6.679-5.498c-0.256-10.646-0.118-21.305-0.032-31.957
		c0.012-1.512-0.998-3.787,1.051-4.395c1.893-0.563,2.614,1.727,3.571,2.959c9.182,11.826,18.302,23.701,27.418,35.578
		c1.325,1.727,2.466,3.684,5.118,3.248c3.476-0.57,8.197,1.902,10.228-1.523c2.315-3.908-2.569-6.281-4.57-8.994
		C193.435,596.019,185.227,585.619,176.75,574.601z M-29.294,618.722c16.067-0.035,30.003-5.887,38.853-16.289
		c1.84-2.162,3.38-4.137,0.444-6.766c-6.15-5.504-6.787-5.723-10.244-2.096c-14.161,14.861-36.985,16.965-52.648,4.854
		c-16.322-12.623-18.664-36.672-5.109-52.48c13.482-15.727,40.044-16.939,55.255-2.525c5.951,5.641,5.823,5.461,12.309,0.814
		c3.108-2.229,3.262-3.744,0.737-6.563c-9.021-10.07-20.338-15.305-33.609-16.736c-29.567-3.191-51.774,15.588-56.141,37.939
		C-85.895,591.873-63.325,618.795-29.294,618.722z M352.704,557.558c0-9.666-0.231-19.34,0.096-28.994
		c0.169-4.973-1.697-6.357-6.419-6.254c-4.399,0.096-6.787,0.891-6.717,6.072c0.248,18.162,0.088,36.33,0.169,54.494
		c0.021,4.826,0.261,9.693,1.509,14.371c3.789,14.195,17.146,22.229,34.854,21.143c13.115-0.805,24.363-11.518,26.396-25.264
		c0.609-4.109,1.094-8.23,1.072-12.424c-0.088-17.332-0.174-34.666,0.063-51.996c0.066-4.832-1.514-6.584-6.332-6.352
		c-6.164,0.295-6.646,0.49-6.66,6.488c-0.041,19.166,0.057,38.332-0.143,57.496c-0.129,12.359-7.703,20.182-18.852,20.025
		c-11.938-0.168-18.858-7.486-19.003-20.309C352.63,576.558,352.716,567.058,352.704,557.558z M-88.524,361.278
		c0,19.832-0.007,39.665,0.005,59.498c0.003,6.225,0.245,6.459,6.519,6.459c32.166,0.006,64.332,0.006,96.498,0
		c6.684-0.002,7.006-0.334,7.007-7.139c0.004-31.833,0.002-63.666,0-95.498c0-1.166,0.054-2.34-0.057-3.497
		c-0.18-1.901-1.281-3.196-3.188-3.202c-1.95-0.007-2.95,1.402-3.142,3.254c-0.137,1.32-0.079,2.663-0.079,3.995
		c-0.003,30.166-0.055,60.332,0.067,90.498c0.015,3.704-0.702,5.237-4.883,5.211c-29.331-0.18-58.665-0.137-87.997-0.037
		c-3.298,0.012-4.675-0.688-4.662-4.369c0.125-36.665,0.122-73.331,0.002-109.996c-0.012-3.592,1.196-4.464,4.585-4.433
		c16.331,0.148,32.665,0.068,48.998,0.067c1.166-0.001,2.339,0.06,3.497-0.045c2.033-0.184,3.661-1.113,3.563-3.356
		c-0.084-1.914-1.527-2.872-3.396-3.015c-1.16-0.088-2.331-0.05-3.498-0.05c-17.666-0.003-35.332-0.005-52.998-0.002
		c-6.6,0.001-6.836,0.222-6.839,6.656C-88.529,321.945-88.524,341.612-88.524,361.278z M367.289,424.513
		c53.682,0.109,88.041-57.006,62.096-103.714c-12.779-23.005-32.92-35.091-59.213-36.801c-2.379-0.154-5.214-0.192-5.177,3.068
		c0.031,2.809,2.656,2.862,4.892,3.027c3.148,0.233,6.314,0.47,9.422,0.996c27.59,4.67,49.479,28.173,52.434,56.218
		c3.07,29.133-13.654,56.646-40.799,67.115c-26.693,10.295-57.576,1.601-74.455-20.961c-23.517-31.435-14.876-74.695,18.915-94.866
		c2.001-1.194,5.397-2.099,3.659-5.356c-1.76-3.299-4.332-1.049-6.402,0.144c-27.796,16.009-41.099,48.159-32.886,79.391
		C307.721,402.992,335.719,424.449,367.289,424.513z M562.916,424.513c13.676,0.021,24.754-2.895,36.201-9.657
		c4.455-2.631,8.621-5.688,12.322-9.327c1.309-1.287,1.949-2.864,0.512-4.397c-1.42-1.512-3.018-1.011-4.455,0.15
		c-1.424,1.151-2.799,2.363-4.229,3.508c-27.996,22.413-69.607,17.237-91.24-11.345c-22.076-29.17-15.771-70.662,13.918-91.574
		c22.564-15.893,53.025-15.826,74.902,0.165c22.953,16.776,32.279,45.353,23.666,72.358c-0.75,2.354-2.982,5.566,0.883,6.753
		c3.705,1.138,3.996-2.755,4.75-5.076c3.449-10.624,4.303-21.476,2.598-32.554c-5.699-37.026-39.373-62.785-77.287-59.056
		c-36.869,3.626-64.52,36.651-62.479,74.621C494.928,395.322,526.071,424.459,562.916,424.513z M170.422,306.263
		c-9.698-15.282-20.299-21.33-36.156-20.795c-16.675,0.563-32.057,14.646-34.081,31.153c-0.313,2.56-0.069,5.032,2.842,5.471
		c2.788,0.42,3.383-1.774,3.643-4.208c0.446-4.18,1.906-8.085,4.152-11.655c7.335-11.665,20.89-16.823,34.343-13.096
		c12.989,3.601,21.613,14.519,21.759,28.343c0.213,20.155,0.065,40.315,0.099,60.473c0.003,1.652,0.036,3.345,0.393,4.942
		c0.308,1.374,1.476,2.327,2.931,2.309c1.654-0.022,2.854-1,3.117-2.684c0.205-1.305,0.152-2.655,0.152-3.985
		c0.008-19.658,0.034-39.316-0.012-58.976c-0.014-5.959,1.161-11.581,4.244-16.713c7.213-12.004,21.075-17.521,34.524-13.795
		c13.178,3.651,22.177,15.256,22.244,29.186c0.116,23.656,0.039,47.313,0.027,70.97c-0.001,2.476,0.145,5.074,3.387,4.953
		c2.766-0.103,3.177-2.435,3.174-4.788c-0.029-24.155,0.372-48.321-0.202-72.464c-0.36-15.101-8.139-26.419-22.077-32.379
		c-14.232-6.085-27.7-3.754-39.623,6.329C175.592,297.99,173.132,302.171,170.422,306.263z M261.168,497.412
		c108.129,0,216.26,0.014,324.389-0.102c2.033-0.002,5.998,1.867,5.973-1.744c-0.021-2.883-3.855-1.445-5.9-1.445
		c-216.26-0.078-432.519-0.078-648.779,0.004c-1.996,0-5.735-1.545-5.757,1.605c-0.021,3.053,3.701,1.607,5.686,1.609
		C44.908,497.422,153.038,497.412,261.168,497.412z M170.368,409.798c-6.629-12.345-16.228-19.881-29.896-21.229
		c-13.773-1.358-24.878,4.049-34.349,15.574c0-2.939,0.009-4.552-0.001-6.163c-0.136-21.313-0.278-42.627-0.406-63.939
		c-0.013-2.203,0.182-4.942-2.675-5.066c-3.259-0.143-3.166,2.771-3.163,5.13c0.031,28.982,0.078,57.966,0.117,86.948
		c0.003,2.219-0.073,4.816,2.782,5.041c3.27,0.256,3.27-2.563,3.563-4.906c1.974-15.787,14.464-26.876,30.273-26.91
		c15.817-0.033,28.307,10.906,30.488,26.689c0.313,2.268,0.172,5.215,3.389,5.186c3.303-0.029,2.827-3.027,3.17-5.268
		c1.751-11.429,7.742-19.905,18.478-24.222c10.953-4.405,21.589-3.184,31.139,4.161c6.84,5.262,10.413,12.41,11.396,20.889
		c0.264,2.279,0.479,4.76,3.432,4.422c2.961-0.336,2.601-2.961,2.427-5.143c-0.093-1.16-0.235-2.324-0.466-3.463
		c-5.237-25.837-35.889-37.763-57.325-22.396C177.488,398.898,173.896,403.99,170.368,409.798z M-56.466,366.409
		c5.88-2.244,13.588-1.305,18.426-5.977c19.625-18.955,38.722-38.455,58.016-57.753c2.335-2.335,2.263-4.625-0.057-6.929
		c-3.068-3.049-6.266-5.987-9.135-9.215c-3.148-3.541-5.611-3.488-9.018-0.022c-16.213,16.494-32.203,33.251-49.195,48.914
		c-7.998,7.372-11.035,16.125-13.171,25.919C-61.325,364.672-59.771,365.924-56.466,366.409z M367.403,308.471
		c-3.987-0.203-8.246,0.595-12.409,1.791c-21.242,6.104-35.438,27.095-33.063,48.776c2.437,22.232,20.525,39.799,42.747,41.127
		c13.064,0.78,24.597-3.292,34.273-12.263c1.654-1.534,3.363-3.225,1.197-5.442c-1.967-2.014-3.926-1.059-5.66,0.613
		c-0.479,0.463-0.957,0.929-1.467,1.358c-14.936,12.604-38.052,12.022-52.115-1.309c-11.938-11.318-15.712-28.466-9.59-43.573
		c6.033-14.886,20.445-24.455,36.781-24.421c15.934,0.034,30.258,9.982,36.307,25.185c1.004,2.52,1.529,6.422,5.422,4.743
		c3.635-1.566,1.623-4.896,0.629-7.395C403.399,319.926,386.531,308.43,367.403,308.471z M596.553,324.106
		c0.045-1.381-0.404-2.663-1.824-3.173c-2.209-0.792-3.92,0.474-5.332,1.879c-19.094,19.027-38.168,38.075-57.174,57.19
		c-1.828,1.839-4.025,4.351-1.447,6.86c2.553,2.487,4.904,0.359,6.84-1.574c18.957-18.931,37.891-37.883,56.846-56.814
		C595.678,327.26,596.739,326.033,596.553,324.106z M570.996,359.382c-1.539,0.087-2.689,0.322-3.09,1.684
		c-0.574,1.957,0.07,3.52,1.512,4.939c6.52,6.431,12.957,12.946,19.502,19.352c1.902,1.862,4.332,4.156,6.795,1.438
		c2.266-2.501,0.354-4.881-1.717-6.854c-6.498-6.197-12.965-12.429-19.428-18.664C573.465,360.21,572.358,359.232,570.996,359.382z
		 M424.115,347.454c-0.279-1.029-0.666-2.191-1.859-2.65c-1.896-0.73-3.512-0.182-5.014,1.197c-2.434,2.234-4.313,6.309-7.299,6.378
		c-3.322,0.078-5.143-4.238-7.752-6.491c-1.723-1.488-3.545-2.173-5.309-0.479c-1.758,1.69-1.297,3.657,0.297,5.289
		c3.143,3.213,6.332,6.383,9.535,9.534c2.148,2.113,4.482,2.173,6.6,0.075c3.186-3.154,6.232-6.449,9.311-9.712
		C423.418,349.757,424.258,348.895,424.115,347.454z M583.106,468.851c-1.25-0.115-2.5-0.25-3.754-0.344
		c-2.865-0.217-6.318,1.299-6.291-4.221c0.027-5.115,2.889-4.574,6.107-4.582c1.42-0.004,3.248,0.617,4.209-1.449
		c-2.111-1.365-4.143-0.693-6.051-0.746c-2.293-0.064-4.203,0.105-4.186-3.264c0.016-3.086,1.035-4.156,4.061-3.967
		c2.125,0.133,4.273-0.033,6.439-0.293c5.299-0.635,6.182,0.381,6.191,5.879c0.006,4.168,0,8.334,0.004,12.5
		c0,1.018-0.02,2.146,1.328,2.268c1.578,0.145,1.924-0.953,1.924-2.264c-0.002-3.834,0.09-7.67-0.021-11.5
		c-0.1-3.422-0.707-6.99,4.605-7.859c-8.893-0.65-17.332-0.67-25.77-0.633c-1.602,0.006-1.725,1.275-1.727,2.49
		c-0.008,5.834-0.008,11.668,0.006,17.5c0.002,1.037,0.184,2.221,1.449,2.225C575.504,470.601,579.463,471.482,583.106,468.851z
		 M532.987,320.856c-1.258,0.31-2.395,0.938-2.908,2.313c-0.709,1.898,0.432,3.137,1.637,4.34
		c6.338,6.329,12.662,12.67,19.012,18.986c1.627,1.619,3.404,3.939,5.826,1.688c2.471-2.296,0.799-4.465-1.098-6.354
		c-6.229-6.202-12.438-12.424-18.656-18.637C535.742,322.137,534.711,321.034,532.987,320.856z M145.994,470.933
		c-2.007-2.893-3.135-4.723-4.466-6.389c-1.949-2.441-3.616-4.473,1.09-5.865c2.258-0.668,2.974-3.029,2.712-5.363
		c-0.27-2.402-1.763-4.08-4.04-4.51c-2.414-0.457-4.938-0.316-7.409-0.506c-2.127-0.164-2.975,0.736-2.947,2.873
		c0.072,5.643,0.008,11.289,0.031,16.934c0.005,1.105-0.27,2.596,1.53,2.486c1.709-0.105,1.312-1.59,1.419-2.684
		c0.211-2.143-0.472-4.436,0.622-6.6C138.987,463.719,139.034,470.291,145.994,470.933z M349.95,459.373
		c0,2.668,0.141,5.344-0.039,7.996c-0.177,2.617,0.776,3.648,3.411,3.42c2.483-0.215,5.02,0.051,7.478-0.291
		c5.707-0.793,9.181-5.902,8.472-12.121c-0.852-7.475-6.051-10.951-16.075-9.984c-6.567,0.635-1.865,6.063-3.208,8.998
		C349.736,457.941,349.953,458.707,349.95,459.373z M190.804,459.398c0,2.664,0.142,5.34-0.04,7.992
		c-0.182,2.654,0.868,3.605,3.451,3.395c2.483-0.201,5.022,0.072,7.472-0.297c5.731-0.861,9.103-5.881,8.42-12.162
		c-0.805-7.414-6.069-10.924-16.086-9.926c-6.526,0.65-1.845,6.072-3.181,9.016C190.59,457.967,190.804,458.732,190.804,459.398z
		 M-48.719,470.859c-2.497-3.482-4.337-5.99-6.11-8.545c-0.819-1.182-1.455-2.404,0.766-2.875c2.985-0.631,4.7-2.396,4.635-5.568
		c-0.051-2.414-1.18-4.193-3.52-4.906c-3.397-1.035-6.872-0.986-10.3-0.139c-0.307,0.074-0.501,1.189-0.505,1.822
		c-0.039,5.996-0.033,11.994-0.019,17.99c0.003,1.082,0.328,2.076,1.668,1.914c0.979-0.119,1.236-0.982,1.239-1.869
		c0.009-2.588,0.003-5.176,0.003-8.051C-55.935,463.064-55.996,470.179-48.719,470.859z M514.156,459.32
		c0,2.666,0.123,5.338-0.035,7.994c-0.15,2.578,0.789,3.686,3.43,3.469c2.482-0.205,5.016,0.025,7.473-0.322
		c5.783-0.818,9.055-5.648,8.428-12.096c-0.725-7.482-5.832-10.887-16.02-9.979c-6.654,0.594-1.865,6.043-3.24,8.951
		C513.936,457.883,514.155,458.654,514.156,459.32z M-7.914,469.381c-3.182-6.736-6.238-13.369-9.463-19.922
		c-0.878-1.783-1.83-0.768-2.407,0.439c-3.008,6.291-5.996,12.592-8.977,18.895c-0.275,0.58-0.672,1.342,0.205,1.674
		c0.559,0.211,1.56,0.291,1.852-0.031c0.863-0.953,1.751-2.049,2.128-3.246c1.005-3.195,2.924-4.232,6.297-4.209
		c3.232,0.021,4.859,1.205,5.823,4.1c0.4,1.201,1.269,2.301,2.13,3.262c0.315,0.35,1.256,0.291,1.856,0.162
		C-8.208,470.449-8.083,469.75-7.914,469.381z M-78.009,470.756c2.881,0.018,5.623-0.529,8.048-2.16
		c0.79-0.531,1.836-1.191,1.129-2.35c-0.616-1.01-1.588-0.971-2.569-0.295c-0.952,0.654-1.91,1.352-2.964,1.803
		c-4.905,2.098-10.453-0.285-12.246-5.191c-1.809-4.945,0.531-9.516,5.671-11.512c3.563-1.385,6.475-0.195,9.257,1.846
		c1.098,0.805,2.101,1.104,2.94-0.193c0.626-0.967-0.235-1.473-0.845-2.018c-3.295-2.949-11.342-3.207-15.588-0.496
		c-4.294,2.742-6.106,7.686-4.61,12.578C-88.164,468.07-84.142,470.799-78.009,470.756z M176.289,447.101
		c-3.533,7.348-6.587,13.51-9.416,19.773c-0.476,1.055-2.651,2.549-0.44,3.691c1.716,0.889,2.595-0.785,3.231-2.209
		c0.339-0.756,0.813-1.467,1.05-2.25c0.854-2.834,2.977-3.084,5.487-3.047c2.42,0.039,4.63-0.045,5.538,2.908
		c0.432,1.4,1.271,2.691,2.032,3.969c0.489,0.816,1.416,0.939,2.19,0.555c0.963-0.479,0.69-1.34,0.32-2.129
		C183.135,461.668,179.989,454.974,176.289,447.101z M382.844,447.158c-3.836,7.969-7.117,14.771-10.385,21.58
		c-0.277,0.582-0.67,1.281,0.123,1.738c0.779,0.451,1.758,0.406,2.291-0.256c0.818-1.016,1.617-2.158,2.01-3.381
		c0.885-2.762,2.461-3.828,5.48-3.846c3.232-0.02,5.455,0.645,6.426,3.984c0.316,1.086,0.994,2.098,1.652,3.039
		c0.525,0.75,1.471,0.904,2.246,0.518c1.035-0.52,0.527-1.381,0.178-2.123C389.713,461.719,386.555,455.027,382.844,447.158z
		 M325.42,457.246c0.057,0,0.114,0,0.171,0c0-2.33,0.02-4.66-0.01-6.988c-0.011-0.863-0.253-1.701-1.291-1.793
		c-1.389-0.123-1.609,0.885-1.617,1.938c-0.029,3.994-0.008,7.988-0.041,11.98c-0.025,3.135-1.033,5.896-4.577,5.971
		c-3.563,0.074-4.692-2.592-4.711-5.785c-0.023-3.994-0.014-7.988-0.042-11.98c-0.007-1.023-0.128-2.08-1.48-2.133
		c-1.407-0.055-1.537,1.029-1.533,2.043c0.017,4.658-0.178,9.334,0.193,13.965c0.352,4.383,3.358,6.24,7.576,6.291
		c4.132,0.053,6.672-2.066,7.292-6.039C325.729,462.281,325.42,459.738,325.42,457.246z M551.184,448.324
		c-3.609,0-7.217,0.023-10.824-0.012c-1.699-0.016-2.357,0.82-2.352,2.436c0.02,5.977,0.01,11.955,0.01,17.932
		c0,1.121,0.389,2.051,1.646,2.004c3.846-0.143,7.781,0.734,12.08-0.754c-2.531-2.322-5.123-1.383-7.389-1.348
		c-3.268,0.049-3.359-1.813-3.277-4.162c0.082-2.33-0.344-4.738,3.336-4.746c2.227-0.004,4.775,0.945,7.18-1.209
		c-2.295-1.613-4.498-0.936-6.52-0.949c-2.404-0.014-4.066-0.16-4.072-3.369c-0.008-3.176,1.238-4,4.145-3.871
		C547.145,450.363,549.342,450.931,551.184,448.324z M164.352,448.988c-4.551-1.152-8.17-0.457-11.73-0.67
		c-2.146-0.127-2.393,1.232-2.387,2.896c0.021,5.494-0.01,10.99,0.022,16.484c0.007,1.107-0.276,2.756,1.269,2.834
		c3.945,0.199,7.907,0.066,11.863,0.066c-2.008-2.752-4.405-2.164-6.54-2.018c-3.609,0.25-3.604-1.824-3.557-4.379
		c0.047-2.469-0.081-4.662,3.517-4.535c2.161,0.076,4.567,0.797,6.952-0.928c-2.381-2.154-4.967-1.207-7.237-1.191
		c-2.825,0.02-3.248-1.301-3.254-3.67c-0.007-2.439,0.603-3.67,3.349-3.609C158.827,450.318,161.199,450.99,164.352,448.988z
		 M424.559,449.039c-4.77-1.17-8.266-0.516-11.717-0.732c-1.889-0.117-2.707,0.691-2.689,2.611
		c0.051,5.654,0.006,11.311,0.023,16.967c0.004,0.977-0.129,2.434,0.99,2.557c4.016,0.438,8.078,0.701,11.973-0.824
		c-1.113-0.863-2.203-0.949-3.277-1.121c-2.805-0.447-6.783,1.826-6.793-4.197c-0.008-5.627,3.412-4.449,6.576-4.576
		c1.295-0.053,2.928,0.445,4.045-2.26c-2.875,0-5.127-0.107-7.363,0.029c-2.436,0.146-3.232-0.924-3.123-3.24
		c0.098-2.084-0.09-4.006,2.979-3.967C418.52,450.314,421.012,450.896,424.559,449.039z M331.282,459.697
		c0,2.322-0.123,4.654,0.045,6.963c0.104,1.432-1.008,3.896,1.634,3.863c2.249-0.027,1.449-2.336,1.324-3.578
		c-0.475-4.73,0.132-8.049,6.247-7.492c2.604,0.238,4.725-1.494,5.135-4.441c0.35-2.508-0.257-4.754-2.747-5.824
		c-3.472-1.49-7.439-1.682-10.667-0.359c-2.28,0.934-0.65,4.514-0.939,6.891C331.153,457.025,331.284,458.369,331.282,459.697z
		 M22.929,449.707c-0.005-0.463-0.011-0.928-0.017-1.391c-3.447,0-6.897,0.08-10.342-0.029c-2.264-0.07-2.822,1.033-2.798,3.045
		c0.067,5.482,0.007,10.965,0.034,16.445c0.005,1.105-0.303,2.707,1.285,2.795c3.938,0.217,7.936,0.596,11.795-1.172
		c-2.354-0.898-4.722-1.053-7.061-0.863c-3.396,0.277-3.232-1.889-3.176-4.152c0.058-2.314-0.433-4.764,3.3-4.715
		c2.29,0.031,4.851,0.877,7.401-1.18c-2.424-1.709-4.796-0.98-6.933-0.951c-2.633,0.037-3.929-0.51-3.843-3.545
		c0.08-2.822,1.061-3.791,3.834-3.723C18.567,450.326,20.913,450.924,22.929,449.707z M614.272,458.633
		c-2.307-1.949-4.705-1.078-6.832-1.094c-2.525-0.02-3.941-0.326-3.949-3.467c-0.01-3.258,1.311-3.895,4.17-3.813
		c2.072,0.059,4.467,0.842,7.492-1.934c-4.859,0-8.436,0.02-12.012-0.008c-1.654-0.014-2.406,0.709-2.396,2.393
		c0.035,5.988,0.012,11.977,0.02,17.965c0.002,0.867,0.182,1.869,1.174,1.9c3.979,0.131,8.01,0.656,11.916-0.928
		c-2.215-1.58-4.695-1.221-7.016-1.086c-3.336,0.193-3.367-1.777-3.25-4.115c0.115-2.246-0.594-4.834,3.227-4.77
		C609.143,459.717,611.698,460.463,614.272,458.633z M-31.584,448.342c-3.533,0-7.066,0.002-10.6-0.002
		c-1.429-0.002-2.116,0.699-2.116,2.125c-0.002,5.986-0.019,11.973-0.017,17.959c0,1.029,0.138,2.189,1.432,2.191
		c3.819,0.006,7.718,0.742,12.189-0.65c-2.132-2.01-4.029-1.455-5.695-1.416c-3.041,0.07-5.234,0.158-5.244-4.246
		c-0.01-4.541,2.165-4.738,5.516-4.623c1.548,0.053,3.544,0.848,4.978-1.529c-2.178-1.027-4.164-0.678-6.052-0.65
		c-2.486,0.035-4.447,0.164-4.386-3.488c0.055-3.316,1.43-3.85,4.22-3.738C-35.467,450.349-33.412,450.918-31.584,448.342z
		 M566.342,470.008c-0.758-2.076-2.34-1.592-3.498-1.453c-3.918,0.471-5.316-1.025-4.996-4.994
		c0.334-4.127,0.096-8.305,0.055-12.459c-0.012-1.094,0.273-2.555-1.445-2.641c-1.744-0.086-1.605,1.346-1.611,2.469
		c-0.029,5.818-0.021,11.635-0.012,17.453c0.002,1.018,0.094,2.229,1.385,2.225C559.569,470.599,563.02,471.5,566.342,470.008z
		 M7.002,449.238c-4.501-1.131-8.577-1.244-13.012,0.08c5.745,0.084,5.002,3.855,4.923,7.322c-0.088,3.824-0.033,7.652-0.01,11.48
		c0.007,1.137-0.172,2.541,1.579,2.506c1.715-0.035,1.544-1.441,1.554-2.572c0.029-3.66-0.005-7.32,0.015-10.982
		C2.069,453.619,0.897,449.449,7.002,449.238z M394.698,448.576c5.551,0.883,4.609,4.918,4.576,8.445
		c-0.031,3.652-0.029,7.307,0.006,10.959c0.01,1.115-0.199,2.543,1.525,2.58c1.652,0.037,1.691-1.264,1.697-2.461
		c0.012-2.988-0.074-5.98,0.027-8.967c0.133-3.961-1.979-8.932,4.35-10.557C402.819,448.576,398.758,448.576,394.698,448.576z"/>
	<path fill-rule="evenodd" fill="#3D8CD3" d="M540.86,569.685c0-13.664,0.148-27.332-0.08-40.992
		c-0.082-4.809,1.602-6.488,6.398-6.348c12.473,0.365,24.98-0.471,37.383,1.758c18.84,3.385,32.805,17.232,35.813,36.178
		c2.328,14.662,0.439,28.494-8.781,40.801c-9.094,12.137-21.979,15.504-36.094,15.93c-9.822,0.297-19.662,0.018-29.492,0.166
		c-3.977,0.061-5.217-1.77-5.189-5.498C540.922,597.681,540.86,583.683,540.86,569.685z M553.6,569.738
		c0,10.332,0.076,20.664-0.053,30.994c-0.033,2.709,0.586,3.887,3.564,3.766c5.658-0.23,11.336,0.074,16.994-0.146
		c19.07-0.748,29.496-8.615,33.141-24.986c0.982-4.418,0.705-8.945,0.443-13.439c-0.811-13.865-9.801-25.035-23.164-28.688
		c-9.291-2.537-18.828-1.99-28.309-2.164c-2.908-0.053-2.617,1.828-2.617,3.67C553.6,549.074,553.6,559.406,553.6,569.738z"/>
	<path fill-rule="evenodd" fill="#3D8CD3" d="M176.75,574.601c8.478,11.018,16.686,21.418,24.542,32.076
		c2.001,2.713,6.886,5.086,4.57,8.994c-2.03,3.426-6.752,0.953-10.228,1.523c-2.652,0.436-3.793-1.521-5.118-3.248
		c-9.116-11.877-18.236-23.752-27.418-35.578c-0.957-1.232-1.679-3.521-3.571-2.959c-2.049,0.607-1.039,2.883-1.051,4.395
		c-0.086,10.652-0.224,21.311,0.032,31.957c0.125,5.186-2.728,5.541-6.679,5.498c-3.798-0.043-6.88-0.012-6.854-5.32
		c0.141-28.131,0.08-56.262,0.046-84.393c-0.003-3.088,0.735-5.236,4.403-5.148c11.306,0.273,22.647-0.674,33.915,0.838
		c14.688,1.971,22.703,11.854,22.332,27.361c-0.303,12.688-10.112,22.42-23.853,23.652
		C180.385,574.379,178.945,574.451,176.75,574.601z M158.433,547.836c0,4.281,0.041,7.768-0.016,11.25
		c-0.032,1.908,0.373,3.262,2.673,3.242c7.124-0.059,14.296,0.613,21.324-1.035c6.236-1.461,10.14-6.775,9.942-13.195
		c-0.191-6.256-4.065-11.127-10.311-12.295c-3.229-0.602-6.607-0.668-9.906-0.574c-4.416,0.129-10.047-1.953-12.912,0.916
		C156.576,538.801,158.793,544.363,158.433,547.836z"/>
	<path fill-rule="evenodd" fill="#3D8CD3" d="M-29.294,618.722c-34.031,0.072-56.601-26.85-50.154-59.848
		c4.366-22.352,26.573-41.131,56.141-37.939c13.271,1.432,24.588,6.666,33.609,16.736c2.524,2.818,2.371,4.334-0.737,6.563
		c-6.485,4.646-6.357,4.826-12.309-0.814c-15.211-14.414-41.772-13.201-55.255,2.525c-13.555,15.809-11.213,39.857,5.109,52.48
		c15.663,12.111,38.487,10.008,52.648-4.854c3.457-3.627,4.094-3.408,10.244,2.096c2.936,2.629,1.396,4.604-0.444,6.766
		C0.709,612.836-13.227,618.687-29.294,618.722z"/>
	<path fill-rule="evenodd" fill="#3D8CD3" d="M352.71,557.558c0.006,9.5-0.08,19,0.027,28.498
		c0.146,12.822,7.065,20.141,19.003,20.309c11.148,0.156,18.723-7.666,18.852-20.025c0.199-19.164,0.102-38.33,0.143-57.496
		c0.014-5.998,0.496-6.193,6.66-6.488c4.818-0.232,6.398,1.52,6.332,6.352c-0.236,17.33-0.15,34.664-0.063,51.996
		c0.021,4.193-0.463,8.314-1.072,12.424c-2.033,13.746-13.281,24.459-26.396,25.264c-17.708,1.086-31.065-6.947-34.854-21.143
		c-1.248-4.678-1.487-9.545-1.509-14.371c-0.081-18.164,0.079-36.332-0.169-54.494c-0.07-5.182,2.317-5.977,6.717-6.072
		c4.722-0.104,6.588,1.281,6.419,6.254C352.472,538.219,352.704,547.892,352.71,557.558z"/>
	<path fill-rule="evenodd" fill="#7F7F7F" d="M-88.524,361.278c0-19.666-0.005-39.333,0.003-58.999
		c0.003-6.435,0.239-6.655,6.839-6.656c17.666-0.003,35.332-0.001,52.998,0.002c1.167,0,2.338-0.038,3.498,0.05
		c1.869,0.143,3.313,1.101,3.396,3.015c0.098,2.243-1.53,3.173-3.563,3.356c-1.158,0.104-2.331,0.044-3.497,0.045
		c-16.333,0.001-32.667,0.081-48.998-0.067c-3.389-0.031-4.597,0.841-4.585,4.433c0.12,36.665,0.123,73.331-0.002,109.996
		c-0.013,3.681,1.364,4.38,4.662,4.369c29.332-0.1,58.666-0.143,87.997,0.037c4.181,0.025,4.897-1.508,4.883-5.211
		c-0.122-30.166-0.07-60.332-0.067-90.498c0-1.332-0.058-2.675,0.079-3.995c0.191-1.852,1.191-3.261,3.142-3.254
		c1.906,0.006,3.008,1.301,3.188,3.202c0.11,1.157,0.057,2.331,0.057,3.497c0.002,31.832,0.004,63.665,0,95.498
		c-0.001,6.805-0.323,7.137-7.007,7.139c-32.166,0.006-64.332,0.006-96.498,0c-6.273,0-6.516-0.234-6.519-6.459
		C-88.531,400.943-88.524,381.11-88.524,361.278z"/>
	<path fill-rule="evenodd" fill="#7F7F7F" d="M367.289,424.513c-31.57-0.064-59.568-21.521-67.514-51.74
		c-8.213-31.231,5.09-63.382,32.886-79.391c2.07-1.192,4.643-3.442,6.402-0.144c1.738,3.258-1.658,4.162-3.659,5.356
		c-33.791,20.171-42.432,63.432-18.915,94.866c16.879,22.562,47.762,31.256,74.455,20.961
		c27.145-10.469,43.869-37.982,40.799-67.115c-2.955-28.045-24.844-51.548-52.434-56.218c-3.107-0.526-6.273-0.763-9.422-0.996
		c-2.236-0.165-4.861-0.219-4.892-3.027c-0.037-3.261,2.798-3.223,5.177-3.068c26.293,1.71,46.434,13.796,59.213,36.801
		C455.33,367.507,420.971,424.623,367.289,424.513z"/>
	<path fill-rule="evenodd" fill="#7F7F7F" d="M562.916,424.513c-36.846-0.055-67.988-29.192-69.938-65.43
		c-2.041-37.97,25.609-70.995,62.479-74.621c37.914-3.729,71.588,22.029,77.287,59.056c1.705,11.078,0.852,21.93-2.598,32.554
		c-0.754,2.321-1.045,6.214-4.75,5.076c-3.865-1.187-1.633-4.399-0.883-6.753c8.613-27.006-0.713-55.582-23.666-72.358
		c-21.877-15.991-52.338-16.058-74.902-0.165c-29.689,20.912-35.994,62.404-13.918,91.574c21.633,28.582,63.244,33.757,91.24,11.345
		c1.43-1.145,2.805-2.356,4.229-3.508c1.438-1.161,3.035-1.662,4.455-0.15c1.438,1.533,0.797,3.11-0.512,4.397
		c-3.701,3.64-7.867,6.696-12.322,9.327C587.67,421.619,576.592,424.535,562.916,424.513z"/>
	<path fill-rule="evenodd" fill="#3D8CD3" d="M170.422,306.263c2.71-4.092,5.17-8.272,8.879-11.409
		c11.923-10.083,25.391-12.414,39.623-6.329c13.938,5.96,21.717,17.278,22.077,32.379c0.574,24.143,0.173,48.309,0.202,72.464
		c0.003,2.354-0.408,4.686-3.174,4.788c-3.242,0.121-3.388-2.478-3.387-4.953c0.012-23.656,0.089-47.313-0.027-70.97
		c-0.067-13.93-9.066-25.534-22.244-29.186c-13.449-3.726-27.312,1.791-34.524,13.795c-3.083,5.132-4.258,10.754-4.244,16.713
		c0.046,19.659,0.02,39.317,0.012,58.976c0,1.33,0.053,2.681-0.152,3.985c-0.264,1.684-1.463,2.661-3.117,2.684
		c-1.455,0.019-2.623-0.935-2.931-2.309c-0.356-1.598-0.39-3.29-0.393-4.942c-0.033-20.157,0.114-40.317-0.099-60.473
		c-0.146-13.824-8.77-24.742-21.759-28.343c-13.453-3.728-27.008,1.431-34.343,13.096c-2.246,3.57-3.706,7.476-4.152,11.655
		c-0.26,2.434-0.854,4.628-3.643,4.208c-2.911-0.438-3.155-2.911-2.842-5.471c2.024-16.507,17.406-30.591,34.081-31.153
		C150.123,284.933,160.723,290.981,170.422,306.263z"/>
	<path fill-rule="evenodd" fill="#7F7F7F" d="M261.168,497.412c-108.13,0-216.26,0.01-324.389-0.072
		c-1.984-0.002-5.706,1.443-5.686-1.609c0.021-3.15,3.761-1.605,5.757-1.605c216.26-0.082,432.519-0.082,648.779-0.004
		c2.045,0,5.879-1.438,5.9,1.445c0.025,3.611-3.939,1.742-5.973,1.744C477.428,497.426,369.297,497.412,261.168,497.412z"/>
	<path fill-rule="evenodd" fill="#7F7F7F" d="M170.368,409.798c3.528-5.809,7.12-10.9,12.372-14.665
		c21.437-15.367,52.088-3.441,57.325,22.396c0.23,1.139,0.373,2.303,0.466,3.463c0.174,2.182,0.534,4.807-2.427,5.143
		c-2.952,0.338-3.168-2.143-3.432-4.422c-0.983-8.479-4.557-15.627-11.396-20.889c-9.55-7.345-20.186-8.566-31.139-4.161
		c-10.735,4.317-16.727,12.793-18.478,24.222c-0.343,2.24,0.133,5.238-3.17,5.268c-3.217,0.029-3.076-2.918-3.389-5.186
		c-2.182-15.783-14.671-26.722-30.488-26.689c-15.81,0.033-28.3,11.123-30.273,26.91c-0.293,2.344-0.293,5.162-3.563,4.906
		c-2.855-0.225-2.779-2.822-2.782-5.041c-0.039-28.982-0.086-57.965-0.117-86.948c-0.003-2.359-0.096-5.272,3.163-5.13
		c2.856,0.124,2.662,2.863,2.675,5.066c0.128,21.313,0.271,42.626,0.406,63.939c0.01,1.611,0.001,3.224,0.001,6.163
		c9.471-11.525,20.575-16.933,34.349-15.574C154.14,389.917,163.739,397.453,170.368,409.798z"/>
	<path fill-rule="evenodd" fill="#3D8CD3" d="M-56.466,366.409c-3.305-0.485-4.859-1.737-4.134-5.063
		c2.136-9.794,5.173-18.547,13.171-25.919c16.992-15.663,32.982-32.42,49.195-48.914c3.406-3.466,5.869-3.519,9.018,0.022
		c2.869,3.228,6.066,6.166,9.135,9.215c2.319,2.304,2.392,4.594,0.057,6.929c-19.294,19.298-38.391,38.798-58.016,57.753
		C-42.878,365.105-50.586,364.165-56.466,366.409z M3.173,309.132c-2.185-2.051-4.038-4.212-6.303-5.779
		c-1.646-1.14-2.558,0.978-3.504,1.919c-13.784,13.708-27.512,27.475-41.265,41.216c-2.905,2.903-4.96,8.036-2.984,9.983
		c2.008,1.98,7.06-0.195,9.941-3.077c13.98-13.983,27.971-27.957,41.952-41.939C1.701,310.765,2.343,310.027,3.173,309.132z
		 M6.098,292.137c-1.257,2.29-4.572,3.217-3.873,5.263c0.907,2.656,3.354,5.306,6.175,5.896c1.494,0.313,4.567-2.385,3.795-4.242
		C11.135,296.506,8.427,294.644,6.098,292.137z"/>
	<path fill-rule="evenodd" fill="#3D8CD3" d="M367.403,308.471c19.129-0.041,35.996,11.455,43.053,29.191
		c0.994,2.499,3.006,5.828-0.629,7.395c-3.893,1.679-4.418-2.224-5.422-4.743c-6.049-15.202-20.373-25.15-36.307-25.185
		c-16.335-0.034-30.748,9.535-36.781,24.421c-6.122,15.107-2.349,32.255,9.59,43.573c14.063,13.331,37.179,13.913,52.115,1.309
		c0.51-0.43,0.988-0.896,1.467-1.358c1.734-1.672,3.693-2.627,5.66-0.613c2.166,2.218,0.457,3.908-1.197,5.442
		c-9.676,8.971-21.209,13.043-34.273,12.263c-22.222-1.328-40.311-18.895-42.747-41.127c-2.376-21.682,11.82-42.672,33.063-48.776
		C359.157,309.066,363.416,308.268,367.403,308.471z"/>
	<path fill-rule="evenodd" fill="#3D8CD3" d="M596.553,324.106c0.186,1.928-0.875,3.154-2.092,4.368
		c-18.955,18.932-37.889,37.884-56.846,56.814c-1.936,1.934-4.287,4.062-6.84,1.574c-2.578-2.51-0.381-5.021,1.447-6.86
		c19.006-19.115,38.08-38.163,57.174-57.19c1.412-1.405,3.123-2.671,5.332-1.879C596.149,321.443,596.598,322.725,596.553,324.106z"
		/>
	<path fill-rule="evenodd" fill="#3D8CD3" d="M570.996,359.382c1.361-0.15,2.469,0.828,3.574,1.895
		c6.463,6.235,12.93,12.467,19.428,18.664c2.07,1.973,3.982,4.353,1.717,6.854c-2.463,2.719-4.893,0.425-6.795-1.438
		c-6.545-6.405-12.982-12.921-19.502-19.352c-1.441-1.42-2.086-2.982-1.512-4.939C568.307,359.704,569.457,359.469,570.996,359.382z
		"/>
	<path fill-rule="evenodd" fill="#3D8CD3" d="M424.115,347.454c0.143,1.44-0.697,2.303-1.49,3.142
		c-3.078,3.263-6.125,6.558-9.311,9.712c-2.117,2.098-4.451,2.038-6.6-0.075c-3.203-3.151-6.393-6.321-9.535-9.534
		c-1.594-1.632-2.055-3.599-0.297-5.289c1.764-1.694,3.586-1.01,5.309,0.479c2.609,2.253,4.43,6.569,7.752,6.491
		c2.986-0.069,4.865-4.144,7.299-6.378c1.502-1.379,3.117-1.928,5.014-1.197C423.449,345.263,423.836,346.425,424.115,347.454z"/>
	<path fill-rule="evenodd" fill="#7F7F7F" d="M583.106,468.851c-3.643,2.631-7.602,1.75-11.475,1.74
		c-1.266-0.004-1.447-1.188-1.449-2.225c-0.014-5.832-0.014-11.666-0.006-17.5c0.002-1.215,0.125-2.484,1.727-2.49
		c8.438-0.037,16.877-0.018,25.77,0.633c-5.313,0.869-4.705,4.438-4.605,7.859c0.111,3.83,0.02,7.666,0.021,11.5
		c0,1.311-0.346,2.408-1.924,2.264c-1.348-0.121-1.328-1.25-1.328-2.268c-0.004-4.166,0.002-8.332-0.004-12.5
		c-0.01-5.498-0.893-6.514-6.191-5.879c-2.166,0.26-4.314,0.426-6.439,0.293c-3.025-0.189-4.045,0.881-4.061,3.967
		c-0.018,3.369,1.893,3.199,4.186,3.264c1.908,0.053,3.939-0.619,6.051,0.746c-0.961,2.066-2.789,1.445-4.209,1.449
		c-3.219,0.008-6.08-0.533-6.107,4.582c-0.027,5.52,3.426,4.004,6.291,4.221C580.606,468.601,581.856,468.736,583.106,468.851z"/>
	<path fill-rule="evenodd" fill="#3D8CD3" d="M532.987,320.856c1.725,0.179,2.756,1.281,3.813,2.338
		c6.219,6.213,12.428,12.435,18.656,18.637c1.896,1.889,3.568,4.058,1.098,6.354c-2.422,2.251-4.199-0.069-5.826-1.688
		c-6.35-6.316-12.674-12.657-19.012-18.986c-1.205-1.203-2.346-2.441-1.637-4.34C530.592,321.794,531.729,321.165,532.987,320.856z"
		/>
	<path fill-rule="evenodd" fill="#7F7F7F" d="M145.994,470.933c-6.96-0.643-7.007-7.215-11.458-9.623
		c-1.094,2.164-0.411,4.457-0.622,6.6c-0.107,1.094,0.29,2.578-1.419,2.684c-1.8,0.109-1.525-1.381-1.53-2.486
		c-0.023-5.645,0.041-11.291-0.031-16.934c-0.027-2.137,0.82-3.037,2.947-2.873c2.471,0.189,4.995,0.049,7.409,0.506
		c2.277,0.43,3.771,2.107,4.04,4.51c0.262,2.334-0.454,4.695-2.712,5.363c-4.706,1.393-3.039,3.424-1.09,5.865
		C142.859,466.211,143.987,468.041,145.994,470.933z M136.942,457.453c2.708,0.135,5.248-0.334,5.325-3.27
		c0.084-3.188-2.58-3.682-5.239-3.883c-2.646-0.201-3.396,0.928-3.39,3.445C133.644,456.32,134.047,458.033,136.942,457.453z"/>
	<path fill-rule="evenodd" fill="#7F7F7F" d="M349.952,459.373c0.001-0.666-0.216-1.432,0.037-1.982
		c1.343-2.936-3.359-8.363,3.208-8.998c10.023-0.967,15.223,2.51,16.075,9.984c0.709,6.219-2.766,11.328-8.472,12.121
		c-2.458,0.342-4.994,0.076-7.478,0.291c-2.635,0.229-3.588-0.803-3.411-3.42C350.091,464.717,349.95,462.041,349.952,459.373z
		 M352.809,459.467c0,2.148,0.007,4.299-0.003,6.449c-0.005,1.23,0.124,2.406,1.69,2.516c4.061,0.283,8.047,0.264,10.534-3.803
		c2.159-3.531,1.479-9.334-1.661-11.83c-2.676-2.127-6.102-3.299-9.268-2.086c-2.625,1.004-0.88,4.131-1.274,6.277
		C352.681,457.789,352.804,458.638,352.809,459.467z"/>
	<path fill-rule="evenodd" fill="#7F7F7F" d="M190.804,459.398c0-0.666-0.215-1.432,0.036-1.982
		c1.336-2.943-3.346-8.365,3.181-9.016c10.017-0.998,15.281,2.512,16.086,9.926c0.683,6.281-2.688,11.301-8.42,12.162
		c-2.449,0.369-4.988,0.096-7.472,0.297c-2.583,0.211-3.633-0.74-3.451-3.395C190.946,464.738,190.804,462.062,190.804,459.398z
		 M193.684,459.131c0,2.148-0.027,4.299,0.012,6.447c0.02,1.113-0.146,2.232,1.338,2.826c3.826,1.525,9.863-0.934,11.418-4.785
		c2.011-4.982-0.302-10.742-4.978-12.396c-6.424-2.273-7.788-1.322-7.791,5.428C193.683,457.476,193.683,458.302,193.684,459.131z"
		/>
	<path fill-rule="evenodd" fill="#7F7F7F" d="M-48.719,470.859c-7.277-0.68-7.216-7.795-12.143-10.227
		c0,2.875,0.006,5.463-0.003,8.051c-0.003,0.887-0.26,1.75-1.239,1.869c-1.34,0.162-1.665-0.832-1.668-1.914
		c-0.015-5.996-0.021-11.994,0.019-17.99c0.004-0.633,0.198-1.748,0.505-1.822c3.428-0.848,6.902-0.896,10.3,0.139
		c2.34,0.713,3.469,2.492,3.52,4.906c0.065,3.172-1.649,4.938-4.635,5.568c-2.221,0.471-1.585,1.693-0.766,2.875
		C-53.056,464.869-51.216,467.377-48.719,470.859z M-57.871,457.455c2.623,0.084,5.228-0.059,5.392-3.172
		c0.176-3.352-2.446-3.785-5.129-3.982c-2.525-0.186-3.607,0.648-3.55,3.332C-61.106,456.127-60.907,458.039-57.871,457.455z"/>
	<path fill-rule="evenodd" fill="#7F7F7F" d="M514.156,459.32c-0.002-0.666-0.221-1.438,0.035-1.982
		c1.375-2.908-3.414-8.357,3.24-8.951c10.188-0.908,15.295,2.496,16.02,9.979c0.627,6.447-2.645,11.277-8.428,12.096
		c-2.457,0.348-4.99,0.117-7.473,0.322c-2.641,0.217-3.58-0.891-3.43-3.469C514.28,464.658,514.156,461.986,514.156,459.32z
		 M516.985,459.502c0,2.16-0.002,4.32,0,6.48c0.002,1.246,0.215,2.379,1.779,2.461c4.051,0.213,8.176,0.412,10.559-3.809
		c2.197-3.889,1.771-7.771-1.035-11.148c-2.453-2.947-6.18-3.701-9.545-2.904c-3.268,0.773-1.254,4.215-1.742,6.434
		C516.826,457.808,516.973,458.672,516.985,459.502z"/>
	<path fill-rule="evenodd" fill="#7F7F7F" d="M-7.914,469.381c-0.169,0.369-0.294,1.068-0.556,1.123
		c-0.601,0.129-1.541,0.188-1.856-0.162c-0.861-0.961-1.729-2.061-2.13-3.262c-0.964-2.895-2.591-4.078-5.823-4.1
		c-3.373-0.023-5.292,1.014-6.297,4.209c-0.377,1.197-1.265,2.293-2.128,3.246c-0.292,0.322-1.293,0.242-1.852,0.031
		c-0.877-0.332-0.48-1.094-0.205-1.674c2.98-6.303,5.969-12.604,8.977-18.895c0.577-1.207,1.529-2.223,2.407-0.439
		C-14.153,456.011-11.096,462.644-7.914,469.381z M-18.714,455.078c-0.909,2.201-3.006,3.826-1.841,5.604
		c0.696,1.063,2.998,0.645,4.674-0.002C-16.042,458.664-16.865,457.021-18.714,455.078z"/>
	<path fill-rule="evenodd" fill="#7F7F7F" d="M-78.009,470.756c-6.133,0.043-10.155-2.686-11.777-7.988
		c-1.496-4.893,0.316-9.836,4.61-12.578c4.246-2.711,12.293-2.453,15.588,0.496c0.609,0.545,1.471,1.051,0.845,2.018
		c-0.84,1.297-1.843,0.998-2.94,0.193c-2.782-2.041-5.693-3.23-9.257-1.846c-5.14,1.996-7.479,6.566-5.671,11.512
		c1.793,4.906,7.341,7.289,12.246,5.191c1.054-0.451,2.012-1.148,2.964-1.803c0.981-0.676,1.953-0.715,2.569,0.295
		c0.707,1.158-0.339,1.818-1.129,2.35C-72.386,470.226-75.128,470.773-78.009,470.756z"/>
	<path fill-rule="evenodd" fill="#7F7F7F" d="M176.289,447.101c3.7,7.873,6.846,14.566,9.993,21.262
		c0.37,0.789,0.643,1.65-0.32,2.129c-0.774,0.385-1.701,0.262-2.19-0.555c-0.762-1.277-1.601-2.568-2.032-3.969
		c-0.908-2.953-3.118-2.869-5.538-2.908c-2.511-0.037-4.633,0.213-5.487,3.047c-0.236,0.783-0.711,1.494-1.05,2.25
		c-0.637,1.424-1.516,3.098-3.231,2.209c-2.211-1.143-0.035-2.637,0.44-3.691C169.702,460.611,172.756,454.449,176.289,447.101z
		 M176.146,455.443c-0.293,1.953-3.687,3.078-1.624,5.346c0.599,0.658,3.142,0.699,3.636,0.088
		C179.927,458.687,177.341,457.357,176.146,455.443z"/>
	<path fill-rule="evenodd" fill="#7F7F7F" d="M382.844,447.158c3.711,7.869,6.869,14.561,10.021,21.254
		c0.35,0.742,0.857,1.604-0.178,2.123c-0.775,0.387-1.721,0.232-2.246-0.518c-0.658-0.941-1.336-1.953-1.652-3.039
		c-0.971-3.34-3.193-4.004-6.426-3.984c-3.02,0.018-4.596,1.084-5.48,3.846c-0.393,1.223-1.191,2.365-2.01,3.381
		c-0.533,0.662-1.512,0.707-2.291,0.256c-0.793-0.457-0.4-1.156-0.123-1.738C375.727,461.929,379.008,455.127,382.844,447.158z
		 M382.946,455.033c-1.457,1.855-2.576,3.477-2.691,5.875c1.701,0.135,3.959,0.934,4.697-0.305
		C386.01,458.83,384.164,457.097,382.946,455.033z"/>
	<path fill-rule="evenodd" fill="#7F7F7F" d="M325.42,457.246c0,2.492,0.31,5.035-0.07,7.469c-0.62,3.973-3.16,6.092-7.292,6.039
		c-4.218-0.051-7.225-1.908-7.576-6.291c-0.371-4.631-0.177-9.307-0.193-13.965c-0.004-1.014,0.126-2.098,1.533-2.043
		c1.353,0.053,1.474,1.109,1.48,2.133c0.028,3.992,0.019,7.986,0.042,11.98c0.019,3.193,1.147,5.859,4.711,5.785
		c3.544-0.074,4.552-2.836,4.577-5.971c0.033-3.992,0.012-7.986,0.041-11.98c0.008-1.053,0.229-2.061,1.617-1.938
		c1.038,0.092,1.28,0.93,1.291,1.793c0.029,2.328,0.01,4.658,0.01,6.988C325.534,457.246,325.476,457.246,325.42,457.246z"/>
	<path fill-rule="evenodd" fill="#7F7F7F" d="M551.184,448.324c-1.842,2.607-4.039,2.039-6.037,1.951
		c-2.906-0.129-4.152,0.695-4.145,3.871c0.006,3.209,1.668,3.355,4.072,3.369c2.021,0.014,4.225-0.664,6.52,0.949
		c-2.404,2.154-4.953,1.205-7.18,1.209c-3.68,0.008-3.254,2.416-3.336,4.746c-0.082,2.35,0.01,4.211,3.277,4.162
		c2.266-0.035,4.857-0.975,7.389,1.348c-4.299,1.488-8.234,0.611-12.08,0.754c-1.258,0.047-1.646-0.883-1.646-2.004
		c0-5.977,0.01-11.955-0.01-17.932c-0.006-1.615,0.652-2.451,2.352-2.436C543.967,448.347,547.574,448.324,551.184,448.324z"/>
	<path fill-rule="evenodd" fill="#7F7F7F" d="M164.352,448.988c-3.153,2.002-5.525,1.33-7.733,1.281
		c-2.746-0.061-3.355,1.17-3.349,3.609c0.006,2.369,0.429,3.689,3.254,3.67c2.271-0.016,4.856-0.963,7.237,1.191
		c-2.385,1.725-4.791,1.004-6.952,0.928c-3.598-0.127-3.47,2.066-3.517,4.535c-0.048,2.555-0.053,4.629,3.557,4.379
		c2.135-0.146,4.532-0.734,6.54,2.018c-3.956,0-7.918,0.133-11.863-0.066c-1.545-0.078-1.262-1.727-1.269-2.834
		c-0.032-5.494-0.001-10.99-0.022-16.484c-0.006-1.664,0.24-3.023,2.387-2.896C156.182,448.531,159.802,447.836,164.352,448.988z"/>
	<path fill-rule="evenodd" fill="#7F7F7F" d="M424.559,449.039c-3.547,1.857-6.039,1.275-8.377,1.246
		c-3.068-0.039-2.881,1.883-2.979,3.967c-0.109,2.316,0.688,3.387,3.123,3.24c2.236-0.137,4.488-0.029,7.363-0.029
		c-1.117,2.705-2.75,2.207-4.045,2.26c-3.164,0.127-6.584-1.051-6.576,4.576c0.01,6.023,3.988,3.75,6.793,4.197
		c1.074,0.172,2.164,0.258,3.277,1.121c-3.895,1.525-7.957,1.262-11.973,0.824c-1.119-0.123-0.986-1.58-0.99-2.557
		c-0.018-5.656,0.027-11.313-0.023-16.967c-0.018-1.92,0.801-2.729,2.689-2.611C416.293,448.523,419.789,447.869,424.559,449.039z"
		/>
	<path fill-rule="evenodd" fill="#7F7F7F" d="M331.283,459.697c0.001-1.328-0.13-2.672,0.03-3.979
		c0.289-2.377-1.341-5.957,0.939-6.891c3.228-1.322,7.195-1.131,10.667,0.359c2.49,1.07,3.097,3.316,2.747,5.824
		c-0.41,2.947-2.53,4.68-5.135,4.441c-6.115-0.557-6.722,2.762-6.247,7.492c0.125,1.242,0.925,3.551-1.324,3.578
		c-2.642,0.033-1.529-2.432-1.634-3.863C331.159,464.351,331.282,462.019,331.283,459.697z M337.005,450.244
		c-1.679-0.26-2.757,0.693-2.716,3.357c0.037,2.461,0.234,4.15,3.4,3.92c2.512-0.182,4.926-0.486,4.989-3.48
		C342.742,451.062,340.315,450.457,337.005,450.244z"/>
	<path fill-rule="evenodd" fill="#7F7F7F" d="M22.929,449.707c-2.017,1.217-4.362,0.619-6.519,0.564
		c-2.773-0.068-3.754,0.9-3.834,3.723c-0.086,3.035,1.21,3.582,3.843,3.545c2.137-0.029,4.509-0.758,6.933,0.951
		c-2.551,2.057-5.111,1.211-7.401,1.18c-3.732-0.049-3.242,2.4-3.3,4.715c-0.057,2.264-0.221,4.43,3.176,4.152
		c2.339-0.189,4.706-0.035,7.061,0.863c-3.859,1.768-7.857,1.389-11.795,1.172c-1.588-0.088-1.28-1.689-1.285-2.795
		c-0.027-5.48,0.033-10.963-0.034-16.445c-0.024-2.012,0.534-3.115,2.798-3.045c3.444,0.109,6.895,0.029,10.342,0.029
		C22.919,448.779,22.925,449.244,22.929,449.707z"/>
	<path fill-rule="evenodd" fill="#7F7F7F" d="M614.272,458.633c-2.574,1.83-5.129,1.084-7.457,1.045
		c-3.82-0.064-3.111,2.523-3.227,4.77c-0.117,2.338-0.086,4.309,3.25,4.115c2.32-0.135,4.801-0.494,7.016,1.086
		c-3.906,1.584-7.938,1.059-11.916,0.928c-0.992-0.031-1.172-1.033-1.174-1.9c-0.008-5.988,0.016-11.977-0.02-17.965
		c-0.01-1.684,0.742-2.406,2.396-2.393c3.576,0.027,7.152,0.008,12.012,0.008c-3.025,2.775-5.42,1.992-7.492,1.934
		c-2.859-0.082-4.18,0.555-4.17,3.813c0.008,3.141,1.424,3.447,3.949,3.467C609.567,457.554,611.965,456.683,614.272,458.633z"/>
	<path fill-rule="evenodd" fill="#7F7F7F" d="M-31.584,448.342c-1.828,2.576-3.883,2.008-5.775,1.932
		c-2.79-0.111-4.165,0.422-4.22,3.738c-0.062,3.652,1.899,3.523,4.386,3.488c1.888-0.027,3.874-0.377,6.052,0.65
		c-1.434,2.377-3.43,1.582-4.978,1.529c-3.351-0.115-5.525,0.082-5.516,4.623c0.01,4.404,2.203,4.316,5.244,4.246
		c1.666-0.039,3.563-0.594,5.695,1.416c-4.472,1.393-8.37,0.656-12.189,0.65c-1.294-0.002-1.432-1.162-1.432-2.191
		c-0.002-5.986,0.015-11.973,0.017-17.959c0-1.426,0.688-2.127,2.116-2.125C-38.651,448.344-35.117,448.342-31.584,448.342z"/>
	<path fill-rule="evenodd" fill="#7F7F7F" d="M566.342,470.008c-3.322,1.492-6.773,0.592-10.123,0.6
		c-1.291,0.004-1.383-1.207-1.385-2.225c-0.01-5.818-0.018-11.635,0.012-17.453c0.006-1.123-0.133-2.555,1.611-2.469
		c1.719,0.086,1.434,1.547,1.445,2.641c0.041,4.154,0.279,8.332-0.055,12.459c-0.32,3.969,1.078,5.465,4.996,4.994
		C564.002,468.416,565.584,467.931,566.342,470.008z"/>
	<path fill-rule="evenodd" fill="#7F7F7F" d="M7.002,449.238c-6.104,0.211-4.933,4.381-4.951,7.834
		c-0.02,3.662,0.015,7.322-0.015,10.982c-0.01,1.131,0.161,2.537-1.554,2.572c-1.751,0.035-1.572-1.369-1.579-2.506
		c-0.023-3.828-0.078-7.656,0.01-11.48c0.079-3.467,0.822-7.238-4.923-7.322C-1.575,447.994,2.501,448.107,7.002,449.238z"/>
	<path fill-rule="evenodd" fill="#7F7F7F" d="M394.698,448.576c4.061,0,8.121,0,12.182,0c-6.328,1.625-4.217,6.596-4.35,10.557
		c-0.102,2.986-0.016,5.979-0.027,8.967c-0.006,1.197-0.045,2.498-1.697,2.461c-1.725-0.037-1.516-1.465-1.525-2.58
		c-0.035-3.652-0.037-7.307-0.006-10.959C399.307,453.494,400.248,449.459,394.698,448.576z"/>
	<path fill-rule="evenodd" fill="none" d="M553.6,569.738c0-10.332,0-20.664,0-30.994c0-1.842-0.291-3.723,2.617-3.67
		c9.48,0.174,19.018-0.373,28.309,2.164c13.363,3.652,22.354,14.822,23.164,28.688c0.262,4.494,0.539,9.021-0.443,13.439
		c-3.645,16.371-14.07,24.238-33.141,24.986c-5.658,0.221-11.336-0.084-16.994,0.146c-2.979,0.121-3.598-1.057-3.564-3.766
		C553.676,590.402,553.6,580.07,553.6,569.738z"/>
	<path fill-rule="evenodd" fill="none" d="M158.433,547.836c0.359-3.473-1.857-9.035,0.795-11.691
		c2.865-2.869,8.496-0.787,12.912-0.916c3.299-0.094,6.677-0.027,9.906,0.574c6.245,1.168,10.119,6.039,10.311,12.295
		c0.197,6.42-3.706,11.734-9.942,13.195c-7.028,1.648-14.2,0.977-21.324,1.035c-2.3,0.02-2.705-1.334-2.673-3.242
		C158.474,555.603,158.433,552.117,158.433,547.836z"/>
	<path fill-rule="evenodd" fill="none" d="M3.173,309.132c-0.83,0.895-1.472,1.633-2.162,2.322
		c-13.981,13.982-27.972,27.956-41.952,41.939c-2.882,2.882-7.934,5.058-9.941,3.077c-1.976-1.947,0.079-7.08,2.984-9.983
		c13.753-13.741,27.48-27.508,41.265-41.216c0.946-0.941,1.857-3.059,3.504-1.919C-0.865,304.92,0.988,307.081,3.173,309.132z"/>
	<path fill-rule="evenodd" fill="none" d="M6.098,292.137c2.328,2.507,5.036,4.369,6.097,6.917c0.772,1.857-2.301,4.556-3.795,4.242
		c-2.821-0.591-5.268-3.24-6.175-5.896C1.526,295.354,4.842,294.427,6.098,292.137z"/>
	<path fill-rule="evenodd" fill="none" d="M136.942,457.453c-2.896,0.58-3.298-1.133-3.304-3.707
		c-0.006-2.518,0.744-3.646,3.39-3.445c2.659,0.201,5.323,0.695,5.239,3.883C142.19,457.119,139.65,457.588,136.942,457.453z"/>
	<path fill-rule="evenodd" fill="none" d="M352.806,459.467c-0.002-0.828-0.125-1.678,0.021-2.477
		c0.395-2.146-1.351-5.273,1.274-6.277c3.166-1.213,6.592-0.041,9.268,2.086c3.14,2.496,3.82,8.299,1.661,11.83
		c-2.487,4.066-6.474,4.086-10.534,3.803c-1.566-0.109-1.695-1.285-1.69-2.516C352.816,463.765,352.809,461.615,352.806,459.467z"/>
	<path fill-rule="evenodd" fill="none" d="M193.684,459.131c-0.001-0.828-0.001-1.654-0.001-2.48
		c0.003-6.75,1.367-7.701,7.791-5.428c4.676,1.654,6.988,7.414,4.978,12.396c-1.555,3.852-7.592,6.311-11.418,4.785
		c-1.483-0.594-1.318-1.713-1.338-2.826C193.657,463.429,193.684,461.279,193.684,459.131z"/>
	<path fill-rule="evenodd" fill="none" d="M-57.871,457.455c-3.036,0.584-3.234-1.328-3.287-3.822
		c-0.058-2.684,1.024-3.518,3.55-3.332c2.683,0.197,5.305,0.631,5.129,3.982C-52.644,457.396-55.248,457.539-57.871,457.455z"/>
	<path fill-rule="evenodd" fill="none" d="M516.979,459.502c-0.006-0.83-0.152-1.693,0.021-2.486
		c0.488-2.219-1.525-5.66,1.742-6.434c3.365-0.797,7.092-0.043,9.545,2.904c2.807,3.377,3.232,7.26,1.035,11.148
		c-2.383,4.221-6.508,4.021-10.559,3.809c-1.564-0.082-1.777-1.215-1.779-2.461C516.983,463.822,516.985,461.662,516.979,459.502z"
		/>
	<path fill-rule="evenodd" fill="none" d="M-18.714,455.078c1.85,1.943,2.672,3.586,2.833,5.602
		c-1.676,0.646-3.978,1.064-4.674,0.002C-21.72,458.904-19.623,457.279-18.714,455.078z"/>
	<path fill-rule="evenodd" fill="none" d="M176.146,455.443c1.194,1.914,3.781,3.244,2.012,5.434
		c-0.494,0.611-3.037,0.57-3.636-0.088C172.46,458.521,175.853,457.396,176.146,455.443z"/>
	<path fill-rule="evenodd" fill="none" d="M382.946,455.033c1.219,2.064,3.064,3.797,2.006,5.57
		c-0.738,1.238-2.996,0.439-4.697,0.305C380.369,458.51,381.489,456.888,382.946,455.033z"/>
	<path fill-rule="evenodd" fill="none" d="M337.005,450.244c3.311,0.213,5.737,0.818,5.674,3.797
		c-0.063,2.994-2.478,3.299-4.989,3.48c-3.166,0.23-3.363-1.459-3.4-3.92C334.248,450.937,335.326,449.984,337.005,450.244z"/>
</g>
</svg>
