<?xml version="1.0" encoding="utf-8"?>
<!-- Generator: Adobe Illustrator 16.0.0, SVG Export Plug-In . SVG Version: 6.00 Build 0)  -->
<!DOCTYPE svg PUBLIC "-//W3C//DTD SVG 1.1 Tiny//EN" "http://www.w3.org/Graphics/SVG/1.1/DTD/svg11-tiny.dtd">
<svg version="1.1" baseProfile="tiny" id="Layer_1" xmlns="http://www.w3.org/2000/svg" xmlns:xlink="http://www.w3.org/1999/xlink"
	 x="0px" y="0px" width="730.063px" height="833.57px" viewBox="0 0 730.063 833.57" overflow="scroll" xml:space="preserve">
<g>
	<path fill-rule="evenodd" fill="#2276FE" d="M364.975,833.041c-9.699-3.977-19.96-6.09-30-8.91
		c-89.869-25.225-179.759-50.373-269.687-75.389c-3.748-1.043-4.344-2.896-4.611-6.229c-4.935-61.43-9.979-122.852-15.019-184.275
		c-4.63-56.443-9.291-112.883-13.922-169.327c-4.699-57.271-9.372-114.543-14.067-171.815
		c-3.634-44.324-7.266-88.649-10.935-132.971C4.577,58.067,2.423,32.007,0.077,5.965c-0.355-3.951,0.141-5.438,4.697-5.436
		c240.195,0.119,480.39,0.117,720.585,0.01c4.182-0.001,4.99,1.307,4.644,5.105c-3.26,35.659-6.409,71.328-9.552,106.997
		c-2.513,28.541-4.951,57.088-7.456,85.63c-3.203,36.5-6.464,72.993-9.653,109.494c-2.826,32.355-5.559,64.721-8.389,97.075
		c-3.135,35.836-6.357,71.665-9.498,107.502c-2.195,25.055-4.283,50.121-6.479,75.178c-3.169,36.168-6.396,72.332-9.587,108.496
		c-1.377,15.598-2.874,31.188-3.979,46.805c-0.26,3.674-1.623,5.029-4.996,5.994c-74.385,21.299-148.735,42.713-223.092,64.105
		c-21.906,6.303-43.811,12.607-65.714,18.918c-0.931,0.27-2.022,0.221-2.634,1.203C367.643,833.041,366.308,833.041,364.975,833.041
		z"/>
	<path fill-rule="evenodd" fill="#FEFEFE" d="M366.959,674.097c-31.082-8.664-62.158-17.354-93.25-25.982
		c-31.417-8.719-62.836-17.428-94.296-25.99c-3.283-0.895-4.36-2.313-4.64-5.723c-3.064-37.34-6.337-74.662-9.556-111.986
		c-0.657-7.633-1.207-15.275-2.04-22.889c-0.331-3.023,0.806-3.613,3.542-3.605c27.496,0.078,54.991,0.105,82.485-0.031
		c3.116-0.018,3.878,1.082,4.2,3.887c2.349,20.502,4.938,40.977,7.201,61.488c0.359,3.264,1.6,4.398,4.632,5.152
		c29.696,7.387,59.358,14.914,89.012,22.473c4.105,1.045,7.879-0.186,11.744-1.059c2.543-1.691,5.392-2.488,8.369-3.041
		c27.024-5.021,54.014-10.236,81.046-15.225c8.41-1.553,8.265-1.691,9.086-10.244c2.065-21.549,4.362-43.076,6.407-64.627
		c1.307-13.758,2.904-27.486,4.096-41.258c0.305-3.547-1.017-4.941-4.396-4.895c-1.664,0.023-3.33-0.025-4.997-0.025
		c-28.823-0.002-57.665,0.668-86.466-0.131c-72.101-1.998-144.205-0.32-216.303-0.967c-1.295-0.012-2.679,0.381-3.861-0.539
		c-3.945-27.345-7.795-54.708-11.935-82.025c-0.639-4.213,2.132-4.67,4.551-5.721c40.121-17.438,80.266-34.819,120.397-52.233
		c28.384-12.314,56.758-24.656,85.136-36.988c1.012-0.439,2.02-0.895,3.285-1.455c-1.587-1.422-3.104-0.809-4.451-0.809
		c-69.162,0-138.323-0.004-207.483,0.162c-4.521,0.012-6.132-1.035-6.742-5.852c-3.387-26.737-7.255-53.413-10.959-80.109
		c-1.515-4.459,1.213-4.487,4.427-4.481c29.166,0.056,58.332,0.032,87.497,0.032c42.665,0,85.346,0.739,127.992-0.161
		c77.127-1.626,154.252-0.352,231.375-0.86c11.45-0.076,11.479,0.021,11.481,11.288c0.005,23.499-0.245,47.002,0.154,70.495
		c0.118,6.958-2.312,10.488-8.686,13.035c-32.806,13.112-65.443,26.641-98.147,40.006c-33.764,13.8-67.504,27.655-102.165,41.766
		c2.789-0.748,4.692-0.552,6.578-0.552c58.165-0.012,116.329-0.014,174.493-0.007c10.803,0.001,10.955,0.49,10.071,11.518
		c-1.985,24.73-4.204,49.441-6.417,74.151c-2.555,28.525-4.971,57.063-7.51,85.588c-2.23,25.041-4.346,50.096-6.483,75.148
		c-0.891,10.449-1.788,20.902-2.804,31.346c-0.4,4.131-2.329,6.246-6.094,7.449c-12.857,4.109-25.739,8.133-38.626,12.148
		c-34.364,10.705-68.774,21.26-103.108,32.063c-10.332,3.25-20.675,6.467-31.033,9.633
		C371.56,674.129,369.339,675.068,366.959,674.097z"/>
	<path fill-rule="evenodd" fill="#3399FE" d="M366.959,674.097c41.755-13.018,83.509-26.035,125.265-39.049
		c18.26-5.691,36.509-11.42,54.795-17.027c2.702-0.828,3.884-1.945,4.149-5.07c3.737-43.957,7.714-87.893,11.555-131.84
		c2.854-32.674,5.578-65.361,8.401-98.04c1.204-13.932,2.402-27.866,3.842-41.774c0.436-4.194-0.348-5.662-5.082-5.648
		c-62.829,0.182-125.659,0.121-188.695,0.121c0.373-1.66,1.783-1.676,2.85-2.113c67.885-27.808,135.76-55.64,203.691-83.333
		c3.307-1.348,4.416-2.926,4.395-6.484c-0.158-26.498-0.166-52.999,0.004-79.496c0.023-3.782-1.039-4.694-4.742-4.691
		c-150.826,0.122-301.653,0.147-452.479,0.098c-3.219-0.001-4.637,0.83-4.133,4.103c-2.097-3.791-0.58-5.093,3.314-5
		c4.164,0.099,8.332,0.022,12.498,0.022c71.33,0,142.658,0,213.987-0.001c6.393-0.001,6.396-0.007,6.396-6.555
		c0.002-24.831,0.087-49.664-0.086-74.495c-0.027-3.992,1.174-5.044,5.092-5.04c96.66,0.1,193.32,0.117,289.981-0.036
		c4.995-0.009,5.424,2.155,5.078,5.984c-1.372,15.159-2.487,30.343-4.045,45.481c-1.964,19.098-3.454,38.231-5.042,57.36
		c-1.273,15.333-2.771,30.647-4.043,45.985c-1.271,15.333-2.641,30.661-3.986,45.989c-1.664,18.953-3.34,37.906-4.999,56.86
		c-1.675,19.12-3.392,38.235-4.987,57.364c-1.266,15.166-2.68,30.323-4.016,45.485c-1.686,19.119-3.378,38.236-4.975,57.365
		c-1.279,15.332-2.694,30.656-4.048,45.982c-1.675,18.953-3.297,37.91-4.95,56.865c-1.668,19.121-3.507,38.223-5.029,57.359
		c-0.905,11.377-2.465,22.707-2.822,34.127c-0.115,3.65-1.967,5.691-5.096,6.48c-20.996,5.301-41.475,12.4-62.463,17.764
		c-15.02,3.838-29.778,8.691-44.689,12.967c-14.272,4.092-28.619,7.924-42.881,12.053c-15.412,4.461-30.732,9.242-46.15,13.684
		c-13.613,3.918-27.367,7.361-40.935,11.426c-4.763,1.428-4.956-0.602-4.946-4.238C366.999,728.092,366.963,701.095,366.959,674.097
		z"/>
	<path fill-rule="evenodd" fill="#3398FE" d="M158.975,428.881c32.165,0.025,64.328,0.061,96.493,0.074
		c71.995,0.029,143.99,0.049,215.986,0.074c6.089,0.002,5.901-0.012,5.255,6.164c-2.321,22.17-4.493,44.354-6.744,66.531
		c-1.562,15.393-3.241,30.773-4.675,46.178c-0.271,2.91-1.367,3.717-4.162,4.234c-31.234,5.783-62.434,11.76-93.645,17.67
		c-0.48,0.092-0.991,0.021-1.488,0.025c1.229-1.783,0.974-3.818,0.974-5.805c0.003-42.832-0.084-85.662,0.12-128.492
		c0.023-4.863-1.641-5.686-5.986-5.678c-65.33,0.119-130.66,0.092-195.989,0.039C163.067,429.894,160.75,430.81,158.975,428.881z"/>
</g>
</svg>
