<?xml version="1.0" encoding="utf-8"?>
<!-- Generator: Adobe Illustrator 16.0.0, SVG Export Plug-In . SVG Version: 6.00 Build 0)  -->
<!DOCTYPE svg PUBLIC "-//W3C//DTD SVG 1.1 Tiny//EN" "http://www.w3.org/Graphics/SVG/1.1/DTD/svg11-tiny.dtd">
<svg version="1.1" baseProfile="tiny" id="Layer_1" xmlns="http://www.w3.org/2000/svg" xmlns:xlink="http://www.w3.org/1999/xlink"
	 x="0px" y="0px" width="730.063px" height="833.57px" viewBox="0 0 730.063 833.57" overflow="scroll" xml:space="preserve">
<g>
	<path fill-rule="evenodd" fill="#F79D40" d="M-4.011,766.565c-1.455-9.169-0.937-18.358-0.286-27.549
		c2.782-6.843,6.53-12.617,13.701-15.963c3.707-1.727,6.204-5.569,9.146-8.558c27.299-27.73,55.495-54.578,82.386-82.698
		c10.364-10.837,18.486-23.855,31.982-31.495c45.353-20.498,79.169-52.976,101.32-97.565c3.733-2.128,6.549-0.38,9.188,2.15
		c4.096,3.795,9.513,6.57,10.157,13.053c3.794,9.368-2.128,14.955-7.909,20.761c-52.752,53-105.866,105.639-158.571,158.684
		c-19.362,19.488-38.955,38.741-58.377,58.167c-5.439,5.441-11.29,10.201-18.97,12.139C5.172,767.188,0.413,768.925-4.011,766.565z"
		/>
	<path fill-rule="evenodd" fill="#F79C42" d="M-4.011,766.565c5.265-0.096,10.531-0.191,15.796-0.288
		c6.441-3.818,13.421-5.111,20.865-4.913c8.943,0.238,16.387-2.179,20.521-11.324c2.03-4.493,6.233-7.668,9.744-11.173
		c62.434-62.302,124.822-124.646,187.065-187.14c6.629-6.655,13.434-12.397,23.285-13.06c2.451,0.033,4.568,0.895,6.376,2.529
		c4.866,4.795,12.158,7.864,11.791,16.426c-1.563,6.748-6.755,10.894-11.314,15.453c-58.898,58.893-117.716,117.866-176.766,176.605
		c-5.843,5.811-9.621,14.003-18.288,16.759C55.375,769.183,25.686,770.148-4.011,766.565z"/>
	<path fill-rule="evenodd" fill="#F79C43" d="M85.064,766.44c3.638-9.474,10.595-16.345,17.618-23.347
		c58.583-58.396,117.023-116.937,175.55-175.394c3.49-3.486,7.337-6.614,11.018-9.909c0.772-0.816,1.729-1.224,2.845-1.289
		c7.402,1.864,11.713,7.514,16.068,13.12c2.42,2.529,4.308,5.286,3.848,9.035c-1.45,5.382-5.227,9.149-9.014,12.927
		c-51.779,51.656-103.598,103.272-155.074,155.23c-4.588,4.632-10.687,7.339-14.729,12.521
		C117.417,763.507,101.47,766.527,85.064,766.44z"/>
	<path fill-rule="evenodd" fill="#F79B3E" d="M520.958,766.44c-6.109,0.106-12.221,0.215-18.332,0.32
		c-3.224-2.836-9.05-3.189-8.871-9.281c1.309-6.867,6.588-10.939,11.122-15.474c60.591-60.622,121.308-121.113,181.939-181.691
		c4.974-4.973,8.096-12.283,15.935-14.133c11.672,2.1,19.703,8.137,21.932,20.406c-1.242,5.209-5.606,8.045-9.054,11.501
		c-57.497,57.557-115.101,115.012-172.546,172.62C536.524,757.288,529.755,763.192,520.958,766.44z"/>
	<path fill-rule="evenodd" fill="#F79B44" d="M133.194,759.335c-1.94-4.139,1.04-6.378,3.448-8.783
		c56.51-56.488,113.024-112.97,169.565-169.425c1.067-1.064,2.46-1.8,3.702-2.688c2.729-1.941,5.487-1.663,8.267-0.128
		c4.385,3.784,8.67,7.652,9.996,13.687c-0.126,6.276-4.077,10.421-8.159,14.506c-41.283,41.338-82.559,82.681-123.772,124.087
		c-5.397,5.425-12.786,8.469-17.166,14.989C164.342,752.036,149.047,756.61,133.194,759.335z"/>
	<path fill-rule="evenodd" fill="#F89D3D" d="M520.958,766.44c2.517-2.861,4.884-5.871,7.572-8.561
		c60.771-60.829,121.571-121.632,182.398-182.404c3.466-3.463,6.459-7.705,11.875-8.495c4.817-1.771,6.288,1.3,7.287,5.05
		c-0.23,10.066-1.218,20.007-4.914,29.499c-5.741-0.42-8.97,3.664-12.467,7.107c-50.376,49.603-99.523,100.438-150.415,149.52
		c-1.158,1.118-1.564,2.575-1.669,4.137C547.677,766.285,534.425,767.398,520.958,766.44z"/>
	<path fill-rule="evenodd" fill="#F79740" d="M550.671,605.672c7.591-5.919,14.267-12.718,19.816-20.602
		c20.009-28.63,47.012-50.735,70.801-75.839c3.954-4.172,8.036-8.224,14.021-9.435c1.176-0.158,2.327-0.083,3.475,0.201
		c2.822,1.094,4.904,3.161,6.957,5.272c2.541,2.575,4.668,5.334,4.088,9.283c-1.504,5.372-5.328,9.107-9.115,12.901
		c-62.053,62.123-124.199,124.151-186.257,186.27c-4.573,4.58-8.898,9.619-16.148,9.875c-6.437-1.079-11.56-3.769-13.276-10.69
		c-0.608-6.438,3.29-10.664,7.386-14.77c25.091-25.166,50.296-50.215,75.362-75.403C534.544,615.94,543.65,612.184,550.671,605.672z
		"/>
	<path fill-rule="evenodd" fill="#F37951" d="M158.47,252.194c-9.146-4.606-18.292-9.212-27.44-13.817
		c-3.652-5.948-1.606-10.839,2.811-15.313c31.514-31.906,63.292-63.55,95.061-95.199c2.893-2.882,6.383-3.935,10.195-4.488
		c9.991,5.167,19.235,11.42,27.563,19.001c0.161,4.716-2.91,7.592-5.925,10.542c-22.51,22.011-44.45,44.613-67.11,66.447
		c-8.105,7.813-15.294,16.389-23.345,24.182C166.723,246.989,163.39,250.65,158.47,252.194z"/>
	<path fill-rule="evenodd" fill="#F89E3F" d="M132.918,600.302c-8.298,10.675-15.761,22.153-25.063,31.868
		c-22.674,23.673-46.199,46.532-69.391,69.712c-13.385,13.377-26.059,27.576-42.76,37.134c-0.001-12.233-0.001-24.473-0.002-36.706
		c3.152-8.373,8.547-15.041,14.951-21.241c15.068-14.589,29.837-29.495,44.412-44.578c7.655-7.917,15.938-15.022,24.562-21.799
		C97.707,611.072,115.69,607.08,132.918,600.302z"/>
	<path fill-rule="evenodd" fill="#F27354" d="M124.037,78.444c8.87,0.544,17.359,2.724,25.603,5.959
		c3.491,7.541-2.455,11.292-6.569,15.41C107.789,135.126,72.563,170.495,37.271,205.8c-2.889,2.892-6.586,5.224-8.095,10.226
		c4.792,2.437,10.005,2.437,15.141,2.829c8.172-1.75,16.285-1.889,24.337,0.599c2.7,0.764,4.983,1.906,4.876,5.26
		c-20.592-0.235-41.183-0.54-61.775-0.678c-17.258-0.119-17.258-0.032-16.051-17.27c3.242-8.795,9.143-15.562,15.741-22.088
		c31.746-31.4,63.313-62.98,94.755-94.685C111.382,84.768,116.752,80.231,124.037,78.444z"/>
	<path fill-rule="evenodd" fill="#F58649" d="M241.025,507.349c-2.263-1.536-4.523-3.073-6.787-4.612
		c3.944-10.683,7.889-21.367,11.833-32.049c40.459-45.286,85.434-86.129,127.67-129.664c3.191-3.29,6.253-6.8,10.064-9.34
		c3.584-2.386,7.592-4.49,10.431,1.232c1.966,7.572,4.707,14.984,4.81,22.948c-23.063,27.375-49.99,50.988-74.808,76.658
		c-22.482,23.255-45.67,45.822-68.684,68.554C251.612,504.97,247.995,510.214,241.025,507.349z"/>
	<path fill-rule="evenodd" fill="#F89E3C" d="M720.769,618.102c-19.695,63.54-61.221,107.172-121.82,133.277
		c-5.884,2.533-12.235,3.981-18.37,5.932c-4.835-2.242-3.914-5.879-2.215-9.584c0.795-1.731,2.171-3.124,3.505-4.472
		c42.051-42.422,84.263-84.684,126.721-126.697c3.02-2.988,6.375-5.957,11.013-4.274
		C722.318,613.27,721.785,615.861,720.769,618.102z"/>
	<path fill-rule="evenodd" fill="#F58948" d="M401.482,371.986c3.908,22.189,5.553,44.468,2.63,66.926
		c-7.284-3.391-3.388-10.101-4.563-15.286c-1.824-3.345,0.209-7.616-2.517-10.925c-4.742,0.608-6.896,4.595-9.737,7.426
		c-35.216,35.027-70.254,70.233-105.395,105.336c-4.582,4.576-8.915,9.608-16.126,10.017c-9.854-0.821-11.197-9.106-14.074-16.044
		c0.211-5.302,3.018-9.162,6.664-12.775c43.309-42.929,86.177-86.299,129.46-129.251C391.473,373.79,395.02,368.959,401.482,371.986
		z"/>
	<path fill-rule="evenodd" fill="#F4854A" d="M394.236,332.916c-5.964-2.222-8.095,3.087-11.051,6.029
		c-42.063,41.867-83.968,83.892-126.025,125.765c-2.971,2.957-5.155,8.187-11.089,5.979c1.572-7.708,3.144-15.415,4.716-23.121
		c1.605-8.814,5.396-16.486,11.746-22.879c36.33-36.573,72.802-72.999,109.396-109.31c4.117-4.087,8.067-10.086,15.457-5.346
		C389.671,317.659,391.952,325.287,394.236,332.916z"/>
	<path fill-rule="evenodd" fill="#E1794B" d="M729.382,259.522c1.641,12.418,3.057,24.842,0.599,37.327
		c-4.207-4.546-7.246-4.628-12.142,0.388c-41.01,42.001-82.997,83.034-124.243,124.804c-2.911,2.949-5.341,6.589-9.852,7.506
		c-1.191,0.217-2.362,0.154-3.534-0.133c-6.325-3.616-13.046-6.909-13.304-15.676c0.983-5.117,4.301-8.773,7.83-12.291
		c46.132-45.971,91.94-92.27,138.313-137.998C717.212,259.345,721.62,250.948,729.382,259.522z"/>
	<path fill-rule="evenodd" fill="#F37752" d="M239.096,123.377c-6.058,9.405-14.843,16.283-22.58,24.105
		c-25.708,25.986-51.592,51.801-77.547,77.542c-3.89,3.855-7.089,7.831-7.94,13.353c-9.19-2.998-18.38-5.996-27.568-8.993
		c-2.623-5.259,0.703-8.755,3.896-11.965c33.225-33.38,66.549-66.664,99.839-99.981c3.676-3.678,7.741-6.023,13.162-4.691
		C227.278,115.103,233.358,118.936,239.096,123.377z"/>
	<path fill-rule="evenodd" fill="#F4844B" d="M387.387,310.032c-4.894,0.93-7.689,4.774-10.896,7.974
		c-38.62,38.571-77.174,77.208-115.848,115.722c-4.125,4.107-7.6,8.493-9.857,13.84c0.707-11.454,1.414-22.906,2.121-34.36
		c2.778-8.113,7.76-14.58,13.854-20.621c32.513-32.222,64.963-64.508,97.261-96.946c4.109-4.127,7.89-10.058,15.432-6.576
		C383.115,295.669,385.558,302.733,387.387,310.032z"/>
	<path fill-rule="evenodd" fill="#F58749" d="M401.482,371.986c-26.837,26.502-53.653,53.026-80.512,79.501
		c-22.785,22.463-45.622,44.873-68.434,67.307c-0.787,1.171-1.545,1.101-2.288-0.045c-3.074-3.8-6.15-7.599-9.224-11.399
		c7.449-7.065,15.056-13.974,22.324-21.224c41.542-41.434,82.974-82.978,124.546-124.378c2.991-2.975,5.229-8.148,11.151-5.883
		C400.521,361.138,402.3,366.365,401.482,371.986z"/>
	<path fill-rule="evenodd" fill="#F37E4E" d="M223.914,317.332c-3.625-5.422-7.25-10.846-10.875-16.268
		c-2.151-5.739-0.197-10.261,3.921-14.388c30.112-30.184,60.333-60.255,90.503-90.381c4.504-4.497,9.325-6.615,14.722-1.252
		c6.159,5.297,10.879,11.747,14.991,18.688c-33.723,32.874-66.845,66.347-100.223,99.567
		C233.335,316.899,229.531,320.098,223.914,317.332z"/>
	<path fill-rule="evenodd" fill="#F37B50" d="M158.47,252.194c0.63-2.263-0.051-4.171,2.487-6.67
		c33.102-32.594,65.718-65.682,98.553-98.547c1.956-1.958,4.748-3.085,7.149-4.6c7.572,4.333,14.139,9.905,20.038,16.294
		c-33.693,32.661-66.563,66.148-99.786,99.279c-3.759,3.749-7.808,6.141-13.299,4.271
		C168.565,258.879,163.518,255.536,158.47,252.194z"/>
	<path fill-rule="evenodd" fill="#F4834B" d="M379.455,289.064c-4.014,3.486-8.241,6.759-12.01,10.494
		c-38.222,37.841-76.37,75.755-114.537,113.649c-0.816-8.406-1.628-16.812-2.442-25.215c2.057-7.172,6.515-12.746,11.686-17.91
		c29.076-29.036,57.923-58.301,87.131-87.202c6.147-6.085,12.503-12.49,22.618-9.573
		C375.635,277.976,378.209,283.203,379.455,289.064z"/>
	<path fill-rule="evenodd" fill="#F27653" d="M73.53,224.713c-1.547-0.714-3.095-1.429-4.642-2.143
		c-6.669-4.124-2.974-8.375,0.057-12.305c30.821-39.947,69.081-72.805,103.895-108.949c3.118-3.237,7.241-4.013,11.15-5.416
		c8.088,2.079,15.642,5.384,22.679,9.878c1.758,5.55-3.328,7.174-6.008,9.878c-32.253,32.55-64.943,64.665-97.151,97.263
		c-4.306,4.359-8.454,8.82-11.619,14.105C85.771,226.254,79.65,225.484,73.53,224.713z"/>
	<path fill-rule="evenodd" fill="#F58A47" d="M403.668,420.294c0.147,6.206,0.296,12.412,0.444,18.618
		c0.217,8.455,0.473,16.915-2.362,25.084c-6.509-2.783-9.838,1.991-13.589,5.729c-27.346,27.254-54.571,54.636-82.036,81.769
		c-3.951,3.903-7.583,9.197-14.592,6.3h-1.143l-1.14-0.002c-3.826-4.589-7.651-9.178-11.478-13.767
		c-0.714-5.206,2.449-8.515,5.733-11.793c35.555-35.483,70.79-71.287,106.539-106.581
		C393.683,422.054,397.219,417.197,403.668,420.294z"/>
	<path fill-rule="evenodd" fill="#DA724C" d="M525.483,342.567c28.16-4.734,44.899-21.765,52.445-48.697
		c4.082-9.663,11.377-16.765,18.657-23.995c29.711-29.506,59.211-59.228,88.928-88.727c3.813-3.786,7.061-9.726,14.249-6.461
		c2.892,3.479,6.256,6.668,7.028,11.446c-0.195,5.361-3.271,9.045-6.88,12.65c-54.727,54.629-109.419,109.3-164.012,164.063
		c-5.296,5.314-10.804,8.217-18.306,6.305c-8.246-2.483-12.183-9.979-17.926-15.398c-2.546-2.012-3.794-4.523-3.023-7.811
		c4.915-4.955,11.15-1.608,16.712-2.573C517.332,342.675,521.506,343.995,525.483,342.567z"/>
	<path fill-rule="evenodd" fill="#DD754B" d="M717.948,211.337c0.809,2.317,1.62,4.634,2.427,6.951
		c-0.809,5.529-3.737,9.703-7.675,13.628c-51.382,51.224-102.655,102.555-153.948,153.869c-3.563,3.566-7.187,6.865-12.465,7.552
		c-2.48,0.108-4.677-0.626-6.613-2.157c-4.377-3.008-9.674-5.406-8.318-12.293c10.565-7.534,19.275-17.112,28.399-26.231
		c46.793-46.746,93.515-93.563,140.344-140.273C709.344,203.16,710.866,203.196,717.948,211.337z"/>
	<path fill-rule="evenodd" fill="#F4814C" d="M352.918,236.695c3.862,5.764,8.474,11.13,9.804,18.257
		c-0.772,6.468-4.769,10.909-9.152,15.313c-30.18,30.337-60.419,60.616-90.998,90.546c-4.729,4.628-6.779,12.376-14.691,13.576
		c-2.316-7.673-4.633-15.346-6.947-23.017c-1.414-6.574,0.941-11.648,5.617-16.319c31.164-31.151,62.209-62.42,93.499-93.446
		C343.544,238.142,347.113,234.351,352.918,236.695z"/>
	<path fill-rule="evenodd" fill="#F27155" d="M86.02,73.355c6.951-0.45,13.83-0.227,20.476,2.194
		c0.671,7.075-2.543,12.608-7.24,17.367c-28.986,29.354-58.194,58.489-87.491,87.534c-4.547,4.504-9.468,8.157-16.059,3.383
		c-0.001-9.179-0.002-18.358-0.002-27.54c3.237-8.739,9.023-15.541,15.643-21.996c17.675-17.229,35.083-34.735,52.42-52.305
		C70.01,75.663,76.912,71.89,86.02,73.355z"/>
	<path fill-rule="evenodd" fill="#F27454" d="M41.239,222.316c-7.461-0.028-18.445,4.048-21.381-2.097
		c-3.289-6.885,7.512-11.627,12.539-16.725c35.659-36.149,71.704-71.919,107.553-107.883c3.479-3.49,6.473-7.46,9.691-11.208
		c6.312,0.811,12.365,2.456,17.972,5.545c2.741,5.307-0.689,8.755-3.908,11.991C126.238,139.582,88.748,177.2,51.229,214.79
		C48.215,217.808,43.744,218.726,41.239,222.316z"/>
	<path fill-rule="evenodd" fill="#F27453" d="M41.239,222.316c-1.884-5.917,3.268-8.11,6.259-11.117
		c36.905-37.095,73.95-74.05,110.915-111.084c3.226-3.231,6.141-6.771,9.201-10.167c5.897,0.779,11.294,2.93,16.378,5.952
		c-12.157,15.685-27.374,28.424-41.084,42.608c-13.208,13.662-26.306,27.508-40.424,40.191
		c-12.503,11.233-19.498,26.95-32.491,37.598c-1.958,1.604-2.033,3.952-1.104,6.273C59.672,222.487,50.456,222.401,41.239,222.316z"
		/>
	<path fill-rule="evenodd" fill="#F4804D" d="M223.914,317.332c7.52-4.16,12.656-10.982,18.59-16.87
		c27.106-26.91,54.072-53.963,81.053-80.998c3.797-3.804,7.216-8.235,13.619-5.733c3.874,4.068,7.452,8.347,9.535,13.666
		c-1.322,5.017-4.736,8.581-8.262,12.116c-29.604,29.708-59.221,59.407-89.104,88.834c-4.053,3.99-7.563,10.393-15.244,6.941
		C230.706,329.304,227.311,323.318,223.914,317.332z"/>
	<path fill-rule="evenodd" fill="#F89D3D" d="M720.769,618.102c-0.754-3.131-2.51-3.726-4.829-1.594
		c-3.371,3.101-6.575,6.381-9.815,9.618c-39.693,39.686-79.418,79.341-119.002,119.137c-3.217,3.232-8.907,5.594-6.544,12.048
		c-6.253,3.253-12.938,4.78-19.953,4.981c-2.105-0.767-6.441,0.432-4.327-4.21c0.899-1.977,2.972-3.443,4.592-5.063
		c51.074-51.093,102.14-102.192,153.275-153.223c4.127-4.117,9.372-11.634,11.011,1.731
		C725.404,607.504,723.457,612.903,720.769,618.102z"/>
	<path fill-rule="evenodd" fill="#F79A45" d="M346.842,610.658c-7.839,16.773-20.352,30.128-32.558,43.581
		c-24.492,26.991-52.157,50.157-84.475,67.416c-3.703-4.379-1.064-8.014,1.851-10.997c5.251-5.378,8.449-11.625,9.997-18.897
		c1.42-6.672,5.843-11.46,10.566-15.984c24.229-23.215,46.392-48.546,72.135-70.185c3.186-2.68,2.894-7.06,6-9.521
		C341.263,594.815,344.926,601.75,346.842,610.658z"/>
	<path fill-rule="evenodd" fill="#F37B50" d="M173.613,262.222c9.464-6.022,16.336-14.85,24.172-22.597
		c25.234-24.945,50.248-50.113,75.309-75.23c3.794-3.8,7.21-8.229,13.604-5.723c5.552,3.725,10.497,8.093,14.395,13.57
		c-34.475,32.152-66.698,66.579-100.442,99.468c-2.906,2.832-6.21,4.288-10.217,4.274
		C184.826,271.397,179.219,266.81,173.613,262.222z"/>
	<path fill-rule="evenodd" fill="#E0784B" d="M729.382,259.522c-6.479-2.279-8.723,3.522-11.922,6.705
		c-45.884,45.658-91.605,91.479-137.419,137.211c-3.483,3.479-7.343,6.585-11.028,9.863c-2.277,1.443-4.352,0.711-6.382-0.591
		c-1.736-1.611-3.006-3.49-3.36-5.887c-0.563-5.857,2.333-10.104,6.27-14.043c48.506-48.527,97.016-97.048,145.569-145.528
		c4.494-4.487,9.148-8.559,15.857-3.701C728.208,248.808,730.091,253.969,729.382,259.522z"/>
	<path fill-rule="evenodd" fill="#F37D4F" d="M190.433,275.985c14.853-17.882,32.33-33.212,48.515-49.798
		c15.936-16.335,32.306-32.244,48.314-48.507c3.943-4.005,7.763-7.307,13.83-5.437c5.238,3.887,9.936,8.292,13.4,13.891
		c-33.835,32.307-66.406,65.888-99.591,98.85c-3.024,3.004-6.149,5.795-10.902,5.125
		C199.476,285.401,194.955,280.692,190.433,275.985z"/>
	<path fill-rule="evenodd" fill="#F79949" d="M337.423,766.44c-10.705,0-21.407,0.002-32.111,0.002
		c-2.887-5.825,1.113-9.403,4.545-12.832c26.619-26.618,53.082-53.389,79.85-79.855c5.107-5.056,10.568-7.18,17.486-4.589
		c8.849,2.023,13.117,8.861,16.984,16.122c0.263,1.109,0.297,2.237,0.106,3.366c-26.714,21.396-49.105,47.329-73.835,70.82
		C346.71,763.025,341.516,763.662,337.423,766.44z"/>
	<path fill-rule="evenodd" fill="#F79B44" d="M330.525,596.802c1.716,3.64,3.43,7.279,5.688,12.073
		c-9.775-0.925-14.957,5.088-20.556,10.74c-20.619,20.821-41.36,41.521-62.156,62.168c-3.871,3.842-6.938,7.505-6.963,13.597
		c-0.05,12.018-12.553,16.586-16.73,26.274c-15.867,10.192-32.804,18.109-50.734,23.924c-2.267-6.492,3.552-8.735,6.74-11.94
		c43.314-43.547,86.795-86.927,130.189-130.395c3.489-3.495,6.63-7.337,9.933-11.015
		C329.622,591.593,331.258,593.01,330.525,596.802z"/>
	<path fill-rule="evenodd" fill="#F58D46" d="M330.525,596.802c-1.528-1.523-3.058-3.05-4.588-4.573
		c-4.261-2.858-8.202-5.978-9.195-11.459c-2.968-5.832,1.036-9.425,4.477-12.872c18.85-18.885,37.413-38.066,56.729-56.477
		c4.124-3.929,8.883-9.813,14.789-1.713c-3.681,17.339-10.458,33.337-17.775,49.55c-8.125,18.003-18.038,34.658-28.119,51.399
		C341.405,606.038,335.965,601.422,330.525,596.802z"/>
	<path fill-rule="evenodd" fill="#F58C47" d="M291.532,557.793c31.137-30.757,62.322-61.469,93.365-92.32
		c4.553-4.524,8.441-9.714,12.626-14.583c5.881,4.78,3.361,9.318,4.227,13.106c0.463,9.51-1.729,18.577-4.588,27.534
		c-5.017-0.271-7.211,3.868-10.053,6.722c-22.345,22.411-44.69,44.817-67.256,67.004c-3.947,3.88-7.541,9.197-14.54,6.291
		C299.851,567.831,295.276,563.228,291.532,557.793z"/>
	<path fill-rule="evenodd" fill="#C75E4E" d="M502.546,71.812c7.64,0,15.279,0,22.919,0c2.797,5.91-1.383,9.394-4.795,12.828
		c-37.441,37.67-75.267,74.962-112.394,112.951c-1.91,1.954-3.822,3.865-6.918,2.442c-3.879-4.042-7.068-8.553-9.31-13.707
		c-2.225-5.828,0.013-10.141,4.178-14.294c30.855-30.772,61.683-61.573,92.428-92.455C492.636,75.58,497.842,74.258,502.546,71.812z
		"/>
	<path fill-rule="evenodd" fill="#F4824C" d="M247.88,374.387c1.389-3.862,1.896-7.876,5.189-11.139
		c35.7-35.364,71.229-70.904,106.829-106.372c0.794-0.791,1.877-1.291,2.823-1.924c4.239,5.529,8.292,11.15,9.18,18.355
		c-38.979,26.534-67.074,64.615-101.729,95.726c-6.807,6.11-9.685,16.268-19.707,18.959
		C248.802,383.609,247.634,379.133,247.88,374.387z"/>
	<path fill-rule="evenodd" fill="#F7984A" d="M337.423,766.44c24.877-25.215,49.873-50.313,74.501-75.764
		c3.526-3.646,7.015-1.116,10.373-2.114c7.696-3.401,10.061,3.517,14.074,7.26c1.626,1.766,2.535,3.853,2.798,6.225
		c-0.046,5.648-2.271,9.923-6.721,13.783c-15.543,13.51-30.875,27.303-43.224,43.96c-2.731,3.688-7.131,4.25-10.507,6.652
		C364.953,766.44,351.188,766.44,337.423,766.44z"/>
	<path fill-rule="evenodd" fill="#F27652" d="M91.892,227.025c-3.505-3.82-3.058-6.961,0.71-10.705
		c35.497-35.272,70.81-70.73,106.298-106.014c2.057-2.043,5.155-3.042,7.769-4.528c5.05,1.367,9.722,3.478,13.689,6.968
		c-21.122,20.748-42.361,41.381-63.332,62.283c-18.015,17.957-35.723,36.227-53.565,54.355
		C99.603,228.598,95.749,227.811,91.892,227.025z"/>
	<path fill-rule="evenodd" fill="#E47C4A" d="M729.589,300.835c0.702,6.294-0.094,12.41-2.2,18.367
		c-3.809,7.508-9.129,13.759-15.109,19.685c-33.48,33.167-66.705,66.591-100.061,99.885c-3.788,3.782-7.257,7.955-13.37,7.642
		c-4.032-0.257-6.706-2.616-8.902-5.719c-1.476-1.966-2.582-4.067-2.38-6.633c1.189-5.034,4.479-8.711,8.031-12.222
		c39.316-38.903,77.974-78.463,117.505-117.146C717.394,300.49,721.862,292.378,729.589,300.835z"/>
	<path fill-rule="evenodd" fill="#CC634E" d="M578.473,80.522c5.012,0.292,9.638,1.766,13.832,4.548
		c0.991,5.43-2.834,8.396-6.041,11.609c-38.887,38.954-77.826,77.85-116.739,116.777c-4.646,4.647-9.871,8.375-16.166,10.472
		c-3.889,0.094-7.778,0.117-11.665-0.018c-7.614-3.322-5.591-8.648-1.609-12.694c41.437-42.082,83.133-83.912,125.363-125.199
		C568.626,82.911,572.802,79.152,578.473,80.522z"/>
	<path fill-rule="evenodd" fill="#F79641" d="M436.056,702.335c-0.765-1.529-1.527-3.061-2.294-4.592
		c-2.298-5.176,0.537-8.747,3.855-12.113c21.397-21.702,42.997-43.206,64.68-64.625c4.505-4.447,9.912-6.989,16.478-6.234
		c11.166-1.162,21.842-4.036,31.896-9.099c-7.717,11.072-18.267,19.472-27.576,29.024c-25.06,25.726-50.356,51.216-75.562,76.803
		C438.906,714.456,438.779,706.771,436.056,702.335z"/>
	<path fill-rule="evenodd" fill="#F68F45" d="M562.13,406.463c0.776,1.516,1.555,3.031,2.329,4.545
		c0.782,5.209-2.41,8.5-5.663,11.772c-21.135,21.253-42.426,42.354-63.483,63.686c-4.489,4.543-10.209,6.386-15.631,9.005
		c-2.268,0.128-4.534,0.349-6.802,0.371c-16.319,0.15-16.319,0.136-11.608-16.052c23.789-27.088,50.612-51.204,75.6-77.119
		c3.719-3.855,7.599-7.471,13.188-8.447c1.149-0.096,2.271,0.018,3.381,0.325C558.734,396.765,560.508,401.559,562.13,406.463z"/>
	<path fill-rule="evenodd" fill="#DB734C" d="M518.737,365.068c6.955,2.599,10.449-2.485,14.446-6.484
		c54.187-54.191,108.363-108.389,162.589-162.539c3.491-3.488,7.336-6.617,11.019-9.912c2.595,2.532,4.045,5.615,4.438,9.208
		c-0.793,5.525-3.721,9.67-7.656,13.592c-53.2,53.041-106.323,106.163-159.37,159.36c-4.745,4.758-9.817,8.365-16.609,9.188
		c-2.535-0.079-4.358-1.603-6.236-3.031C518.531,371.868,516.33,369.11,518.737,365.068z"/>
	<path fill-rule="evenodd" fill="#F69044" d="M479.681,495.47c27.654-28.76,55.548-57.285,84.78-84.464
		c1.517,0.767,3.036,1.531,4.552,2.295c3.854,4.579,7.71,9.157,11.565,13.734c0.888,5.26-2.44,8.507-5.673,11.766
		c-15.782,15.92-31.765,31.642-47.458,47.647c-4.479,4.568-10.219,6.399-15.648,9.023C501.092,495.47,490.385,495.47,479.681,495.47
		z"/>
	<path fill-rule="evenodd" fill="#DC744B" d="M527.915,374.245c5.822-0.932,8.931-5.624,12.653-9.338
		c53.247-53.165,106.431-106.395,159.669-159.569c3.499-3.497,7.32-6.672,10.991-9.997c3.443,4.826,5.652,10.172,6.72,15.997
		c-5.954-5.581-9.354-0.658-13.126,3.119c-34.53,34.561-69.083,69.099-103.628,103.644c-18.621,18.622-37.293,37.191-55.82,55.907
		c-3.677,3.715-7.206,6.895-12.886,4.829C528.667,379.592,527.131,378.075,527.915,374.245z"/>
	<path fill-rule="evenodd" fill="#E37B4A" d="M729.589,300.835c-6.467-2.353-8.805,3.37-12.038,6.583
		c-39.279,39.061-78.398,78.287-117.609,117.418c-3.229,3.221-6.822,6.074-10.249,9.1c-5.47,0.893-7.813-1.347-6.882-6.869
		c2.813-3.567,5.301-7.459,8.486-10.656c43.242-43.379,86.569-86.672,129.927-129.933c2.049-2.045,3.583-5.021,7.361-5.175
		c2.271,5.03,0.478,10.434,1.396,15.546C729.85,298.177,729.722,299.507,729.589,300.835z"/>
	<path fill-rule="evenodd" fill="#CE654D" d="M603.722,89.715c3.541,0.349,6.641,1.682,9.227,4.156
		c2.834,5.255-0.451,8.652-3.736,11.953c-36.342,36.466-72.756,72.858-109.222,109.2c-4.062,4.05-8.912,7.115-14.461,8.899
		c-3.918,0.105-7.83,0.125-11.745-0.016c-6.262-2.221-5.474-6.554-3.02-11.01c1.465-2.662,3.973-4.608,6.128-6.766
		c36.392-36.422,72.818-72.808,109.199-109.244C591.005,91.969,595.8,87.08,603.722,89.715z"/>
	<path fill-rule="evenodd" fill="#DE764B" d="M552.946,397.299c-0.748-0.002-1.5-0.019-2.246-0.048
		c-3.012-1.31-6.295-2.437-4.641-6.889c3.697-3.287,7.568-6.398,11.063-9.887c50.781-50.707,101.506-101.473,152.281-152.187
		c3.497-3.493,7.309-6.674,10.972-10.001c1.377,4.543,2.753,9.084,4.127,13.628c-4.909,7.34-11.401,13.252-17.586,19.438
		c-46.484,46.499-92.96,93.006-139.5,139.448C563.487,394.722,560.024,400.171,552.946,397.299z"/>
	<path fill-rule="evenodd" fill="#DF774B" d="M552.946,397.299c3.679-3.288,7.524-6.413,11.012-9.894
		c49.844-49.771,99.612-99.618,149.518-149.327c2.957-2.944,5.062-8.263,11.026-6.162c0.823,3.877,1.644,7.756,2.465,11.635
		c-4.968,1.001-8.918,3.421-12.586,7.104c-48.111,48.33-96.351,96.535-144.635,144.694c-3.291,3.28-6.094,6.71-7.616,11.114
		C558.391,404.086,555.329,401.031,552.946,397.299z"/>
	<path fill-rule="evenodd" fill="#F89E3E" d="M79.625,614.692c2.048,2.455,0.436,4.248-1.201,5.868
		c-27.559,27.266-55.144,54.504-82.723,81.75c0.001-12.221,0.001-24.445,0.002-36.667c10.329-13.169,23.021-24.081,34.463-36.186
		c5.867-6.205,12.291-11.244,20.443-13.923C60.281,615.255,69.953,614.973,79.625,614.692z"/>
	<path fill-rule="evenodd" fill="#F27255" d="M-4.294,183.832c5.453-0.919,9.584-3.785,13.496-7.734
		c27.885-28.152,55.763-56.322,84.173-83.939c5.245-5.099,5.752-13.515,13.121-16.61c6.044-0.238,11.921,0.551,17.542,2.895
		C93.264,109.56,62.556,140.74,31.686,171.76c-11.802,11.859-23.977,23.348-35.982,35.004
		C-4.295,199.121-4.295,191.476-4.294,183.832z"/>
	<path fill-rule="evenodd" fill="#CA614E" d="M472.563,222.316c4.768,0,9.533-0.002,14.3-0.004
		c5.592-2.469,11.067-5.489,17.558-3.731c4.667,0.426,9.403-1.191,14.036,0.424c3.635,0.984,8.619-0.255,9.293,5.622
		c-34.238-0.193-68.48-0.312-102.719-0.67c-4.489-0.047-10.407,2.263-12.314-4.857c-1.586-5.002,0.316-8.83,3.82-12.352
		c41.489-41.721,83.171-83.251,124.83-124.799c4.659-4.645,10.264-8.017,17.455-6.19c3.657-0.065,7.286-0.014,10.42,2.296
		c1.822,3.889-1.43,5.272-3.522,7.335c-41.762,41.219-83.071,82.894-124.538,124.411c-3.604,3.608-10.854,7.789-0.732,12.545
		c4.765-0.002,9.527-0.004,14.294-0.006C460.678,218.709,466.617,218.089,472.563,222.316z"/>
	<path fill-rule="evenodd" fill="#C85F4E" d="M401.358,200.033c1.613-5.357,5.634-8.913,9.395-12.697
		c38.252-38.495,76.48-77.013,114.712-115.524c6.374-0.432,12.745-0.822,18.865,1.653c0.552,5.317-3.175,8.301-6.374,11.513
		c-40.325,40.491-80.809,80.828-121.16,121.296c-2.378,2.386-4.481,5.331-8.383,5.413
		C405.062,208.407,403.047,204.319,401.358,200.033z"/>
	<path fill-rule="evenodd" fill="#F69948" d="M406.238,672.506c-3.854-0.898-7.262-0.883-10.437,2.345
		c-30.1,30.592-60.312,61.077-90.49,91.592c-10.042,0-20.084,0-33.399,0c48.147-30.318,85.749-67.359,117.796-110.221
		c11.155-2.727,14.098,5.654,17.726,13.106C407.502,670.562,407.1,671.621,406.238,672.506z"/>
	<path fill-rule="evenodd" fill="#F6984B" d="M436.056,702.335c3.824,3.056,7.651,6.11,11.477,9.164
		c3.421,3.558,6.789,7.184,11.452,9.196c0.81,0.795,1.252,1.759,1.336,2.888c-11.356,18.061-25.661,33.043-44.896,42.861
		c-12.237-0.002-24.472-0.002-36.707-0.002c14.349-22.649,33.094-41.038,54.542-56.918
		C435.008,708.23,435.161,704.783,436.056,702.335z"/>
	<path fill-rule="evenodd" fill="#F68D46" d="M527.915,374.245c1.524,1.529,3.048,3.061,4.571,4.593
		c3.011,3.076,6.022,6.152,9.034,9.228c0.566,4.174-1.349,7.27-4.14,10.128c-20.472,20.957-41.188,41.667-62.177,62.108
		c-3.247,3.16-6.688,6.641-11.91,3.465c0.261-4.632,0.523-9.259,0.788-13.891c2.862-9.669-1.641-20.675,5.96-29.579
		c14.152-16.579,30.126-31.333,45.718-46.472c2.064-2.002,4.881-1.944,7.566-2.022C524.857,372.615,526.383,373.428,527.915,374.245
		z"/>
	<path fill-rule="evenodd" fill="#C9614E" d="M408.413,211.687c-0.034-5.162,3.466-8.256,6.717-11.507
		c39.732-39.725,79.434-79.481,119.24-119.129c2.932-2.919,6.621-5.075,9.96-7.586c4.949-0.013,9.938-0.253,14.488,2.292
		c-4.468,0.466-7.569,3.21-10.577,6.219c-43.298,43.33-86.63,86.63-129.899,129.989c-2.124,2.128-3.761,4.745-5.625,7.133
		C410.469,217.1,409.068,214.608,408.413,211.687z"/>
	<path fill-rule="evenodd" fill="#D1684D" d="M527.75,224.626c-3.097-0.775-6.198-1.55-9.298-2.326
		c-5.341-7.92,2.068-12.419,5.588-16.897c6.559-8.339,14.79-15.33,22.331-22.873c23.704-23.71,47.463-47.367,71.074-71.171
		c4.577-4.616,9.127-8.088,15.996-5.756c3.975,1.214,7.123,3.623,9.765,6.76c0.813,5.396-2.978,8.356-6.193,11.576
		c-31.045,31.097-62.212,62.077-93.103,93.327c-4.032,4.08-8.803,5.728-13.751,7.577
		C529.354,224.769,528.552,224.697,527.75,224.626z"/>
	<path fill-rule="evenodd" fill="#F4804D" d="M234.102,335.288c29.261-28.866,58.372-57.888,87.886-86.491
		c7.801-7.561,13.687-17.522,24.723-21.4c2.068,3.099,4.135,6.197,6.206,9.298c-35.58,35.353-71.189,70.678-106.663,106.138
		c-2.31,2.31-3.572,5.667-5.321,8.538C237.759,346.389,235.525,341.01,234.102,335.288z"/>
	<path fill-rule="evenodd" fill="#F58C46" d="M523.326,371.803c-13.344,16.103-29.053,29.909-43.686,44.752
		c-7.262,7.361-14.892,13.993-12.987,25.955c0.359,2.263-1.652,4.901-2.571,7.366c0.568-10.575,1.134-21.152,1.701-31.729
		c-7.979-29.043,7.498-47.748,28.285-64.089c2.491-1.958,5.611-2.263,8.588-2.889c5.361,4.634,10.72,9.265,16.081,13.898
		C520.267,367.313,521.795,369.557,523.326,371.803z"/>
	<path fill-rule="evenodd" fill="#F79442" d="M406.238,672.506c-0.002-0.764-0.004-1.525-0.007-2.289
		c-2.246-5.122,0.469-8.736,3.753-12.13c11.609-12.005,23.59-23.641,35.423-35.423c3.928-3.914,9.748-4.162,13.646-7.892
		c10.742-1.146,21.485-1.322,32.229,0c3.02,5.19-0.321,8.644-3.491,11.906c-18.223,18.732-36.688,37.22-55.398,55.463
		c-2.862,2.788-5.976,4.602-10.101,4.132C416.939,681.684,411.59,677.094,406.238,672.506z"/>
	<path fill-rule="evenodd" fill="#D76F4C" d="M577.837,271.943c-1.359-4.163-2.72-8.323-4.079-12.486
		c-2.866-6.932-0.628-12.116,4.583-17.276c30.09-29.792,59.934-59.834,89.926-89.726c3.465-3.457,6.762-7.682,12.722-5.211
		c3,3.792,5.998,7.588,8.998,11.382c-1.097,4.17-3.339,7.544-6.416,10.614c-32.751,32.665-65.457,65.375-98.146,98.101
		C583.262,269.506,581.289,271.932,577.837,271.943z"/>
	<path fill-rule="evenodd" fill="#F79641" d="M656.341,502.717c-24.774,24.387-49.534,48.786-74.34,73.14
		c-3.517,3.448-6.507,7.606-11.514,9.214c5.088-10.832,8.2-22.128,8.049-34.192c1.799-6.795,5.516-12.23,10.595-17.177
		c13.422-13.054,26.524-26.437,39.854-39.59c3.841-3.789,7.729-7.453,13.483-8.057c2.476-0.029,4.636,0.787,6.5,2.401
		C652.763,492.513,659.432,495.097,656.341,502.717z"/>
	<path fill-rule="evenodd" fill="#F37D4E" d="M204,290.108c10.375-13.731,23.58-24.757,35.544-36.962
		c20.244-20.652,40.881-40.92,61.264-61.439c3.855-3.88,7.438-7.834,13.685-5.574c3.508,2.155,5.967,5.216,7.693,8.91
		c-4.908-1.631-7.792,1.462-10.819,4.496c-30.417,30.463-60.825,60.938-91.372,91.268c-3.072,3.049-4.896,6.665-6.955,10.256
		C209.2,298.094,206.375,294.287,204,290.108z"/>
	<path fill-rule="evenodd" fill="#D46B4D" d="M658.339,124.306c4.087,2.05,6.979,5.366,9.563,9.011
		c0.607,5.237-2.744,8.396-6.013,11.666c-29.631,29.62-59.254,59.247-88.878,88.876c-3.85,3.849-7.574,7.786-13.818,5.377
		c-2.913-2.182-5.827-4.364-8.739-6.546c-2.743-5.2,0.348-8.641,3.66-11.966c30.326-30.439,60.71-60.816,91.148-91.14
		C648.829,126.031,652.802,123.139,658.339,124.306z"/>
	<path fill-rule="evenodd" fill="#CB624E" d="M440.449,222.344c-2.285,0.139-4.573,0.428-6.855,0.379
		c-2.643-0.057-5.814,0.115-6.708-3.079c-0.686-2.464,1.61-4.1,3.202-5.702c8.082-8.135,16.197-16.234,24.304-24.341
		c34.052-34.055,68.126-68.087,102.13-102.188c3.791-3.802,7.531-7.527,12.721-9.361c3.317-0.076,6.54,0.198,9.231,2.469
		c-9.646,9.231-19.447,18.307-28.903,27.725c-34.385,34.238-68.687,68.559-102.902,102.967
		C443.677,214.221,438.522,216.426,440.449,222.344z"/>
	<path fill-rule="evenodd" fill="#CD644E" d="M472.563,222.316c-5.942,0.009-11.885,0.018-17.825,0.024
		c32.187-32.506,64.238-65.135,96.606-97.451c13.473-13.452,26.1-27.79,40.961-39.819c4.274,0.396,8.066,1.982,11.417,4.645
		c-5.384,0.768-8.437,4.908-11.898,8.367c-37.721,37.677-75.444,75.352-113.049,113.144
		C475.793,214.221,470.65,216.414,472.563,222.316z"/>
	<path fill-rule="evenodd" fill="#F79541" d="M422.292,686.273c19.473-19.852,38.973-39.678,58.386-59.586
		c3.708-3.803,7.077-7.934,10.604-11.915c9.163-1.279,18.33-1.249,27.493-0.002c-2.311,1.278-5.081,2.104-6.869,3.902
		c-26.124,26.28-52.12,52.694-78.144,79.07c-3.821-3.06-7.645-6.12-11.466-9.181C422.294,687.799,422.294,687.037,422.292,686.273z"
		/>
	<path fill-rule="evenodd" fill="#F69442" d="M575.319,535.135c-4.318-7.072-8.637-14.148-12.955-21.221
		c-1.884-4.073-0.428-7.502,2.371-10.392c13.501-13.929,27.219-27.645,41.16-41.131c2.248-2.173,5.227-3.035,8.167-3.895
		c1.161-0.175,2.302-0.095,3.433,0.202c4.851,2.102,7.866,6.434,11.781,9.689c2.679,2.48,4.182,5.469,3.944,9.199
		c-1.479,5.767-5.698,9.603-9.654,13.654c-13.452,13.771-27.734,26.716-40.628,41.042
		C580.88,534.57,578.896,536.951,575.319,535.135z"/>
	<path fill-rule="evenodd" fill="#CF674D" d="M504.712,222.3c-5.951,0.006-11.904,0.011-17.854,0.016
		c36.647-36.962,73.317-73.893,109.905-110.905c5.587-5.655,10.799-11.684,16.186-17.54c3.372,0.957,6.58,2.215,9.042,4.869
		c2.946,5.327-0.605,8.639-3.845,11.9c-34.471,34.704-69.263,69.088-103.608,103.915C511.546,217.59,507.244,218.789,504.712,222.3z
		"/>
	<path fill-rule="evenodd" fill="#F17056" d="M86.02,73.355c-6.193,1.176-10.946,4.429-15.443,8.93
		c-24.803,24.826-49.887,49.368-74.874,74.007c-0.001-7.646-0.001-15.293-0.001-22.941c3.207-8.699,8.897-15.535,15.583-21.84
		c13.958-13.164,26.294-28.03,41.681-39.7C64.02,71.574,75.127,70.134,86.02,73.355z"/>
	<path fill-rule="evenodd" fill="#F69342" d="M459.052,614.772c-12.873,16.181-28.829,29.383-42.905,44.403
		c-3.383,3.609-6.613,7.357-9.916,11.041c-5.509-4.665-11.017-9.328-16.522-13.995c7.765-12.617,15.557-25.219,23.277-37.863
		c2-3.276,4.78-4.472,8.563-4.363C434.048,614.354,446.552,614.529,459.052,614.772z"/>
	<path fill-rule="evenodd" fill="#D0684D" d="M504.712,222.3c-1.974-5.939,3.242-8.11,6.22-11.106
		c33.929-34.133,68.013-68.108,102-102.183c3.216-3.226,6.048-6.84,9.06-10.272c4.434,1.256,8.229,3.58,11.45,6.864
		c-4.265,1.734-7.789,4.391-11.069,7.687c-31.131,31.297-62.368,62.485-93.601,93.679c-4.456,4.452-8.497,9.134-10.315,15.333
		C513.875,222.3,509.293,222.3,504.712,222.3z"/>
	<path fill-rule="evenodd" fill="#D9714C" d="M699.762,174.687c-33.626,33.279-67.197,66.614-100.923,99.792
		c-6.769,6.662-12.606,14.371-20.911,19.391c0.213-4.57,0.426-9.141,0.638-13.713c2.7-7.752,7.673-13.804,13.473-19.546
		c29.575-29.286,58.887-58.841,88.411-88.182c3.873-3.849,7.183-9.571,14.336-6.847C697.043,168.29,699.721,170.768,699.762,174.687
		z"/>
	<path fill-rule="evenodd" fill="#F58C46" d="M305.314,571.547c27.729-27.352,55.439-54.725,83.239-82.006
		c2.013-1.976,3.618-5.799,7.14-4.296c1.172,0.495,1.018,4.101,1.47,6.285c0.342,6.502-1.784,12.403-4.426,18.179
		c-3.26-1.464-5.785-0.347-8.146,2.057c-22.596,23.022-45.227,46.009-67.849,69.005c-2.278-0.777-4.557-1.555-6.833-2.332
		C308.376,576.142,306.844,573.843,305.314,571.547z"/>
	<path fill-rule="evenodd" fill="#E57D4A" d="M598.871,443.11c4.73-1.255,7.432-5.146,10.618-8.328
		c35.79-35.713,71.522-71.486,107.313-107.199c3.188-3.181,5.877-7.082,10.586-8.381c0,6.643-1.522,12.95-4.191,19.005
		c-36.196,36.963-73.132,73.188-109.575,109.906c-2.429,2.449-4.891,4.918-8.844,4.376
		C600.292,450.95,597.223,448.509,598.871,443.11z"/>
	<path fill-rule="evenodd" fill="#F89F3D" d="M50.609,615.535c-15.642,15.899-31.293,31.789-46.914,47.707
		c-2.261,2.305-4.622,3.951-7.992,2.401c-0.168-14.75-0.177-29.503-0.59-44.248c-0.145-5.146,1.947-6.412,6.687-6.318
		C18.066,615.405,34.338,615.409,50.609,615.535z"/>
	<path fill-rule="evenodd" fill="#D8704C" d="M694.786,165.581c-34.829,34.59-69.645,69.191-104.506,103.75
		c-3.775,3.741-7.804,7.222-11.714,10.825c-0.242-2.738-0.486-5.476-0.729-8.213c0.793-4.371,3.563-7.477,6.572-10.483
		c32.405-32.373,64.787-64.768,97.177-97.16c2.434-2.433,4.813-4.944,8.4-5.673C691.585,160.947,693.185,163.266,694.786,165.581z"
		/>
	<path fill-rule="evenodd" fill="#D2694D" d="M530.159,224.843c37.039-38.141,74.078-76.277,113.047-112.479
		c3.757,1.136,6.471,3.64,8.775,6.678c1.551,3.101-0.392,4.801-2.419,6.744c-31.889,30.548-62.591,62.29-93.928,93.394
		c-4.116,4.084-8.153,8.005-14.238,8.744C537.651,226.897,533.904,225.869,530.159,224.843z"/>
	<path fill-rule="evenodd" fill="#F69243" d="M598.871,443.11c2.295,2.306,4.59,4.608,6.884,6.913
		c0.841,0.788,1.273,1.767,1.357,2.907c-0.509,3.994-2.87,6.898-5.582,9.638c-12.271,12.398-24.594,24.75-36.888,37.126
		c-3.328,3.355-6.915,5.87-11.818,5.935c-5.281-2.551-10.565-5.101-15.848-7.653c-6.523-3.973-3.553-8.574-0.159-12.222
		c14.434-15.507,29.672-30.227,44.83-45.022c2.915-2.845,6.399-3.971,10.394-2.215C594.316,440.049,596.595,441.58,598.871,443.11z"
		/>
	<path fill-rule="evenodd" fill="#F68E45" d="M463.294,463.767c20.54-17.386,38.232-37.688,57.648-56.229
		c6.83-6.521,13.718-12.983,20.578-19.473c1.516,0.766,3.028,1.53,4.541,2.296c1.548,2.297,3.094,4.591,4.639,6.887
		c-26.037,25.661-52.038,51.354-78.146,76.94c-3.06,2.995-5.439,7.96-11.282,5.601C461.175,474.353,461.004,468.903,463.294,463.767
		z"/>
	<path fill-rule="evenodd" fill="#D66D4C" d="M680.988,147.244c-33.975,33.74-67.899,67.528-101.996,101.142
		c-3.283,3.238-3.971,7.161-5.234,11.071c-2.27-3.878-4.542-7.754-6.812-11.63c-1.46-5.58,1.433-9.342,5.107-13.01
		c29.943-29.9,59.851-59.839,89.792-89.739c3.539-3.536,6.982-7.384,12.824-4.829C676.777,142.579,678.882,144.912,680.988,147.244z
		"/>
	<path fill-rule="evenodd" fill="#C65D4F" d="M502.546,71.812c-33.702,33.974-67.393,67.96-101.126,101.9
		c-3.75,3.773-7.57,7.426-9.371,12.614c-2.173-3.081-4.35-6.159-6.524-9.237c-2.209-5.181,0.613-8.659,3.978-12.028
		c28.477-28.521,57.015-56.977,85.452-85.535c3.955-3.972,9.149-5.276,13.824-7.713C493.369,71.812,497.958,71.812,502.546,71.812z"
		/>
	<path fill-rule="evenodd" fill="#D36A4D" d="M541.396,227.923c13.754-16.916,30.221-31.203,45.398-46.739
		c17.596-18.015,35.635-35.598,53.314-53.528c3.538-3.587,7.425-6.419,11.872-8.615c2.119,1.756,4.238,3.511,6.357,5.265
		c-36.719,35.375-73.231,70.957-107.886,108.385C547.432,231.103,544.414,229.511,541.396,227.923z"/>
	<path fill-rule="evenodd" fill="#F69143" d="M592.041,438.516c-17.802,17.438-35.603,34.881-53.413,52.31
		c-2.102,2.054-2.901,4.351-1.651,7.149c-8.394-0.832-16.785-1.669-25.177-2.503c22.317-23.422,44.868-46.613,68.782-68.437
		c0.744,0.011,1.487,0.022,2.229,0.031c2.295,2.289,4.591,4.579,6.885,6.869C590.478,435.463,591.259,436.991,592.041,438.516z"/>
	<path fill-rule="evenodd" fill="#D56D4C" d="M674.67,140.249c-23.128,22.743-46.349,45.391-69.349,68.265
		c-12.982,12.912-25.596,26.196-38.375,39.313c-2.585-2.863-5.169-5.726-7.754-8.59c10.477-7.165,18.306-17.139,27.328-25.836
		c27.405-26.409,53.074-54.587,81.381-80.083C670.157,135.627,672.412,137.939,674.67,140.249z"/>
	<path fill-rule="evenodd" fill="#E67E4A" d="M617.243,461.486c-0.75-0.004-1.501-0.015-2.25-0.033
		c-3.505-1.148-6.406-2.814-6.167-7.176c0.984-3.545,3.992-5.508,6.381-7.9c30.484-30.561,61.014-61.076,91.555-91.579
		c2.151-2.147,3.924-5.015,6.836-5.984c4.357-1.453,7.089-0.482,4.69,4.929c-1.666,8.102-4.839,15.582-9.301,22.532
		c-13.108,13.084-24.789,27.503-38.425,40.14c-13.955,12.932-27.015,26.823-40.506,40.26
		C626.511,460.202,623.074,464.031,617.243,461.486z"/>
	<path fill-rule="evenodd" fill="#C2594F" d="M367.18,154.16c-4.143-3.009-7.447-6.762-9.976-11.208
		c0.546-3.829,1.782-7.201,4.733-10.031c21.063-20.202,40.423-42.151,62.703-61.107c6.123-0.002,12.247-0.002,18.368-0.002
		c7.436,5.629,2.071,9.883-1.793,13.813c-18.76,19.061-37.771,37.877-56.668,56.802c-2.43,2.434-4.941,4.793-7.296,7.293
		C374.489,152.652,371.351,154.523,367.18,154.16z"/>
	<path fill-rule="evenodd" fill="#C55C4F" d="M488.778,71.812c-30.861,31.132-61.744,62.248-92.563,93.425
		c-3.737,3.779-7.136,7.892-10.691,11.852c-2.422-1.445-4.04-3.513-4.813-6.232c-2.656-5.75-0.568-10.223,3.575-14.371
		c25.627-25.639,51.318-51.213,76.852-76.945c3.979-4.008,9.21-5.238,13.876-7.729C479.601,71.812,484.19,71.812,488.778,71.812z"/>
	<path fill-rule="evenodd" fill="#F79541" d="M575.319,535.135c6.04-11.724,16.731-19.313,25.603-28.477
		c9.723-10.044,20.083-19.47,30.166-29.165c2.174-1.579,4.311-1.12,6.429,0.132c3.393,3.02,8.032,5.485,5.037,11.341
		c-17.69,17.304-35.363,34.627-53.087,51.896c-3.54,3.447-7.283,6.683-10.931,10.016
		C577.463,545.633,576.39,540.382,575.319,535.135z"/>
	<path fill-rule="evenodd" fill="#F16F57" d="M52.967,71.812c1.39,2.892,0.232,5.105-1.832,7.131
		c-18.484,18.129-36.957,36.272-55.432,54.408c0-9.176,0-18.354,0.001-27.529c7.037-15.749,18.014-27.529,34.252-34.01
		C37.627,71.812,45.297,71.812,52.967,71.812z"/>
	<path fill-rule="evenodd" fill="#C45B4F" d="M475.014,71.812c-28.447,28.718-56.903,57.428-85.331,86.164
		c-3.725,3.762-8.136,7.087-8.972,12.881c-1.438-1.777-2.876-3.552-4.314-5.328c-4.529-5.741-4.178-10.922,1.196-16.123
		c26.563-25.688,51.37-53.163,79.167-77.594C462.844,71.812,468.928,71.812,475.014,71.812z"/>
	<path fill-rule="evenodd" fill="#E77F4A" d="M617.243,461.486c27.541-27.153,55.014-54.379,82.757-81.322
		c2.115-2.055,3.354-8.956,8.987-3.89c-6.44,15.744-15.974,29.506-27.086,42.253c-15.301,16.321-31.535,31.722-47.104,47.778
		c-2.26,2.329-3.996,5.908-8.337,4.327C622.652,468.326,619.616,465.242,617.243,461.486z"/>
	<path fill-rule="evenodd" fill="#E8804A" d="M626.461,470.634c2.071-7.45,8.337-11.601,13.324-16.692
		c11.192-11.427,22.488-22.757,33.989-33.87c1.953-1.888,4.162-8.022,8.127-1.543c2.285,3.55,4.568,7.097,6.854,10.646
		c0.157,4.484-1.925,7.866-5.026,10.923c-11.828,11.649-23.244,23.713-35.187,35.25c-3.589,3.468-7.255,6.889-12.911,4.463
		c-1.514-0.772-3.031-1.544-4.544-2.317C629.545,475.206,628.005,472.919,626.461,470.634z"/>
	<path fill-rule="evenodd" fill="#C35A4F" d="M456.76,71.812c2.242,5.95-3.002,8.146-5.964,11.137
		c-22.825,23.058-45.786,45.98-68.792,68.856c-3.889,3.867-7.858,7.456-5.607,13.723c-3.072-3.789-6.144-7.58-9.217-11.368
		c22.082-24.907,46.833-47.189,69.839-71.184c2.927-3.054,8.208-5.205,5.99-11.164C447.594,71.812,452.177,71.812,456.76,71.812z"/>
	<path fill-rule="evenodd" fill="#EA8249" d="M635.632,479.81c14.309-13.922,28.582-27.878,42.943-41.741
		c3.237-3.125,6.778-5.94,10.181-8.895c4.418,3.67,7.268,8.416,9.349,13.683c-10.407,21.243-28.449,35.263-46.641,49.102
		c-1.065,0.809-2.941-0.111-4.365-0.671c-1.513-0.775-3.03-1.549-4.545-2.322C640.249,485.913,637.94,482.862,635.632,479.81z"/>
	<path fill-rule="evenodd" fill="#F6974C" d="M415.425,766.444c13.689-15.322,28.088-29.932,43.563-43.464
		c12.06-1.99,13.784,7.248,16.623,15.282c-3.573,15.143-15.321,22.157-28.068,28.18C436.838,766.442,426.13,766.444,415.425,766.444
		z"/>
	<path fill-rule="evenodd" fill="#C05750" d="M397.009,71.814c4.628-0.002,9.257-0.002,13.885-0.002
		c1.863,0.838,3.313,1.994,2.555,4.306c-1.077,3.264-2.467,6.635-4.688,9.053c-16.672,18.179-34.112,35.613-52.258,52.328
		c-0.786,0.723-2.124,0.756-3.232,1.019c-3.999-3.894-8-7.788-11.999-11.684c0.239-4.437,2.367-7.793,5.498-10.886
		c12.205-12.059,24.389-24.141,36.375-36.419C387.092,75.486,392.35,74.301,397.009,71.814z"/>
	<path fill-rule="evenodd" fill="#E57D4A" d="M718.288,353.742c-5.51-6.141-6.931,1.349-8.898,3.29
		c-29.771,29.34-59.242,58.98-88.845,88.493c-3.214,3.204-6.785,6.045-10.191,9.053c-2.463,1.106-3.716-0.182-4.542-2.304
		c-0.015-0.753-0.034-1.502-0.057-2.251c22.862-22.474,45.765-44.909,68.573-67.436c13.314-13.148,26.388-26.545,39.797-39.594
		c2.383-2.317,3.928-7.294,9.072-4.786C722.92,343.813,721.199,348.967,718.288,353.742z"/>
	<path fill-rule="evenodd" fill="#F18A48" d="M730.091,572.03c-2.429-1.684-4.86-3.368-7.287-5.05
		c-5.224-7.962-12.729-13.373-20.572-18.408c-4.23-1.758-8.966-3.034-8.73-9.092c5.336-10.156,14.475-16.844,22.54-24.505
		c2.747-2.605,5.859-3.104,9.189-1.022c3.429,8.743,4.542,17.885,4.688,27.193c1.627,10.286,1.315,20.585,0.207,30.889
		L730.091,572.03z"/>
	<path fill-rule="evenodd" fill="#F48B46" d="M502.656,351.17c-7.871,8.283-15.118,17.308-23.782,24.66
		c-10.264,8.709-14.958,18.716-13.037,32.027c0.483,3.358-0.009,6.857-0.054,10.291c-1.489-19.216-2.978-38.435-4.47-57.653
		c1.55-10.347,9.063-14.467,17.933-17.173c6.229,1.254,13.487-3.114,18.74,3.434C499.544,348.228,501.1,349.698,502.656,351.17z"/>
	<path fill-rule="evenodd" fill="#F69342" d="M605.811,452.274c1.514,0.769,3.029,1.535,4.542,2.304
		c1.547,2.294,3.093,4.582,4.64,6.875c-18.508,16.52-35.863,34.194-52.629,52.461c-3.182-2.762-6.36-5.522-9.54-8.285
		C569.188,486.556,587.253,469.168,605.811,452.274z"/>
	<path fill-rule="evenodd" fill="#C1584F" d="M353.269,138.518c0.833-5.773,5.377-8.938,8.975-12.771
		c15.76-16.796,33.73-31.47,47.834-49.871c1.086-1.417,1.343-2.546,0.815-4.064c4.584,0,9.164,0,13.748,0.002
		c1.044,2.345,0.733,4.508-1.108,6.289c-22.233,21.49-42.7,44.789-66.328,64.849C355.892,141.475,354.582,139.996,353.269,138.518z"
		/>
	<path fill-rule="evenodd" fill="#EB8349" d="M647.098,491.288c13.571-13.188,27.107-26.414,40.74-39.539
		c3.258-3.133,6.836-5.938,10.266-8.892c3.067,3.384,6.293,6.684,6.248,11.724c-0.959,2.107-0.244,4.911-1.729,6.565
		c-13.22,14.701-27.053,28.808-41.862,41.925c-0.475,0.421-1.438,0.026-2.15-0.351l-1.136-0.004h-1.134
		C653.26,498.907,650.18,495.097,647.098,491.288z"/>
	<path fill-rule="evenodd" fill="#ED8549" d="M667.825,514.175c-1.538-2.289-3.08-4.576-4.62-6.862
		c-0.006-4.023,1.72-7.313,4.454-10.095c10.079-10.243,20.242-20.406,30.491-30.485c3.078-3.027,6.357-5.573,10.999-3.008
		c3.923,4.634,6.225,10.032,7.526,15.905c-10.833,12.153-22.875,23.111-34.242,34.736c-2.767,2.828-5.99,4.595-10.09,4.365
		C669.949,518.093,668.266,516.746,667.825,514.175z"/>
	<path fill-rule="evenodd" fill="#F6974D" d="M447.543,766.442c8.409-9.144,16.82-18.286,25.228-27.43
		c0.742-0.799,1.645-1.313,2.706-1.555c4.776-0.131,8.052,2.568,11.044,5.823c3.824,4.202,10.291,6.702,9.17,14.117
		c2.312,3.122,4.624,6.241,6.936,9.362C484.266,766.655,465.904,766.55,447.543,766.442z"/>
	<path fill-rule="evenodd" fill="#BE5550" d="M364.889,71.812c4.631,0,9.257,0,13.885,0c5.558,2.81,4.146,7.131,1.251,10.324
		c-11.467,12.649-23.775,24.496-36.062,36.348c-2.763,2.666-6.155,2.563-9.599,1.463c-2.002-1.734-4.003-3.466-6.006-5.2
		c-2.373-4.306-3.321-8.894,0.551-12.555C340.324,91.397,348.972,77.276,364.889,71.812z"/>
	<path fill-rule="evenodd" fill="#BF5650" d="M334.365,119.947c15.885-12.461,28.789-28.008,43.314-41.88
		c1.84-1.756,2.11-3.928,1.096-6.255c6.078,0,12.157,0,18.234,0.002c-18.012,18.914-35.804,38.054-55.738,55.021
		C338.969,124.538,336.666,122.243,334.365,119.947z"/>
	<path fill-rule="evenodd" fill="#BA5150" d="M307.348,97.209c-6.768-4.914-13.535-9.825-20.303-14.738
		c-3.222-5.508-1.021-8.761,4.436-10.659c12.993,0,25.984,0,38.978,0C330.435,82.281,319.8,93.969,307.348,97.209z"/>
	<path fill-rule="evenodd" fill="#EC8449" d="M709.149,463.724c-15.315,14.529-30.631,29.058-45.944,43.588
		c-1.533-1.528-3.065-3.058-4.595-4.588c3.388-9.845,12.19-15.147,18.883-22.146c8.604-8.999,17.875-17.361,26.859-25.997
		C706.174,457.511,710.104,459.336,709.149,463.724z"/>
	<path fill-rule="evenodd" fill="#F16E57" d="M29.955,71.812C19.153,83.766,8,95.37-4.297,105.822
		C-6.831,69.876-6.831,69.876,29.955,71.812z"/>
	<path fill-rule="evenodd" fill="#BC5350" d="M307.348,97.209c7.702-8.467,15.407-16.931,23.11-25.397
		c6.881,0,13.764,0,20.646-0.002c0.813,1.333,1.583,3.087,0.712,4.244c-9.123,12.147-17.651,24.997-33.015,30.371
		C314.663,103.753,310.317,101.338,307.348,97.209z"/>
	<path fill-rule="evenodd" fill="#EE8649" d="M672.38,516.497c10.916-10.539,21.833-21.08,32.75-31.618
		c3.228-3.114,5.988-7.26,11.546-5.249c2.133,2.719,3.092,5.863,3.351,9.262c-8.849,11.682-19.888,21.291-30.052,31.727
		c-3.259,3.342-6.877,5.805-11.863,5.267C673.77,524.24,670.518,521.922,672.38,516.497z"/>
	<path fill-rule="evenodd" fill="#BD5450" d="M318.802,106.424c9.237-12.965,22.532-22.144,32.302-34.614
		c4.595,0.002,9.19,0.002,13.785,0.002c-9.837,10.11-19.516,20.383-29.597,30.245c-3.741,3.661-6.069,7.667-6.934,12.69
		C324.54,112.699,321.39,109.883,318.802,106.424z"/>
	<path fill-rule="evenodd" fill="#EF8748" d="M679.259,523.381c10.145-9.766,20.222-19.603,30.476-29.252
		c2.84-2.675,4.896-7.392,10.292-5.237c0.776,2.349,1.55,4.693,2.326,7.042c-7.581,16.979-19.877,29.354-36.59,37.437
		c-2.576-0.104-4.687-1.125-6.319-3.127C678.093,527.993,677.661,525.712,679.259,523.381z"/>
	<path fill-rule="evenodd" fill="#F08848" d="M686.138,530.262c12.071-11.442,24.142-22.889,36.214-34.329
		c0.782,3.057,1.563,6.117,2.349,9.179c-7.534,14.448-19.795,24.342-32.545,33.783C687.363,537.955,684.426,535.726,686.138,530.262
		z"/>
	<path fill-rule="evenodd" fill="#F38947" d="M477.367,344.817c-4.775,5.816-9.842,11.333-16.054,15.679
		c-2.07-5.185-3.028-10.531-2.322-16.115C465.155,342.837,471.302,342.142,477.367,344.817z"/>
	<path fill-rule="evenodd" fill="#D56F4A" d="M477.367,344.817c-6.126-0.146-12.252-0.291-18.376-0.437
		c12.031-4.766,24.557-1.149,36.826-2.021c9.833-0.698,19.774,0.083,29.666,0.208c-8.742,4.176-18.75,0.045-27.495,4.189
		C491.365,343.444,484.311,344.709,477.367,344.817z"/>
	<path fill-rule="evenodd" fill="#F08948" d="M693.022,537.144c11.566-9.682,22.212-20.273,31.679-32.032
		c0.177,2.947,0.354,5.894,0.529,8.841c-12.618,5.39-18.837,18.292-29.917,25.485c-0.789,0.76-1.657,0.826-2.593,0.303
		C692.16,538.798,692.296,537.936,693.022,537.144z"/>
	<path fill-rule="evenodd" fill="#B74E50" d="M291.481,71.812c-2.948,2.941-3.248,6.985-4.436,10.659
		c-4.712-2.872-9.423-5.742-14.135-8.612c0.12-0.683,0.242-1.366,0.365-2.047C279.345,71.812,285.412,71.812,291.481,71.812z"/>
	<path fill-rule="evenodd" fill="#E88644" d="M730.125,572.035c-0.07-10.296-0.137-20.592-0.207-30.889
		C731.724,551.432,732.282,561.723,730.125,572.035z"/>
	<path fill-rule="evenodd" fill="#F79D41" d="M250.248,518.749c0.763,0.019,1.523,0.032,2.288,0.045
		c3.728,5.446,8.319,10.03,13.763,13.761c4.264,1.582,9.359,2.539,6.91,9.174c-9.594,3.475-16.412,10.54-23.417,17.565
		c-60.628,60.783-121.365,121.458-182.072,182.161c-1.619,1.62-3.915,2.948-4.752,4.902c-10.339,24.104-31.127,21.023-51.185,19.922
		c3.333-3.666,6.516-7.477,10.014-10.977c73.979-74.035,147.988-148.036,222.009-222.032
		C247.847,529.231,252.738,525.649,250.248,518.749z"/>
	<path fill-rule="evenodd" fill="#F58948" d="M273.209,541.728c-2.303-3.058-4.607-6.116-6.91-9.174
		c19.028-18.645,38.14-37.204,57.059-55.959c22.449-22.256,44.671-44.743,67.149-66.969c3.081-3.044,5.794-9.275,10.437-7.383
		c5.359,2.181,2.358,8.794,2.915,13.487c0.177,1.489-0.112,3.038-0.188,4.562c-32.33,31.988-64.627,64.009-97.005,95.944
		c-9.512,9.385-19.254,18.534-28.893,27.788C276.251,543.26,274.73,542.495,273.209,541.728z"/>
	<path fill-rule="evenodd" fill="#F79A3F" d="M693.048,539.414c0.755,0.005,1.511,0.015,2.266,0.024
		c1.759,3.463,6.129,4.942,6.918,9.134c-1.436,3.993-3.749,7.29-6.798,10.334c-64.292,64.167-128.503,128.417-192.763,192.617
		c-2.144,2.142-4.646,3.924-6.98,5.875c-4.634-3.015-8.454-6.841-11.476-11.466c-0.994-5.325,2.463-8.537,5.707-11.773
		c63.177-63.042,125.936-126.507,189.343-189.319C683.01,541.129,686.678,536.693,693.048,539.414z"/>
	<path fill-rule="evenodd" fill="#F79840" d="M679.259,523.381c0.754,1.532,1.512,3.064,2.267,4.598
		c-1.025,2.844-1.838,5.647-4.271,7.904c-64.374,59.823-124.551,123.892-187.495,185.158c-5.692,5.541-5.258,15.771-14.69,17.979
		c-0.767-0.003-1.532-0.005-2.299-0.007c-3.569-6.224-7.865-11.827-13.782-16.032c0.002-0.761,0.002-1.523-0.003-2.285
		c3.681-3.296,7.526-6.425,11.015-9.912c62.285-62.218,124.519-124.487,186.806-186.706c3.487-3.484,7.339-6.609,11.02-9.9
		c1.519,0.772,3.036,1.546,4.553,2.32C674.007,519.455,676.308,521.742,679.259,523.381z"/>
	<path fill-rule="evenodd" fill="#F7993F" d="M475.069,739.019c1.781-9.652,6.604-17.222,13.679-24.239
		c56.648-56.205,113.016-112.695,169.358-169.207c7.009-7.031,13.85-14.07,23.419-17.595c1.539,0.761,3.078,1.523,4.613,2.284
		c1.632,2.957,3.931,5.247,6.884,6.882c0.005,0.758,0.012,1.516,0.025,2.27c-3.678,3.293-7.525,6.422-11.016,9.908
		c-62.286,62.215-124.519,124.485-186.803,186.703c-3.489,3.483-7.334,6.614-11.015,9.907
		C480.181,744.93,477.808,741.731,475.069,739.019z"/>
</g>
</svg>
