<?xml version="1.0" encoding="utf-8"?>
<!-- Generator: Adobe Illustrator 16.0.0, SVG Export Plug-In . SVG Version: 6.00 Build 0)  -->
<!DOCTYPE svg PUBLIC "-//W3C//DTD SVG 1.1 Tiny//EN" "http://www.w3.org/Graphics/SVG/1.1/DTD/svg11-tiny.dtd">
<svg version="1.1" baseProfile="tiny" id="Layer_1" xmlns="http://www.w3.org/2000/svg" xmlns:xlink="http://www.w3.org/1999/xlink"
	 x="0px" y="0px" width="730.063px" height="833.57px" viewBox="0 0 730.063 833.57" overflow="scroll" xml:space="preserve">
<g>
	<path fill-rule="evenodd" fill="#FADD34" d="M899.14,921.887c-332.755,0-665.506-0.047-998.258,0.244
		c-9.093,0.01-10.967-1.867-10.959-10.957c0.291-332.753,0.244-665.504,0.244-998.258c4.361-2.352,9.081-1.192,13.616-1.194
		c327.04-0.062,654.078-0.064,981.118-0.037c17.302,0.002,15.465-1.823,15.47,15.472c0.024,327.039,0.024,654.08-0.04,981.118
		C900.332,912.808,901.49,917.528,899.14,921.887z"/>
	<g>
		<path fill-rule="evenodd" fill="#343433" d="M668.957,544.772c-26.347,31.635-45.947,65.567-75.864,92.987
			c19.938-5.31,38.783-5.477,57.149,0.872c27.844,9.618,45.402,29.077,50.738,58.113c6.117,33.289-2.408,62.249-29.392,84.078
			c-38.051,30.781-104.837,28.883-141.393-3.608c-29.3-26.043-36.203-65.739-18.267-105.248
			c8.238-18.143,20.066-33.969,31.997-49.751c17.795-23.54,35.549-47.114,53.057-70.87c3.604-4.889,7.479-6.862,13.632-6.724
			C629.17,545.04,647.735,544.772,668.957,544.772z"/>
		<path fill-rule="evenodd" fill="#343433" d="M106.965,671.753c-0.001-38.971,0.199-77.944-0.179-116.911
			c-0.072-7.329,2.128-9.032,9.149-8.991c49.321,0.288,98.645,0.271,147.965,0.02c6.886-0.032,9.837,1.476,9.299,9.008
			c-0.674,9.389-0.538,18.884-0.034,28.296c0.35,6.516-2.045,8.237-8.293,8.185c-31.966-0.257-63.937,0.12-95.9-0.278
			c-7.987-0.102-11.342,1.556-10.752,10.384c0.828,12.428,0.56,24.964,0.069,37.427c-0.261,6.609,2.136,8.123,8.35,8.057
			c28.008-0.299,56.022,0.11,84.025-0.3c6.968-0.104,8.941,1.969,8.546,8.711c-0.556,9.405-0.515,18.888-0.012,28.299
			c0.333,6.26-2.133,7.507-7.841,7.453c-28.005-0.253-56.022,0.137-84.026-0.286c-7.214-0.106-9.36,1.875-9.07,9.099
			c0.571,14.286,0.525,28.626,0.012,42.916c-0.243,6.763,1.589,8.767,8.547,8.689c34.094-0.373,68.198,0.025,102.293-0.327
			c7.04-0.073,9.664,1.617,9.217,8.992c-0.625,10.313-0.291,20.696-0.112,31.043c0.073,4.226-1.278,5.869-5.746,5.859
			c-53.279-0.119-106.559-0.17-159.838,0.047c-6.38,0.025-5.685-3.563-5.682-7.568C106.975,750.301,106.966,711.026,106.965,671.753
			z"/>
		<path fill-rule="evenodd" fill="#343433" d="M422.274,610.345c-7.281-12.116-16.06-21.72-31.367-22.095
			c-12.401-0.305-22.467,5.487-25.543,15.142c-3.39,10.636,0.659,21.356,11.37,28.258c13.358,8.602,28.601,13.345,42.866,20.101
			c17.176,8.133,33.885,17.131,45.194,32.974c28.936,40.521,10.116,96.77-37.729,110.409
			c-41.054,11.702-79.839,6.854-112.102-23.798c-21.397-20.326-20.83-21.741,3.773-36.101c6.298-3.677,12.408-9.701,19.006-10.307
			c7.503-0.691,9.42,9.482,14.599,14.199c16.367,14.915,34.818,19.154,55.694,12.259c9.196-3.039,15.893-8.934,17.277-19.234
			c1.415-10.505-2.969-18.452-11.475-24.13c-13.491-9.008-28.886-14.125-43.539-20.746c-11.973-5.409-23.559-11.51-33.323-20.388
			c-22.22-20.2-29.817-52.028-19.466-80.148c9.367-25.439,35.282-42.627,65.934-43.787c30.401-1.155,56.387,7.241,74.432,33.618
			c3.689,5.394,4.723,8.708-2.197,12.595C444.308,595.554,433.582,603.092,422.274,610.345z"/>
		<path fill-rule="evenodd" fill="#FADD34" d="M642.577,715.182c-0.227,21.969-17.378,37.947-40.542,37.775
			c-22.896-0.172-39.909-16.782-39.677-38.736c0.238-22.297,17.521-37.954,41.55-37.635
			C626.249,676.885,642.802,693.406,642.577,715.182z"/>
	</g>
</g>
</svg>
