<?xml version="1.0" encoding="utf-8"?>
<!-- Generator: Adobe Illustrator 16.0.0, SVG Export Plug-In . SVG Version: 6.00 Build 0)  -->
<!DOCTYPE svg PUBLIC "-//W3C//DTD SVG 1.1//EN" "http://www.w3.org/Graphics/SVG/1.1/DTD/svg11.dtd">
<svg version="1.1" id="Layer_1" xmlns="http://www.w3.org/2000/svg" xmlns:xlink="http://www.w3.org/1999/xlink" x="0px" y="0px"
	 width="1238.936px" height="471.299px" viewBox="0 0 1238.936 471.299" enable-background="new 0 0 1238.936 471.299"
	 xml:space="preserve">
<path fill-rule="evenodd" clip-rule="evenodd" fill="#E34D32" d="M1237.914,338.35c-2.458-10.421-13.223-14.173-22.045-7.935
	c-7.208,5.096-14.817,9.509-22.937,12.995c-9.777,4.199-19.825,7.119-30.647,6.491c-4.554-0.265-8.347-1.94-11.433-5.283
	c-2.945-3.191-4.713-7.024-5.955-11.106c-3.768-12.383-3.787-25.112-2.713-37.795c1.201-14.182,2.457-28.328,1.197-42.556
	c-0.535-6.044-1.411-12.035-3.931-17.659c-2.121-4.733-5.608-7.276-10.912-7.107c-1.993,0.064-3.982,0.02-5.947,0.51
	c-9.905,2.47-18.485,7.606-25.039,15.123c-14.798,16.975-26.274,36.086-34.046,57.315c-0.228,0.622-0.34,1.339-0.729,1.837
	c-0.643,0.824-1.702,1.068-2.669,1.024c-0.59-0.026-0.343-0.78-0.316-1.255c0.793-14.362,1.393-28.731,1.329-43.116
	c-0.035-7.976,0.035-15.96-1.057-23.901c-0.706-5.126-1.99-6.777-7.115-7.816c-5.531-1.123-11.06-0.881-16.579,0.283
	c-7.956,1.678-13.076,5.793-15.513,14.117c-7.017,23.973-13.363,48.104-18.756,72.486c-3.749,16.944-7.192,33.951-8.448,51.307
	c-0.087,1.215-0.801,1.746-1.557,2.367c-4.949,4.067-10.078,7.9-15.337,11.557c-16.351,11.367-33.355,21.545-52.4,27.807
	c-12.784,4.203-25.817,6.386-39.214,3.218c-9.235-2.185-16.862-6.88-22.112-14.993c-1.67-2.578-1.631-2.61,1.217-3.548
	c10.188-3.354,20.041-7.517,29.558-12.454c16.726-8.675,32.1-19.219,44.785-33.299c23.459-26.034,30.723-56.186,22.048-90.027
	c-5.266-20.545-18.97-32.738-39.473-35.222c-16.756-2.028-32.871,1.288-47.887,8.675c-10.186,5.011-18.667,12.689-26.761,20.625
	c-19.966,19.576-33.259,43.179-41.558,69.697c-3.974,12.695-7.141,25.587-7.705,38.98c-0.06,1.414,0.097,2.915-1.501,3.945
	c-17.599,11.359-35.378,22.395-54.583,30.912c-2.391,1.062-4.882,1.897-7.857,3.041c0.667-1.334,1.037-2.125,1.45-2.891
	c6.358-11.795,11.537-24.096,15.494-36.891c5.738-18.556,9.035-37.418,6.804-56.947c-2.96-25.908-15.703-45.611-37.613-59.521
	c-5.047-3.204-10.525-5.267-16.52-5.817c-10.776-0.99-20.053,2.799-28.553,9.012c-1.686,1.23-3.304,2.555-4.953,3.836
	c0.179-0.854,0.587-1.451,1.025-2.027c17.303-22.736,32.693-46.668,45.181-72.406c12.173-25.088,21.465-51.077,24.534-78.997
	c1.832-16.661,1.225-33.171-2.931-49.48c-2.867-11.251-6.586-22.142-13.737-31.496c-8.748-11.44-20.215-15.926-34.453-13.183
	c-8.698,1.676-16.46,5.617-24.081,9.853c-15.129,8.408-27.461,19.577-35.809,35.081c-8.195,15.223-15.775,30.69-22.104,46.782
	c-13.368,33.991-21.334,69.233-24.822,105.549c-1.088,11.328-2.416,22.633-3.713,33.939c-1.544,13.451-3.164,26.895-4.769,40.338
	c-1.586,13.279-3.173,26.558-4.799,39.831c-1.535,12.532-3.117,25.06-4.688,37.589c-1.706,13.596-3.426,27.19-5.13,40.787
	c-0.173,1.381-0.714,2.471-1.863,3.357c-3.025,2.336-5.875,4.908-8.976,7.137c-8.02,5.768-16.512,10.555-26.497,12.058
	c-4.451,0.67-7.594-0.736-9.836-4.646c-1.247-2.173-2.122-4.507-2.606-6.966c-2.938-14.903-1.765-29.799,0.32-44.65
	c1.535-10.93,3.454-21.805,5.186-32.707c2.318-14.598,4.489-29.219,6.271-43.892c1.242-10.224,2.708-20.452,1.222-30.8
	c-0.757-5.273-1.867-10.439-6.202-14c-5.687-4.672-12.245-7.717-19.72-6.873c-12.636,1.423-22.219,8.744-29.253,18.559
	c-10.01,13.965-18.933,28.714-28.189,43.211c-7.69,12.043-15.338,24.117-22.257,36.631c-1.715,3.104-2.861,6.512-5.016,9.434
	c-2.148-1.393-2.57-3.01-1.739-5.48c3.435-10.223,6.335-20.609,8.776-31.115c3.615-15.554,6.753-31.183,6.212-47.283
	c-0.154-4.586-0.813-9.102-2.537-13.396c-2.393-5.961-6.753-9.08-13.242-9.047c-6.308,0.031-12.396,1.217-18.175,3.754
	c-15.185,6.664-26.267,17.996-34.833,31.784c-10.694,17.214-20.756,34.815-30.606,52.532c-3.403,6.121-6.764,12.264-9.656,18.747
	c-1.515-1.321-2.612-2.439-2.173-4.571c5.107-24.803,9.855-49.67,12.154-74.925c0.504-5.534,0.858-11.122-0.286-16.646
	c-1.649-7.962-6.638-12.754-14.653-13.23c-5.855-0.35-11.795-0.503-17.622,0.613c-8.402,1.608-14.536,5.873-16.676,14.673
	c-0.549,2.255-1.35,4.446-1.95,6.689c-6.775,25.337-12.405,50.938-17.539,76.651c-3.169,15.872-6.344,31.745-8.048,47.862
	c-0.16,1.507-0.974,2.345-2.129,3.124c-6.41,4.321-12.912,8.497-19.593,12.387c-16.178,9.42-32.756,17.967-50.925,22.967
	c-11.477,3.157-23.036,4.179-34.66,0.808c-9.245-2.681-14.846-9.019-15.7-17.595c-0.169-1.697-0.206-3.064,1.997-3.859
	c12.289-4.436,24.008-10.135,35.3-16.685c17.594-10.205,33.816-22.13,46.568-38.226c15.035-18.98,21.599-40.162,16.28-64.303
	c-1.123-5.099-2.169-10.336-5-14.77c-3.729-5.838-8.525-10.842-13.924-15.217c-10.305-8.354-22.283-12.08-35.351-13.286
	c-21.319-1.968-40.317,3.506-57.003,16.897c-14.512,11.646-24.596,26.646-32.618,43.219c-9.639,19.913-14.156,41.183-16.786,62.949
	c-0.209,1.729-0.875,2.316-2.406,2.422c-2.983,0.207-5.962,0.584-8.947,0.627c-9.75,0.145-19.066-1.234-26.827-7.945
	c-1.169-1.012-2.653-1.727-4.091-2.349c-4.721-2.044-9.842-1.06-12.935,2.784c-4.671,5.806-8.416,12.139-9.948,19.581
	c-1.573,7.643,1.277,13.272,8.436,16.284c3.903,1.642,7.954,2.886,12.035,4.003c12.913,3.534,26.047,5.928,39.327,7.577
	c1.757,0.217,3.575,0.033,4.192,2.717c4.46,19.396,14.11,35.877,28.427,49.66c8.773,8.445,18.695,14.773,30.754,17.577
	c14.677,3.413,29.402,3.05,44.087,0.699c22.856-3.659,44.846-9.97,64.642-22.556c4.396-2.794,9.095-5.111,13.82-7.741
	c0.618,4.28,1.241,8.296,2.576,12.156c5.849,16.917,17.724,22.275,34.221,20.592c7.222-0.737,12.086-5.939,16.333-11.424
	c8.351-10.783,14.139-23.037,20.057-35.219c9.797-20.167,17.352-41.325,27.274-61.436c4.958-10.05,9.787-20.167,15.633-29.748
	c0.603-0.987,1.303-1.94,2.093-2.782c0.654-0.696,1.762-0.908,2.533-0.615c0.874,0.331,0.231,1.36,0.128,2.007
	c-0.585,3.688-1.316,7.351-1.942,11.032c-3.522,20.715-6.717,41.475-8.639,62.412c-1.117,12.18-2.119,24.366-0.819,36.586
	c1.006,9.457,5.21,17.096,13.501,22.123c6.889,4.177,14.499,5.443,22.452,5.479c4.065,0.018,7.445-1.279,10.474-3.861
	c5.379-4.587,8.848-10.529,11.877-16.76c4.373-8.996,7.008-18.607,9.906-28.135c9-29.595,20.892-58.06,33.935-86.063
	c0.562-1.205,1.218-2.37,1.703-3.604c0.534-1.355,1.606-1.277,2.685-1.15c1.387,0.164,0.783,1.277,0.748,1.965
	c-0.117,2.238-0.343,4.473-0.57,6.703c-1.799,17.711-2.57,35.48-2.703,53.269c-0.063,8.47,0.308,16.958,0.883,25.411
	c0.677,9.943,1.929,19.833,4.919,29.412c4.027,12.898,11.946,21.639,25.698,24.24c11.05,2.089,21.768,0.311,32.044-3.549
	c13.802-5.183,26.482-12.667,38.886-20.585c0.942-0.601,1.557-1.175,2.779-0.26c15.968,11.968,33.838,19.588,53.478,23.014
	c10.45,1.822,21.067,2.801,31.508,0.861c32.338-6.01,64.158-14.132,95.192-25.121c19.666-6.965,38.968-14.787,56.65-26.074
	c1.563-0.998,1.612,0.167,2.011,0.95c11.579,22.78,29.346,38.595,53.538,46.846c18.809,6.415,38.176,6.701,57.643,3.84
	c25.625-3.768,48.287-14.131,67.873-31.123c1.837-1.594,3.565-3.311,5.723-5.324c0.116,3.618,0.501,6.646,1.197,9.625
	c2.83,12.104,9.028,21.653,20.496,27.302c6.279,3.093,12.048,2.227,17.513-1.865c4.401-3.295,7.646-7.599,10.534-12.198
	c6.318-10.059,10.284-21.127,14.179-32.275c6.922-19.811,14.198-39.497,21.334-59.232c5.866-16.225,11.77-32.434,17.573-48.681
	c0.566-1.587,1.381-1.991,2.913-1.921c1.783,0.082,1.348,1.354,1.426,2.33c0.729,9.116,1.864,18.176,3.882,27.103
	c2.834,12.536,6.778,24.647,13.912,35.497c7.135,10.851,16.668,18.157,29.81,20.137c9.759,1.471,19.398,0.712,28.936-1.58
	c20.565-4.944,38.948-14.545,56.238-26.471c3.527-2.432,6.128-5.605,7.819-9.495C1239.236,353.055,1239.65,345.71,1237.914,338.35z
	 M121.744,352.676c-1.288-0.082-1.887-0.594-1.807-2.021c1.344-24.027,7.045-46.477,23.951-64.689
	c5.545-5.973,12.05-10.664,20.415-12.09c5.615-0.957,10.118,0.789,13.649,5.212c4.066,5.095,5.644,10.999,5.741,17.459
	c-0.323,10.772-4.348,20.255-11.275,28.335c-11.731,13.682-26.577,22.59-44,27.166C126.253,352.616,124.003,352.819,121.744,352.676
	z M617.456,236.643c5.719-34.323,15.24-67.743,23.908-101.378c6.18-23.979,15.561-46.502,27.841-67.9
	c2.689-4.686,5.677-9.198,9.543-13.037c6.062-6.02,10.498-4.99,13.286,3.1c2.672,7.752,2.568,15.706,1.279,23.646
	c-3.58,22.064-11.964,42.562-20.987,62.802c-15.807,35.456-34.563,69.361-54.531,102.613c-0.36,0.6-0.563,1.37-1.595,1.789
	C616.233,244.254,616.824,240.433,617.456,236.643z M682.726,398.29c-8.858,14.089-21.938,22.46-38.547,24.81
	c-11.839,1.675-23.32-0.149-34.537-4.103c-1.687-0.596-1.703-1.914-1.877-3.15c-0.851-6.038-0.83-12.124-0.383-18.174
	c1.826-24.65,7.682-48.47,15.351-71.867c3.073-9.379,7.604-18.071,14.413-25.379c7.625-8.184,16.953-12.627,30.234-12.568
	c2.81-0.029,7.377,1.101,11.979,2.288c5.875,1.516,9.479,5.568,12.545,10.335c5.895,9.168,8.81,19.314,9.181,30.127
	C701.921,355.029,695.68,377.687,682.726,398.29z M855.37,349.947c0.003-1.828,0.001-3.657,0.001-5.485
	c0.013-12.688,3.723-24.539,8.638-36.046c4.148-9.71,8.844-19.163,15.437-27.517c2.641-3.346,5.641-6.326,9.304-8.586
	c7.292-4.496,15.678-3.182,20.93,3.604c5.707,7.373,8.15,15.904,6.742,25.078c-2.984,19.432-14.397,33.197-30.663,43.24
	c-8.398,5.187-17.733,7.765-27.65,8.182C856.138,352.499,855.367,351.792,855.37,349.947z"/>
</svg>
