<?xml version="1.0" encoding="utf-8"?>
<!-- Generator: Adobe Illustrator 16.0.0, SVG Export Plug-In . SVG Version: 6.00 Build 0)  -->
<!DOCTYPE svg PUBLIC "-//W3C//DTD SVG 1.1 Tiny//EN" "http://www.w3.org/Graphics/SVG/1.1/DTD/svg11-tiny.dtd">
<svg version="1.1" baseProfile="tiny" id="Layer_1" xmlns="http://www.w3.org/2000/svg" xmlns:xlink="http://www.w3.org/1999/xlink"
	 x="0px" y="0px" width="880.456px" height="257.686px" viewBox="-188.851 257.685 880.456 257.686" overflow="scroll"
	 xml:space="preserve">
<g>
	<path d="M-155.322,371.332c-0.793,4.831-1.321,10.513-1.321,15.912c0,26.71,15.573,49.726,43.024,49.726
		c25.338,0,46.452-20.174,51.205-42.622h10.03c-7.92,30.404-29.825,51.999-62.291,51.999c-34.313,0-51.996-26.426-51.996-57.683
		c0-54.271,27.448-95.188,72.056-95.188c31.936,0,49.621,24.153,49.621,56.261c0,7.388-0.793,14.492-1.849,21.596H-155.322z
		 M-56.345,361.954c0.792-4.831,1.321-8.524,1.321-12.218c0-25.004-12.933-46.884-41.439-46.884
		c-31.936,0-51.205,28.13-57.274,59.102H-56.345z"/>
	<path d="M20.713,358.829l52.261-61.944H86.17l-60.179,70.753l37.48,75.298H51.329l-33.52-67.342l-57.539,67.342h-13.46
		l65.984-76.721l-34.048-69.331h12.406L20.713,358.829z"/>
	<path d="M105.955,296.885h10.03l-5.808,28.415h0.528c8.711-17.617,28.242-31.825,50.941-31.825
		c35.896,0,50.413,26.143,50.413,60.523c0,43.475-25.074,92.348-70.207,92.348c-23.492,0-40.384-16.765-46.455-41.201h-0.528
		l-18.477,90.073H66.364L105.955,296.885z M202.028,353.715c0-29.266-13.724-50.862-41.702-50.862
		c-39.591,0-60.177,50.294-60.177,84.108c0,23.016,15.836,50.009,42.229,50.009C182.233,436.969,202.028,389.517,202.028,353.715z"
		/>
	<path d="M251.638,296.885h10.03l-7.39,34.951h0.528c9.765-21.878,26.92-38.361,51.203-38.361c2.905,0,5.543,0.285,8.448,0.568
		l-2.905,11.366c-2.903-0.568-5.543-1.137-8.181-1.137c-39.328,0-53.052,49.726-59.123,79.56l-11.877,59.104h-10.03L251.638,296.885
		z"/>
	<path d="M314.186,371.332c-0.792,4.831-1.32,10.513-1.32,15.912c0,26.71,15.573,49.726,43.023,49.726
		c25.338,0,46.453-20.174,51.205-42.622h10.03c-7.921,30.404-29.825,51.999-62.291,51.999c-34.313,0-51.996-26.426-51.996-57.683
		c0-54.271,27.449-95.188,72.055-95.188c31.937,0,49.621,24.153,49.621,56.261c0,7.388-0.792,14.492-1.849,21.596H314.186z
		 M413.164,361.954c0.792-4.831,1.32-8.524,1.32-12.218c0-25.004-12.934-46.884-41.439-46.884c-31.936,0-51.205,28.13-57.274,59.102
		H413.164z"/>
	<path d="M445.616,393.211c0,2.274-0.265,4.545-0.265,6.819c0,27.278,17.685,36.939,45.926,36.939
		c14.78,0,36.424-11.081,36.424-31.256c0-21.027-19.532-27.278-38.008-34.098c-18.476-6.819-36.95-14.775-36.95-38.643
		c0-27.563,25.073-39.498,48.037-39.498c25.073,0,46.452,12.789,46.452,36.656c0,3.41-0.263,5.967-0.528,10.798h-10.027
		c0.262-3.411,0.528-6.536,0.528-9.378c0-19.037-16.63-28.698-36.425-28.698c-15.837,0-38.009,7.105-38.009,28.983
		c0,19.037,19.004,25.573,37.48,32.392c19.005,7.104,37.479,15.343,37.479,38.359c0,28.983-25.339,43.76-50.412,43.76
		c-28.77,0-51.996-11.366-51.996-43.76c0-2.84,0-5.965,0.264-9.376H445.616z"/>
	<path d="M567.809,393.211c0,2.274-0.265,4.545-0.265,6.819c0,27.278,17.685,36.939,45.927,36.939
		c14.779,0,36.425-11.081,36.425-31.256c0-21.027-19.534-27.278-38.01-34.098c-18.477-6.819-36.95-14.775-36.95-38.643
		c0-27.563,25.073-39.498,48.037-39.498c25.073,0,46.453,12.789,46.453,36.656c0,3.41-0.264,5.967-0.527,10.798H658.87
		c0.263-3.411,0.528-6.536,0.528-9.378c0-19.037-16.629-28.698-36.425-28.698c-15.836,0-38.008,7.105-38.008,28.983
		c0,19.037,19.004,25.573,37.479,32.392c19.005,7.104,37.479,15.343,37.479,38.359c0,28.983-25.338,43.76-50.41,43.76
		c-28.771,0-51.997-11.366-51.997-43.76c0-2.84,0-5.965,0.264-9.376H567.809z"/>
</g>
</svg>
