<?xml version="1.0" encoding="utf-8"?>
<!-- Generator: Adobe Illustrator 16.0.0, SVG Export Plug-In . SVG Version: 6.00 Build 0)  -->
<!DOCTYPE svg PUBLIC "-//W3C//DTD SVG 1.1 Tiny//EN" "http://www.w3.org/Graphics/SVG/1.1/DTD/svg11-tiny.dtd">
<svg version="1.1" baseProfile="tiny" id="Layer_1" xmlns="http://www.w3.org/2000/svg" xmlns:xlink="http://www.w3.org/1999/xlink"
	 x="0px" y="0px" width="261.98px" height="405.671px" viewBox="0 0 261.98 405.671" overflow="scroll" xml:space="preserve">
<g>
	<path fill-rule="evenodd" fill="#CDE9EE" d="M0,302.62c4.24-1.963,7.766-3.961,7.884-9.816c0.159-7.807,3.163-15.146,6.062-22.442
		c-2.65-1.186-4.718,0.537-7.292,0.992c2.048-12.564,6.703-23.89,14.001-34.515c-3.849-1.033-6.914,0.508-10.512,2.155
		c1.065-3.66,3.353-5.948,5.203-8.393c4.587-6.059,9.536-11.834,14.821-17.305c2.882-2.984,2.871-3.429-0.451-6.007
		c-0.849-0.659-1.746-1.256-3.034-2.177c1.281-0.403,2.241-1.028,3.123-0.932c8.112,0.894,11.01-6.827,16.649-9.99
		c1.184-0.664,0.665-1.901,0.454-2.963c-0.925-4.664-3.101-8.729-6.255-12.443c2.078-0.893,3.776-0.272,5.763,0.212
		c0.29-7.379-1.498-14.162-5.371-20.598c2.984-0.512,4.994,1.492,7.624,2.631c-0.959-12.434-1.899-24.614-2.839-36.795
		c2.721-1.027,9.819,0.35,11.431,2.218c1.021,1.184,1.102,2.167,0.451,6.059c3.715-6.634,5.686-13.583,6.121-20.984
		c0.404-1.917,0.309-3.813-0.042-5.733c-1.271-6.948-1.331-6.974-8.401-7.097c-2.278-0.039-4.556-0.308-6.834-0.466
		c-1.217-0.085-2.405-0.369-2.92-1.719c-0.128-14.125,5.566-26.581,11.329-38.979c2.511-5.403,5.459-10.604,8.701-16.846
		c0.853,7.198,1.041,13.452,2.992,20.255c9.852-24.963,26.179-42.961,50.651-53.762c-1.417,8.084-3.096,15.823-1.582,24.267
		c6.274-6.911,12.826-12.878,20.447-17.57c11.189-6.889,23.143-11.542,36.378-12.445c0.509-0.035,0.935-0.135,1.07-0.706
		c0.242,0,0.484,0,0.727,0c1.596,0.803,3.341,0.076,4.976,0.485c0.618,4.283-2.097,6.824-4.877,9.335
		c-8.551-0.467-16.157,2.721-23.474,6.504c-13.787,7.129-25.606,16.832-35.803,28.516c-1.986,2.276-4.1,4.436-6.086,6.715
		c-2.179,2.501-3.85,2.13-4.908-1.077c-1.253-3.794-2.061-7.701-2.009-11.744c0.021-1.637,0.131-3.298-0.229-5.406
		c-2.196,1.546-3.575,3.185-4.953,4.833C88.486,51.439,80.879,65.684,74.534,80.667c-0.236,0.557-0.512,1.104-0.681,1.68
		c-0.49,1.676-2.559,3.505-1.213,4.927c1.21,1.279,3.396-0.226,5.116-0.609c4.365-0.972,8.655-2.271,13.062-3.06
		c1.644-0.294,3.748-1.045,4.727,0.572c1.09,1.802-0.997,2.952-2.062,4.129c-6.495,7.178-12.767,14.524-17.958,22.73
		c-0.712,1.124-1.364,2.282-2.046,3.423c-1.292,2.161-1.223,3.466,1.731,3.854c1.947,0.255,4.618,0.104,5.268,2.408
		c0.585,2.077-1.678,3.287-2.985,4.628c-6.897,7.077-11.345,15.626-14.719,24.756c-5.699,15.423-8.398,31.438-9.597,47.815
		c-0.637,8.706-0.443,17.385-0.594,26.076c-0.244,13.986,1.558,27.715,5.173,41.227c0.552,2.063,2.383,4.773-1.868,5.494
		c-1.165,0.198-0.56,1.684-0.449,2.568c1.294,10.329,3.085,20.56,6.185,30.523c0.395,1.271,0.864,2.517,1.233,3.795
		c1.107,3.832,0.814,4.188-3.427,3.77c2.931,6.576,7.509,11.942,10.884,18.009c2.703,5.155,6.291,9.654,10.405,13.728
		c6.579,6.513,13.204,12.975,18.201,20.864c1.03,1.627,2.137,3.219,2.117,5.271c-0.086,1.976-0.983,3.715-1.64,5.513
		c-2.482,6.806-4.323,13.764-5.316,20.949c-0.185,1.335,0.063,3.014-1.769,3.59c-2.269-3.441-1.826-7.569-1.664-11.151
		c0.334-7.385-2.976-11.388-9.361-13.987c-6.249-2.544-11.167-7.067-16.018-11.621c-1.287-1.208-2.348-2.738-4.223-3.289
		c-1.241,1.785,0.624,4.846-2.044,5.698c-1.627,0.521-2.483-1.579-3.774-2.624c0.54,2.84,0.993,5.548,1.027,8.334
		c0.052,4.296-1.025,8.237-3.944,11.346c-5.055,5.384-5.658,12.03-5.953,18.843c-0.093,2.143,1.414,2.25,2.913,2.273
		c4.584,0.072,9.17-0.009,13.754,0.045c1.543,0.019,3.168-0.223,4.498,0.915c0.096,2.048-1.511,1.546-2.551,1.556
		c-7.255,0.067-14.51,0.001-21.765,0.057c-2.008,0.015-3.336-0.641-3.521-2.735c-0.219-2.481-1.834-2.781-3.831-2.737
		c-4.251,0.095-8.397,0.986-12.583,1.577c-4.443,0.626-5.513,0.026-4.619-4.152c1.278-5.97,0.497-12.563,4.936-17.708
		c1.588-1.841,2.99-3.957,5.175-4.994c2.503-1.188,2.919-3.688,4.206-5.61c0.906-1.354-0.606-2.409-1.225-3.52
		c-0.76-1.363-1.002-3.059,0.958-2.826c4.159,0.491,4.46-2.111,4.772-4.98c1.09-5.634,1.028-11.4,2.013-17.043
		c0.07-3.345,0.707-6.631,1.013-9.95c0.929-5.276,1.08-10.624,0.139-15.851c-4.411-24.493-2.875-48.889,1.42-73.146
		c2.065-11.661,3.746-23.282,3.432-34.703c-6.567,15.449-11.312,31.991-15.219,48.797c-0.45,1.938-0.11,3.834,0.194,5.751
		c0.32,2.012,0.375,3.951-2.352,4.412c-1.876,0.317-1.92,1.979-2.225,3.346c-1.077,4.844-1.942,9.762-2.103,14.696
		c-0.502,15.466-0.355,30.921,2.408,46.221c0.576,1.977,2.159,3.056,3.698,4.189c1.156,0.852,2.228,1.797,2.781,3.188
		c1.229,5.17,2.25,10.385,3.471,15.557c0.307,1.3,0.527,2.612-0.021,3.912c-1.292,1.804-3.023,1.194-4.589,0.666
		c-7.734-2.605-14.412-6.711-18.971-13.726c-1.842-2.834-3.71-5.664-5.136-8.729c-1.05-2.259-2.177-3.435-4.582-1.518
		c-0.629,0.501-1.572,1.382-2.445,0.127c-0.178-6.417,0.521-12.771,2.188-18.934c1.24-4.582,1.618-8.666-2.59-11.92
		C0,303.104,0,302.862,0,302.62z"/>
	<path fill-rule="evenodd" fill="#EEF8FA" d="M261.98,275.044c-1.165,1.748-2.462,3.306-4.85,2.99c0,2.281,1.504,3.391,2.893,5.023
		c-3.729-0.154-3.914,1.338-3.384,4.545c2.259,13.651,3.984,27.389,3.775,41.338c-1.3,0.577-2.146-0.818-3.508-0.682
		c-0.576,7.704-2.486,15.04-7.509,21.553c-0.541-1.121-1.012-2.097-1.678-3.476c-4.35,6.805-10.691,9.56-18.218,10.06
		c-2.198,0.727-2.507-0.903-2.617-2.326c-0.281-3.602-0.265-7.219-0.002-10.826c0.128-1.748,1.138-2.876,2.723-3.497
		c2.819-1.104,5.326-2.788,7.947-4.243c0.609-0.455,1.34-0.776,2.096-1.79c-0.835,0.989-1.575,1.36-2.237,1.842
		c-3.119,1.979-6.595,2.987-10.16,3.712c-3.773,0.768-5.17-0.447-4.669-4.472c0.707-5.677,2.796-10.989,4.901-16.265
		c0.85-2.13,1.765-4.237,2.85-6.656c-1.444,0.233-2.887,0.613-3.586-1.046c-0.703-1.667-0.716-3.296,0.104-4.895
		c0.907-1.769,2.45-2.972,3.945-4.194c1.556-1.272,1.738-2.527,0.085-3.835c-2.691-2.129-2.715-4.847-1.929-7.874
		c1.638-6.315,3.236-12.642,4.759-18.986c0.301-1.254,0.947-2.494,0.52-3.87c-5.444,1.837-5.438,1.836-6.239-4.112
		c-0.193-1.437-0.5-2.864-0.474-4.319c0.255-14.011-1.248-27.989-0.783-42.007c0.089-2.667,0.234-5.313,0.78-7.918
		c0.225-1.079,0.009-2.564,1.758-2.698c4.071,3.928,7.161,8.773,11.729,12.258c2.585,1.973,5.207,3.87,8.212,5.715
		c-2.147,2.038-4.783,2.088-7.644,2.534c1.33,4.729,2.711,9.376,3.938,14.064c1.917,7.328,3.696,14.693,5.604,22.024
		c0.729,2.803,1.864,5.461,3.565,7.838c1.787,2.5,4.042,4.111,7.302,3.765C261.98,274.56,261.98,274.802,261.98,275.044z"/>
	<path fill-rule="evenodd" fill="#99A9AD" d="M182.153,0.726c-0.184,0.252-0.368,0.504-0.552,0.756
		c-1.721-0.465-3.684,0.754-5.254-0.756C178.282,0.726,180.218,0.726,182.153,0.726z"/>
	<path fill-rule="evenodd" fill="#555453" d="M64.733,111.771c-0.228,8.753-2.967,16.662-7.764,23.994
		c-0.398-0.322-0.712-0.47-0.7-0.58c1.285-11.303,2.818-7.867-10.439-10.949c-5.942-2.506-12.169-4.38-17.458-8.299
		c-11.55-8.562-16.853-20.27-17.482-34.359c-0.07-1.56,0.034-1.564,1.464-1.771c9.996,19.859,25.797,30.643,48.324,30.938
		C62.09,110.763,63.616,110.507,64.733,111.771z"/>
	<path fill-rule="evenodd" fill="#6F7A7A" d="M64.733,111.771c-12.065,0.386-23.503-1.694-33.777-8.479
		C22.581,97.76,16.583,90.203,12.06,81.363c-0.308-0.603-0.334-1.138,0.294-1.558c8.555,7.646,18.189,13.32,29.372,16.227
		c1.305,0.34,2.577,0.553,3.909,0.48c3.846,1.182,7.803,1.104,11.729,0.816c5.152-0.377,5.384-0.438,6.657,4.632
		C64.822,105.15,66.092,108.39,64.733,111.771z"/>
	<path fill-rule="evenodd" fill="#EEF8FA" d="M224.996,357.106c-0.026,2.679,0.747,5.193,1.569,8.009
		c1.836-0.479,3.306-2.232,5.646-1.344c-0.77,0.875-1.516,1.658-2.188,2.499c-2.606,3.263-2.553,3.442,1.325,4.961
		c-0.028,1.227-1.325,0.77-1.967,1.553c5.26,2.51,9.393,6.232,12.114,11.389c0.354,0.67,1.966,1.733-0.498,2.024
		c-1.438,0.17-0.079,1.162,0.093,1.462c2.09,3.638,2.666,7.659,3.253,11.707c0.248,1.712-0.225,2.299-1.879,1.785
		c-4.045-1.258-8.289-1.336-12.413-2.126c-1.283-1.304-1.358-3.053-1.599-4.687c-0.517-3.498-1.618-6.762-3.404-9.755
		c-0.256,0.476,0.237,0.767,0.238,1.164c0.836,3.118,1.189,6.3,1.481,9.485c0.132,1.438-0.032,2.852-1.018,4.031
		c0.052,6.732,0.022,6.874-6.499,5.504c-5.786-1.215-11.599-1.944-17.499-2.061c-1.72-3.074-1.222-6.552-1.622-9.836
		c-0.351-2.884-0.73-5.733-1.522-8.52c-1.612-5.675-4.502-7.836-10.427-7.858c-0.84-0.003-1.82,0.205-2.307-0.634
		c-0.598-1.03,0.257-1.818,0.824-2.549c1.254-1.612,2.646-3.122,3.602-5.414c-2.074,0.072-3.803,0.838-5.599,1.148
		c-1.066,0.185-2.36,0.648-3.061-0.331c-0.902-1.262,0.336-2.242,1.073-3.108c7.943-9.336,12.556-20.195,14.865-32.479
		c-3.503,3.981-7.605,6.858-11.423,10.072c-5.161,2.835-9.957,6.278-15.118,9.104c-3.146,1.722-6.282,3.581-10.07,3.503
		c-17.596,5.79-35.234,5.229-52.903,0.36c-6.318-0.245-11.454-3.569-16.569-6.682c-8.399-5.109-15.946-11.283-21.829-19.29
		c-3.628-5.805-7.292-11.588-10.847-17.438c-0.567-0.934-1.883-2.177-0.888-3.176c1.013-1.017,2.159,0.346,3.184,0.868
		c0.413,0.21,0.8,0.469,1.753,1.035c-1.353-4.532-2.583-8.508-3.724-12.508c-2.644-9.277-3.957-18.822-5.215-28.343
		c-0.573-4.341,2.651,0.252,3.769-1.595c-1.509-6.034-3.307-12.478-4.317-19.106c-0.889-5.832-1.671-11.69-1.779-17.555
		c-0.237-12.791-0.579-25.616,0.7-38.367c1.907-19.015,5.308-37.692,14.223-54.914c3.184-6.149,7.004-11.842,12.234-16.464
		c1.955-1.729,1.267-2.469-0.879-2.859c-1.182-0.216-2.383-0.746-3.533-0.646c-4.232,0.366-3.888-1.36-2.307-4.241
		c4.143-7.551,9.354-14.312,14.949-20.802c2.727-3.163,5.539-6.252,8.521-9.61c-2.91-0.8-5.284,0.349-7.657,0.837
		c-4.716,0.97-9.373,2.233-14.045,3.409c-1.034,0.26-2.175,1.035-3.02-0.001c-0.811-0.993,0.079-2.132,0.463-3.057
		c3.426-8.256,6.995-16.459,11.319-24.287c5.254-9.513,11.107-18.635,18.667-26.539c0.502-0.523,1.016-1.04,1.567-1.509
		c0.546-0.465,1.178-1.044,1.917-0.735c0.85,0.355,0.505,1.268,0.479,1.922c-0.229,5.706,0.299,11.294,1.993,16.789
		c0.754,2.445,1.642,2.374,3.025,0.634c8.604-10.82,18.44-20.347,29.775-28.285c9.259-6.485,19.123-11.719,30.319-13.963
		c2.016-0.403,4.289-1.047,6.165,0.701c-1.161,5.16-2.428,10.287-2.476,15.646c-0.02,2.253,0.66,2.627,2.687,2.101
		c6.999-1.815,14.062-1.783,21.631-0.417c-6.198,6.181-10.081,13.022-8.285,22.327c12.33-9.871,25.846-12.157,40.878-8.383
		c-5.949,9.189-7.999,19.315-9.057,30.124c2.587-0.881,4.8-1.825,7.603-1.363c-6.674,7.659-10.892,16.403-13.193,26.087
		c-3.599,3.043-8.019,1.939-12.059,2.075c-5.679,0.192-6.304,0.271-7.388,5.832c-0.644,3.3-0.852,6.65-0.13,9.985
		c0.593,3.316,1.177,6.63,2.226,9.854c1.047,3.214,2.382,6.281,4.173,9.241c-0.829-1.703-1.012-3.436-0.814-5.217
		c0.125-1.122,0.462-2.286,1.572-2.671c3.24-1.124,6.485-2.446,10.044-1.461c0,7.578,0,15.157,0,23.375
		c2.915-2.686,5.41-5.261,9.542-5.144c-5.646,8.164-9.227,16.881-9.522,26.734c-0.44,7.001-0.068,14.01-0.207,21.014
		c-0.021,1.062,0.438,1.845,1.09,2.591c0.929,1.064,1.128,2.359,1.205,3.715c0.498,8.68,0.822,17.367,1.368,26.046
		c0.268,4.266,1.106,8.374,1.93,12.516c3.262,16.409,5.217,32.95,4.677,49.706c-0.24,7.491-1.267,14.917-2.455,22.326
		c-1.833,11.422-2.11,22.833,1.093,34.121c1.09,3.841,1.777,7.777,2.525,11.696C225.409,354.271,225.718,355.709,224.996,357.106z"
		/>
	<path fill-rule="evenodd" fill="#ACD8D7" d="M25.369,331.648c-1.383-4.603-1.47-9.405-2.083-14.118
		c-1.358-10.438-0.833-20.955-0.731-31.438c0.064-6.614,1.364-13.118,2.781-19.583c0.392-1.787,1.033-2.286,2.68-1.446
		c1.344,0.686,2.036-0.16,1.675-1.259c-2.668-8.132,1.426-15.365,3.218-22.783c2.885-11.941,6.996-23.55,11.758-34.898
		c0.454-1.081,1.093-2.084,1.722-3.268c1.142,0.922,0.791,1.958,0.735,2.795c-0.788,11.974-1.058,23.966-3.753,35.787
		c-2.186,9.591-2.977,19.438-3.549,29.287c-0.272,4.687-0.585,9.358-0.661,14.056c-0.182,11.354,1.834,22.496,2.902,33.731
		c0.387,4.075,0.734,8.362-0.646,12.445c-0.67-0.438-0.935-1.137-0.961-1.855c-0.245-6.592-3.145-12.281-6.246-18.386
		c1.85,6.464,3.326,12.553,4.26,18.763c0.216,1.435,0.363,2.865,0.217,4.314c-0.231,2.295-1.466,3.147-3.711,2.662
		C31.358,335.671,28.274,333.844,25.369,331.648z"/>
	<path fill-rule="evenodd" fill="#EEF8FA" d="M92.159,398.973c-4.561-0.172-9.122-0.344-13.683-0.517
		c-2.503,0.816-2.47-1.313-2.845-2.64c-0.75-2.655-1.118-5.428-2.659-7.814c0.476,3.777,1.56,7.575-0.334,11.283
		c0.306,3.713-1.518,5.239-5.097,4.96c-6.405-0.036-12.813-0.219-19.212-0.046c-3.186,0.086-3.761-1.235-3.138-3.922
		c0.27-1.163,0.559-2.382,0.481-3.553c-0.339-5.08,0.987-9.744,4.403-13.384c5.971-6.359,5.897-13.585,3.958-21.282
		c-0.117-0.464-0.225-0.936-0.277-1.411c-0.024-0.221,0.095-0.458,0.184-0.833c2.642,0.51,2.651,3.927,5.409,4.691
		c0-2.54,0-4.995,0-7.75c4.684,1.863,7.373,5.602,10.518,8.558c4.959,4.663,10.923,7.54,16.769,10.54
		c3.499,1.796,4.728,4.301,4.714,7.611C91.327,388.661,92.665,393.768,92.159,398.973z"/>
	<path fill-rule="evenodd" fill="#ACD8D7" d="M69.668,330.196c0.34,0.109,0.802,0.112,1.003,0.343
		c10.267,11.757,22.542,20.572,37.396,25.629c-1.593-0.241-1.899,1.037-2.417,2.054c-1.805,3.542-3.602,7.087-5.402,10.631
		c-2.438-6.275-6.874-11.193-11.304-16.021c-6.068-6.613-13.123-12.339-17.855-20.137C70.593,331.876,70.141,331.029,69.668,330.196
		z"/>
	<path fill-rule="evenodd" fill="#85BBC0" d="M25.369,331.648c2.888,1.173,5.738,2.452,8.673,3.491
		c3.53,1.251,3.986,0.969,3.647-2.911c-0.619-7.073-2.43-13.928-4.359-20.742c-0.318-1.123-1.013-2.165-0.646-4.464
		c5.402,7.688,9.037,15.05,8.732,23.934c-0.29,3.335-0.58,6.671-0.871,10.006c-3.583,0.59-6.383-0.781-8.66-3.462
		C29.715,335.548,26.892,334.322,25.369,331.648z"/>
	<path fill-rule="evenodd" fill="#ACD8D7" d="M31.886,337.5c2.887,1.155,5.774,2.31,8.661,3.464
		c-0.887,5.839-0.66,11.813-2.116,17.584c-0.961-0.241-2.076,0.074-2.863-0.793c-0.319-5.605-2.384-10.872-3.172-16.387
		C32.211,340.081,32.055,338.79,31.886,337.5z"/>
	<path fill-rule="evenodd" fill="#CDE9EE" d="M224.996,357.106c-3.712-14.602-7.464-29.246-5.74-44.49
		c0.834-7.384,2.393-14.667,3.067-22.112c0.637-7.015,0.712-14.014,0.319-20.957c-0.616-10.896-1.79-21.794-4.237-32.464
		c-2.332-10.169-2.502-20.476-3.022-30.816c-0.559-11.105-2.747-22.119-2.045-33.313c0.081-1.29-0.405-2.677,0.573-3.837
		c0.03,6.119,0.197,12.243,0.028,18.356c-0.074,2.726,0.607,4.551,2.829,6.348c4.547,3.676,8.91,7.618,12.506,12.299
		c-1.28,2.029-1.221,4.505-1.229,6.599c-0.035,9.515-0.785,19.044,0.396,28.559c0.429,3.453,0.259,7.002,0.121,10.498
		c-0.209,5.318,0.48,10.568,0.931,16.084c2.332-0.334,3.693-2.492,6.086-3.146c0.474,1.387,0.192,2.677-0.16,4.063
		c-1.894,7.465-3.552,14.992-5.621,22.407c-0.787,2.824-0.163,4.585,2.094,6.196c3.063,2.188,2.988,2.769-0.193,5.141
		c-2.409,1.796-5.18,3.401-4.46,7.132c0.128,0.665,0.546,1.274,0.823,1.892c1.579-0.214,2.17-2.209,4.176-1.673
		c-1.925,4.813-3.957,9.522-5.689,14.339c-1.378,3.833-2.807,7.688-3.041,11.837c-0.124,2.189,0.363,2.932,2.896,2.362
		c4.029-0.907,7.789-2.449,11.616-3.87c0.758-0.263,0.927,0.062,0.742,0.742c-2.231,2.227-4.732,4.181-7.754,5.032
		c-2.609,0.736-3.372,2.109-3.188,4.664c0.207,2.881,0.067,5.789,0.047,8.686c-0.009,1.265,0.008,2.469,1.636,2.732
		C228.113,357.346,226.504,356.903,224.996,357.106z"/>
	<path fill-rule="evenodd" fill="#555453" d="M213.892,124.151c-2.338,0.507-4.655,1.274-7.018,1.457
		c-3.226,0.248-4.043,1.869-3.55,4.74c0.323,1.88,0.525,3.781,0.533,5.736c-4.568-6.416-7.353-13.472-7.98-21.337
		c-1.054-2.99,0.426-4.016,3.151-4.003c4.251,0.02,8.46-0.48,12.601-1.325c15.032-3.063,25.977-11.764,33.669-24.813
		c0.863-1.465,1.723-2.911,2.887-4.156c1.196-2.055,1.434-0.779,1.409,0.465c-0.085,4.222-0.813,8.366-1.974,12.409
		c-4.14,14.408-13.606,23.737-27.6,28.686C217.979,122.731,215.935,123.438,213.892,124.151z"/>
	<path fill-rule="evenodd" fill="#6F7A7A" d="M248.185,80.45c-3.428,9.223-9.644,16.225-17.49,21.918
		c-9.323,6.765-19.943,9.304-31.258,9.335c-2.34,0.007-3.727,0.437-3.56,3.045c-1.453-5.201-0.506-10.218,1.093-15.211
		c0.58-1.813,1.659-2.385,3.511-2.226c5.29,0.455,10.561,0.173,15.787-0.799c10.911-2.141,20.263-7.446,28.901-14.212
		C246.098,81.573,246.832,80.497,248.185,80.45z"/>
	<path fill-rule="evenodd" fill="#CDE9EE" d="M185.8,342.52c2.8-2.441,5.624-4.855,8.389-7.337c1.496-1.343,2.911-2.779,4.297-4.364
		c-1.641,14.198-6.929,26.731-17.365,38.021c4.247-1.022,7.523-1.812,11.082-2.668c-1.163,3.848-3.566,6.509-6.738,9.907
		c5.021-1.485,8.579-0.833,11.468,2.585c2.74,3.243,3.523,7.232,3.908,11.088c0.43,4.287,1.351,8.592,0.914,12.957
		c-2.145,0.233-4.288,0.492-6.436,0.694c-2.353,0.222-4.798,0.591-4.483-3.128c0.141-1.66-1.27-1.11-2.076-1.122
		c-4.101-0.059-8.204-0.107-12.303,0.002c-1.732,0.046-2.562-0.232-2.664-2.259c-0.508-10.063-3.689-19.509-6.953-28.925
		c0.043-1.808,1.179-3.114,2.139-4.464C174.177,356.187,179.552,349.002,185.8,342.52z"/>
	<path fill-rule="evenodd" fill="#ACD8D7" d="M185.8,342.52c-1.669,4.215-5.316,6.962-7.851,10.543
		c-3.579,5.058-7.396,9.946-11.11,14.907c-1.956-4.053-3.912-8.107-5.869-12.161C169.975,352.739,177.393,346.704,185.8,342.52z"/>
	<path fill-rule="evenodd" fill="#CEE9EE" d="M225.752,399.265c0.248-4.955-1.053-9.75-1.513-14.632
		c-0.458-0.837-0.602-1.516,0.729-1.457c4.093,4.514,4.505,10.208,5.085,15.85C228.619,399.104,227.186,399.185,225.752,399.265z"/>
	<path fill-rule="evenodd" fill="#CEE9EE" d="M72.638,399.285c-0.229-4.63,0.518-9.353-1.293-13.952
		c3.279,1.856,4.059,5.069,4.883,8.314c0.437,1.717-0.115,3.971,2.249,4.809C76.622,399.378,74.577,398.952,72.638,399.285z"/>
	<path fill-rule="evenodd" fill="#D2EBF0" d="M238.762,335.281c-0.247-0.247-0.495-0.494-0.742-0.742
		c0.919-0.698,1.837-1.397,3.581-2.724C240.723,333.929,239.825,334.671,238.762,335.281z"/>
	<path fill-rule="evenodd" fill="#555453" d="M111.602,178.595c13.647,2.892,27.17,3.912,41.164,1.188
		c15.295-2.978,30.917-3.922,46.497-1.319c1.898,0.317,3.741,1.004,5.645,1.254c2.921,0.383,2.878,2.2,2.568,4.428
		c-0.414,2.968-2.464,1.695-3.853,1.44c-5.586-1.022-5.533-1.085-6.338,4.611c-0.658,4.663-1.385,9.318-2.162,13.963
		c-0.799,4.772-3.359,7.68-8.368,8.667c-11.6,2.286-23.137,3.298-34.835,0.6c-5.484-1.265-9.101-4.104-10.515-9.646
		c-0.804-3.152-1.899-6.231-2.666-9.391c-0.506-2.086-1.19-3.568-3.719-3.557c-2.449,0.012-3.255,1.296-3.797,3.464
		c-0.962,3.852-2.196,7.64-3.434,11.416c-1.216,3.71-3.756,5.909-7.592,7.029c-13.076,3.82-26.047,2.591-38.998-0.491
		c-3.062-0.729-4.968-2.816-5.769-5.899c-1.584-6.098-2.327-12.334-2.917-18.579c-0.24-2.541-1.171-3.427-3.621-2.708
		c-0.922,0.271-1.874,0.531-2.825,0.592c-1.366,0.087-3.276,1.3-3.545-1.425c-0.186-1.882-0.8-3.678,2.085-4.415
		c10.305-2.633,20.741-3.099,31.279-2.411c4.334,0.283,8.661,0.653,12.991,0.983C109.81,178.151,110.743,177.872,111.602,178.595z"
		/>
	<path fill-rule="evenodd" fill="#B4DDE5" d="M159.672,252.572c-0.007,3.969-2.03,7.113-4.19,10.193
		c-0.816,1.165-1.659,1.338-3.032,0.498c-3.129-1.916-5.929-4.206-8.25-6.988c-1.577-1.89-2.996-2.093-4.7-0.468
		c-3.114,2.974-7.096,5.144-8.956,9.288c-1.024,2.281-2.136,1.895-3.331,0.292c-2.518-3.376-5.833-6.17-7.725-9.979
		c-1.336-2.691-2.992-2.821-5.536-1.843c-4.328,1.664-4.642,1.49-6.279-2.867c-0.99-2.636-2.508-5.144-2.651-8.315
		c2.372,0.464,3.714,2.105,5.257,3.317c1.688,1.324,3.196,2.21,5.027,0.376c0.081-0.081,0.216-0.106,0.321-0.165
		c6.934-3.831,6.934-3.831,9.443,3.471c0.235,0.685,0.412,1.4,0.741,2.037c1.19,2.297,2.187,4.135,5.188,1.453
		c3.036-2.711,6.747-4.601,10.875-5.429c1.82-0.365,3.299-0.299,4.142,1.706c0.268,0.636,0.876,1.143,1.372,1.667
		c4.959,5.251,7.031,5.173,11.572-0.419C160.722,250.623,159.912,251.691,159.672,252.572z"/>
	<path fill-rule="evenodd" fill="#A2D1DE" d="M95.313,168.569c-0.129-6.061,3.104-10.34,7.681-11.053
		c5.987-0.933,8.904,0.67,10.796,6.437C106.838,161.754,100.56,162.07,95.313,168.569z"/>
	<path fill-rule="evenodd" fill="#A2D1DE" d="M93.099,153.268c-0.011-6.826,2.836-10.345,8.103-10.954
		c3.397-0.392,6.497,1.986,7.564,6.118C102.619,146.267,97.328,147.095,93.099,153.268z"/>
	<path fill-rule="evenodd" fill="#A3D2DE" d="M171.026,173.854c-3.429-4.187-7.708-4.623-12.318-3.854
		c-0.575,0.096-1.241,0.535-1.646-0.059c-0.476-0.697,0.042-1.348,0.451-1.961c1.628-2.442,4.028-2.754,6.686-2.548
		c2.96,0.229,4.893,1.925,6.168,4.38C170.888,170.819,171.44,171.987,171.026,173.854z"/>
	<path fill-rule="evenodd" fill="#A4D2DE" d="M174.315,162.811c-2.102-5.291-5.549-7.159-10.303-6.823
		c1.497-3.113,3.541-4.012,6.492-2.982C174.413,154.368,175.474,156.726,174.315,162.811z"/>
	<path fill-rule="evenodd" fill="#5C5C5B" d="M153.899,226.519c2.466-0.795,6.008,1.622,7.292-2.675
		c1.94,3.661,0.378,4.824-2.985,4.782c-0.53-1.219-1.599-1.094-2.659-1.155C154.918,227.434,153.737,228.037,153.899,226.519z"/>
	<path fill-rule="evenodd" fill="#7A7C7C" d="M153.899,226.519c0.931,1.07,2.183,0.601,3.295,0.62
		c1.191,0.021,1.448,0.464,1.012,1.487c-1.702,2.149-1.961-1.206-3.626-0.923c-2.879,0.49-5.976,0.503-8.904-0.431
		c2.122-1.167,4.507,0.056,6.672-0.733C152.865,226.532,153.383,226.526,153.899,226.519z"/>
	<path fill-rule="evenodd" fill="#676665" d="M152.348,226.539c-2.095,1.424-4.491,0.101-6.672,0.733
		c-1.593-0.067-3.186-0.135-4.778-0.201c0.134-1.813,1.319-0.756,2.11-0.775C146.121,226.378,149.234,226.458,152.348,226.539z"/>
	<path fill-rule="evenodd" fill="#B0B5B7" d="M143.008,226.296c-0.69,0.293-1.589,0.021-2.11,0.775
		c-1.384,0.273-2.546-0.256-4.216-1.248C139.186,225.78,141.124,225.376,143.008,226.296z"/>
	<path fill-rule="evenodd" fill="#BEE1E9" d="M159.672,252.572c-0.048-0.788,0.097-1.638-0.712-2.176
		c0.271-0.514,0.541-1.028,1.172-2.228C160.417,250.157,160.733,251.399,159.672,252.572z"/>
	<path fill-rule="evenodd" fill="#FEFEFF" d="M111.602,178.595c-0.907-0.068-1.815-0.137-2.723-0.205
		c1.366-0.983,2.829-0.604,4.33-0.046C112.674,178.428,112.138,178.511,111.602,178.595z"/>
	<path fill-rule="evenodd" fill="#D2ECF0" d="M224.968,383.176c-0.562,0.325-0.703,0.862-0.729,1.457
		c-0.755-0.603-1.064-1.523-0.478-2.173C224.299,381.865,224.68,382.703,224.968,383.176z"/>
	<path fill-rule="evenodd" fill="#EEF8F9" d="M119.76,185.222c1.176,0.249,2.373,0.423,3.521,0.764
		c2.208,0.656,3.562,1.905,3.046,4.501c-0.516,2.602-0.764,5.259-1.343,7.844c-1.931,8.61-3.572,10.243-12.183,11.189
		c-9.281,1.02-18.534,0.828-27.729-1.211c-3.706-0.822-5.626-2.641-6.006-6.476c-0.439-4.44-1.207-8.851-1.921-13.26
		c-0.431-2.657,0.663-4.473,3.187-4.762c7.299-0.838,14.609-1.927,21.993-0.911c0.278,3.359-1.535,6.418-1.39,9.755
		c-0.401,1.32-0.681,2.646-0.095,3.992c0.388,2.277,1.114,4.398,2.531,6.281c4.522,6.014,11.685,5.447,15.15-1.248
		c0.494-0.955,0.821-1.998,1.18-3.018c0.763-1.46,0.396-2.955,0.137-4.447C120.373,191.212,119.753,188.22,119.76,185.222z"/>
	<path fill-rule="evenodd" fill="#EEF8F9" d="M168.984,182.834c7.11-0.804,14.144,0.131,21.148,1.116
		c1.931,0.271,3.046,1.85,2.718,4.049c-0.767,5.126-1.517,10.254-2.263,15.383c-0.378,2.6-1.927,3.891-4.439,4.531
		c-11.065,2.819-22.186,2.771-33.363,0.888c-3.644-0.613-5.612-3.097-6.767-6.332c-1.26-3.534-1.646-7.27-2.332-10.938
		c-0.645-3.45,0.688-5.285,4.078-5.801c1.541-0.234,3.074-0.515,4.612-0.773c1.236,3.13,0.386,6.409,0.699,9.603
		c-1.143,4.435,1.786,10.113,6.204,12.007c3.56,1.526,7.698-0.16,10.396-4.197c0.742-1.109,1.294-2.287,1.592-3.585
		c0.641-1.308,0.3-2.637,0.083-3.965C171.871,190.564,171.896,186.41,168.984,182.834z"/>
	<path fill-rule="evenodd" fill="#FEFEFE" d="M168.984,182.834c3.658,0.317,2.937,3.606,3.59,5.716
		c0.66,2.132,0.136,4.486-0.578,6.672c0.739,0.918-0.069,1.787-0.086,2.682c-1.312,4.479-4.604,6.812-8.941,7.318
		c-4.053,0.475-7.104-1.762-9.418-4.991c-1.077-1.504-1.745-3.104-1.164-4.996c-0.543-3.426-1.011-6.852-0.011-10.278
		C157.826,183.573,163.35,182.771,168.984,182.834z"/>
	<path fill-rule="evenodd" fill="#FEFEFE" d="M100.148,193.037c-0.283-3.596,0.27-7.012,2.177-10.137
		c5.914,0.004,11.678,1.135,17.435,2.321c2.083,2.953,1.613,6.105,0.72,9.289c0.777,1.098,0.055,2.168-0.059,3.25
		c-1.976,7.024-10.076,9.714-16.018,5.313c-2.533-1.877-3.368-4.591-4.187-7.374C100.21,194.813,99.403,193.944,100.148,193.037z"/>
	<path fill-rule="evenodd" fill="#CEEAEF" d="M100.85,195.243c0.673,2.884,1.777,5.542,4.387,7.204
		c5.801,3.694,11.501,1.696,14.532-5.028c1.321-0.059,1.156,0.615,0.704,1.43c-0.549,2.77-1.663,5.288-3.972,6.98
		c-2.775,2.035-5.786,3.482-9.291,1.627c-4.331-2.293-6.879-5.771-7.071-10.785C99.694,195.856,99.523,195.177,100.85,195.243z"/>
	<path fill-rule="evenodd" fill="#D9EFF3" d="M120.473,198.849c-0.027-0.579-0.149-1.111-0.704-1.43
		c0.237-0.97,0.474-1.939,0.711-2.908C121.571,195.959,121.539,197.404,120.473,198.849z"/>
	<path fill-rule="evenodd" fill="#DEF1F4" d="M100.85,195.243c-0.558,0.316-0.679,0.85-0.711,1.428
		c-1.039-1.214-1.06-2.425,0.01-3.634C100.383,193.772,100.616,194.508,100.85,195.243z"/>
	<path fill-rule="evenodd" fill="#CEEAEF" d="M152.387,195.234c0.47,3.334,2.447,5.786,5.083,7.525
		c5.134,3.388,10.945,1.046,13.832-5.337c1.321-0.056,1.145,0.62,0.696,1.427c-1.022,5.602-6.205,10.028-11,9.396
		c-4.833-0.638-10.017-7.468-9.476-12.549C151.542,195.515,152.087,195.387,152.387,195.234z"/>
	<path fill-rule="evenodd" fill="#D8EEF2" d="M171.998,198.85c-0.026-0.576-0.146-1.107-0.696-1.427
		c0.231-0.734,0.463-1.468,0.694-2.201C173.073,196.431,173.038,197.64,171.998,198.85z"/>
	<path fill-rule="evenodd" fill="#4A4A49" d="M158.729,184.519c2.1,4.737,2.877,4.978,6.289,2.135
		c1.675,3.698,1.121,7.132-1.573,8.822c-2.284,1.432-4.334,0.871-6.046-1.13C155.598,192.239,155.098,187.094,158.729,184.519z"/>
	<path fill-rule="evenodd" fill="#494949" d="M109.28,184.548c1.657,4.67,2.669,5.019,6.008,2.073
		c1.796,3.535,1.271,7.275-1.393,8.865c-2.271,1.356-4.402,0.965-6.082-1.116C105.503,191.508,106.157,187.306,109.28,184.548z"/>
</g>
</svg>
