<?xml version="1.0" encoding="utf-8"?>
<!-- Generator: Adobe Illustrator 16.0.0, SVG Export Plug-In . SVG Version: 6.00 Build 0)  -->
<!DOCTYPE svg PUBLIC "-//W3C//DTD SVG 1.1//EN" "http://www.w3.org/Graphics/SVG/1.1/DTD/svg11.dtd">
<svg version="1.1" id="Layer_1" xmlns="http://www.w3.org/2000/svg" xmlns:xlink="http://www.w3.org/1999/xlink" x="0px" y="0px"
	 width="600px" height="600px" viewBox="0 0 600 600" enable-background="new 0 0 600 600" xml:space="preserve">
<g>
	<path fill-rule="evenodd" clip-rule="evenodd" d="M227.719,521.728c0,19.196,0.421,37.68-0.158,56.132
		c-0.347,11.05-9.709,16.683-20.691,13.185c-27.565-8.78-53.069-21.833-76.57-38.601c-58.433-41.689-97.46-97.147-116.666-166.363
		c-7.55-27.209-11.216-55.074-10.372-83.26c2.126-70.972,25.314-134.213,71.771-188.296
		c45.666-53.165,103.081-86.304,171.986-99.589c23.324-4.497,46.875-6.101,70.44-4.697c68.893,4.104,129.715,28.563,181.633,74.352
		c47.813,42.167,78.672,94.56,93.532,156.43c6.809,28.349,9.037,57.256,7.038,86.219c-4.614,66.868-28.69,126.137-72.688,176.834
		c-34.809,40.109-77.571,68.86-127.809,86.303c-11.384,3.952-20.094,0.411-22.614-9.025c-0.546-2.043-0.509-4.279-0.509-6.427
		c0.003-26.996,0.086-53.993,0.072-80.989c-0.01-19.864-4.698-38.135-18.93-53.313c11.465-2.212,22.672-3.988,33.688-6.575
		c27.898-6.55,52.91-18.396,71.687-40.964c12.896-15.5,20.639-33.455,24.88-53.043c5.117-23.631,6.814-47.433,2.579-71.342
		c-3.518-19.856-12.183-37.44-25.436-52.665c-2.088-2.398-2.569-4.394-1.587-7.538c7.619-24.385,5.362-48.432-3.308-72.072
		c-0.577-1.574-3.261-3.249-5.061-3.363c-14.507-0.917-27.942,3.586-40.66,9.788c-11.761,5.735-22.894,12.75-34.416,18.993
		c-1.784,0.967-4.346,1.553-6.248,1.088c-31.564-7.719-63.53-11.121-95.894-7.749c-15.266,1.591-30.373,4.836-45.482,7.703
		c-3.521,0.668-6.121,0.39-9.146-1.599c-17.8-11.701-36.271-22.133-57.358-26.705c-5.467-1.186-11.205-1.102-16.813-1.657
		c-2.821-0.279-4.102,1.081-5.014,3.662c-8.515,24.087-10.844,48.358-2.827,73.102c0.468,1.443-0.09,3.858-1.092,5.043
		c-22.991,27.202-31.017,58.683-28.071,93.765c1.734,20.66,5.1,40.783,13.773,59.74c14.974,32.723,41.207,52.346,74.806,62.535
		c14.842,4.502,30.283,7.028,45.56,10.476c-1.172,1.361-3.032,3.301-4.641,5.431c-6.528,8.649-10.047,18.563-12.262,29.068
		c-0.394,1.869-1.495,4.483-2.962,5.095c-15.787,6.579-31.983,9.596-48.895,4.456c-15.125-4.598-25.849-14.581-33.91-27.74
		c-8.194-13.376-18.404-24.691-33.582-29.837c-6.241-2.116-13.263-2.354-19.951-2.506c-2.429-0.055-5.742,2.126-7.055,4.267
		c-0.724,1.182,1.5,4.685,3.054,6.611c1.74,2.158,4.022,4.054,6.416,5.483c16.821,10.044,26.698,25.56,33.951,43.054
		c9.648,23.271,27.951,35.154,51.836,39.323C193.942,526.775,210.172,525.447,227.719,521.728z"/>
	<path fill-rule="evenodd" clip-rule="evenodd" d="M220.135,488.062c2.488,2.761,3.947,4.381,5.406,6.001
		c-2.295,1.607-4.428,4.01-6.946,4.522c-1.508,0.308-3.618-2.342-5.457-3.662C215.159,492.941,217.18,490.959,220.135,488.062z"/>
	<path fill-rule="evenodd" clip-rule="evenodd" d="M196.274,503.017c-2.53-2.379-5.829-4.105-5.771-5.712
		c0.121-3.381,3.449-4.991,6.629-4.097c2.135,0.601,3.838,2.738,5.733,4.188C200.896,499.075,198.927,500.755,196.274,503.017z"/>
	<path fill-rule="evenodd" clip-rule="evenodd" d="M156.958,484.095c-0.769,0.568-2.039,2.198-3.56,2.481
		c-2.766,0.516-7.71-4.274-7.111-6.979c0.304-1.374,2.322-3.118,3.771-3.336C153.207,475.787,156.815,479.577,156.958,484.095z"/>
	<path fill-rule="evenodd" clip-rule="evenodd" d="M173.197,499.779c-2.856-2.986-4.944-5.17-7.033-7.353
		c1.607-1.126,3.12-3.004,4.842-3.221c3.616-0.453,6.83,1.306,7.296,5.096C178.458,495.579,175.691,497.215,173.197,499.779z"/>
	<path fill-rule="evenodd" clip-rule="evenodd" d="M141.265,466.696c-0.638,0.532-1.813,2.338-2.975,2.328
		c-3.756-0.031-5.593-2.855-5.872-6.175c-0.099-1.166,1.893-3.582,2.923-3.578C139.049,459.284,140.756,461.897,141.265,466.696z"/>
	<path fill-rule="evenodd" clip-rule="evenodd" d="M130.84,448.945c-2.484,1.817-4.133,3.362-4.391,3.157
		c-1.992-1.583-3.764-3.464-5.396-5.426c-0.095-0.113,2.086-2.667,2.418-2.501C125.68,445.275,127.673,446.809,130.84,448.945z"/>
	<path fill-rule="evenodd" clip-rule="evenodd" d="M107.284,436.781c3.892-4.911,6.276-3.15,8.2-1.047
		c0.501,0.548-0.455,2.429-0.742,3.698C112.448,438.617,110.153,437.801,107.284,436.781z"/>
</g>
</svg>
