<?xml version="1.0" encoding="utf-8"?>
<!-- Generator: Adobe Illustrator 16.0.0, SVG Export Plug-In . SVG Version: 6.00 Build 0)  -->
<!DOCTYPE svg PUBLIC "-//W3C//DTD SVG 1.1 Tiny//EN" "http://www.w3.org/Graphics/SVG/1.1/DTD/svg11-tiny.dtd">
<svg version="1.1" baseProfile="tiny" id="Layer_1" xmlns="http://www.w3.org/2000/svg" xmlns:xlink="http://www.w3.org/1999/xlink"
	 x="0px" y="0px" width="478.163px" height="641.664px" viewBox="0 0 478.163 641.664" overflow="scroll" xml:space="preserve">
<g>
	<path fill-rule="evenodd" fill="#483217" d="M406.732,451.976c14.23-13.421,24.342-28.06,28.947-46.229
		c0.517-2.046,0.148-5.183,2.2-5.902c2.69-0.944,4.025,2.204,5.581,3.856c12.81,13.613,19.231,30.352,20.918,48.484
		c1.925,20.684-0.253,40.987-9.713,60.187c-9.668,19.625-25.546,31.849-44.971,40.224c-3.698,1.596-6.38,3.67-8.189,7.219
		c-11.579,22.711-28.047,42.35-52.463,49.04c-27.224,7.461-49.89,25.71-77.936,29.898c-38.933,5.813-76.758,4.688-110.192-20.015
		c-2.896-2.14-6.306-2.088-9.447-2.654c-33.78-6.094-57.832-25.188-73.978-54.905c-2.212-4.072-4.882-6.885-9.329-8.772
		c-36.42-15.47-53.148-44.028-54.649-82.736c-0.728-18.782,2.381-36.521,11.739-53.061c3.097-5.475,6.783-10.292,11.174-14.741
		c3.419-3.465,4.572-2.822,5.621,1.748c4.341,18.936,14.538,34.401,28.941,47.861c3.647-7.301,2.845-14.994,3.455-22.164
		c1.762-20.724,3.021-41.609,1.419-62.353C74.673,351.568,64.676,341.652,50.976,335c-12.946-6.285-25.244-13.62-36.186-23.245
		c-18.979-16.695-21.823-48.896,4.115-66.094c8.945-5.932,11.355-14.087,11.963-23.664c0.127-1.988-0.04-3.995,0.075-5.984
		c0.774-13.382-0.099-25.859-8.733-37.606c-7.093-9.651-10.365-21.782-8.065-34.097c3.174-16.994,15.204-25.133,31.098-28.772
		c3.975-0.909,9.703,0.33,11.515-3.197c2.406-4.684,2.5-10.542,2.639-16.119c0.397-15.985-10.352-23.417-22.358-29.886
		c-8.269-4.454-17.306-6.873-26.561-7.92c-5.554-0.628-4.48-2.01-1.93-5.375c12.21-16.112,29.058-24.47,48.287-27.889
		c34.56-6.144,63.52,5.701,88.192,29.546c5.879,5.682,11.947,11.212,16.795,17.917c1.908,2.638,4.229,5.301,8.336,3.771
		c3.674-1.368,2.806-4.452,3.157-7.238c2.634-20.914,11.496-38.354,28.802-50.992c1.596-1.166,3.399-2.77,5.384-1.964
		c2.656,1.077,1.688,3.868,1.614,5.91c-0.294,8.142,1.165,15.866,4.894,23.12c0.671,1.305,1.164,3.225,3.126,2.878
		c1.715-0.305,1.161-2.106,1.445-3.314c5.469-23.319,21.882-35.952,42.947-44.108c5.392-2.088,4.219,1.052,3.571,4.112
		c-2.525,11.939-2.045,23.65,2.03,35.29c1.546,4.415,2.707,4.415,6.18,1.698c8.192-6.408,16.697-12.452,27.214-14.634
		c1.081-0.225,2.142-0.678,3.225-0.726c1.953-0.085,4.319-0.831,5.7,0.823c1.56,1.868-0.279,3.743-1.07,5.48
		c-4.884,10.732-9.34,21.57-8.72,33.716c0.173,3.37-1.107,7.346,3.734,8.828c5.072,1.552,9.564,2.397,13.518-2.888
		c8.938-11.953,20.066-21.729,31.932-30.73c31.66-24.018,78.717-24.036,110.366,0.089c0.703,0.536,1.359,1.142,1.991,1.761
		c4.094,4.01,10.313,8.119,9.999,13.21c-0.189,3.106-8.84,2.411-13.643,3.583c-8.512,2.077-16.345,5.623-23.69,10.152
		c-12.748,7.86-17.021,19.192-14.292,35.437c0.874,5.205,2.306,8.336,8.661,9.046c11.373,1.27,22.174,4.984,29.454,14.741
		c9.723,13.029,8.242,26.971,2.486,40.984c-1.676,4.082-3.417,8.371-6.151,11.735c-5.681,6.994-7.663,14.673-6.762,23.447
		c0.337,3.291,0.229,6.655,0.037,9.97c-0.797,13.733,3.076,24.92,15.374,32.804c19.135,12.266,20.905,43.192,3.286,60.635
		c-11.218,11.106-24.665,18.646-38.469,25.714c-9.919,5.079-18.451,11.313-22.576,22.265c-1.576,4.186-2.785,8.284-2.874,12.839
		c-0.464,24.14,0.771,48.205,2.849,72.238C405.131,445.134,405.942,447.922,406.732,451.976z M342.005,591.616
		c1.311,0.916,2.52,0.258,3.665-0.322c13.319-6.745,24.555-15.866,32.548-28.663l0.138-0.436l-0.027,0.522
		c-5.975-1.146-11.673,1.532-17.576,1.27c-3.333-0.148-5.214,1.427-6.432,4.446c-3.286,8.157-7.763,15.708-12.192,23.277
		C342.086,591.68,342.046,591.648,342.005,591.616z M99.95,562.695l-0.061-0.522l0.158,0.448
		c7.405,12.076,17.933,20.749,30.192,27.463c1.774,0.972,3.554,2.81,5.986,1.552c-0.033,0.024-0.065,0.049-0.098,0.075
		c-4.414-7.573-8.811-15.154-12.234-23.251c-0.85-2.012-1.672-4.311-4.405-4.26C112.919,564.325,106.57,561.7,99.95,562.695z
		 M168.067,401.702c1.136-0.601,1.286-1.665,1.312-2.788c2.624-5.201,5.248-10.402,8.417-16.687c1.581,4.06,0.834,6.832,0.344,9.517
		c-5.661,30.963-13.834,61.254-24.8,90.759c-1.898,5.108-2.079,6.946,4.673,6.813c54.055-1.064,108.122-1.054,162.177-0.007
		c6.588,0.128,6.718-1.485,4.752-6.76c-11.694-31.373-20.086-63.651-25.961-96.601c-0.192-1.078-0.963-2.167,0.364-2.78
		c1.279-0.592,2.052,0.49,2.544,1.478c2.362,4.74,4.665,9.511,6.988,14.271c0.026,1.123,0.18,2.185,1.318,2.781l-0.051-0.068
		c7.392,18.914,14.83,37.807,22.159,56.745c5.265,13.602,5.199,13.634,19.416,12.536c1.758-0.137,3.507-0.389,5.26-0.588
		c5.926-0.562,11.835-1.214,17.516-3.144c13.613-2.5,13.78-2.989,12.652-15.112c-2.566-27.594-4.58-55.261-3.411-82.975
		c0.869-20.617,9.691-36.948,28.794-46.809c8.454-4.363,16.656-9.243,24.788-14.192c5.705-3.471,10.799-7.805,14.592-13.408
		c9.052-13.373,4.392-31.913-9.468-37.448c0.028,4.238,1.738,8.297,1.014,12.527l-0.118,0.103c-2.879-1.673-3.704-4.804-5.019-7.474
		c-9.172-18.619-13.563-38.375-13.655-59.108c1.495-11.763,1.857-23.729,6.239-36.075c1.625,4.489,0.159,8.62,2.472,12.553
		c5.728-6.943,9.493-14.086,11.716-22.04c3.401-12.184-1.32-20.524-13.52-23.572c-11.224-2.805-22.419-1.335-33.6,0.615
		c-30.677,5.352-56.725,20.652-81.771,38.058c-8.457,5.876-16.684,12.083-26.453,19.184c3.815-9.271,9.707-15.046,13.973-21.846
		c0.612-0.785,1.224-1.57,1.835-2.354l0.064,0.046c2.776-2.813,5.555-5.625,8.329-8.44c13.216-13.409,28.254-24.323,45.927-32.671
		c-9.724-10.205-20.983-16.366-33.244-20.969l-0.015,0.089c-0.544-0.318-1.089-0.636-1.632-0.953
		c-2.202-0.997-4.362-2.103-6.613-2.976c-33.08-12.826-67.515-15.409-102.443-12.616c-21.643,1.73-42.816,6.199-62.656,15.594
		c-0.545,0.319-1.09,0.638-1.635,0.957l-0.014-0.093c-12.305,4.697-23.756,10.684-32.915,20.968
		c4.41,2.369,8.118,4.303,11.771,6.335c16.184,9.005,29.459,21.544,42.159,34.776l0.061-0.03c0.613,0.778,1.227,1.556,1.841,2.334
		c4.277,6.793,10.138,12.588,13.994,21.869c-9.796-7.122-18.022-13.331-26.479-19.208c-25.045-17.407-51.095-32.7-81.771-38.054
		c-11.181-1.951-22.368-3.384-33.601-0.619c-8.751,2.152-14.069,7.292-14.432,14.401c-0.623,12.208,5.617,21.636,12.521,31.491
		c2.438-4.361,0.78-8.359,2.701-12.486c4.255,12.005,4.636,23.968,6.116,35.733c-0.067,9.238-0.676,18.447-2.836,27.441
		c-3.319,13.816-6.704,27.653-15.846,39.132l-0.09-0.078c-0.964-4.287,1.313-8.472,0.783-13.403
		c-6.687,4.343-11.258,9.209-12.976,16.696c-3.115,13.581,2.856,23.176,12.9,31.141c9.436,7.482,20.19,12.842,30.762,18.401
		c18.563,9.763,27.204,25.757,28.196,45.803c1.361,27.489-1.037,54.924-3.087,82.336c-1.066,14.243-3.95,12.53,12.367,16.428
		c5.68,1.929,11.588,2.581,17.512,3.142c4.834,0.49,9.677,0.909,14.499,1.5c3.083,0.379,4.945-0.684,6.11-3.657
		c8.691-22.199,17.477-44.36,26.233-66.531L168.067,401.702z M110.693,522.644c1.27-13.546,13.056-21.317,18.787-32.783
		c-53.889-3.61-81.126-25.113-92.233-53.596c-1.927-1.852-2.399-1.823-3.267,0.786c-3.708,11.143-3.559,22.669-3.04,34.181
		c1.851,41.072,38.221,74.498,78.969,72.809c2.892-0.119,4.143-0.604,3.125-3.719C111.159,534.587,110.751,528.632,110.693,522.644z
		 M367.569,522.643c-0.001,5.55-0.204,11.157-1.98,16.397c-1.558,4.598,0.016,5.287,4.102,4.936
		c21.315-1.831,40.721-8.418,56.42-23.449c20.947-20.055,23.025-45.724,20.573-72.511c-0.38-4.146-1.168-8.3-2.979-12.175
		c-1.575-3.371-2.168-1.927-2.699,0.443c-17.408,40.327-52.926,49.994-92.404,53.85
		C355.123,501.327,366.051,509.317,367.569,522.643z M336.932,563.916c1.042-0.576,1.379-1.521,1.385-2.64
		c3.58-5.659,5.596-12.008,7.706-18.264c8.323-24.677-0.314-37.409-26.474-37.586c-53.61-0.363-107.226-0.131-160.839-0.082
		c-6.477,0.006-12.765,1.334-18.679,4.042c-7.126,3.263-10.904,8.798-10.828,16.747c0.122,12.766,5.209,24.024,10.741,35.143
		c0.003,1.119,0.351,2.057,1.383,2.634l-0.011-0.02c9.676,21.854,25.004,38.49,46.376,49.214
		c23.922,12.001,49.45,13.677,75.224,9.041c34.703-6.242,59.311-26.178,74.028-58.252L336.932,563.916z M42.259,48.535
		c6.504,2.258,9.775,6.884,15.518,6.235c27.64-3.117,48.377,9.081,65.085,29.779c6.9,8.547,6.599,8.503,16.541,3.479
		c3.582-1.81,3.254-3.162,1.21-5.816c-6.098-7.918-12.573-15.445-20.187-21.98C97.427,40.494,71.746,38.094,42.259,48.535z
		 M435.08,48.43c-15.984-6.256-31.415-7.945-47.328-4.07c-22.519,5.483-37.286,21.144-50.674,38.632
		c-1.934,2.526-1.223,3.799,1.506,4.806c1.858,0.687,3.77,1.478,5.336,2.65c4.128,3.096,6.158,1.894,9.115-2.269
		c15.362-21.621,35.46-35.375,63.12-33.573C423.576,55.09,428.691,52.231,435.08,48.43z M407.63,69.925
		c-1.889-1.405-3.4-0.872-4.872-0.6c-13.814,2.555-23.427,10.547-29.928,22.799c-6.25,11.781-6.354,11.717,2.381,21.135
		c1.199,1.294,2.335,2.653,3.42,4.045c0.993,1.272,1.978,2.061,3.838,1.97c11.674-0.568,15.628-4.479,17.132-16.55
		C401.005,91.441,400.396,79.664,407.63,69.925z M69.897,68.966c6.425,8.696,7.156,17.891,8.026,27.141
		c0.512,5.443,0.728,11.035,3.163,16.158c2.015,4.238,14.366,8.538,17.656,6.082c12.625-9.424,13.633-14.188,5.631-27.854
		c-1.776-3.033-3.698-6.072-6.046-8.661C91.086,73.848,82.048,69.556,69.897,68.966z"/>
	<path fill-rule="evenodd" fill="#FAA91B" d="M121.277,470.321c-5.924-0.561-11.832-1.213-17.511-3.14
		c0.888-9.984,4.677-19.272,7.006-28.909c3.904-16.152,5.417-32.628,6.329-49.094c0.842-15.186,0.179-30.455,0.179-47.271
		c-3.95,7.364-4.261,14.369-8.951,21.124c-0.313-7.739-0.478-13.877-1.521-19.995c-2.93-17.182-10.96-30.007-28.273-35.893
		c-10.278-3.494-20.051-8.21-29.118-14.259c-10.313-6.881-10.268-6.877-3.61-16.917c6.691-10.091,8.546-21.72,9.746-33.344
		c1.357-13.148,1.424-26.365-1.961-39.341c-1.479-11.766-1.861-23.729-6.116-35.733c-1.921,4.127-0.263,8.125-2.701,12.486
		c-6.904-9.855-13.144-19.283-12.521-31.491c0.363-7.109,5.681-12.249,14.432-14.401c11.233-2.765,22.42-1.332,33.601,0.619
		c30.676,5.354,56.727,20.646,81.771,38.054c8.457,5.877,16.683,12.086,26.479,19.208c-3.856-9.281-9.717-15.076-13.994-21.869
		c-0.059-1.217-0.308-2.281-1.841-2.334c0,0-0.061,0.03-0.058,0.027c0.062-7.284-4.599-12.651-7.546-18.729
		c-6.676-13.762-18.664-25.894-13.473-43.348c0,0,0.014,0.093,0.016,0.093c0.545-0.318,1.09-0.638,1.634-0.957
		c19.839-9.395,41.013-13.863,62.656-15.594c34.929-2.793,69.363-0.21,102.443,12.616c2.251,0.873,4.411,1.979,6.612,2.976
		c0.544,0.317,1.089,0.635,1.633,0.953c0,0,0.015-0.089,0.014-0.087c1.36,9.276,1.915,18.214-4.021,26.632
		c-4.433,6.285-7.901,13.289-11.413,20.169c-2.464,4.824-5.95,9.378-5.577,15.277c0,0-0.064-0.046-0.066-0.048
		c-1.536,0.068-1.778,1.14-1.833,2.356c-4.266,6.8-10.157,12.575-13.973,21.846c9.77-7.101,17.996-13.308,26.453-19.184
		c25.046-17.405,51.094-32.706,81.771-38.058c11.181-1.95,22.376-3.42,33.6-0.615c12.199,3.048,16.921,11.389,13.52,23.572
		c-2.223,7.954-5.988,15.097-11.716,22.04c-2.313-3.933-0.847-8.063-2.472-12.553c-4.382,12.346-4.744,24.313-6.239,36.075
		c-0.328,0.57-0.877,1.11-0.956,1.714c-2.012,15.173-2.695,30.394-0.048,45.529c1.675,9.575,3.884,19.118,9.854,27.187
		c5.484,7.409,5.332,8.108-2.308,13.553c-10.745,7.656-22.782,12.676-34.974,17.38c-11.096,4.282-17.946,12.353-21.832,23.408
		c-3.364,9.573-4.472,19.483-5.919,29.808c-2.221-6.234-4.441-12.468-6.662-18.701c-0.988,29.149-1.446,58.002,4.009,86.643
		c2.399,12.602,7.249,24.585,8.666,37.377c-5.681,1.93-11.59,2.582-17.516,3.144c-14.573-22.104-29.134-44.221-43.768-66.285
		c-0.682-1.027-2.03-1.615-3.067-2.408c0,0,0.051,0.068,0.051,0.066c0.13-1.195-0.251-2.15-1.318-2.779
		c-2.323-4.76-4.626-9.53-6.988-14.271c-0.492-0.987-1.265-2.069-2.544-1.478c-1.327,0.613-0.557,1.702-0.364,2.78
		c5.875,32.949,14.267,65.228,25.961,96.601c1.966,5.274,1.836,6.888-4.752,6.76c-54.056-1.047-108.122-1.058-162.177,0.007
		c-6.751,0.133-6.571-1.705-4.673-6.813c10.966-29.505,19.139-59.796,24.8-90.759c0.49-2.685,1.237-5.457-0.344-9.517
		c-3.169,6.284-5.794,11.485-8.417,16.687c-1.07,0.632-1.445,1.591-1.312,2.788c0,0,0.052-0.069,0.051-0.069
		c-5.233,2.86-6.753,8.552-9.785,13.047C145.873,433.152,133.611,451.762,121.277,470.321z M269,215.304
		c3.863-2.383,7.271-5.149,8.826-9.773c-26.058,8.499-51.616,8.502-77.754-0.075c2.108,4.117,4.616,7.3,7.868,9.921
		c4.337,5.389,9.727,9.588,15.479,13.292C238.79,238.564,260.506,232.146,269,215.304z M391.333,252.185
		c0.385-2.916-0.469-6.128,1.976-9.015c2.572,5.062,2.685,10.358,4.3,16.036c4.622-6.402,6.23-12.91,6.401-19.823
		c0.177-7.129-2.529-13.198-7.583-17.897c4.263-3.43,10.101-2.073,13.655-6.137c-17.111-10.661-36.142-9.763-54.589-6.997
		c-22.9,3.434-40.91,15.722-52.761,36.258c-7.078,12.264-16.917,21.361-31.015,25.059c-3.23,1.009-5.646-1.979-8.692-1.856
		c-0.894,1.562-0.47,3.073-0.045,4.544c3.083,10.679,10.83,16.14,21.1,18.684c2.238,0.555,4.807-0.048,5.001,3.708
		c0.73,14.067,7.93,25.355,16.074,36.182c6.173,6.78,13.819,11.19,22.654,14.412c0.006-3.459-2.236-5.567-3.132-8.188
		c-0.998-2.925-2.17-5.799-3.015-8.767c-3.104-10.897-3.065-10.846,7.59-10.683C367.814,318.291,389.344,289.99,391.333,252.185z
		 M68.172,215.352c3.56,4.112,9.65,2.672,13.561,6.079c-9.694,11.371-10.021,27.383-0.66,37.104
		c1.093-5.079,1.195-10.336,4.271-15.638c1.723,3.755,1.353,7.075,1.747,10.242c-0.96,6.123,1.066,11.889,2.594,17.581
		c8.2,30.557,30.343,50.158,65.117,46.218c4.804-0.545,3.955,2.442,3.454,4.954c-1.587,7.966-4.258,15.6-8.999,23.843
		c10.031-3.565,17.645-8.036,23.843-14.796c7.754-10.122,14.464-20.83,15.905-33.809c0.438-3.937,1.214-5.482,5.455-6.276
		c12.7-2.379,20.949-11.873,20.821-23.098c-2.942,0.644-5.843,1.277-8.744,1.912c-13.832-3.649-23.379-12.58-30.716-24.468
		c-3.004-4.866-5.948-9.82-9.943-14.032c-21.381-22.54-48.363-26.686-77.418-23.142C81.364,208.893,74.141,210.725,68.172,215.352z"
		/>
	<path fill-rule="evenodd" fill="#FAA91B" d="M139.944,561.276c-5.531-11.118-10.619-22.377-10.741-35.143
		c-0.076-7.949,3.702-13.484,10.828-16.747c5.914-2.708,12.202-4.036,18.679-4.042c53.613-0.049,107.229-0.281,160.839,0.082
		c26.159,0.177,34.797,12.909,26.474,37.586c-2.11,6.256-4.126,12.604-7.706,18.264c-0.99,0.604-1.419,1.5-1.385,2.64l0.013-0.022
		c-1.675,0.051-2.917,0.944-4.017,2.091c-13.691,14.289-31.149,21.384-49.813,26.307c-22.811,6.017-45.919,6.226-69.115,3.494
		c-21.359-2.518-41.377-8.87-59.261-21.407c-4.689-3.288-7.525-8.854-13.423-10.487l0.011,0.02
		C141.361,562.773,140.93,561.88,139.944,561.276z M266.623,535.555c0.726,12.261,5.004,23.211,12.844,32.576
		c4.069,4.86,9.483,7.67,16.159,7.773c15.055,0.232,30.02-14.839,31.852-32.294c0.49-1.206,0.943-2.429,1.475-3.615
		c3.827-8.544,1.273-14.421-7.971-15.233c-15.204-1.336-30.524-1.125-45.763-0.047C269.062,525.15,265.542,528.811,266.623,535.555z
		 M211.631,535.558c0.081-8.016-2.748-11.033-11.805-11.276c-11.695-0.313-23.404-0.132-35.107-0.112
		c-16.285,0.027-19.2,3.912-14.624,19.397c0.055,0.183,0.305,0.31,0.464,0.462c1.88,10.677,7.239,19.44,15.379,26.347
		c9.99,8.477,24.251,7.646,32.778-2.19C206.733,558.938,210.915,547.854,211.631,535.558z"/>
	<path fill-rule="evenodd" fill="#E58725" d="M53.591,203.283c3.386,12.976,3.319,26.192,1.961,39.341
		c-1.199,11.624-3.055,23.253-9.746,33.344c-6.658,10.04-6.703,10.036,3.61,16.917c9.067,6.049,18.839,10.765,29.118,14.259
		c17.313,5.886,25.343,18.711,28.273,35.893c1.043,6.118,1.209,12.256,1.521,19.995c4.69-6.755,5.001-13.76,8.951-21.124
		c0,16.816,0.663,32.086-0.179,47.271c-0.913,16.466-2.425,32.941-6.329,49.094c-2.329,9.637-6.118,18.925-7.006,28.909
		c-16.318-3.899-13.435-2.187-12.369-16.43c2.05-27.412,4.448-54.847,3.087-82.336c-0.993-20.046-9.633-36.04-28.196-45.803
		c-10.572-5.56-21.327-10.919-30.762-18.401c-10.044-7.965-16.016-17.56-12.9-31.141c1.717-7.487,6.289-12.354,12.976-16.696
		c0.53,4.932-1.747,9.116-0.782,13.404c-0.856,0.082-0.967,0.679-0.879,1.353c0.021,0.164,0.272,0.3,0.417,0.448
		c0.184-0.574,0.367-1.149,0.551-1.724c9.142-11.479,12.527-25.315,15.846-39.132C52.916,221.73,53.524,212.521,53.591,203.283z"/>
	<path fill-rule="evenodd" fill="#E58725" d="M374.496,467.18c-1.417-12.792-6.267-24.775-8.666-37.377
		c-5.455-28.641-4.997-57.493-4.009-86.643c2.221,6.233,4.441,12.467,6.662,18.701c1.447-10.324,2.555-20.234,5.919-29.808
		c3.886-11.056,10.736-19.126,21.832-23.408c12.191-4.704,24.229-9.724,34.974-17.38c7.64-5.444,7.792-6.144,2.308-13.553
		c-5.971-8.068-8.18-17.611-9.854-27.187c-2.647-15.136-1.964-30.356,0.048-45.529c0.079-0.604,0.628-1.144,0.956-1.714
		c0.093,20.733,4.483,40.489,13.655,59.108c1.314,2.67,2.14,5.801,5.02,7.474c0.188,0.565,0.376,1.133,0.564,1.699
		c0.143-0.147,0.39-0.281,0.413-0.446c0.093-0.668-0.02-1.257-0.86-1.355c0.725-4.23-0.985-8.289-1.014-12.527
		c13.859,5.535,18.52,24.075,9.468,37.448c-3.793,5.604-8.887,9.938-14.592,13.408c-8.132,4.949-16.334,9.829-24.788,14.192
		c-19.103,9.86-27.925,26.191-28.794,46.809c-1.169,27.714,0.845,55.381,3.411,82.975C388.276,464.19,388.109,464.68,374.496,467.18
		z"/>
	<path fill-rule="evenodd" fill="#E58725" d="M141.316,563.891c5.898,1.633,8.734,7.199,13.423,10.487
		c17.884,12.537,37.902,18.89,59.261,21.407c23.196,2.731,46.305,2.522,69.115-3.494c18.663-4.923,36.121-12.018,49.813-26.307
		c1.1-1.146,2.342-2.04,4.017-2.091c-14.718,32.074-39.325,52.01-74.028,58.252c-25.773,4.636-51.302,2.96-75.224-9.041
		C166.32,602.381,150.992,585.745,141.316,563.891z"/>
	<path fill-rule="evenodd" fill="#FBFAF9" d="M367.569,522.643c-1.518-13.325-12.446-21.315-18.968-32.509
		c39.479-3.855,74.996-13.522,92.404-53.85c2.582,4.598-0.212,9.104-0.34,13.646C439.552,489.292,407.082,521.477,367.569,522.643z"
		/>
	<path fill-rule="evenodd" fill="#FBFAF9" d="M37.247,436.265c11.107,28.482,38.344,49.985,92.233,53.596
		c-5.731,11.466-17.518,19.237-18.787,32.783c-32.137-0.947-60.528-22.482-69.681-53.213
		C37.805,458.661,36.004,447.603,37.247,436.265z"/>
	<path fill-rule="evenodd" fill="#C8C8C8" d="M367.569,522.643c39.513-1.166,71.983-33.351,73.097-72.713
		c0.128-4.542,2.922-9.048,0.34-13.646c0.531-2.37,1.124-3.814,2.699-0.443c1.811,3.875,2.599,8.028,2.979,12.175
		c2.452,26.787,0.374,52.456-20.573,72.511c-15.699,15.031-35.104,21.618-56.42,23.449c-4.086,0.352-5.659-0.338-4.102-4.936
		C367.365,533.8,367.568,528.192,367.569,522.643z"/>
	<path fill-rule="evenodd" fill="#C8C8C8" d="M37.247,436.265c-1.243,11.338,0.558,22.396,3.765,33.166
		c9.153,30.73,37.544,52.266,69.681,53.213c0.058,5.988,0.466,11.943,2.34,17.678c1.018,3.115-0.233,3.6-3.125,3.719
		c-40.748,1.689-77.119-31.736-78.969-72.809c-0.519-11.512-0.668-23.038,3.04-34.181C34.848,434.441,35.32,434.413,37.247,436.265z
		"/>
	<path fill-rule="evenodd" fill="#F3A51E" d="M42.259,48.535c29.487-10.441,55.168-8.041,78.167,11.696
		c7.614,6.535,14.089,14.063,20.187,21.98c2.044,2.654,2.372,4.007-1.21,5.816c-9.941,5.024-9.641,5.068-16.541-3.479
		c-16.708-20.698-37.445-32.896-65.085-29.779C52.034,55.419,48.763,50.793,42.259,48.535z"/>
	<path fill-rule="evenodd" fill="#F3A51E" d="M435.08,48.43c-6.389,3.802-11.504,6.66-18.925,6.176
		c-27.66-1.802-47.758,11.952-63.12,33.573c-2.957,4.162-4.987,5.364-9.115,2.269c-1.566-1.173-3.478-1.964-5.336-2.65
		c-2.729-1.007-3.439-2.279-1.506-4.806c13.388-17.488,28.155-33.148,50.674-38.632C403.665,40.484,419.095,42.174,435.08,48.43z"/>
	<path fill-rule="evenodd" fill="#E38625" d="M407.63,69.925c-7.234,9.739-6.625,21.517-8.029,32.799
		c-1.504,12.07-5.458,15.981-17.132,16.55c-1.86,0.091-2.845-0.697-3.838-1.97c-1.085-1.392-2.221-2.751-3.42-4.045
		c-8.735-9.418-8.631-9.354-2.381-21.135c6.501-12.252,16.113-20.244,29.928-22.799C404.23,69.053,405.742,68.52,407.63,69.925z"/>
	<path fill-rule="evenodd" fill="#E38625" d="M69.897,68.966c12.151,0.59,21.189,4.882,28.43,12.865
		c2.348,2.589,4.271,5.628,6.046,8.661c8.002,13.666,6.994,18.431-5.631,27.854c-3.29,2.456-15.641-1.844-17.656-6.082
		c-2.435-5.123-2.651-10.715-3.163-16.158C77.053,86.856,76.322,77.662,69.897,68.966z"/>
	<path fill-rule="evenodd" fill="#E48725" d="M151.624,105.772c-5.191,17.454,6.797,29.586,13.473,43.348
		c2.948,6.077,7.608,11.444,7.546,18.729c-12.703-13.229-25.979-25.769-42.162-34.773c-3.653-2.032-7.362-3.966-11.771-6.335
		C127.868,116.456,139.319,110.47,151.624,105.772z"/>
	<path fill-rule="evenodd" fill="#E48725" d="M305.621,167.851c-0.373-5.899,3.113-10.453,5.577-15.277
		c3.512-6.88,6.98-13.884,11.413-20.169c5.936-8.418,5.381-17.355,4.021-26.632c12.262,4.601,23.521,10.762,33.245,20.967
		c-17.673,8.348-32.711,19.262-45.927,32.671C311.175,162.226,308.397,165.037,305.621,167.851z"/>
	<path fill-rule="evenodd" fill="#E28525" d="M310.145,401.63c1.037,0.793,2.386,1.381,3.067,2.408
		c14.634,22.064,29.194,44.181,43.768,66.285c-1.753,0.199-3.502,0.451-5.26,0.588c-14.217,1.098-14.151,1.065-19.416-12.536
		C324.975,439.437,317.537,420.544,310.145,401.63z"/>
	<path fill-rule="evenodd" fill="#E28525" d="M121.277,470.321c12.334-18.56,24.596-37.169,37.057-55.642
		c3.032-4.495,4.552-10.187,9.785-13.047c-8.756,22.171-17.542,44.332-26.232,66.531c-1.165,2.974-3.027,4.036-6.11,3.657
		C130.954,471.23,126.111,470.812,121.277,470.321z"/>
	<path fill-rule="evenodd" fill="#F1A41F" d="M136.239,591.627c-2.445,1.267-4.225-0.571-5.999-1.543
		c-12.26-6.714-22.787-15.387-30.192-27.463l-0.105,0.079c6.627-1,12.976,1.625,19.546,1.5c2.733-0.051,3.556,2.248,4.405,4.26
		c3.423,8.097,7.82,15.678,12.234,23.251L136.239,591.627z"/>
	<path fill-rule="evenodd" fill="#F1A41F" d="M378.226,562.637c-8.001,12.791-19.236,21.912-32.556,28.657
		c-1.146,0.58-2.354,1.238-3.665,0.322l0.11,0.084c4.442-7.559,8.919-15.109,12.205-23.267c1.218-3.02,3.099-4.595,6.432-4.446
		c5.903,0.263,11.602-2.416,17.576-1.27L378.226,562.637z"/>
	<path fill-rule="evenodd" fill="#E48725" d="M303.721,170.159c0.055-1.217,0.297-2.288,1.833-2.356
		C304.945,168.589,304.333,169.374,303.721,170.159z"/>
	<path fill-rule="evenodd" fill="#E48725" d="M172.701,167.821c1.533,0.053,1.783,1.117,1.841,2.334
		C173.928,169.377,173.314,168.6,172.701,167.821z"/>
	<path fill-rule="evenodd" fill="#E28525" d="M168.067,401.702c-0.133-1.197,0.242-2.156,1.312-2.788
		C169.354,400.037,169.203,401.102,168.067,401.702z"/>
	<path fill-rule="evenodd" fill="#E58725" d="M139.944,561.276c0.986,0.604,1.417,1.497,1.383,2.634
		C140.295,563.333,139.948,562.396,139.944,561.276z"/>
	<path fill-rule="evenodd" fill="#E58725" d="M336.932,563.916c-0.034-1.14,0.395-2.036,1.385-2.64
		C338.311,562.396,337.974,563.34,336.932,563.916z"/>
	<path fill-rule="evenodd" fill="#E28525" d="M308.877,398.917c1.067,0.629,1.448,1.584,1.318,2.779
		C309.057,401.102,308.904,400.04,308.877,398.917z"/>
	<path fill-rule="evenodd" fill="#E48725" d="M153.273,104.908c-0.543,0.319-1.088,0.639-1.634,0.957
		C152.183,105.546,152.729,105.228,153.273,104.908z"/>
	<path fill-rule="evenodd" fill="#E48725" d="M326.618,105.859c-0.544-0.318-1.089-0.636-1.633-0.953
		C325.529,105.224,326.074,105.541,326.618,105.859z"/>
	<polygon fill-rule="evenodd" fill="#F1A41F" points="100.048,562.621 99.89,562.173 99.947,562.698 	"/>
	<polygon fill-rule="evenodd" fill="#F1A41F" points="378.329,562.718 378.356,562.195 378.222,562.633 	"/>
	<path fill-rule="evenodd" fill="#F1A41F" d="M136.128,591.711c0.033-0.026,0.065-0.051,0.104-0.08
		C136.239,591.627,136.128,591.711,136.128,591.711z"/>
	<path fill-rule="evenodd" fill="#F1A41F" d="M342.005,591.616c0.041,0.032,0.081,0.063,0.116,0.09
		C342.116,591.7,342.005,591.616,342.005,591.616z"/>
	<path fill-rule="evenodd" fill="#493318" d="M87.091,253.139c-0.394-3.167-0.024-6.487-1.747-10.242
		c-3.076,5.302-3.178,10.559-4.271,15.638c-9.361-9.721-9.035-25.732,0.66-37.104c-3.911-3.407-10.001-1.967-13.562-6.079
		c28.848-5.202,54.844,1.596,78.467,18.553c9.595,6.888,17.847,15.184,25.939,23.724c9.192,9.699,20.167,15.006,33.959,12.04
		c2.901-0.635,5.802-1.269,8.744-1.912c0.128,11.225-8.121,20.719-20.821,23.098c-4.24,0.794-5.017,2.34-5.455,6.276
		c-1.441,12.979-8.151,23.687-15.904,33.806c0.344-2.401,0.541-4.831,1.056-7.191c2.01-9.217,2.779-18.301-0.615-27.478
		c-1.517-4.101-2.494-6.164-6.926-2.657c-4.005,3.169-8.932,4.752-14.049,5.62c-26.541,4.503-54.205-12.206-62.757-37.971
		C88.911,258.55,87.998,255.845,87.091,253.139z M161.277,273.84c-10.849-13.03-24.398-22.846-38.438-32.024
		c-3.976-2.6-9.456-8.201-12.209-6.146c-3.945,2.943-2.896,9.998-2.375,15.492c-0.675,17.285,7.356,28.789,23.611,34.014
		c9.029,2.901,17.905,2.18,26.699-0.862C167.415,281.25,167.435,281.058,161.277,273.84z"/>
	<path fill-rule="evenodd" fill="#493318" d="M305.156,330.929c-8.145-10.826-15.344-22.114-16.074-36.182
		c-0.194-3.756-2.763-3.153-5.001-3.708c-10.27-2.544-18.017-8.005-21.1-18.684c-0.425-1.471-0.849-2.982,0.045-4.544
		c3.047-0.122,5.462,2.865,8.692,1.856c15.233,3.093,26.441-3.681,36.294-14.404c27.485-29.914,59.987-47.224,102.07-39.915
		c-3.555,4.063-9.393,2.707-13.655,6.137c5.054,4.699,7.76,10.769,7.583,17.897c-0.171,6.913-1.779,13.421-6.401,19.823
		c-1.615-5.678-1.728-10.975-4.3-16.036c-2.444,2.887-1.591,6.099-1.976,9.016c-0.316,0.575-0.791,1.113-0.928,1.726
		c-4.009,18.093-13.268,32.092-30.772,39.741c-17.028,7.44-33.891,10.117-50.336-1.518c-3.063-2.168-3.239,0.829-3.86,2.368
		c-2.958,7.323-3.97,14.893-2.541,22.739C303.724,321.791,304.408,326.365,305.156,330.929z M369.937,252.486
		c0.517-4.857,0.308-9.624-0.777-14.448c-0.671-2.985-1.467-3.816-4.21-2.152c-17.569,10.662-34.498,22.122-47.967,37.96
		c-6.195,7.251-6.174,7.338,2.714,10.478c1.041,0.368,2.095,0.709,3.159,1.008C348.216,292.437,370.797,276.682,369.937,252.486z"/>
	<path fill-rule="evenodd" fill="#E48725" d="M305.156,330.929c-0.748-4.563-1.432-9.138-2.26-13.687
		c-1.429-7.847-0.417-15.416,2.541-22.739c0.621-1.539,0.797-4.536,3.86-2.368c16.445,11.635,33.308,8.958,50.336,1.518
		c17.505-7.649,26.764-21.648,30.772-39.741c0.137-0.612,0.611-1.15,0.928-1.726c-1.989,37.805-23.52,66.105-62.08,65.518
		c-10.655-0.163-10.693-0.215-7.59,10.683c0.845,2.968,2.017,5.842,3.015,8.767c0.896,2.621,3.138,4.729,3.132,8.188
		C318.975,342.119,311.329,337.709,305.156,330.929z"/>
	<path fill-rule="evenodd" fill="#E48725" d="M87.091,253.139c0.907,2.706,1.819,5.411,2.719,8.12
		c8.552,25.765,36.216,42.474,62.757,37.971c5.117-0.868,10.044-2.451,14.049-5.62c4.432-3.507,5.409-1.443,6.926,2.657
		c3.394,9.177,2.625,18.261,0.615,27.478c-0.515,2.36-0.712,4.79-1.056,7.191c-6.2,6.763-13.814,11.233-23.845,14.799
		c4.741-8.243,7.412-15.877,8.999-23.843c0.5-2.512,1.35-5.499-3.454-4.954c-34.774,3.94-56.917-15.661-65.117-46.218
		C88.158,265.027,86.131,259.262,87.091,253.139z"/>
	<path fill-rule="evenodd" fill="#E38625" d="M206.538,269.668c-13.792,2.966-24.768-2.341-33.959-12.04
		c-8.093-8.54-16.344-16.836-25.939-23.724c-23.624-16.957-49.619-23.755-78.467-18.553c5.97-4.627,13.193-6.459,20.289-7.325
		c29.055-3.544,56.037,0.602,77.418,23.142c3.995,4.212,6.939,9.166,9.943,14.032C183.159,257.088,192.706,266.019,206.538,269.668z
		"/>
	<path fill-rule="evenodd" fill="#E38625" d="M410.083,215.349c-42.083-7.309-74.585,10.001-102.07,39.915
		c-9.853,10.724-21.061,17.497-36.294,14.404c14.098-3.697,23.937-12.795,31.015-25.059c11.851-20.536,29.86-32.824,52.761-36.258
		C373.941,205.586,392.971,204.688,410.083,215.349z"/>
	<path fill-rule="evenodd" fill="#E58725" d="M207.941,215.376c-3.252-2.621-5.76-5.804-7.868-9.921
		c26.138,8.577,51.696,8.574,77.754,0.075c-1.556,4.624-4.963,7.391-8.826,9.773c-2.606-0.282-4.634,1.289-6.875,2.162
		c-13,5.065-26.144,6.032-39.71,2.191C217.572,218.286,213.347,214.784,207.941,215.376z"/>
	<path fill-rule="evenodd" fill="#4E3518" d="M207.941,215.376c5.406-0.592,9.631,2.91,14.475,4.281
		c13.566,3.841,26.71,2.874,39.71-2.191c2.241-0.873,4.269-2.444,6.875-2.162c-8.494,16.842-30.211,23.261-45.581,13.364
		C217.667,224.964,212.278,220.765,207.941,215.376z"/>
	<path fill-rule="evenodd" fill="#493217" d="M150.56,544.028c-0.159-0.152-0.41-0.279-0.464-0.462
		c-4.576-15.485-1.661-19.37,14.624-19.397c11.703-0.02,23.412-0.201,35.107,0.112c9.057,0.243,11.886,3.261,11.805,11.276
		c-4.054,7.317-8.247,14.533-13.61,21.014c-9.821,11.865-23.015,12.607-34.514,2.197C158.594,554.32,155.389,548.483,150.56,544.028
		z"/>
	<path fill-rule="evenodd" fill="#493217" d="M266.623,535.555c-1.081-6.744,2.439-10.404,8.596-10.84
		c15.238-1.078,30.559-1.289,45.763,0.047c9.244,0.813,11.798,6.689,7.971,15.233c-0.531,1.187-0.984,2.409-1.476,3.615
		c-4.459,5.723-8.604,11.701-14.209,16.448c-10.429,8.833-23.268,7.855-32.165-2.48C275.32,550.86,270.856,543.285,266.623,535.555z
		"/>
	<path fill-rule="evenodd" fill="#E38625" d="M150.56,544.028c4.829,4.455,8.034,10.292,12.947,14.74
		c11.499,10.41,24.693,9.668,34.514-2.197c5.364-6.48,9.557-13.696,13.61-21.014c-0.717,12.297-4.898,23.381-12.914,32.627
		c-8.527,9.837-22.789,10.667-32.778,2.19C157.799,563.469,152.44,554.705,150.56,544.028z"/>
	<path fill-rule="evenodd" fill="#E38625" d="M266.623,535.555c4.233,7.73,8.697,15.306,14.479,22.023
		c8.897,10.336,21.736,11.313,32.165,2.48c5.604-4.747,9.75-10.726,14.209-16.448c-1.831,17.455-16.796,32.526-31.851,32.294
		c-6.676-0.104-12.09-2.913-16.159-7.773C271.626,558.766,267.348,547.815,266.623,535.555z"/>
	<path fill-rule="evenodd" fill="#483217" d="M34.909,269.856c-0.184,0.574-0.367,1.149-0.551,1.724
		c-0.146-0.148-0.396-0.284-0.417-0.448c-0.088-0.674,0.022-1.271,0.879-1.353C34.818,269.778,34.909,269.856,34.909,269.856z"/>
	<path fill-rule="evenodd" fill="#483217" d="M443.457,269.763c0.841,0.099,0.953,0.688,0.86,1.355
		c-0.023,0.165-0.271,0.299-0.413,0.446c-0.188-0.566-0.376-1.134-0.564-1.699C443.338,269.865,443.457,269.763,443.457,269.763z"/>
	<path fill-rule="evenodd" fill="#FBFAF9" d="M108.255,251.161c-0.521-5.494-1.571-12.549,2.375-15.492
		c2.754-2.055,8.234,3.547,12.209,6.146c14.04,9.179,27.589,18.994,38.438,32.024c-7.68,5.467-16.393,4.71-24.816,3.321
		C121.601,274.712,113.285,264.578,108.255,251.161z"/>
	<path fill-rule="evenodd" fill="#C6C6C5" d="M108.255,251.161c5.03,13.417,13.346,23.551,28.206,26
		c8.423,1.389,17.136,2.146,24.816-3.321c6.158,7.218,6.138,7.41-2.712,10.473c-8.793,3.042-17.669,3.764-26.699,0.862
		C115.611,279.95,107.58,268.446,108.255,251.161z"/>
	<path fill-rule="evenodd" fill="#FBFAF9" d="M316.983,273.846c13.469-15.838,30.397-27.298,47.967-37.96
		c2.743-1.664,3.539-0.833,4.21,2.152c1.085,4.824,1.294,9.591,0.777,14.448c-1.458,2.718-2.881,5.456-4.381,8.15
		C356.63,276.674,331.6,283.474,316.983,273.846z"/>
	<path fill-rule="evenodd" fill="#C6C6C5" d="M316.983,273.846c14.617,9.628,39.647,2.828,48.573-13.209
		c1.5-2.694,2.923-5.433,4.381-8.15c0.86,24.195-21.721,39.95-47.081,32.845c-1.064-0.299-2.118-0.64-3.159-1.008
		C310.809,281.184,310.788,281.097,316.983,273.846z"/>
</g>
</svg>
