<?xml version="1.0" encoding="utf-8"?>
<!-- Generator: Adobe Illustrator 16.0.0, SVG Export Plug-In . SVG Version: 6.00 Build 0)  -->
<!DOCTYPE svg PUBLIC "-//W3C//DTD SVG 1.1 Tiny//EN" "http://www.w3.org/Graphics/SVG/1.1/DTD/svg11-tiny.dtd">
<svg version="1.1" baseProfile="tiny" id="Layer_1" xmlns="http://www.w3.org/2000/svg" xmlns:xlink="http://www.w3.org/1999/xlink"
	 x="0px" y="0px" width="411.531px" height="858.285px" viewBox="0 -24.715 411.531 858.285" overflow="scroll"
	 xml:space="preserve">
<g>
	<path fill-rule="evenodd" fill="#E8494A" d="M393.301,212.937c0,1.645,0,3.291,0,4.936c-0.213-0.17-0.416-0.357-0.644-0.504
		c-0.189-0.124-0.553-0.326-0.595-0.278c-1.992,2.264-1.606,5.133-1.894,7.809c-7.299,67.844-14.576,135.692-21.854,203.54
		c-0.354,3.295-0.798,6.406-3.701,8.771c-9.774,7.958-19.318,16.201-29.166,24.062c-2.833,2.261-6.916,6.102-10.021,2.475
		c-2.847-3.327,2.169-6.019,4.215-8.534c7.954-9.771,16.69-18.966,22.117-30.537c2.88-6.144,4.996-12.748-0.172-18.511
		c-5.505-6.14-12.77-6.882-20.42-4.323c-6.915,2.312-12.431,6.793-17.908,11.401c-1.933,1.626-3.086,4.498-6.606,4.552
		c0.239-1.517,0.501-2.834,0.646-4.164c0.398-3.688,0.474-7.3-3.915-8.831c-4.294-1.497-6.932,1.025-8.677,4.302
		c-2.309,4.333-4.133,8.928-6.113,13.433c-2.056,4.683-2.217,10.075-6.402,13.977c-7.427,6.92-14.687,14.042-23.107,19.735
		c-4.323,2.922-9.519,8.773-14.198,5.141c-4.334-3.362-0.026-9.726,1.79-14.4c12.002-30.893,24.317-61.662,37.63-92.02
		c1.314-2.998,2.792-6.055,3.34-9.231c1.171-6.798-4.459-11.04-10.813-8.49c-3.625,1.454-5.422,4.473-6.755,7.861
		c-13.437,34.152-27.196,68.182-40.021,102.563c-2.831,7.593-7.448,11.755-14.083,14.712c-2.647,1.18-5.626,3.011-8.545,0.918
		c-3.042-2.184-1.836-5.575-1.34-8.38c1.685-9.506,5.489-18.325,9.291-27.142c2.274-5.277,4.532-10.592,6.307-16.049
		c1.387-4.261,0.519-8.511-3.886-10.563c-4.892-2.278-7.833,1.068-9.737,4.958c-2.039,4.162-3.451,8.63-5.247,12.917
		c-6.28,15.008-13.217,29.616-26.851,39.596c-3.581,2.62-8.055,4.981-12.193,2.498c-4.419-2.654-2.063-7.409-1.247-11.281
		c2.694-12.791,9.457-23.861,15.128-35.4c2.175-4.429,5.004-9.475-1.29-12.788c-5.82-3.065-10.306-0.006-12.877,5.122
		c-8.362,16.677-15.958,33.744-19.99,52.037c-3.908,17.732,5.869,26.424,23.394,21.233c3.627-1.075,7.129-2.839,10.412-4.76
		c5.645-3.309,9.835-8.359,13.967-13.558c2.299,2.413,1.245,4.677,1.322,6.705c0.432,11.273,6.119,15.394,16.746,11.46
		c4.572-1.693,8.71-4.537,13.096-6.759c1.425-0.722,2.429-2.892,4.67-0.286c8.408,9.777,13.555,10.569,25.111,5.025
		c6.874-3.3,12.383-8.599,19.352-12.357c-4.648,11.999-9.956,23.585-15.271,35.168c-3.197,6.966-6.675,13.828-8.291,21.399
		c-0.829,3.879-1.276,7.899,2.914,10.165c4.55,2.459,8.508,0.73,11.813-2.738c2.905-3.049,4.325-6.917,5.705-10.814
		c6.86-19.374,14.355-38.491,23.087-57.112c6.1-13.011,13.612-25.034,24.277-34.847c4.072-3.744,8.529-6.929,14.125-7.975
		c1.879-0.35,4.027-0.652,5.351,1.09c1.314,1.729,0.702,3.776-0.411,5.386c-2.955,4.277-5.952,8.536-9.161,12.623
		c-6.254,7.968-13.392,15.307-18.121,24.367c-5.539,10.607-0.8,18.569,11.058,19.141c10.19,0.492,18.7-3.716,26.488-9.594
		c6.476-4.887,12.627-10.199,19.731-15.981c-0.172,2.47-0.21,3.775-0.36,5.067c-4.595,40.019-9.43,80.013-13.735,120.064
		c-3.542,32.955-3.2,33.229-35.55,41.68c-58.91,15.389-118.582,17.126-178.663,8.779c-22.823-3.171-45.375-7.707-66.747-16.831
		c-5.708-2.436-8.95-5.693-9.494-12.645c-2.034-25.951-4.89-51.838-7.366-77.756c-1.37-14.331-2.599-28.677-3.945-43.612
		c25.113,8.032,38.2-10.691,55.989-23.812c-3.385,11.648-6.074,20.773-8.681,29.922c-1.279,4.489-2.446,9.022-1.521,13.758
		c0.423,2.166,0.847,4.432,3.333,5.247c2.639,0.866,4.838-0.073,6.685-1.983c3.348-3.463,4.916-7.797,6.224-12.324
		c7.371-25.521,14.456-51.133,24.091-75.94c2.089-5.378,3.366-10.998,3.526-16.819c0.116-4.219,0.331-8.685-4.993-9.896
		c-5.514-1.253-8.926,1.81-10.733,6.673c-2.193,5.9-4.015,11.938-6.108,17.877c-7.467,21.185-22.624,35.971-40.95,47.673
		c-8.55,5.458-14.669,2.093-16.799-7.771c-0.997-4.611-1.082-9.234-0.359-13.894c5.053-32.608,19.277-60.858,40.832-85.568
		c3.785-4.341,8.235-8.069,13.422-10.73c9.041-4.638,16.346-2.766,22.036,5.646c2.148,3.173,4.008,6.542,6.203,9.679
		c1.616,2.311,3.756,4.124,6.892,3.491c3.306-0.667,5.218-3.021,6.068-6.074c1.052-3.783,0.853-7.57-0.803-11.241
		c-7.756-17.194-27.301-25.135-44.839-18.145c-8.799,3.507-16.246,9.056-22.986,15.596c-13.348,12.952-23.384,28.256-31.302,44.967
		c-3.829,8.079-7.125,16.41-10.663,24.627c-0.461-0.003-0.922-0.008-1.383-0.013c-7.139-65.884-14.277-131.768-21.465-198.109
		c8.742,2.492,16.013,4.916,23.45,6.62c25.455,5.835,51.38,8.36,77.371,10.034c69.063,4.445,138.055,4.145,206.932-3.499
		C350.543,224.094,372.164,219.737,393.301,212.937z"/>
	<path fill-rule="evenodd" fill="#E8494A" d="M18.23,194.842c29.724-15.385,62.484-16.369,94.679-19.366
		c42.333-3.939,84.835-4.33,127.316-3.089c7.035,0.206,9.371-2.111,10.908-8.548c5.084-21.302,10.908-42.427,16.232-63.675
		c1.11-4.431,3.171-7.921,6.299-11.2c29.891-31.324,59.671-62.751,89.488-94.147c7.793-8.208,10.996-8.485,19.909-1.361
		c3.365,2.689,6.44,5.742,9.646,8.628c0.121-0.189,0.269-0.368,0.355-0.57c0.105-0.252,0.16-0.523,0.237-0.787
		c0,3.838,0,7.678,0,11.516c-2.626-1.584-3.269,1.177-4.3,2.262c-28.667,30.147-57.236,60.385-85.843,90.588
		c-1.909,2.016-3.366,4.121-4.05,6.945c-4.577,18.868-9.258,37.712-14.041,56.531c-1.057,4.161-0.117,6.034,4.468,6.246
		c7.923,0.366,15.864,0.873,23.726,1.88c27.018,3.463,54.69,4.132,79.406,17.861c0.21-0.452,0.422-0.904,0.634-1.357
		c0,3.29,0,6.58,0,9.87c-0.308-0.392-0.822-1.165-0.897-1.125c-24.091,12.953-50.825,14.724-77.115,17.236
		c-77.052,7.363-154.143,7.114-231.145-1.294c-13.607-1.486-27.084-3.772-40.461-6.719c-8.997-1.982-17.224-5.828-25.452-9.743
		C18.23,199.229,18.23,197.034,18.23,194.842z M236.621,205.891c0.511,0.696,1.001,1.655,1.747,2.33
		c5.378,4.869,35.497,4.728,40.638-0.109c1.073-1.009,1.931-2.043,0.943-3.452c-1.158-1.65-2.289-1.128-4.071-0.368
		c-11.542,4.913-23.26,5.229-34.721-0.199C238.633,202.896,237.763,203.577,236.621,205.891z"/>
	<path fill-rule="evenodd" fill="#E8494A" d="M72.5,625.865c23.942,6.929,48.122,12.654,72.952,15.479
		c63.611,7.237,126.363,4.267,187.794-15.235c0.98-0.313,2.031-0.398,4.819-0.923c-6.68,11.745-12.569,22.326-18.701,32.762
		c-2.279,3.883-3.458,7.8-3.703,12.348c-2.098,39.131-4.678,78.239-6.452,117.385c-0.452,10-4.834,15.644-13.487,19.303
		c-17.918,7.581-36.856,10.45-56.005,11.977c-34.559,2.756-69,2.249-103.031-5.447c-2.67-0.604-5.335-1.25-7.96-2.021
		c-22.369-6.563-24.808-9.754-26.417-32.786c-2.428-34.717-5.137-69.413-7.456-104.138c-0.453-6.786-2.653-12.545-5.927-18.415
		c-5.617-10.071-13.296-19.077-16.325-30.533L72.5,625.865z"/>
	<path fill-rule="evenodd" fill="#E8494A" d="M72.602,625.619c-0.295,0.151-0.591,0.304-0.887,0.454
		c-0.048-0.2-0.096-0.399-0.145-0.601c0.31,0.13,0.619,0.262,0.929,0.393L72.602,625.619z"/>
</g>
</svg>
