<?xml version="1.0" encoding="utf-8"?>
<!-- Generator: Adobe Illustrator 16.0.0, SVG Export Plug-In . SVG Version: 6.00 Build 0)  -->
<!DOCTYPE svg PUBLIC "-//W3C//DTD SVG 1.1 Tiny//EN" "http://www.w3.org/Graphics/SVG/1.1/DTD/svg11-tiny.dtd">
<svg version="1.1" baseProfile="tiny" id="Layer_1" xmlns="http://www.w3.org/2000/svg" xmlns:xlink="http://www.w3.org/1999/xlink"
	 x="0px" y="0px" width="600px" height="683.418px" viewBox="0 0 600 683.418" overflow="scroll" xml:space="preserve">
<g>
	<path fill-rule="evenodd" fill="#E34F26" d="M0,3.418c200.104,0,400.208,0,600.312,0c-2.202,23.525-4.462,47.045-6.592,70.575
		c-2.448,27.055-4.755,54.123-7.175,81.182c-2.895,32.335-5.854,64.665-8.771,96.998c-2.498,27.716-4.988,55.43-7.457,83.146
		c-2.841,31.903-5.652,63.808-8.475,95.711c-2.397,27.063-4.768,54.128-7.188,81.188c-2.895,32.339-5.994,64.661-8.575,97.025
		c-0.397,4.969-2.188,6.681-6.592,7.893c-63.976,17.603-127.938,35.253-191.835,53.143c-14.993,4.197-30.303,7.369-44.841,13.139
		c-2.213,0-4.427,0-6.641,0c0.003-0.813-0.469-1.083-1.17-0.898c-0.123,0.032-0.108,0.586-0.158,0.898c-0.885,0-1.771,0-2.656,0
		c0.191-3.976-3.411-2.866-5.188-3.371c-30.758-8.725-61.581-17.227-92.391-25.771c-44.827-12.432-89.656-24.853-134.479-37.297
		c-2.681-0.745-5.461-0.96-5.756-5.05c-1.127-15.64-2.573-31.255-3.965-46.873c-2.431-27.282-4.929-54.558-7.366-81.839
		s-4.836-54.566-7.248-81.852c-2.373-26.843-4.724-53.689-7.115-80.53c-2.469-27.721-4.977-55.438-7.463-83.156
		c-2.447-27.278-4.896-54.557-7.327-81.836c-2.45-27.503-4.83-55.01-7.331-82.508C4.439,50.024,2.191,26.723,0,3.418z
		 M300.204,474.696c-0.655,0.041-1.358,0.261-1.959,0.099c-25.991-6.999-51.951-14.11-77.978-20.967
		c-3.401-0.895-3.874-2.741-4.129-5.625c-1.461-16.505-3.291-32.982-4.482-49.506c-0.351-4.866-1.751-6.167-6.619-6.1
		c-21.014,0.296-42.038,0.36-63.049-0.023c-5.911-0.107-6.838,1.763-6.329,7.126c3.279,34.536,6.353,69.093,9.24,103.665
		c0.486,5.826,2.552,8.494,8.53,10.111c48.552,13.14,96.981,26.729,145.449,40.181c1.565,2.632,1.274,5.55,1.275,8.413
		c0.009,21.029,0.087,42.056-0.056,63.083c-0.032,4.655,0.865,6.282,6.047,4.835c62.188-17.387,124.428-34.594,186.679-51.752
		c4.443-1.226,6.384-3.279,6.698-8.218c1.063-16.724,2.716-33.41,4.207-50.105c1.611-18.007,3.336-36.005,4.932-54.012
		c1.501-16.915,2.809-33.849,4.365-50.76c2-21.736,4.268-43.446,6.221-65.187c1.562-17.354,2.677-34.747,4.254-52.1
		c2.451-27.007,5.248-53.984,7.671-80.996c2.01-22.404,3.607-44.848,5.543-67.258c2.545-29.438,5.278-58.859,7.852-88.293
		c0.701-7.99,0.011-8.703-8.018-8.705c-76.362-0.024-152.724,0.045-229.086-0.125c-6.053-0.014-7.465,2.241-7.402,7.813
		c0.254,22.576,0.129,45.152,0.146,67.729c-27.844,0.078-55.687,0.193-83.531,0.227c-32.933,0.041-65.867,0.149-98.797-0.123
		c-5.641-0.047-6.522,1.675-5.742,6.766c1.134,7.403,1.442,14.934,2.114,22.409c2.924,32.54,5.9,65.075,8.767,97.621
		c2.945,33.423,5.785,66.854,8.671,100.281c2.597,2.514,5.866,1.521,8.849,1.524c50.398,0.061,100.797,0.166,151.193-0.101
		c6.774-0.035,8.622,1.998,8.57,8.656C300.017,401.752,300.188,438.225,300.204,474.696z"/>
	<path fill-rule="evenodd" fill="#040201" d="M294.843,683.418c0.05-0.313,0.035-0.866,0.158-0.898
		c0.701-0.185,1.173,0.086,1.17,0.898C295.729,683.418,295.287,683.418,294.843,683.418z"/>
	<path fill-rule="evenodd" fill="#F1662A" d="M300.203,128.021c-0.016-22.577,0.109-45.153-0.145-67.729
		c-0.063-5.571,1.35-7.826,7.402-7.813c76.362,0.17,152.724,0.101,229.086,0.125c8.028,0.002,8.719,0.715,8.018,8.705
		c-2.573,29.434-5.307,58.854-7.852,88.293c-1.936,22.41-3.533,44.854-5.543,67.258c-2.423,27.012-5.22,53.989-7.671,80.996
		c-1.577,17.353-2.692,34.745-4.254,52.1c-1.953,21.74-4.221,43.45-6.221,65.187c-1.557,16.911-2.864,33.845-4.365,50.76
		c-1.596,18.007-3.32,36.005-4.932,54.012c-1.491,16.695-3.144,33.382-4.207,50.105c-0.314,4.938-2.255,6.992-6.698,8.218
		c-62.251,17.158-124.49,34.365-186.679,51.752c-5.182,1.447-6.079-0.18-6.047-4.835c0.143-21.027,0.064-42.054,0.056-63.083
		c-0.001-2.863,0.29-5.781-1.276-8.413c0.434-0.159,0.867-0.319,1.301-0.479c1.51-0.229,3.063-0.306,4.524-0.711
		c44.86-12.425,89.716-24.871,134.563-37.341c15.351-4.268,14.993-4.329,16.284-20.308c2.595-32.165,5.577-64.296,8.46-96.438
		c3.314-36.982,6.586-73.97,10.149-110.928c0.561-5.818-0.765-7.451-6.837-7.423c-53.556,0.256-107.111,0.143-160.667,0.169
		c-2.191,0.002-4.382,0.311-6.572,0.477c0.08-0.303,0.09-0.606,0.028-0.914c0.029-25.22,0.058-50.441,0.087-75.66l-0.096-0.592
		c59.01,0.099,118.021,0.174,177.029,0.358c3.456,0.012,4.584-1.265,4.854-4.545c1.78-21.783,3.56-43.568,5.696-65.319
		c0.454-4.626-0.394-5.914-5.239-5.865c-25.195,0.257-50.396,0.091-75.595,0.127c-35.583,0.051-71.166,0.15-106.749,0.229
		L300.203,128.021z"/>
	<path fill-rule="evenodd" fill="#EBE9E9" d="M131.686,355.201c-2.887-33.428-5.727-66.858-8.671-100.281
		c-2.867-32.546-5.843-65.081-8.767-97.621c-0.672-7.476-0.979-15.006-2.114-22.409c-0.78-5.091,0.101-6.813,5.742-6.766
		c32.931,0.272,65.865,0.164,98.797,0.123c27.844-0.033,55.688-0.148,83.53-0.227l-0.105,0.475
		c0.001,25.005,0.003,50.01,0.004,75.016l0.096,0.592c-34.074-0.102-68.148-0.158-102.221-0.358c-3.647-0.021-3.6,1.51-3.33,4.42
		c2.081,22.451,4.056,44.913,5.833,67.39c0.305,3.858,1.91,4.708,5.396,4.675c14.605-0.138,29.213-0.003,43.82-0.07
		c16.805-0.075,33.61-0.26,50.415-0.396c0.062,0.308,0.052,0.611-0.029,0.914c0.031,24.881,0.063,49.761,0.094,74.643
		c-2.427,0.084-4.854,0.244-7.279,0.244c-50.87,0.014-101.74,0.017-152.61-0.006C137.418,355.557,134.552,355.324,131.686,355.201z"
		/>
	<path fill-rule="evenodd" fill="#EBE9E9" d="M300.176,553.179c-0.434,0.159-0.867,0.319-1.301,0.479
		c-48.466-13.452-96.896-27.041-145.448-40.181c-5.978-1.617-8.044-4.285-8.53-10.111c-2.887-34.572-5.96-69.129-9.24-103.665
		c-0.509-5.363,0.418-7.233,6.329-7.126c21.011,0.384,42.035,0.319,63.049,0.023c4.868-0.067,6.269,1.233,6.619,6.1
		c1.191,16.523,3.021,33.001,4.482,49.506c0.256,2.884,0.729,4.73,4.129,5.625c26.027,6.856,51.987,13.968,77.978,20.967
		c0.601,0.162,1.304-0.058,1.96-0.099l-0.108,0.525C300.124,501.207,300.15,527.193,300.176,553.179z"/>
	<path fill-rule="evenodd" fill="#F1662A" d="M131.686,355.201c2.866,0.123,5.732,0.355,8.6,0.356
		c50.87,0.022,101.74,0.02,152.61,0.006c2.426,0,4.853-0.16,7.278-0.244c28.044,0.108,56.087,0.223,84.132,0.324
		c8.085,0.029,7.958,0,7.214,7.938c-2.589,27.676-5.217,55.351-7.481,83.054c-0.368,4.494-1.64,6.397-6.124,7.568
		c-25.994,6.795-51.889,13.972-77.817,21.019l0.108-0.525c-0.017-36.472-0.188-72.944,0.093-109.415
		c0.052-6.658-1.796-8.691-8.57-8.656c-50.396,0.267-100.795,0.161-151.193,0.101C137.551,356.723,134.282,357.715,131.686,355.201z
		"/>
	<path fill-rule="evenodd" fill="#FFFEFD" d="M300.096,475.222c25.929-7.047,51.823-14.224,77.817-21.019
		c4.484-1.171,5.756-3.074,6.124-7.568c2.265-27.703,4.893-55.378,7.481-83.054c0.744-7.938,0.871-7.908-7.214-7.938
		c-28.045-0.102-56.088-0.216-84.132-0.324c-0.03-24.882-0.062-49.762-0.093-74.643c2.191-0.166,4.382-0.475,6.573-0.477
		c53.556-0.026,107.111,0.087,160.667-0.169c6.072-0.028,7.397,1.604,6.837,7.423c-3.563,36.958-6.835,73.945-10.149,110.928
		c-2.883,32.142-5.865,64.272-8.46,96.438c-1.291,15.979-0.934,16.04-16.284,20.308c-44.848,12.47-89.703,24.916-134.563,37.341
		c-1.462,0.405-3.015,0.481-4.524,0.711C300.15,527.193,300.124,501.207,300.096,475.222z"/>
	<path fill-rule="evenodd" fill="#FFFEFD" d="M300.101,203.511c-0.001-25.006-0.003-50.011-0.004-75.016
		c35.583-0.078,71.166-0.178,106.749-0.229c25.198-0.036,50.399,0.13,75.595-0.127c4.846-0.049,5.693,1.239,5.239,5.865
		c-2.137,21.751-3.916,43.536-5.696,65.319c-0.27,3.28-1.397,4.557-4.854,4.545C418.123,203.685,359.111,203.609,300.101,203.511z"
		/>
	<path fill-rule="evenodd" fill="#E34F26" d="M300.11,279.763c-16.805,0.136-33.609,0.32-50.415,0.396
		c-14.607,0.067-29.215-0.067-43.82,0.07c-3.486,0.033-5.091-0.816-5.396-4.675c-1.777-22.477-3.753-44.938-5.833-67.39
		c-0.27-2.91-0.317-4.441,3.33-4.42c34.073,0.2,68.147,0.257,102.221,0.358C300.167,229.321,300.139,254.543,300.11,279.763z"/>
</g>
</svg>
