<?xml version="1.0" encoding="utf-8"?>
<!-- Generator: Adobe Illustrator 16.0.0, SVG Export Plug-In . SVG Version: 6.00 Build 0)  -->
<!DOCTYPE svg PUBLIC "-//W3C//DTD SVG 1.1 Tiny//EN" "http://www.w3.org/Graphics/SVG/1.1/DTD/svg11-tiny.dtd">
<svg version="1.1" baseProfile="tiny" id="Layer_1" xmlns="http://www.w3.org/2000/svg" xmlns:xlink="http://www.w3.org/1999/xlink"
	 x="0px" y="0px" width="730.063px" height="833.57px" viewBox="0 0 730.063 833.57" overflow="scroll" xml:space="preserve">
<g>
	<path fill-rule="evenodd" fill="none" d="M691.585,394.59c0,102.289-0.031,204.576,0.104,306.864
		c0.006,4.378-0.688,5.714-5.481,5.71c-204.78-0.151-409.558-0.149-614.337-0.002c-4.533,0.004-5.233-1.104-5.23-5.354
		c0.122-204.778,0.119-409.558,0.013-614.335c-0.002-4.111,0.495-5.419,5.168-5.416c204.982,0.162,409.963,0.157,614.945,0.018
		c4.273-0.004,4.935,0.986,4.929,5.043C691.555,189.608,691.585,292.098,691.585,394.59z M660.634,519.346
		c-3.541,3.735-6.045,8.244-9.552,11.483c-12.746,11.771-25.593,23.464-40.428,32.762c-35.75,22.404-74.859,34.112-116.675,37.634
		c-41.82,3.522-83.028,0.198-123.146-12.288c-67.25-20.93-123.042-59.061-167.46-113.732
		c-39.378-48.47-63.032-103.626-68.012-165.999c-3.138-39.29,2.417-77.623,18.673-113.981c0.735-1.642,2.443-3.3,0.747-6.111
		c-8.464,10.691-16.465,21.344-25.036,31.517c-28.626,33.98-44.032,73.495-47.942,117.319
		c-3.368,37.753,1.612,74.779,13.791,110.775c22.318,65.967,62.051,119.302,117.487,160.974
		c52.443,39.425,110.824,63.34,177.129,65.55c27.221,0.906,54.289-0.381,81.031-5.968c85.952-17.957,148.182-66.91,188.505-144.41
		C660.499,523.425,662.117,521.922,660.634,519.346z M677.23,367.319c-1.52,1.89-3.051,3.771-4.557,5.671
		c-16.687,21.074-37.438,36.956-61.918,47.889c-42.44,18.953-86.428,21.887-131.237,10.896
		c-77.944-19.118-135.026-64.798-169.455-137.355c-19.743-41.609-23.924-85.355-11.785-130.228
		c2.503-9.253,6.43-17.995,9.507-27.143c-3.516,3.684-6.596,7.596-9.503,11.633c-3.01,4.179-5.69,8.602-8.795,12.707
		c-32.468,42.923-41.586,91.176-31.246,143.174c8.334,41.912,28.091,78.426,57.998,108.915
		c41.988,42.806,91.027,71.482,152.709,74.865c34.205,1.877,67.608-0.688,99.802-12.821
		C620.983,455.838,656.579,419.121,677.23,367.319z M655.39,267.131c-0.414-0.346-0.828-0.693-1.241-1.04
		c-4.13,3.465-8.02,7.276-12.431,10.336c-21.664,15.036-45.84,18.895-71.719,16.641c-47.831-4.166-87.218-23.995-115.794-62.816
		c-26.714-36.291-37.516-76.015-21.126-120.2c0.238-0.641,0.616-1.532-0.523-1.913c-0.351,0.182-0.793,0.277-1.028,0.55
		c-33.431,38.811-39.351,90.735-14.156,135.785c26.944,48.174,67.721,76.627,123.473,80.956
		c37.286,2.894,70.741-6.636,97.231-34.685C644.826,283.598,650.861,275.865,655.39,267.131z"/>
	<path fill-rule="evenodd" fill="#2078AB" d="M660.634,519.346c1.483,2.575-0.135,4.078-0.886,5.524
		c-40.323,77.5-102.553,126.453-188.505,144.41c-26.742,5.587-53.811,6.874-81.031,5.968c-66.306-2.21-124.687-26.125-177.129-65.55
		c-55.437-41.672-95.169-95.007-117.487-160.974c-12.179-35.996-17.159-73.022-13.791-110.775
		c3.91-43.825,19.316-83.339,47.942-117.319c8.57-10.173,16.571-20.826,25.036-31.517c1.696,2.811-0.012,4.47-0.747,6.111
		c-16.256,36.358-21.811,74.691-18.673,113.981c4.98,62.372,28.634,117.529,68.012,165.999
		c44.418,54.672,100.21,92.803,167.46,113.732c40.117,12.486,81.325,15.811,123.146,12.288
		c41.815-3.521,80.925-15.229,116.675-37.634c14.835-9.298,27.682-20.99,40.428-32.762
		C654.589,527.591,657.093,523.082,660.634,519.346z"/>
	<path fill-rule="evenodd" fill="#2078AB" d="M677.23,367.319c-20.651,51.802-56.247,88.519-108.479,108.202
		c-32.193,12.133-65.597,14.698-99.802,12.821c-61.682-3.383-110.721-32.06-152.709-74.865
		c-29.906-30.488-49.664-67.002-57.998-108.915c-10.34-51.998-1.222-100.251,31.246-143.174c3.104-4.105,5.785-8.528,8.795-12.707
		c2.907-4.037,5.987-7.949,9.503-11.633c-3.077,9.148-7.004,17.89-9.507,27.143c-12.139,44.873-7.958,88.619,11.785,130.228
		c34.428,72.557,91.51,118.237,169.455,137.355c44.81,10.991,88.797,8.058,131.237-10.896c24.48-10.933,45.231-26.815,61.918-47.889
		C674.179,371.09,675.711,369.209,677.23,367.319z"/>
	<path fill-rule="evenodd" fill="#2078AB" d="M655.39,267.131c-4.529,8.734-10.564,16.468-17.314,23.616
		c-26.49,28.049-59.945,37.578-97.231,34.685c-55.752-4.329-96.528-32.782-123.473-80.956
		c-25.194-45.05-19.274-96.974,14.156-135.785c0.235-0.273,0.678-0.369,1.028-0.55c1.14,0.38,0.762,1.271,0.523,1.913
		c-16.39,44.185-5.588,83.909,21.126,120.2c28.576,38.821,67.963,58.65,115.794,62.816c25.879,2.254,50.055-1.604,71.719-16.641
		c4.411-3.061,8.301-6.872,12.431-10.336C654.562,266.437,654.976,266.784,655.39,267.131z"/>
</g>
</svg>
