<?xml version="1.0" encoding="utf-8"?>
<!-- Generator: Adobe Illustrator 16.0.0, SVG Export Plug-In . SVG Version: 6.00 Build 0)  -->
<!DOCTYPE svg PUBLIC "-//W3C//DTD SVG 1.1//EN" "http://www.w3.org/Graphics/SVG/1.1/DTD/svg11.dtd">
<svg version="1.1" id="Layer_1" xmlns="http://www.w3.org/2000/svg" xmlns:xlink="http://www.w3.org/1999/xlink" x="0px" y="0px"
	 width="1542.83px" height="370.881px" viewBox="0 0 1542.83 370.881" enable-background="new 0 0 1542.83 370.881"
	 xml:space="preserve">
<g>
	<path fill-rule="evenodd" clip-rule="evenodd" fill="#E43527" d="M183.716,154.59c26.75-28.116,53.424-56.305,80.285-84.314
		c11.251-11.73,21.307-24.781,35.118-33.804c8.371-5.469,17.764-7.312,27.049-3.067c12.324,5.633,16.26,19.942,10.327,32.453
		c-4.564,9.618-11.883,16.964-18.958,24.445c-29.123,30.785-58.471,61.356-87.857,91.891c-2.89,3.002-4.262,5.147-2.533,9.76
		c13.037,34.813,25.642,69.785,38.362,104.718c7.267,19.966,11.209,22.77,32.44,22.77c385.037-0.005,770.073-0.009,1155.11-0.069
		c6.558,0,13.061,0.275,19.344,2.035c16.781,4.696,16.604,23.367,10.758,33.398c-5.984,10.268-15.856,14.646-27.274,15.85
		c-3.522,0.372-7.107,0.176-10.664,0.176c-388.594,0.012-777.19,0.018-1165.784,0.024c-0.594,0-1.185,0-1.778,0
		c-32.888-0.014-45-8.873-56.05-39.571c-16.583-46.076-33.597-92-50.454-137.979c-0.563-1.539-1.42-2.971-2.827-5.869
		c-8.025,19.68-15.574,38.098-23.049,56.548c-6.537,16.132-12.991,32.298-19.48,48.45c-3.138,7.812-7.803,14.594-13.96,20.31
		c-9.365,8.698-23.058,10.587-32.784,4.629c-10.837-6.64-14.226-15.622-8.91-30.112c8.738-23.813,18.737-47.156,27.928-70.805
		c12.821-32.994,27.622-65.212,38.355-99.027c8.719-27.464-12.932-40.838-35.57-36.109c-27.052,5.651-47.313,35.96-42.754,63.106
		c0.818,4.878,3.182,8.88,6.294,12.488c4.539,5.26,10.278,8.683,16.769,11.216c12.876,5.021,18.412,12.023,17.753,21.58
		c-0.78,11.322-10.356,22.23-22.087,24.746c-21.131,4.529-38.538-2.385-52.58-18.148c-21.717-24.381-24.055-52.671-16.904-83.2
		c9.056-38.664,54.064-85.946,108.265-84.383c20.618,0.595,39.059,5.196,55.175,18.163c21.641,17.414,27.438,40.434,23.492,66.836
		c-2.063,13.804-7.631,26.587-11.79,39.781c-1.278,0.545-1.608,1.49-1.16,2.762C182.129,155.707,182.924,155.149,183.716,154.59z"/>
	<path fill-rule="evenodd" clip-rule="evenodd" fill="#E33427" d="M900.363,160.159c14.779-10.876,29.521-21.807,44.357-32.606
		c8.643-6.291,18.455-9.059,28.236-4.153c12.658,6.35,13.964,22.304,3.641,34.196c-9.444,10.877-21.675,18.384-33.336,26.398
		c-7.545,5.188-7.815,8.949-2.72,16.29c9.591,13.813,18.431,28.216,26.618,42.913c8.063,14.467,1.83,29.153-13.759,34.998
		c-9.595,3.595-16.806,1.041-23.381-8.826c-14.43-21.662-28.682-43.445-43.038-65.152c-1.094-1.65-1.569-3.903-4.855-4.768
		c-6.155,15.363-12.286,30.838-18.549,46.258c-4.113,10.129-8.084,20.294-17.018,27.572c-10.751,8.758-25.068,8.662-33.6-0.569
		c-6.253-6.759-6.177-14.359-3.036-22.319c13.536-34.3,27.066-68.602,40.703-102.86c16.698-41.933,33.489-83.83,50.273-125.728
		C905.076,11.387,911.913,3,923.142,0.7c20.657-4.229,33.367,11.273,25.723,31.106c-10.084,26.148-20.752,52.071-31.058,78.134
		c-6.396,16.17-12.581,32.422-18.862,48.638c-1.229,0.57-1.591,1.895-0.893,2.619C899.094,162.287,899.564,160.525,900.363,160.159z
		"/>
	<path fill-rule="evenodd" clip-rule="evenodd" fill="#E33427" d="M427.708,276.212c-7.701,0-15.405,0.092-23.106-0.019
		c-20.421-0.292-32.839-16.704-26.295-36.204c5.902-17.592,13.353-34.664,20.133-51.961c0.862-2.196,1.987-4.307,2.654-6.557
		c3.884-13.076-3.185-20.602-16.812-17.495c-13.624,3.104-20.185,13.921-25.114,25.495c-8.896,20.889-17.063,42.088-25.573,63.139
		c-3.713,9.191-8.625,17.486-17.43,22.822c-5.21,3.157-10.897,4.855-16.885,4.238c-13.939-1.438-21.12-11.819-17.997-25.719
		c2.345-10.428,7.291-19.918,11.178-29.783c10.817-27.436,21.679-54.852,32.634-82.231c4.742-11.848,12.779-22.442,31.148-20.597
		c6.398,0.644,11.626,2.849,15.1,7.928c2.984,4.358,5.273,3.618,9.014,1.079c16.531-11.217,34.451-15.708,53.743-8.423
		c19.474,7.355,28.755,26.453,23.238,46.78c-5.12,18.854-14.217,36.219-20.994,54.461c-2.407,6.479-2.229,8.857,5.492,8.336
		c7.356-0.499,14.818-0.168,22.189,0.412c7.572,0.596,14.175,4.292,16.488,11.549c2.355,7.383,1.918,15.391-3.733,21.783
		c-6.135,6.941-13.798,10.962-23.298,10.928c-8.59-0.03-17.184-0.006-25.774-0.006C427.708,276.183,427.708,276.197,427.708,276.212
		z"/>
	<path fill-rule="evenodd" clip-rule="evenodd" fill="#E33427" d="M1295.097,231.784c10.896,0,20.07-0.142,29.234,0.046
		c7.548,0.156,14.522,2.613,17.173,10.165c2.942,8.394,2.144,16.963-4.04,24.104c-6.45,7.453-15.051,10.119-24.604,10.168
		c-13.324,0.067-26.663-0.356-39.967,0.162c-8.128,0.316-14.45-2.445-19.573-8.283c-2.133-2.429-3.345-4.211-6.329-0.793
		c-6.048,6.924-14.037,9.213-23.096,8.981c-10.354-0.263-20.727,0.044-31.089-0.094c-27.194-0.36-45.626-24.255-37.723-50.358
		c9.146-30.21,21.914-59.123,34.68-87.955c3.609-8.157,9.765-15.148,18.64-18.01c8.868-2.858,17.607-2.151,24.534,5.308
		c7.356,7.922,5.863,17.05,2.584,25.792c-8.072,21.519-16.885,42.759-24.992,64.266c-4.773,12.65-1.104,17.32,12.31,16.05
		c13.735-1.302,23.451-7.906,28.797-21.345c9.364-23.547,17.569-47.609,28.952-70.294c5.908-11.78,14.981-19.397,29.539-18.337
		c12.074,0.879,20.894,10.965,18.226,22.974c-4.755,21.422-15.058,40.868-22.775,61.238
		C1302.468,213.777,1299.071,221.874,1295.097,231.784z"/>
	<path fill-rule="evenodd" clip-rule="evenodd" fill="#E33427" d="M558.583,276.225c-7.347-0.306-14.718-0.358-22.103-0.81
		c-28.032-1.709-45.539-27.957-47.932-51.313c-4.825-47.052,23.551-90.942,69.093-102.605c36.848-9.438,67.759,1.245,83.213,34.199
		c10.521,22.435,7.142,45.729-2.024,67.995c-6.36,15.445-15.416,29.355-28.932,39.708
		C594.708,275.034,577.051,277.349,558.583,276.225z M563.536,231.834c0.986-0.138,3.956-0.286,6.787-0.995
		c17.694-4.415,29.964-26.352,27.001-48.074c-2.067-15.15-15.17-23.771-29.512-18.525c-18.896,6.912-27.705,21.987-30.061,41.088
		C535.681,222.138,544.57,231.636,563.536,231.834z"/>
	<path fill-rule="evenodd" clip-rule="evenodd" fill="#E33427" d="M1052.624,276.142c-4.599-0.375-12.258-0.213-19.941-0.775
		c-23.763-1.738-42.69-24.646-46.088-48.237c-6.979-48.507,23.363-94.21,70.729-106.56c37.994-9.907,74.396,9.014,84.38,43.858
		c9.91,34.592-8.673,83.04-39.015,102.332C1088.159,275.998,1072.066,276.673,1052.624,276.142z M1095.457,186.728
		c0.889-7.963-2.595-16.523-11.932-21.403c-9.932-5.188-19.602-2.688-28.144,3.792c-10.243,7.771-16.521,18.222-19.319,30.776
		c-5.089,22.802,8.847,36.493,31.63,31.045C1083.378,227.189,1095.241,209.32,1095.457,186.728z"/>
	<path fill-rule="evenodd" clip-rule="evenodd" fill="#E33427" d="M1401.931,276.179c-8,0-16.037,0.473-23.999-0.092
		c-21.491-1.523-32.461-17.206-25.298-37.78c7.457-21.432,16.322-42.385,25.01-63.366c2.65-6.398,2.785-8.527-5.408-9.187
		c-15.851-1.274-22.221-20.023-11.783-33.081c7.059-8.832,16.681-12.147,27.626-11.136c8.166,0.754,11.838-2.537,14.801-10.202
		c5.145-13.306,8.177-27.916,19.97-37.928c7.468-6.34,22.078-8.388,29.724-3.474c9.215,5.921,11.9,14.081,7.902,26.318
		c-2.192,6.708-5.068,13.231-8.128,19.602c-2.199,4.567-0.705,5.761,3.682,5.556c1.477-0.069,2.963,0.117,4.442,0.081
		c9.174-0.222,16.159,3.165,19.442,12.184c2.883,7.925-0.191,18.501-6.625,24.267c-8.902,7.98-19.716,9.202-30.831,8.16
		c-7.416-0.695-10.817,1.988-13.332,8.982c-5.881,16.375-12.612,32.455-19.341,48.512c-2.41,5.758-2.494,8.637,5.068,7.892
		c5.276-0.519,10.664-0.17,15.988,0.081c14.086,0.671,21.308,5.802,22.214,15.555c1.313,14.11-5.829,24.402-19.258,27.704
		c-2.011,0.495-4.05,1.173-6.085,1.204c-8.591,0.135-17.185,0.057-25.777,0.057C1401.935,276.117,1401.931,276.148,1401.931,276.179
		z"/>
	<path fill-rule="evenodd" clip-rule="evenodd" fill="#E33427" d="M740.174,276.289c-7.405,0.002-14.853-0.512-22.21,0.088
		c-38.269,3.113-58.533-25.415-62.052-55.344c-5.068-43.07,24.773-88.858,66.79-100.016c18.41-4.889,36.931-4.338,53.598,7.281
		c17.726,12.359,25.044,38.157,15.905,57.623c-4.603,9.798-11.88,16.05-23.398,15.997c-12.244-0.053-17.722-5.248-18.386-17.615
		c-0.128-2.364-0.201-4.733-0.368-7.095c-1.004-14.32-10.216-19.368-23.294-12.78c-14.968,7.539-26.465,32.36-22.605,48.578
		c2.56,10.744,10.129,15.27,20.258,17.016c14.131,2.434,28.358,0.93,42.541,1.312c5.328,0.146,10.674-0.094,15.985,0.257
		c13.154,0.872,19.459,5.654,21.286,15.76c1.782,9.844-4.012,20.582-14.006,25.26c-5.658,2.65-11.682,3.884-18.056,3.742
		C761.502,276.117,750.838,276.288,740.174,276.289z"/>
	<path fill-rule="evenodd" clip-rule="evenodd" fill="#E43527" d="M1511.082,224.554c14.888-0.105,27.727,12.94,28.018,28.477
		c0.289,15.132-12.602,28.391-27.806,28.603c-16.927,0.237-28.849-11.677-28.876-28.858
		C1482.386,236.369,1494.266,224.671,1511.082,224.554z"/>
	<path fill-rule="evenodd" clip-rule="evenodd" fill="#FFFEFE" d="M183.716,154.59c-0.792,0.559-1.587,1.116-2.383,1.675
		c-0.448-1.272-0.118-2.217,1.16-2.762C182.931,153.835,183.338,154.197,183.716,154.59z"/>
	<path fill-rule="evenodd" clip-rule="evenodd" fill="#FFFEFE" d="M900.363,160.159c-0.799,0.366-1.269,2.128-2.311,1.038
		c-0.698-0.725-0.337-2.049,0.893-2.619C899.417,159.105,899.89,159.632,900.363,160.159z"/>
</g>
</svg>
