<?xml version="1.0" encoding="utf-8"?>
<!-- Generator: Adobe Illustrator 16.0.0, SVG Export Plug-In . SVG Version: 6.00 Build 0)  -->
<!DOCTYPE svg PUBLIC "-//W3C//DTD SVG 1.1 Tiny//EN" "http://www.w3.org/Graphics/SVG/1.1/DTD/svg11-tiny.dtd">
<svg version="1.1" baseProfile="tiny" id="Layer_1" xmlns="http://www.w3.org/2000/svg" xmlns:xlink="http://www.w3.org/1999/xlink"
	 x="0px" y="0px" width="1222px" height="833.57px" viewBox="-480.469 0 1222 833.57" overflow="scroll" xml:space="preserve">
<g>
	<path fill-rule="evenodd" fill="#F84F3A" d="M255.062,828.285c1.417-0.835,0.216-1.375-0.324-1.611
		c-11.969-5.23-19.07-15.345-25.624-25.856c-15.957-25.597-30.757-51.877-45.507-78.177
		c-27.709-49.403-55.266-98.892-82.732-148.429c-2.052-3.7-3.897-4.648-8.101-3.545C11.42,592.014-69.902,613.489-151.529,633.78
		c-4.191,1.042-8.475,1.916-12.767,2.316c-23.67,2.209-40.71-8.021-51.021-30.313c-41.467-89.654-83.03-179.264-124.408-268.959
		c-40.68-88.178-81.193-176.433-121.72-264.681c-2.421-5.271-4.31-10.787-6.459-16.185c-0.052-0.13-0.337-0.31-0.381-0.278
		c-0.241,0.169-0.44,0.396-0.654,0.604c0-6.333,0-12.667,0-19c0.216,0.178,0.417,0.386,0.659,0.513
		c0.066,0.035,0.322-0.144,0.387-0.275c3.974-8.063,11.304-10.406,19.403-11.073c50.311-4.148,100.628-8.232,150.948-12.286
		c21.921-1.766,43.854-3.386,65.773-5.165c1.33-0.107,3.461,0.836,3.83-1.713c13.667,0,27.333,0,41,0
		c-1.346,0.96-0.075,1.398,0.467,1.572c7.345,2.35,11.701,8.029,15.644,14.09c13.448,20.676,25.645,42.114,38.309,63.266
		c84.035,140.363,168.011,280.762,251.905,421.209c2.058,3.443,3.896,4.37,7.9,3.406c117.396-28.249,234.826-56.356,352.25-84.487
		c5.586-1.338,5.6-1.347,2.369-5.923c-38.154-54.033-76.313-108.063-114.471-162.095c-0.865-1.226-1.742-2.442-2.585-3.682
		c-6.746-9.929-4.61-16.746,6.878-20.644c10.622-3.603,21.844-4.488,32.832-6.335c49.773-8.363,99.59-16.478,149.366-24.82
		c8.648-1.449,16.144,0.485,22.928,5.856c5.264,4.168,9.704,9.122,13.897,14.317c44.272,54.843,88.538,109.692,132.813,164.533
		c2.284,2.831,4.635,5.608,6.968,8.399c0.002,0.004,0.211-0.132,0.287-0.23c0.1-0.13,0.163-0.288,0.242-0.434c0,3,0,6,0,9
		c-5.031,3.431-10.312,6.123-16.318,7.7c-39.31,10.317-78.561,20.854-117.834,31.313c-12.875,3.429-25.742,6.892-38.646,10.214
		c-3.003,0.772-4.234,1.735-1.675,4.429c0.685,0.72,1.21,1.589,1.807,2.392c46.927,63.114,93.862,126.222,140.755,189.361
		c2.277,3.065,4.492,6.25,6.206,9.646c3.545,7.023,2.062,11.979-4.597,16.181c-5.382,3.396-11.303,5.69-17.263,7.831
		c-134.165,48.203-267.535,98.645-403.044,143.062c-0.776,0.254-2.493,0.101-1.391,1.872
		C271.062,828.285,263.062,828.285,255.062,828.285z M-210.957,41.202c-10.277,0.872-19.576,1.638-28.87,2.452
		c-55.102,4.833-110.2,9.693-165.305,14.495c-7.488,0.653-8.635,2.361-5.703,9.279c0.324,0.766,0.71,1.506,1.074,2.254
		c81.284,166.802,162.27,333.749,242.82,500.906c4.582,9.508,4.574,9.58,15.296,7.027c71.13-16.935,142.255-33.896,213.379-50.854
		c10.376-2.474,11.134-4.342,5.695-13.833c-0.166-0.289-0.321-0.584-0.488-0.872C41.469,468.092,15.996,424.125-9.48,380.16
		C-73.626,269.456-137.781,158.757-201.89,48.03C-204.202,44.037-205.953,39.624-210.957,41.202z M279.195,766.282
		c3.707-0.305,7.714-2.521,11.946-3.957c105.021-35.609,210.027-71.26,315.035-106.908c9.933-3.372,19.896-6.665,29.77-10.202
		c7.386-2.646,8.027-4.845,3.776-11.253c-1.289-1.942-2.643-3.845-4.017-5.729c-37.689-51.684-75.468-103.303-113.022-155.084
		c-9.696-13.37-8.022-12.359-22.92-8.43c-51.843,13.674-103.761,27.062-155.648,40.563
		c-63.651,16.563-127.301,33.133-190.951,49.702c-2.491,0.648-5.57,0.413-3.01,4.802c37.771,64.735,74.912,129.839,113.502,194.095
		c1.979,3.296,4.238,6.398,7.104,8.989C272.894,764.801,275.273,766.305,279.195,766.282z M558.543,235.784
		c-0.903,0.152-2.218,0.362-3.527,0.599c-43.746,7.922-87.484,15.882-131.242,23.741c-10.214,1.834-10.827,2.961-4.833,11.188
		c34.131,46.849,68.308,93.664,102.361,140.568c2.187,3.012,4.112,3.793,7.827,2.853c29.052-7.358,58.169-14.455,87.269-21.621
		c16.49-4.061,33.025-7.943,49.462-12.209c8.591-2.229,9.198-4.581,3.827-11.395c-17.635-22.367-35.298-44.713-52.895-67.11
		c-15.538-19.777-31.009-39.607-46.49-59.429C567.365,239.209,564.262,235.784,558.543,235.784z"/>
</g>
</svg>
