<?xml version="1.0" encoding="utf-8"?>
<!-- Generator: Adobe Illustrator 16.0.0, SVG Export Plug-In . SVG Version: 6.00 Build 0)  -->
<!DOCTYPE svg PUBLIC "-//W3C//DTD SVG 1.1 Tiny//EN" "http://www.w3.org/Graphics/SVG/1.1/DTD/svg11-tiny.dtd">
<svg version="1.1" baseProfile="tiny" id="Layer_1" xmlns="http://www.w3.org/2000/svg" xmlns:xlink="http://www.w3.org/1999/xlink"
	 x="0px" y="0px" width="600px" height="231.643px" viewBox="0 0 600 231.643" overflow="scroll" xml:space="preserve">
<g>
	<path fill-rule="evenodd" fill="#1E4270" d="M132.541,1.291c0.04,47.447,0.075,94.894,0.122,142.341
		c0.016,15.951,5.204,20.892,20.852,18.933c5.538-0.692,7.657,0.729,7.031,6.397c-0.275,2.488,0.007,5.036-0.048,7.553
		c-0.337,15.44,2.568,13.076-13.685,16.085c-8.256,1.527-16.701,2.606-25.21,0.718c-14.155-3.143-24.179-13.707-26.089-28.373
		c-0.675-5.183-0.898-10.46-0.905-15.695c-0.066-46.818-0.034-93.637-0.055-140.455C94.554,5.862,94.339,2.932,94.225,0
		c12.398,0,24.796,0,37.194,0C131.793,0.43,132.167,0.86,132.541,1.291z"/>
	<path fill-rule="evenodd" fill="#1E426F" d="M0,110.969c9.013,0.177,14.066-3.32,16.632-11.754
		c1.286-4.225,1.828-8.596,1.825-13.042c-0.01-10.714-0.072-21.431,0.095-32.143c0.412-26.27,13.379-40.623,39.148-42.569
		c16.017-1.209,13.58-3,13.993,13.099c0.143,5.551-0.124,9.448-7.21,10.217c-6.435,0.698-10.481,5.719-12.064,12.104
		c-0.9,3.626-1.278,7.456-1.366,11.207c-0.203,8.609-0.088,17.226-0.093,25.839c-0.01,16.162-3.544,30.546-20.074,39.082
		c18.437,9.306,20.266,25.672,20.169,43.122c-0.052,9.634-0.948,19.33,0.865,28.917c1.692,8.957,5.35,13.011,14.108,14.19
		c4.646,0.626,5.767,2.807,5.649,7.052c-0.157,5.658,0.134,11.329,0.232,16.995c-4.546,0-9.093,0-13.638,0
		c-0.414-0.442-0.827-1.582-1.24,0c-1.653,0-3.306,0-4.959,0c-1.331-3.927-5.144-2.828-7.789-3.636
		c-13.83-4.226-22.021-13.222-24.683-27.748c-1.304-7.117-0.889-14.229-1.149-21.349c-0.374-10.267,1.012-20.597-0.978-30.805
		C15.43,139.264,10.539,135.151,0,134.927C0,126.942,0,118.955,0,110.969z"/>
	<path fill-rule="evenodd" fill="#1E426F" d="M533.112,233.286c-1.048-6.259-0.385-12.567-0.498-18.854
		c-0.053-3.044,1.378-4.341,4.322-4.984c11.556-2.53,15.448-7.274,15.832-19.563c0.288-9.229,0.108-18.474,0.133-27.712
		c0.039-15.399,2.111-29.9,17.495-38.854c-14.895-9.408-17.161-23.92-17.446-39.224c-0.172-9.235-0.075-18.475-0.073-27.712
		c0.002-11.423-4.714-21.531-16.827-22.435c-3.552-0.266-3.731-3.165-3.371-5.596c0.848-5.732-3.015-12.487,2.356-16.986
		c1.812-1.516,5.973-0.265,9.048-0.06c24.767,1.653,37.91,15.619,38.755,40.768c0.491,14.67-1.169,29.416,1.175,44.011
		c1.653,10.291,7.349,14.996,17.289,14.883c0,7.986,0,15.974,0,23.958c-10.284,0.24-15.617,4.703-17.336,14.911
		c-0.655,3.899-0.945,7.899-1.014,11.86c-0.187,11.099,0.121,22.213-0.3,33.302c-0.752,19.843-9.189,30.408-27.863,35.669
		c-1.676,0.474-3.894,0.013-4.319,2.617c-1.239,0-2.479,0-3.719,0c-0.189-0.276-0.38-0.551-0.571-0.827
		c-0.223,0.276-0.446,0.551-0.669,0.827C541.379,233.286,537.247,233.286,533.112,233.286z"/>
	<path fill-rule="evenodd" fill="#173356" d="M131.668,1.286c-0.372-0.429-0.743-0.857-1.115-1.286c0.41,0,0.82,0,1.231,0
		C131.746,0.429,131.708,0.857,131.668,1.286z"/>
	<path fill-rule="evenodd" fill="#010205" d="M519.995,232.415c0.212-0.258,0.424-0.515,0.636-0.772
		c0.182,0.258,0.363,0.515,0.543,0.772C520.782,232.415,520.388,232.415,519.995,232.415z"/>
	<path fill-rule="evenodd" fill="#1E426F" d="M249.519,137.332c-11.361,0-22.726,0.221-34.078-0.091
		c-5.79-0.159-6.678,2.318-5.338,7.261c2.773,10.221,9.12,16.904,19.163,19.437c15.856,3.999,31.208,2.101,45.611-5.757
		c4.51-2.461,5.593-1.582,5.388,3.327c-0.252,6.081-0.226,12.187-0.007,18.271c0.126,3.485-1.237,5.505-4.315,6.711
		c-23.128,9.069-46.73,11.384-70.118,2.211c-23.621-9.267-32.954-29.287-34.603-53.584c-1.067-15.731,1.171-31.026,9.123-44.985
		c22.667-39.789,75.878-36.04,94.757-14.308c9.487,10.922,13.941,23.63,14.945,37.802c0.429,6.063-0.006,12.186,0.234,18.27
		c0.162,4.114-1.474,5.526-5.444,5.47c-11.77-0.166-23.546-0.06-35.318-0.06C249.519,137.316,249.519,137.324,249.519,137.332z
		 M232.44,114.252c0,0.009,0,0.018,0,0.027c5.771,0,11.542,0.025,17.313-0.01c2.95-0.019,5.18-0.667,5.145-4.56
		c-0.113-12.822-8.342-21.38-20.928-21.494c-11.547-0.106-22.382,9.363-24.32,21.058c-0.609,3.678,0.829,5.019,4.241,4.993
		C220.075,114.218,226.258,114.252,232.44,114.252z"/>
	<path fill-rule="evenodd" fill="#1E426F" d="M417.833,168.737c0.366-4.084-2.257-11.413,0.959-13.942
		c3.055-2.403,8.287,3.664,12.785,5.563c10.931,4.606,22.095,6.783,33.864,4.762c2.025-0.348,4.059-0.827,5.983-1.536
		c3.459-1.278,6.335-3.369,6.735-7.44c0.37-3.774-1.834-6.285-4.674-8.305c-3.599-2.561-7.666-4.045-11.796-5.436
		c-8.226-2.771-16.458-5.488-24.209-9.556c-12.764-6.698-19.474-17.264-19.572-31.83c-0.095-14.236,6.304-24.918,18.291-32.156
		c12.168-7.345,25.694-8.81,39.407-8.904c9.511-0.064,18.911,1.309,28.198,3.584c4.034,0.988,5.977,2.712,5.716,7.25
		c-0.356,6.281-0.266,12.606-0.029,18.9c0.186,4.947-0.87,6.413-5.902,4.107c-10.538-4.831-21.777-6.231-33.282-5.451
		c-7.876,0.533-13.58,3.669-13.989,8.138c-0.688,7.497,4.918,10.149,10.308,12.365c8.602,3.533,17.559,6.197,26.061,9.938
		c13.796,6.068,23.217,15.532,23.35,32.279c0.141,17.496-8.021,29.451-23.23,35.995c-23.494,10.109-47.49,8.889-71.441,1.11
		c-2.61-0.847-3.616-2.379-3.558-5.066C417.907,178.696,417.833,174.283,417.833,168.737z"/>
	<path fill-rule="evenodd" fill="#1E426F" d="M306.098,170.515c-0.008-3.571-0.034-7.145-0.004-10.717
		c0.063-6.797,0.106-6.853,5.711-3.563c8.886,5.212,18.315,8.685,28.595,9.523c6.023,0.492,11.976-0.021,17.768-1.785
		c3.896-1.185,7.371-2.973,7.791-7.831c0.41-4.773-2.592-7.29-6.085-9.386c-5.203-3.125-11.046-4.648-16.714-6.577
		c-6.278-2.136-12.462-4.473-18.285-7.699c-24.592-13.627-25.759-47.25-2.143-62.692c12.51-8.18,26.658-9.729,41.024-9.826
		c9.311-0.063,18.513,1.296,27.61,3.444c3.973,0.939,6.082,2.613,5.847,7.19c-0.331,6.497-0.195,13.027-0.043,19.539
		c0.101,4.345-1.015,5.658-5.365,3.711c-10.386-4.645-21.365-6.197-32.679-5.547c-8.176,0.471-13.976,3.49-14.928,7.937
		c-1.063,4.952,2.903,9.755,11.308,13.075c8.269,3.266,16.803,5.864,24.961,9.377c14.403,6.203,23.935,16.274,23.718,33.393
		c-0.219,17.399-9.022,29.146-24.256,35.417c-22.96,9.445-46.386,8.392-69.773,1.001c-3.159-0.997-4.2-2.854-4.085-6.007
		C306.216,178.504,306.106,174.507,306.098,170.515z"/>
	<path fill-rule="evenodd" fill="#FFFFFF" d="M230.91,113.869c-6.142,0-12.285-0.033-18.427,0.014
		c-3.39,0.026-4.818-1.311-4.213-4.976c1.926-11.655,12.689-21.093,24.16-20.987c12.502,0.114,20.677,8.643,20.79,21.422
		c0.034,3.88-2.18,4.525-5.111,4.544c-5.732,0.036-11.466,0.01-17.199,0.01C230.91,113.887,230.91,113.877,230.91,113.869z"/>
</g>
</svg>
