<?xml version="1.0" encoding="utf-8"?>
<!-- Generator: Adobe Illustrator 16.0.0, SVG Export Plug-In . SVG Version: 6.00 Build 0)  -->
<!DOCTYPE svg PUBLIC "-//W3C//DTD SVG 1.1 Tiny//EN" "http://www.w3.org/Graphics/SVG/1.1/DTD/svg11-tiny.dtd">
<svg version="1.1" baseProfile="tiny" id="Layer_1" xmlns="http://www.w3.org/2000/svg" xmlns:xlink="http://www.w3.org/1999/xlink"
	 x="0px" y="0px" width="405.778px" height="405.671px" viewBox="0 0 405.778 405.671" overflow="scroll" xml:space="preserve">
<g>
	<path fill-rule="evenodd" fill="#DA4D4A" d="M1.807,16.779c8.554,7.452,17.272,14.726,25.637,22.382
		c61.764,56.547,123.438,113.187,185.175,169.766c49.946,45.773,99.927,91.512,149.924,137.232
		c6.436,5.883,12.316,12.406,8.082,21.563c-3.394,7.342-9.799,11.525-18.711,10.082c-5.605-0.909-9.209-4.723-12.789-8.423
		c-83.867-86.65-167.649-173.386-251.519-260.036C60.787,81.639,33.762,54.13,6.852,26.511C4.483,24.077,2.28,21.484,0,18.965
		C0.602,18.234,1.205,17.507,1.807,16.779z"/>
	<path fill-rule="evenodd" fill="#DA4D4A" d="M32.346,123.32c13.039,11.411,26.122,22.639,38.957,34.14
		c59.726,53.518,119.41,107.084,179.049,160.699c20.918,18.803,41.727,37.725,62.459,56.729c8.523,7.815,9.176,16.199,2.343,23.57
		c-7.384,7.96-17.286,8.246-25.448-0.283c-30.486-31.856-60.642-64.031-91.028-95.986
		C142.925,243.566,87.099,185.016,31.306,126.431c-0.233-0.244-0.64-0.627-0.575-0.797C30.913,125.163,31.299,124.771,32.346,123.32
		z"/>
	<path fill-rule="evenodd" fill="#DA4D4A" d="M115.484,52.372c8.545,7.304,17.247,14.435,25.613,21.938
		c49.939,44.799,99.796,89.693,149.695,134.539c33.351,29.969,66.716,59.924,100.096,89.86c7.936,7.118,9.743,18.299,3.907,24.884
		c-6.938,7.829-18.244,7.713-26.54-0.909c-24.588-25.546-48.964-51.3-73.411-76.98c-44.352-46.59-88.717-93.169-133.038-139.788
		c-16.234-17.078-32.358-34.258-48.534-51.389C114.01,53.81,114.746,53.092,115.484,52.372z"/>
	<path fill-rule="evenodd" fill="#DA4D4A" d="M215.478,85.954c13.9,12.332,27.869,24.59,41.688,37.012
		c45.712,41.095,91.369,82.247,137.042,123.383c2.579,2.324,5.264,4.566,7.611,7.11c4.568,4.953,5.65,10.444,0.755,15.729
		c-5.187,5.594-11.195,5.544-16.453,0.306c-11.556-11.514-22.873-23.273-34.125-35.09c-45.273-47.545-90.486-95.146-135.697-142.752
		c-1.095-1.149-1.894-2.581-2.829-3.881C214.139,87.165,214.809,86.56,215.478,85.954z"/>
	<path fill-rule="evenodd" fill="#DA4D4A" d="M71.405,221.899c12.104,10.612,24.308,21.114,36.293,31.856
		c46.854,41.992,93.64,84.058,140.439,126.114c1.545,1.391,3.094,2.826,4.385,4.444c4.248,5.32,4.548,10.888-0.235,15.896
		c-5.006,5.247-10.624,4.87-15.565-0.139c-9.515-9.647-18.831-19.499-28.158-29.329c-44.765-47.165-89.506-94.347-134.238-141.541
		c-1.654-1.745-3.123-3.667-4.678-5.508C70.233,223.096,70.819,222.499,71.405,221.899z"/>
	<path fill-rule="evenodd" fill="#DA4D4A" d="M109.562,304.687c12.838,11.34,25.707,22.644,38.504,34.028
		c12.956,11.524,25.945,23.014,38.665,34.796c2.475,2.293,6.8,5.275,3.017,9.531c-3.469,3.9-7.591,2.877-10.896-0.574
		c-23.929-25-47.787-50.068-71.665-75.114C107.978,306.464,108.771,305.575,109.562,304.687z"/>
	<path fill-rule="evenodd" fill="#DA4D4A" d="M309.674,131.295c5.522-2.405,7.934,1.305,10.616,3.714
		c21.133,18.986,42.208,38.033,63.204,57.17c3.382,3.087,9.342,6.527,4.443,11.713c-4.904,5.188-9.401,0.512-13.035-3.341
		C353.292,177.655,331.726,154.717,309.674,131.295z"/>
</g>
</svg>
