<?xml version="1.0" encoding="utf-8"?>
<!-- Generator: Adobe Illustrator 16.0.0, SVG Export Plug-In . SVG Version: 6.00 Build 0)  -->
<!DOCTYPE svg PUBLIC "-//W3C//DTD SVG 1.1 Tiny//EN" "http://www.w3.org/Graphics/SVG/1.1/DTD/svg11-tiny.dtd">
<svg version="1.1" baseProfile="tiny" id="Layer_1" xmlns="http://www.w3.org/2000/svg" xmlns:xlink="http://www.w3.org/1999/xlink"
	 x="0px" y="0px" width="1757px" height="504px" viewBox="-272.469 183.285 1757 504" xml:space="preserve">
<path fill-rule="evenodd" fill="#42A347" d="M-271.469,405.285c1.317-9.295,2.57-18.6,3.989-27.88
	c0.472-3.085,0.62-6.271,1.989-9.173c4.295,1.221,4.852,5.177,5.983,8.529c8.61,25.509,17.14,51.046,25.585,76.61
	c14.387,43.549,29.229,86.944,43.751,130.448c1.05,3.147,3.114,6.555-0.354,9.633c-44.601-40.08-73.381-88.655-80.057-149.099
	c-1.054-1.913,0.35-4.184-0.886-6.069C-271.469,427.285-271.469,416.285-271.469,405.285z"/>
<path fill-rule="evenodd" fill="#BEBCBB" d="M1484.531,569.285c-1.429,0.746-1.084,2.335-1.552,3.5
	c-5.039,12.551-17.09,19.085-30.671,16.497c-12.375-2.357-20.973-13.453-20.783-26.822c0.182-12.814,9.204-23.31,21.83-25.393
	c13.383-2.208,25.621,4.934,30.057,17.524c0.322,0.916,0.744,1.797,1.119,2.693C1484.531,561.285,1484.531,565.285,1484.531,569.285
	z"/>
<path fill-rule="evenodd" fill="#1B421D" d="M-271.469,438.285c1.491,1.849,0.976,3.99,0.887,6.069
	c-0.292-0.063-0.588-0.085-0.887-0.069C-271.469,442.285-271.469,440.285-271.469,438.285z"/>
<path fill-rule="evenodd" fill="#459B45" d="M-167.456,202.251c3.863,6.975,6.996,14.324,11.249,21.109
	c5.378,8.579,12.905,15.213,19.748,22.453c37.573,39.754,61.348,86.946,70.238,140.45c12.56,75.58-7.643,142.075-61.935,197.267
	c-6.544,6.652-13.515,12.797-21.334,17.933c-3.597,1.688-5.556-0.615-7.467-3.051c-3.089-2.843-4.173-6.812-5.872-10.443
	c-2.994-9.212-4.142-18.692-4.135-28.337c0.002-2.009-0.243-3.973-0.748-5.915c-0.606-19.278,1.925-38.442,1.993-57.696
	c0.366-1.113,0.715-2.261,0.645-3.424c-1.143-18.804,1.597-37.608,0.251-56.381c-1.695-23.643-0.695-47.291-0.763-70.933
	c-0.03-10.635,0.627-21.287,0.653-31.942c0.018-7.338,0.024-14.649-1.606-21.854c-0.34-11.158-0.33-22.326-0.113-33.482
	c0.298-15.331-1.248-30.594-1.276-45.92c-0.016-8.59-1.369-17.19-1.063-25.837C-168.938,204.737-168.938,203.211-167.456,202.251z"
	/>
<path fill-rule="evenodd" fill="#2C2B2D" d="M24.553,483.284c-0.712-3.366-2.724-5.574-5.896-6.863
	c-4.607-1.872-9.161-3.872-13.769-5.743c-2.601-1.057-5.98-1.673-5.739-5.217c0.236-3.475,3.629-4.199,6.36-4.588
	c9.896-1.408,19.543-3.868,29.149-6.504c4.156-1.14,8.25-2.542,12.308-4.002c4.584-1.65,5.569-1.074,5.653,3.936
	c0.05,2.993-0.104,5.989-0.166,8.984c-0.648,2.005-0.712,4.006,0.045,6c3.027,2.144,4.598-0.938,6.373-2.106
	c8.169-5.378,16.226-10.79,25.492-14.316c21.169-8.057,37.97-3.322,51.031,15.236c2.662,3.782,4.689,3.011,7.655,0.819
	c11.026-8.149,22.659-15.243,36.123-18.607c22.108-5.523,44.4,7.652,50.406,29.612c1.619,5.921,3.315,11.829,3.107,18.065
	c0.871,2.011-0.244,4.265,0.767,6.259c-0.001,1.692-0.003,3.386-0.005,5.079c-0.961,12.88-0.15,25.778-0.418,38.664
	c0.222,6.756-0.457,13.53,0.378,20.275c0.377,3.881,3.039,5.779,6.344,6.771c4.096,1.229,8.261,2.322,12.469,3.047
	c2.614,0.449,4.974,1.038,4.047,4.098c-0.919,3.032,0.826,8.057-4.888,8.203c-3.631,0.093-7.271-0.13-10.906-0.211
	c-2.287-0.808-4.652-0.201-6.978-0.39c-10.018-0.217-20.04,0.441-30.047-0.339c-0.235,0.001-0.469-0.015-0.701-0.046
	c-1.968,0.969-4.218-0.226-6.179,0.802c-2.573,0.06-5.151,0.047-7.721,0.198c-2.825,0.167-3.753-1.241-3.475-3.82
	c-0.49-2.479-0.632-4.953,0.099-7.415c3.134-0.888,6.29-1.706,9.397-2.677c7.572-2.367,9.088-4.313,9.77-12.262
	c0.821-3.519,0.188-7.091,0.391-10.635c0-14.087,0-28.171,0-42.25c-0.203-2.333,0.449-4.721-0.418-7.018
	c-0.473-6.634-1.24-13.231-4.869-19.013c-6.535-10.409-19.108-15.877-31.339-13.673c-5.571,1.004-10.854,2.922-16.033,5.246
	c-7.133,3.203-12.173,7.437-9.679,16.269c0.647,1.833,0.206,3.731,0.338,5.597c-0.001,12.443,0,24.885,0,37.326
	c0,8.1,0,16.201,0,24.299c0.214,2.615-0.464,5.281,0.415,7.864c0.453,3.997,2.991,6.168,6.585,7.242
	c3.176,0.949,6.386,2.211,9.634,2.396c5.644,0.322,5.157,3.92,4.979,7.705c-0.201,4.244-2.679,4.906-6.393,4.884
	c-19.964-0.119-39.93-0.068-59.894,0.053c-3.299,0.02-5.731-0.633-5.685-4.419c0.041-3.335-0.913-7.374,4.328-8.01
	c1.48-0.18,2.926-0.626,4.403-0.849c10.994-1.665,13.176-3.915,13.888-15.04c0.318-4.976,0.229-9.977,0.323-14.967
	c1.142-5.378-0.27-10.878,0.772-16.261c0-2.8-0.001-5.6-0.002-8.399c-1.023-4.372,0.361-8.888-0.782-13.253
	c0.053-6.172-0.477-12.268-2.349-18.191c-5.22-16.514-17.003-22.463-33.475-20.439c-8.671,1.065-16.423,5.123-23.652,9.979
	c-1.929,1.296-3.686,2.911-3.624,5.596c-0.892,1.729-0.447,3.588-0.45,5.381c-0.036,20.905-0.022,41.811-0.022,62.713
	c0.221,2.968-0.468,5.983,0.42,8.924c-0.745,11.845,5.054,12.612,15.584,14.773c2.014,0.413,4.682-0.365,5.342,2.489
	c0.768,3.322,0.178,6.605-1.414,9.623c-0.489,0.926-1.581,1.249-2.623,0.958c-5.209-1.455-10.553-0.44-15.813-0.922
	c-11.667-0.677-23.333-0.748-34.997,0.053c-4.44,0.396-8.954-0.477-13.347,0.772c-1.008,0.286-2.139,0.333-2.707-0.613
	c-1.837-3.061-1.09-6.438-0.799-9.687c0.216-2.4,2.354-2.261,4.155-2.634c20.104-4.174,16.748-4.591,18.61-22.356
	c0.259-2.462,0.084-4.969,0.11-7.455c1.034-5.112,0.211-10.281,0.478-15.42c0-11.687,0-23.372,0-35.055
	C24.741,492.974,25.624,488.097,24.553,483.284z"/>
<path fill-rule="evenodd" fill="#484749" d="M504.533,528.286c0,11.831-0.047,23.663,0.015,35.493
	c0.05,9.377,2.092,11.749,11.213,13.37c1.638,0.292,3.313,0.772,4.938,0.666c5.995-0.39,6.262,3.262,5.818,7.705
	c-0.585,5.861-1.576,6.99-7.471,6.585c-19.807-1.36-39.603-1.27-59.405,0.002c-3.314,0.213-6.78,0.813-7.156-4.387
	c-0.559-7.7,0.121-9.221,5.886-10.212c1.148-0.197,2.318-0.276,3.46-0.503c9.85-1.958,11.239-3.96,11.87-13.968
	c1.554-24.647,0.381-49.313,0.902-73.963c0.116-5.523-1.753-9.136-6.829-11.49c-4.246-1.97-8.566-3.671-12.992-5.135
	c-2.961-0.98-6.179-2.145-5.805-5.799c0.361-3.543,3.356-5.078,6.764-5.616c9.381-1.482,18.666-3.448,27.815-5.981
	c4.969-1.376,9.863-3.036,14.743-4.708c4.215-1.443,5.896-0.584,6.002,4.026c0.096,4.14-0.543,8.293-0.727,12.445
	c-0.055,1.252-0.645,2.961,0.678,3.683c1.454,0.793,2.305-0.904,3.278-1.671c9.612-7.571,19.776-14.12,31.55-17.913
	c22.278-7.177,44.991,3.958,52.833,26.043c3.265,9.195,4.598,18.724,4.617,28.457c0.032,15.999,0.039,31.998,0.135,47.997
	c0.022,3.653,0.299,7.311,0.578,10.957c0.656,8.561,1.146,9.158,9.505,11.525c2.398,0.679,4.844,1.449,7.304,1.601
	c4.79,0.297,6.003,2.723,5.653,7.186c-0.517,6.604-1.342,7.869-7.628,7.419c-19.475-1.396-38.935-1.161-58.403,0.044
	c-3.474,0.215-7.083,0.795-7.267-4.777c-0.261-7.907-0.013-8.702,6.279-9.777c13.579-2.32,14.122-2.921,14.088-16.642
	c-0.047-18.642,0.027-37.287-0.277-55.925c-0.401-24.611-17.837-37.534-41.779-31.214c-2.087,0.551-4.149,1.263-6.143,2.092
	c-12.259,5.104-14.297,8.186-14.297,21.385c-0.001,10.333,0,20.667,0,31C504.363,528.286,504.448,528.286,504.533,528.286z"/>
<path fill-rule="evenodd" fill="#4AA64A" d="M-190.526,593.453c0.343-2.906-0.561-5.579-1.47-8.274
	c-10.638-31.534-21.296-63.062-31.864-94.619c-12.208-36.454-24.358-72.928-36.461-109.416c-1.466-4.422-3.176-8.716-5.17-12.911
	c1.707-12.642,5.591-24.722,9.636-36.742c1.78-5.288,3.339-10.698,6.219-15.562c3.807,1.306,4.163,4.954,5.182,7.988
	c9.905,29.492,19.816,58.983,29.56,88.528c14.746,44.715,30.134,89.213,44.945,133.904c1.301,3.923,2.758,7.813,3.471,11.913
	c0.001,1.615,0.045,3.229-0.055,4.844c-0.763,1.94,0.138,3.824,0.197,5.738c-1.078,9.912-2.325,19.812-4.257,29.585
	c-0.589,2.979-0.421,7.537-5.771,7.008C-181.017,601.363-186.463,598.225-190.526,593.453z"/>
<path fill-rule="evenodd" fill="#54AB4D" d="M-164.45,311.264c1.394,1.745,0.962,3.816,0.965,5.777
	c0.03,16.824-0.009,33.648,0.029,50.473c0.057,25.293-0.379,50.589,0.938,75.871c0.92,17.638-1.256,35.241-0.975,52.88
	c-4.411,0.311-4.889-3.371-5.841-6.147c-4.802-14.001-9.285-28.112-14.133-42.098c-17.751-51.216-34.23-102.857-51.789-154.137
	c-0.784-2.29-1.088-4.475-0.284-6.771c8.446-15.715,18.696-30.135,30.956-43.112c3.101,1.308,3.295,4.416,4.167,7
	c10.055,29.78,19.884,59.637,29.895,89.433c0.795,2.365,1.526,4.753,2.632,7.133c1.853-9.862,1.096-19.731,1.312-29.559
	C-166.525,315.6-167.126,312.887-164.45,311.264z"/>
<path fill-rule="evenodd" fill="#4EA84B" d="M-235.538,287.113c17.497,49.037,33.099,98.712,49.856,147.997
	c6.264,18.424,12.498,36.858,18.76,55.283c0.741,2.182,1.166,4.57,3.43,5.872c-0.039,19.437-2.53,38.784-2.093,58.238
	c-1.184,1.025,0.883,3.585-1.834,3.888c-3.624-6.227-5.211-13.225-7.47-19.956c-23.985-71.502-47.915-143.021-71.871-214.532
	c-0.897-2.679-1.915-5.316-2.876-7.974C-246.002,305.802-241.273,296.212-235.538,287.113z"/>
<path fill-rule="evenodd" fill="#63B252" d="M-164.45,311.264c-0.185,14.354,0.716,28.769-2.091,43.987
	c-2.973-3.537-3.676-7.018-4.737-10.161c-10.926-32.363-21.678-64.785-32.451-97.2c-0.417-1.253-0.574-2.592-0.853-3.89
	c5.935-7.41,12.78-13.946,20.104-19.909c8.13-6.622,14.613-14.015,14.906-25.33c1.673,0.903,1.881,2.204,2.117,3.489
	c0.992,20.87,2.257,41.73,2.888,62.611C-164.101,280.316-164.46,295.796-164.45,311.264z"/>
<path fill-rule="evenodd" fill="#A9A88A" d="M-167.419,558.391c0.611-1.297,1.223-2.593,1.834-3.889
	c-0.377,11.585,2.383,22.708,4.982,33.854c-1.165,8.126-4.377,15.646-6.969,23.345c-0.837,2.483-1.718,5.165-4.946,5.672
	c-1.282-3.979-2.564-7.959-3.847-11.938c3.244-1.603,3.142-5.011,3.611-7.728c1.684-9.739,2.913-19.557,4.315-29.344
	c1.05-1.539-0.019-3.407,0.775-4.986C-167.581,561.717-167.5,560.053-167.419,558.391z"/>
<path fill-rule="evenodd" fill="#B5B498" d="M-172.518,617.374c3.983-7.3,5.725-15.429,8.571-23.148
	c0.789-2.142,1.149-4.527,3.344-5.868c0.862,3.445,3.664,5.822,4.974,9.021c0.798,4.496-1.096,8.473-2.572,12.473
	c-3.036,8.222-5.458,16.669-9.022,24.699c-0.546,1.229-0.945,2.491-2.373,2.98C-170.571,630.811-171.544,624.093-172.518,617.374z"
	/>
<path fill-rule="evenodd" fill="#C3C2AA" d="M-169.597,637.53c0.211-5.78,3.142-10.755,5.021-15.992
	c2.9-8.078,4.914-16.501,8.946-24.16c1.87,1.626,3.34,3.854,6.14,4.083c-3.678,5.426-6.042,11.369-7.068,17.844
	c-2.454,12.534-8.348,24.094-10.407,36.738c-0.17,1.046-0.563,1.895-1.555,2.38C-169.835,651.508-169.249,644.495-169.597,637.53z"
	/>
<path fill-rule="evenodd" fill="#CDCBB6" d="M-168.52,658.423c0.11-14.225,6.05-26.667,11.962-39.118
	c-0.056,1.004-0.11,2.007-0.165,3.011c-0.66,2.439,0.222,5.007-0.62,7.431c-0.059,2.518-0.118,5.035-0.177,7.552
	c-1.964,5.748-2.526,11.889-4.929,17.517c-0.766,1.793-1.064,3.868-3.149,4.782C-166.635,659.361-167.874,659.631-168.52,658.423z"
	/>
<path fill-rule="evenodd" fill="#DCDAC9" d="M-165.598,659.596c1.663-7.806,3.188-15.662,8.078-22.299
	c0.342,7.224,0.569,14.455,1.075,21.667c0.229,3.255-0.506,4.328-3.7,2.754C-161.888,660.86-163.776,660.295-165.598,659.596z"/>
<path fill-rule="evenodd" fill="#131313" d="M51.727,555.201c-0.039-21.717-0.078-43.434-0.113-65.151
	c-0.003-1.328-0.025-2.668,0.89-3.783c-0.003,23.013-0.007,46.024-0.01,69.037C52.145,555.967,51.889,555.932,51.727,555.201z"/>
<path fill-rule="evenodd" fill="#161617" d="M205.427,510.414c-0.001,14.58-0.003,29.159-0.004,43.738
	c-0.126,0.591-0.38,0.686-0.782,0.201c0.004-14.714,0.007-29.427,0.01-44.141C205.045,509.755,205.303,509.822,205.427,510.414z"/>
<path fill-rule="evenodd" fill="#282829" d="M232.605,548.345c-0.021-11.416-0.047-22.833-0.054-34.249
	c-0.001-1.638-0.225-3.336,0.898-4.769c-0.031,12.971-0.063,25.94-0.093,38.911C233.188,548.849,232.937,548.885,232.605,548.345z"
	/>
<path fill-rule="evenodd" fill="#282829" d="M142.613,536.36c0.007-12.721,0.014-25.441,0.021-38.162
	c0.349-0.503,0.61-0.486,0.773,0.129c-0.012,12.636-0.023,25.271-0.034,37.907C143.214,536.844,142.961,536.886,142.613,536.36z"/>
<path fill-rule="evenodd" fill="#1B1B1C" d="M25.377,497.301c-0.005,11.989-0.009,23.979-0.013,35.969
	c-0.238,0.611-0.494,0.59-0.765,0.021c0.005-12.003,0.01-24.007,0.015-36.011C24.885,496.698,25.138,496.705,25.377,497.301z"/>
<path fill-rule="evenodd" fill="#1D1D1D" d="M18.53,590.259c3.12-1.721,6.528-0.968,9.766-0.868
	c8.41,0.258,16.88-1.111,25.232,0.816C41.861,590.223,30.196,590.241,18.53,590.259z"/>
<path fill-rule="evenodd" fill="#19191A" d="M203.45,589.446c10.324-0.021,20.649-0.044,30.975-0.065
	c0.431,0.086,0.598,0.228,0.506,0.429c-0.104,0.229-0.216,0.344-0.337,0.344c-8.94,0.035-17.881,0.071-26.821,0.104
	C206.281,590.263,204.779,590.311,203.45,589.446z"/>
<path fill-rule="evenodd" fill="#1E1E1E" d="M142.613,536.36c0.252-0.053,0.507-0.095,0.761-0.126
	c0.02,8.361,0.041,16.724,0.062,25.085c-0.388,0.638-0.651,0.591-0.79-0.144C142.635,552.904,142.624,544.632,142.613,536.36z"/>
<path fill-rule="evenodd" fill="#1F1F20" d="M232.605,548.345c0.25-0.044,0.502-0.08,0.753-0.106
	c0.017,6.677,0.034,13.353,0.052,20.029C231.633,561.687,232.93,554.984,232.605,548.345z"/>
<path fill-rule="evenodd" fill="#29292A" d="M116.387,530.974c-0.182,5.424,1.079,10.917-0.772,16.262
	C115.898,541.816,114.683,536.326,116.387,530.974z"/>
<path fill-rule="evenodd" fill="#1D1D1D" d="M24.599,533.29c0.256-0.004,0.512-0.011,0.766-0.021
	c-0.26,5.006,1.061,10.098-0.813,15.017C24.568,543.287,24.584,538.289,24.599,533.29z"/>
<path fill-rule="evenodd" fill="#1D1D1D" d="M25.377,497.301c-0.255-0.01-0.51-0.017-0.764-0.021
	c-0.02-4.665-0.04-9.33-0.061-13.995C26.414,487.863,25.1,492.628,25.377,497.301z"/>
<path fill-rule="evenodd" fill="#282829" d="M115.603,509.322c1.813,4.325,0.625,8.826,0.783,13.251
	C114.763,518.238,115.844,513.741,115.603,509.322z"/>
<path fill-rule="evenodd" fill="#282829" d="M204.64,554.353c0.267-0.048,0.527-0.113,0.783-0.2
	c-0.181,3.364,0.897,6.827-0.784,10.074C204.64,560.935,204.64,557.644,204.64,554.353z"/>
<path fill-rule="evenodd" fill="#1D1D1D" d="M51.727,555.201c0.254,0.046,0.51,0.08,0.767,0.103c-0.014,2.66-0.028,5.32-0.043,7.98
	C50.961,560.702,51.763,557.914,51.727,555.201z"/>
<path fill-rule="evenodd" fill="#282829" d="M185.473,579.165c-0.032,2.47-0.065,4.94-0.098,7.413
	C184.175,584.092,184.187,581.62,185.473,579.165z"/>
<path fill-rule="evenodd" fill="#C3C2AA" d="M-157.343,629.746c-0.161-2.507-0.743-5.05,0.62-7.431
	C-156.93,624.793-157.136,627.269-157.343,629.746z"/>
<path fill-rule="evenodd" fill="#29292A" d="M142.645,561.176c0.262,0.063,0.525,0.11,0.791,0.144
	c0.003,2.308,0.007,4.614,0.01,6.921C141.936,566.026,142.7,563.554,142.645,561.176z"/>
<path fill-rule="evenodd" fill="#282829" d="M233.454,504.249c-1.423-1.942-0.786-4.137-0.767-6.257
	C233.901,499.959,233.426,502.135,233.454,504.249z"/>
<path fill-rule="evenodd" fill="#282829" d="M196.57,590.202c1.911-1.407,4.087-0.773,6.178-0.803
	C200.823,590.693,198.66,590.167,196.57,590.202z"/>
<path fill-rule="evenodd" fill="#282829" d="M234.594,590.153c-0.04-0.262-0.096-0.52-0.168-0.773
	c2.046,0.038,4.177-0.56,6.049,0.796C238.514,590.168,236.553,590.16,234.594,590.153z"/>
<path fill-rule="evenodd" fill="#282829" d="M205.427,510.414c-0.255-0.085-0.515-0.151-0.777-0.2
	c-0.012-1.964-0.024-3.928-0.036-5.891C206.008,506.204,205.398,508.351,205.427,510.414z"/>
<path fill-rule="evenodd" fill="#1D1D1D" d="M52.499,469.287c-1.359-1.99-1.22-3.991-0.045-6
	C52.469,465.287,52.484,467.287,52.499,469.287z"/>
<path fill-rule="evenodd" fill="#1E1E1E" d="M143.407,498.327c-0.261-0.03-0.519-0.072-0.774-0.128
	c0.021-1.682,0.04-3.363,0.06-5.046C143.711,494.77,143.479,496.559,143.407,498.327z"/>
<path fill-rule="evenodd" fill="#484749" d="M756.437,575.031c-10.95-2.162-22.073-3.046-33.207-3.78
	c-7.957-0.525-16.019-0.408-23.782-2.521c-6.084-1.656-8.66-5.198-8.117-10.309c0.438-4.13,4.71-7.54,10.088-8.066
	c3.808-0.373,7.677-0.444,11.41-1.189c32.452-6.475,56.515-28.741,49.437-66.896c-1.042-5.614-1.001-5.743,4.716-5.005
	c17.861,2.306,23.202-9.069,21.737-21.592c-0.424-3.617-1.581-3.301-3.936-1.4c-3.428,2.768-7.419,4.565-11.831,4.95
	c-9.72,0.848-19.298,0.352-28.464-3.529c-20.619-8.73-41.04-8.18-61.56,0.747c-19.538,8.499-31.839,22.103-32.771,44.15
	c-0.883,20.917,7.435,38.142,27.418,46.55c1.769,0.744,4.355,0.813,4.638,3.205c0.314,2.667-2.383,3.395-4.099,4.493
	c-5.327,3.414-10.74,6.702-16.201,9.899c-3.999,2.342-4.915,5.386-3.213,9.681c3.086,7.789,8.932,12.633,16.227,16.141
	c4.588,2.206,4.599,2.813,0.412,5.808c-8.537,6.107-17.15,12.113-24.424,19.789c-4.327,4.566-6.664,9.854-6.506,16.225
	c0.315,12.62,6.476,22.075,15.919,29.81c8.521,6.977,18.774,9.738,29.202,12.094c9.333,0,18.667,0,28,0
	c0.593-0.281,1.161-0.723,1.783-0.821c11.504-1.815,22.23-5.852,32.176-11.791c15.755-9.41,28.289-21.643,33.357-40.011
	C791.214,598.584,779.735,579.632,756.437,575.031z M677.402,494.786c0.621-11.588,2.736-22.275,13.422-28.715
	c13.856-8.35,33.487-2.029,40.633,13.308c5.996,12.869,6.779,26.373,2.056,39.825c-6.442,18.352-28.175,23.375-42.631,10.173
	C680.569,519.96,678.263,507.567,677.402,494.786z M749.577,648.126c-12.548,9.362-27.116,10.241-41.978,8.698
	c-11.738-1.22-22.293-5.237-30.445-14.314c-9.163-10.201-8.902-24.259,0.58-34.185c8.008-8.383,17.199-13.657,25.992-12.299
	c14.591,0.7,25.898,1.273,36.888,4.267c10.232,2.788,18.636,8.054,20.582,19.327C763.208,631.268,759.035,641.07,749.577,648.126z"
	/>
<path fill-rule="evenodd" fill="#FFFFFF" d="M1458.171,539.292c13.221,0,23.648,10.402,23.816,23.759
	c0.166,13.147-10.89,24.3-24.011,24.221c-13.012-0.078-23.785-10.847-23.878-23.869
	C1434.003,550.162,1444.857,539.291,1458.171,539.292z"/>
<path fill-rule="evenodd" fill="#C0BEBD" d="M1199.386,467.323c-3.106-32.897-18.246-58.795-47.21-75.594
	c-17.874-10.367-37.698-13.787-58.081-13.895c-35.284-0.188-70.571,2.026-105.855-0.066c-1.897-0.112-3.199,0.535-4.068,2.195
	c-1.231,2.353-2.473,4.7-3.746,7.031c-1.523,2.791-1.451,4.451,2.424,4.764c4.299,0.347,8.587,1.09,12.815,1.972
	c14.362,2.996,16.451,5.501,17.386,20.283c0.115,1.824,0.299,3.65,0.3,5.477c0.018,38.488,0.14,76.977-0.075,115.464
	c-0.054,9.621-0.041,19.298-1.557,28.874c-0.756,4.773-3.373,7.785-7.834,9.432c-3.631,1.34-7.396,1.83-11.209,2.282
	c-3.971,0.471-7.921,6.553-7.225,11.565c0.654,4.708,4.729,2.525,7.145,2.563c15.482,0.237,30.971,0.121,46.457,0.121
	c0,0.2,0,0.401,0,0.603c1.331,0,2.663,0.011,3.994-0.002c22.119-0.211,44.32,1.43,66.243-3.123
	c31.826-6.609,58.221-21.675,75.72-49.799C1198.374,515.992,1201.719,492.028,1199.386,467.323z M1154.62,532.255
	c-13.511,29.51-41.358,45.123-73.759,41.619c-6.298-0.681-12.561-1.47-18.547-3.634c-10.241-3.702-14.522-9.685-14.949-20.6
	c-0.95-24.306-0.6-48.622-0.67-72.936c0.035-24.477-0.146-48.954,0.616-73.427c0.149-4.797,1.67-8.438,6.701-8.917
	c30.215-2.88,58.95,0.277,82.729,21.776c16.979,15.351,24.669,35.249,26.507,57.487
	C1164.911,493.736,1163.17,513.58,1154.62,532.255z"/>
<path fill-rule="evenodd" fill="#C0BEBD" d="M1373.204,476.427c-5.43-2.461-11.136-4.135-17.541-6.397
	c5.631-2.668,10.089-5.208,14.257-8.278c27.607-20.338,23.5-63.83-9.712-77.201c-10.151-4.086-20.699-6.133-31.621-6.258
	c-30.964-0.356-61.928,1.337-92.892-0.05c-7.765-0.347-10.87,2.214-12.369,9.724c-0.459,2.299-0.038,3.37,2.469,3.64
	c4.463,0.478,8.903,1.181,13.343,1.86c11.939,1.829,15.175,5.293,15.187,17.415c0.047,47.961,0.492,95.93-0.884,143.877
	c-0.485,16.91-2.033,17.69-19.245,20.441c-7.369,1.178-10.073,3.42-11.326,11.041c-0.412,2.507,0.414,3.262,2.819,3.243
	c5.159-0.041,10.319,0.155,15.479,0.164c26.944,0.048,53.883,2.619,80.826,0.58c23.431-1.774,44.821-8.91,63.059-24.447
	C1410.144,544.403,1415.202,495.457,1373.204,476.427z M1287.039,432.424c0.164,0.001,0.328,0.002,0.492,0.002
	c0-9.828-0.041-19.656,0.014-29.484c0.039-6.976,1.482-8.462,8.413-8.712c11.688-0.422,23.314-0.232,34.451,4.068
	c22.356,8.634,31.093,38.441,17.087,57.986c-6.67,9.309-16.563,11.107-26.87,11.763c-9.642,0.612-19.303,0.114-28.953-0.305
	c-3.215-0.14-4.757-1.314-4.696-4.849C1287.154,452.74,1287.039,442.581,1287.039,432.424z M1361.31,556.199
	c-7.759,11.811-19.509,16.68-33.012,17.784c-7.963,0.651-15.971,0.198-23.842-1.413c-9.949-2.035-16.373-9.224-16.863-19.396
	c-1.05-21.782-0.378-43.587-0.596-65.381c-0.029-2.994,1.217-4.34,4.052-4.37c4.159-0.044,8.318-0.012,12.478-0.012
	c11.855-0.132,23.556,0.824,34.866,4.802C1366.424,498.071,1377.689,531.263,1361.31,556.199z"/>
<path fill-rule="evenodd" fill="#484749" d="M927.867,461.455c-17.425-12.51-37.182-14.858-57.736-10.104
	c-24.244,5.607-43.905,17.644-53.791,41.734c-6.768,16.49-6.202,33.542-2.107,50.561c3.147,13.084,9.26,24.614,19.408,33.67
	c24.98,22.291,66.25,20.978,94.07,0.09c19.338-14.521,26.712-35.016,27.029-60.015C954.598,495.56,947.325,475.425,927.867,461.455z
	 M921.728,551.501c-6.762,29.231-33.53,31.758-51.352,21.976c-12.695-6.969-19.898-18.423-24.141-31.834
	c-4.948-15.646-6.257-31.626-2.843-47.785c2.815-13.328,9.314-24.364,23.008-28.355c14.499-4.226,27.81-0.284,38.732,10.103
	c12.238,11.639,16.844,26.806,18.375,43.112c0.325,3.466,0.048,6.987,0.048,10.482C923.918,536.708,923.432,544.131,921.728,551.501
	z"/>
<path fill-rule="evenodd" fill="#484749" d="M421.089,509.582c-1.447-17.337-8.148-32.631-21.565-44.252
	c-16.316-14.132-35.52-18.325-56.479-15.051c-21.312,3.331-39.8,11.993-52.9,29.902c-10.27,14.04-12.695,30.11-11.673,47.003
	c2.277,37.653,25.541,66.182,74.346,66.213c12.346-0.457,29.644-5.778,44.171-18.072
	C417.359,558.086,423.216,535.058,421.089,509.582z M388.824,550.26c-6.83,33.439-39.987,33.56-57.283,19.559
	c-13.515-10.94-19.277-25.955-21.899-42.463c-1.866-11.752-1.882-23.552,0.888-35.218c7.107-29.944,34.688-34.117,54.447-21.843
	c15.329,9.523,21.437,24.836,24.538,41.729c1.086,5.917,1.297,11.903,1.152,18.583C390.761,536.769,390.202,543.511,388.824,550.26z
	"/>
<path fill-rule="evenodd" fill="#4EA84B" d="M-167.662,563.379c0.146,1.725,0.291,3.449-0.775,4.985
	C-168.403,566.668-168.793,564.905-167.662,563.379z"/>
<path fill-rule="evenodd" fill="#BDBBBA" d="M1463.694,568.237c-1.101-2.073-1.299-3.158,1.242-4.569
	c4.345-2.414,4.226-6.914,3.393-11.088c-0.782-3.913-3.84-5.647-7.61-6.095c-1.813-0.215-3.652-0.192-5.479-0.277
	c-0.001,0.024-0.002,0.048-0.003,0.072c-1.498,0-3,0.069-4.493-0.019c-1.808-0.105-2.761,0.423-2.747,2.466
	c0.061,9.652,0.035,19.307,0.025,28.96c-0.002,1.573,0.518,2.428,2.298,2.474c1.833,0.047,2.259-0.809,2.229-2.396
	c-0.054-2.828-0.173-5.672,0.06-8.482c0.111-1.352-1.343-3.525,1.441-3.973c2.425-0.389,4.002,0.335,4.965,2.863
	c1.356,3.559,3.14,6.955,4.757,10.412c0.799,1.708,2.405,1.923,3.819,1.419c2.231-0.795,0.481-2.187,0.066-3.18
	C1466.442,573.916,1465.171,571.018,1463.694,568.237z M1456.97,561.572c-5.17,0.479-4.648-2.543-4.396-5.776
	c0.111-2.656-1.328-6.033,3.941-5.621c5.857,0.458,8.044,1.577,7.969,5.767C1464.392,561.038,1460.96,561.203,1456.97,561.572z"/>
</svg>
