<?xml version="1.0" encoding="utf-8"?>
<!-- Generator: Adobe Illustrator 16.0.0, SVG Export Plug-In . SVG Version: 6.00 Build 0)  -->
<!DOCTYPE svg PUBLIC "-//W3C//DTD SVG 1.1 Tiny//EN" "http://www.w3.org/Graphics/SVG/1.1/DTD/svg11-tiny.dtd">
<svg version="1.1" baseProfile="tiny" id="Layer_1" xmlns="http://www.w3.org/2000/svg" xmlns:xlink="http://www.w3.org/1999/xlink"
	 x="0px" y="0px" width="502.475px" height="163.491px" viewBox="102.135 330.88 502.475 163.491" overflow="scroll"
	 xml:space="preserve">
<g>
	<path d="M205.897,480.256l-52.287-113.808v90.42c0,4.67,0.321,8.32,0.968,10.949c0.645,2.634,1.587,4.594,2.83,5.884
		c1.241,1.293,2.756,2.086,4.543,2.384s3.822,0.446,6.108,0.446h4.767v3.725h-47.073v-3.725h4.767c2.383,0,4.469-0.172,6.256-0.521
		c1.788-0.346,3.277-1.192,4.469-2.533c1.192-1.34,2.085-3.324,2.682-5.958c0.596-2.629,0.894-6.183,0.894-10.651v-88.484
		c0-3.178-0.149-5.982-0.447-8.417c-0.298-2.433-1.068-4.492-2.309-6.182c-1.243-1.688-3.128-2.979-5.661-3.873
		c-2.532-0.894-6.084-1.341-10.651-1.341v-3.724h38.284l49.158,105.913l48.265-105.913h38.284v3.724h-4.618
		c-2.483,0-4.618,0.2-6.406,0.596c-1.788,0.398-3.277,1.266-4.469,2.607s-2.085,3.329-2.681,5.958
		c-0.596,2.632-0.894,6.182-0.894,10.651v88.484c0,4.67,0.321,8.32,0.968,10.949c0.645,2.634,1.587,4.594,2.831,5.884
		c1.241,1.293,2.756,2.086,4.543,2.384c1.787,0.298,3.821,0.446,6.107,0.446h4.618v3.725h-57.5v-3.725h4.767
		c2.383,0,4.469-0.196,6.256-0.596c1.788-0.396,3.3-1.266,4.543-2.606c1.241-1.341,2.16-3.3,2.756-5.884
		c0.596-2.58,0.894-6.108,0.894-10.577v-90.42l-52.138,113.808H205.897z"/>
	<path d="M449.156,344.847v3.724c-2.882,0.498-5.313,1.266-7.299,2.309c-1.988,1.042-3.75,2.36-5.288,3.947
		c-1.541,1.589-2.905,3.501-4.097,5.735c-1.192,2.234-2.384,4.792-3.575,7.671l-47.222,115.149h-3.725l-50.648-116.638
		c-1.49-3.673-2.855-6.629-4.097-8.864c-1.243-2.234-2.607-3.997-4.096-5.288c-1.49-1.289-3.277-2.209-5.363-2.756
		c-2.085-0.544-4.718-0.968-7.895-1.266v-3.724h55.266v3.724c-3.18,0.298-5.76,0.722-7.746,1.266
		c-1.988,0.547-3.5,1.217-4.543,2.011c-1.042,0.796-1.738,1.664-2.085,2.607c-0.349,0.945-0.521,2.011-0.521,3.203
		c0,3.377,1.539,8.591,4.618,15.641l34.41,79.249l31.879-78.355c3.178-7.746,4.767-13.058,4.767-15.939
		c0-2.085-1.094-4.045-3.276-5.884c-2.186-1.836-5.91-3.103-11.173-3.798v-3.724H449.156z"/>
	<path d="M574.734,341.868l3.129,46.03h-3.129c-4.171-13.802-10.055-23.734-17.652-29.793c-7.597-6.056-16.758-9.087-27.483-9.087
		c-6.952,0-13.358,1.318-19.217,3.948c-5.86,2.632-10.899,6.68-15.12,12.141c-4.222,5.462-7.522,12.315-9.906,20.557
		c-2.383,8.244-3.575,17.976-3.575,29.196c0,9.039,1.117,17.232,3.353,24.579c2.234,7.352,5.512,13.63,9.831,18.844
		c4.32,5.214,9.608,9.236,15.865,12.066c6.256,2.83,13.456,4.245,21.6,4.245c8.54,0,16.286-1.886,23.238-5.66
		c6.653-3.474,14.052-10.922,22.196-22.345l3.128,1.937c-6.853,12.019-14.772,20.833-23.76,26.441
		c-8.988,5.609-19.738,8.416-32.251,8.416c-9.634,0-18.472-1.688-26.516-5.064s-14.971-8.118-20.78-14.227
		c-5.81-6.107-10.354-13.354-13.631-21.748c-3.277-8.39-4.916-17.601-4.916-27.634c0-13.604,3.028-26.016,9.087-37.24
		c5.959-11.321,14.25-20.059,24.877-26.218c10.726-6.256,22.345-9.385,34.858-9.385c9.831,0,19.464,2.384,28.899,7.15
		c2.779,1.49,4.767,2.234,5.958,2.234c2.184,0,3.997-0.894,5.438-2.681c1.438-1.788,2.458-4.022,3.054-6.704H574.734z"/>
</g>
</svg>
