<?xml version="1.0" encoding="utf-8"?>
<!-- Generator: Adobe Illustrator 16.0.0, SVG Export Plug-In . SVG Version: 6.00 Build 0)  -->
<!DOCTYPE svg PUBLIC "-//W3C//DTD SVG 1.1 Tiny//EN" "http://www.w3.org/Graphics/SVG/1.1/DTD/svg11-tiny.dtd">
<svg version="1.1" baseProfile="tiny" id="Layer_1" xmlns="http://www.w3.org/2000/svg" xmlns:xlink="http://www.w3.org/1999/xlink"
	 x="0px" y="0px" width="1042px" height="672.285px" viewBox="-272.469 161.285 1042 672.285" overflow="scroll"
	 xml:space="preserve">
<path fill-rule="evenodd" fill="#006088" d="M-263,540c2.884,0.706,1.831-1.678,1.948-2.746
	c1.396-12.751,5.375-17.678,17.618-21.052c3.996-1.101,8.107-1.914,12.219-2.443c18.025-2.319,30.119,4.631,37.381,21.428
	c15.328,35.456,30.604,70.936,45.908,106.402c0.654,1.517,1.372,3.006,2.172,4.75c1.982-1.051,2.219-2.965,2.901-4.494
	c15.61-34.97,31.202-69.948,46.76-104.942c8.836-19.875,22.484-26.873,43.792-22.356c20.094,4.26,24.301,9.429,24.302,29.864
	c0,40.653-0.067,81.308,0.095,121.96c0.019,4.492-1.085,6.143-5.773,5.908c-7.479-0.373-15-0.337-22.483-0.009
	c-4.37,0.191-5.698-1.153-5.675-5.593c0.173-32.988,0.093-65.979,0.093-98.968c0-8.459,0-16.918,0-25.95
	c-2.343,1.384-2.598,3.311-3.295,4.863c-15.894,35.391-31.744,70.801-47.616,106.2c-2.113,4.712-4.207,9.437-7.856,13.252
	c-13.676,14.299-44.657,10.189-53.116-7.584c-10.444-21.944-20.093-44.269-30.06-66.44c-6.826-15.187-13.589-30.402-20.434-45.581
	c-0.649-1.44-0.869-3.206-2.683-4.306c-0.95,1.965-0.54,3.947-0.542,5.832c-0.028,39.32-0.121,78.642,0.098,117.961
	c0.029,5.169-1.48,6.784-6.485,6.308c-4.293-0.408-8.665,0.091-12.986-0.128c-5.553-0.281-11.625,1.862-16.282-3.136
	C-263,626-263,583-263,540z"/>
<path fill-rule="evenodd" fill="#005F87" d="M402,189c-0.431,2.259,1.445,1.793,2.548,2.051c15.684,3.671,29.746,10.598,42.04,21.01
	c2.674,2.265,5.585,3.334,9.058,3.601c6.788,0.521,13.566,0.639,20.354,1.89c25.602,4.718,45.539,19.882,65.448,34.978
	c25.701,19.486,45.801,43.999,62.321,71.556c3.183,5.308,5.54,11.008,7.76,16.754c9.498,24.586,21.619,47.956,33.069,71.639
	c2.312,4.782,5.762,7.704,10.841,9.535c28.084,10.124,51.528,27.618,73.465,47.303c4.041,3.625,7.049,8.406,10.511,12.672
	c2.092,2.577,0.794,3.666-1.824,4.539c-9.069,3.025-18.439,4.396-27.891,5.417c-7.49,0.811-14.508,3.703-21.878,5.059
	c-2.758,0.507-2.006,2.112-1.035,3.643c2.475,3.897,6.122,6.579,9.887,9.041c6.131,4.01,12.446,7.737,18.573,11.754
	c13.437,8.81,22.925,21.702,33.847,33.103c1.939,2.024,2.653,4.904,3.604,7.752c-1.507,0.495-2.252-0.567-2.999-1.255
	c-12.766-11.748-27.491-20.286-43.201-27.516c-13.866-6.38-26.328-14.98-35.773-27.337c-2.44-3.192-4.104-6.811-6.016-10.314
	c-2.396-4.391-0.813-6.345,3.149-7.883c15.058-5.843,30.565-9.198,46.797-9.036c2.66,0.027,6.919,1.496,7.688-1.045
	c0.828-2.736-3.115-4.721-5.515-6.371c-11.799-8.119-23.503-16.405-35.64-23.994c-8.936-5.587-19.16-8.619-29.267-11.291
	c-10.584-2.798-18.074-8.458-22.745-18.391c-10.768-22.899-22.188-45.511-31.612-69.007c-8.556-21.332-21.313-39.895-36.123-57.17
	c-17.09-19.931-37.476-35.806-60.195-48.939c-16.199-9.364-33.624-13.312-52.013-13.679c-4.781-0.095-8.195-2.066-11.582-4.906
	c-11.03-9.251-23.907-15.002-37.451-19.399c-4.08-1.325-8.439-1.916-11.615,1.751c-3.166,3.658-1.872,7.83-0.175,11.785
	c1.855,4.323,4.37,8.28,7.435,11.802c14.257,16.382,24.075,35.01,29.42,56.098c2.085,8.225,5.179,16.173,9.218,23.697
	c3.085,5.747,6.517,11.216,11.366,15.71c4.693,4.348,6.371,9.618,4.287,15.862c-1.528,4.576-2.985,9.177-4.536,13.746
	c-9.115,26.859-8.227,53.332,3.039,79.405c1.67,3.864,3.747,7.476,7.262,9.978c3.812,2.713,5.531,1.896,6.052-2.77
	c0.978-8.769,1.969-17.52,3.766-26.189c1.983-9.569,7.685-16.857,13.643-24.064c2.56-3.097,3.336-0.24,3.831,1.518
	c1.497,5.316,3.667,10.359,5.926,15.361c11.907,26.368,26.055,51.375,44.948,73.474c-0.37,0.371-0.74,0.742-1.111,1.113
	c-10.12-9.379-21.253-17.618-30.51-27.988c-7.442-8.337-12.453-18.021-17.279-27.901c-0.899-1.842-1.448-3.985-3.626-5.656
	c-1.799,7.169-2.688,14.021-3.646,20.874c-0.983,7.031-2.352,14.034-9.966,17.218c-7.534,3.15-13.729,0.272-18.988-4.998
	c-9.731-9.753-14.828-22.006-17.814-35.168c-4.578-20.183-4.188-40.307,1.714-60.213c1.98-6.683,2.335-13.812,5.624-20.134
	c1.133-2.178-0.106-3.972-1.498-5.383c-10.351-10.49-15.688-23.794-20.771-37.181c-3.362-8.856-6.705-17.745-9.005-26.971
	c-1.44-5.778-4.662-10.647-8.126-15.345c-5.533-7.501-11.294-14.837-16.739-22.399c-4.123-5.726-7.335-11.91-7.502-19.24
	c-0.232-10.23,5.067-17.974,14.645-21.436c1.041-0.376,3,0.142,2.535-2.115C395.333,189,398.667,189,402,189z"/>
<path fill-rule="evenodd" fill="#006088" d="M1,719c-0.083-5.659,0.053-11.333-0.32-16.973c-0.281-4.27,1.407-5.3,5.443-5.282
	c32.156,0.139,64.313,0.056,96.47,0.098c4.546,0.007,8.976-0.55,13.281-1.952c7.565-2.465,10.169-6.088,10.17-13.955
	c0.002-9.857,0.002-9.852-9.619-9.859c-21.993-0.018-43.988,0.114-65.979-0.127c-12.147-0.134-23.8-2.87-34.467-8.916
	C5.321,655.992-0.529,647.478-0.167,634.46c0.611-21.978,0.317-43.982,0.152-65.975c-0.029-3.872,1.222-4.834,4.841-4.73
	c7.825,0.224,15.668,0.276,23.488-0.018c4.172-0.156,5.41,1.226,5.377,5.369c-0.176,21.825-0.09,43.652-0.076,65.479
	c0.006,9.91,3.27,13.835,13.028,15.57c2.286,0.407,4.626,0.709,6.942,0.715c22.659,0.059,45.319-0.042,67.979,0.131
	c3.907,0.03,4.724-1.432,4.708-4.97c-0.111-25.658,0.058-51.318-0.162-76.976c-0.04-4.694,1.436-6.031,5.959-5.845
	c7.817,0.322,15.659,0.17,23.488,0.053c2.982-0.044,4.519,0.566,4.508,4.096c-0.116,38.987,0.078,77.977-0.185,116.963
	c-0.1,14.793-9.592,23.114-22.109,28.623c-3.641,1.602-7.553,2.578-11.315,3.915c-1.049,0.372-3.014-0.137-2.456,2.14
	C83,719,42,719,1,719z"/>
<path fill-rule="evenodd" fill="#DA8800" d="M761,650c-2.827-1.264-1.761,1.286-1.896,2.154c-1.727,11.118-8.4,18.611-19.03,21.193
	c-13.414,3.259-27.165-5.435-29.885-18.893c-2.901-14.359,5.837-27.214,20.289-29.845c13.364-2.434,26.298,6.782,28.485,20.287
	c0.208,1.284,0.246,2.677,0.812,3.791c0.345,0.679,1.059,0.042,1.225-0.688C761,648.667,761,649.333,761,650z M753.758,649.747
	c0.433-10.752-7.712-19.729-18.419-20.302c-10.811-0.579-19.706,7.847-20.126,19.061c-0.403,10.779,7.76,19.821,18.387,20.366
	C744.285,669.421,753.31,660.858,753.758,649.747z"/>
<path fill-rule="evenodd" fill="#E18C00" d="M504.139,665.674c10.618,9.627,21.166,19.189,32.688,29.636
	c-13.446,0-25.569-0.001-37.691,0.002c-1.908,0-2.916-1.478-4.122-2.563c-6.814-6.126-13.677-12.204-20.334-18.498
	c-2.507-2.37-4.994-3.143-8.475-2.86c-22.601,1.828-45.252,2.612-67.867,0.604c-9.671-0.858-18.883-3.966-27.122-9.367
	c-8.981-5.888-14.15-14.267-14.244-24.982c-0.251-28.824-0.311-57.653,0.014-86.476c0.143-12.733,7.372-21.46,18.442-26.979
	c9.197-4.585,19.105-7.084,29.354-7.19c23.657-0.246,47.322-0.246,70.98,0.004c10.247,0.108,20.145,2.633,29.351,7.201
	c11.914,5.913,18.588,15.6,18.687,29.019c0.202,27.659,0.232,55.322-0.021,82.981C523.648,650.557,519.515,656.278,504.139,665.674z
	 M420.17,624.922c4.898,0,8.338-0.015,11.777,0.003c8.989,0.045,18.827-2.158,26.727,0.804c7.692,2.884,13.407,11.053,19.981,16.912
	c5.518,4.917,8.098,4.429,11.787-2.219c1.241-2.235,1.866-4.62,1.866-7.162c0.007-25.815,0.04-51.632-0.022-77.447
	c-0.015-5.848-2.995-10.066-8.009-12.911c-5.243-2.976-11.026-3.651-16.882-3.678c-16.489-0.073-32.978-0.026-49.467-0.003
	c-4.523,0.007-8.979,0.611-13.251,2.125c-8.042,2.849-11.671,8.019-11.678,16.561c-0.018,23.318-0.01,46.636-0.006,69.953
	c0.002,14.355,6.661,21.582,21.073,22.173c9.812,0.401,19.648,0.185,29.474,0.181c1.032,0,2.367,0.579,3.159-1.084
	C438.264,641.431,429.797,633.705,420.17,624.922z"/>
<path fill-rule="evenodd" fill="#E18C00" d="M280.397,516.326c17.165,0,34.332,0.11,51.495-0.086
	c3.813-0.044,4.979,1.146,4.734,4.836c-0.286,4.314-0.31,8.68,0.005,12.99c0.284,3.909-0.988,5.021-4.966,4.997
	c-29.33-0.174-58.661-0.073-87.992-0.112c-5.024-0.007-10.002,0.337-14.861,1.584c-6.006,1.542-8.653,4.85-8.854,11.061
	c-0.151,4.661-0.061,9.332-0.04,13.998c0.048,11.12,4.873,16.593,16.104,17.49c14.135,1.13,28.316,0.324,42.476,0.442
	c9.698,0.081,19.32,0.58,28.636,3.552c8.166,2.605,15.841,6.143,21.933,12.414c3.99,4.107,6.215,8.929,6.118,14.801
	c-0.124,7.497-0.206,15.004,0.015,22.496c0.309,10.521-4.464,18.233-12.834,23.955c-9.986,6.829-21.183,10.948-33.19,11.11
	c-33.324,0.45-66.657,0.235-99.987,0.382c-2.765,0.013-3.362-1.056-3.284-3.528c0.148-4.662,0.299-9.351-0.037-13.992
	c-0.283-3.901,0.91-5.035,4.903-5c22.497,0.198,44.996,0.174,67.494,0.058c9.15-0.048,18.33,0.709,27.45-0.713
	c4.354-0.679,8.378-2.001,11.655-5.167c2.529-2.442,3.963-5.201,3.865-8.824c-0.139-5.162-0.014-10.332-0.037-15.498
	c-0.032-6.846-2.407-10.394-8.835-12.882c-5.353-2.073-11.013-2.577-16.683-2.622c-12.832-0.103-25.67,0.167-38.495-0.145
	c-11.938-0.289-23.443-2.847-34.099-8.485c-11.208-5.932-17.98-14.538-16.998-27.982c0.339-4.642,0.021-9.329,0.064-13.995
	c0.148-15.729,6.923-25.361,21.471-31.599c12.001-5.146,24.627-5.325,37.277-5.499C256.73,516.199,268.564,516.327,280.397,516.326z
	"/>
<path fill-rule="evenodd" fill="#E18C00" d="M578.599,577.275c0.002,17.821-0.029,35.644,0.013,53.465
	c0.028,11.919,4.547,16.877,16.383,18.317c10.462,1.273,20.963,0.681,31.447,0.726c20.985,0.092,41.974,0.128,62.958-0.063
	c3.8-0.035,4.91,1.046,4.652,4.753c-0.322,4.641-0.207,9.326-0.029,13.983c0.104,2.7-0.579,3.804-3.549,3.787
	c-30.812-0.166-61.628,0.081-92.434-0.416c-12.338-0.199-24.508-2.571-35.552-8.717c-11.271-6.271-17.411-15.839-17.456-28.79
	c-0.131-37.975-0.016-75.95-0.152-113.926c-0.012-3.446,1.178-4.188,4.298-4.126c8.324,0.167,16.658,0.212,24.98-0.017
	c3.544-0.098,4.531,1.111,4.505,4.561C578.524,539.633,578.597,558.454,578.599,577.275z"/>
<path fill-rule="evenodd" fill="#005D84" d="M470.875,267.781c-0.131,0.706-0.29,1.857-0.561,2.981
	c-0.712,2.95-1.586,6.62-4.704,6.972c-2.595,0.293-2.954-3.547-3.857-5.681c-2.119-5.011-5.644-8.951-9.018-13.037
	c-2.046-2.478-1.961-3.771,1.688-4.361C461.996,253.431,470.664,259.941,470.875,267.781z"/>
<path fill-rule="evenodd" fill="#004A69" d="M532.953,483.036c0.371-0.371,0.741-0.742,1.111-1.113
	c2.916,2.631,5.832,5.263,8.748,7.895c-0.264,0.332-0.527,0.665-0.791,0.998C538.375,489.076,535.468,486.324,532.953,483.036z"/>
<path fill-rule="evenodd" fill="#DD8A00" d="M738.999,651.318c2.43,3.867,4.708,7.493,7.058,11.23
	c-3.324,1.362-5.336,0.459-6.81-2.358c-1.387-2.649-3.068-5.144-4.554-7.743c-0.935-1.637-2.415-1.573-3.917-1.395
	c-2.028,0.241-1.465,1.9-1.514,3.11c-0.093,2.328-0.053,4.662-0.065,6.994c-0.009,1.494-0.83,1.976-2.234,1.976
	c-1.407,0-2.24-0.504-2.242-1.981c-0.011-7.994,0.008-15.989-0.023-23.983c-0.008-1.827,1.018-2.208,2.56-2.186
	c2.831,0.042,5.663-0.009,8.494,0.024c4.524,0.054,8.887,0.581,10.177,5.976C747.094,645.856,745.399,648.341,738.999,651.318z
	 M734.347,638.94c-2.636-0.087-5.351-0.798-5.214,3.604c0.099,3.212,0.572,5.021,4.29,4.533c3.112-0.408,7.346,0.822,7.459-4.136
	C740.98,638.632,737.187,639.185,734.347,638.94z"/>
</svg>
