<?xml version="1.0" encoding="utf-8"?>
<!-- Generator: Adobe Illustrator 16.0.0, SVG Export Plug-In . SVG Version: 6.00 Build 0)  -->
<!DOCTYPE svg PUBLIC "-//W3C//DTD SVG 1.1//EN" "http://www.w3.org/Graphics/SVG/1.1/DTD/svg11.dtd">
<svg version="1.1" id="Layer_1" xmlns="http://www.w3.org/2000/svg" xmlns:xlink="http://www.w3.org/1999/xlink" x="0px" y="0px"
	 width="2932.651px" height="864.155px" viewBox="-1116 0 2932.651 864.155" enable-background="new -1116 0 2932.651 864.155"
	 xml:space="preserve">
<g>
	<path fill="#86BE42" d="M1357.578,605.201c0-35.379,0.184-70.754-0.07-106.124c-0.132-18.21,7.49-31.243,23.258-40.32
		c61.048-35.135,121.978-70.458,182.859-105.875c15.664-9.112,30.844-9.293,46.574-0.141
		c60.882,35.408,121.816,70.726,182.868,105.842c16.022,9.218,23.636,22.397,23.569,40.917
		c-0.23,70.256-0.254,140.507,0.014,210.758c0.076,18.826-7.561,32.175-23.847,41.534c-60.421,34.711-120.781,69.54-180.906,104.755
		c-17.038,9.98-32.946,10.356-49.764-0.146c-18.784-11.73-38.075-22.647-57.085-34.006c-2.484-1.482-6.353-2.555-6.268-5.778
		c0.104-3.613,4.338-3.444,6.945-4.408c7.255-2.688,14.445-5.543,20.957-9.703c4.414-2.823,7.999-2.428,12.338,0.245
		c13.551,8.361,27.432,16.195,40.965,24.585c4.799,2.979,8.644,3.209,13.683,0.273c60.45-35.168,120.993-70.171,181.617-105.033
		c5.157-2.964,7.228-6.361,7.208-12.412c-0.192-70.002-0.192-140.003,0-210c0.015-5.999-1.9-9.538-7.09-12.521
		c-60.629-34.856-121.173-69.855-181.632-105.009c-5.011-2.908-8.832-2.654-13.706,0.184
		c-60.469,35.145-120.998,70.156-181.617,105.023c-4.95,2.847-6.847,6.164-6.832,11.886c0.169,70.251,0.154,140.502,0.019,210.752
		c-0.01,5.294,1.383,8.729,6.249,11.43c15.658,8.705,31.06,17.871,46.573,26.84c4.997,2.894,10.352,4.822,16.021,5.928
		c17.561,3.412,31.403-7.641,31.53-25.512c0.165-22.92,0.043-45.84,0.043-68.76c0-46.583,0-93.166,0-139.748
		c0-11.919,0.057-11.957,12.28-11.966c5.237,0,10.465,0.047,15.697,0.009c4.649-0.033,6.874,2.273,6.86,6.865
		c-0.01,1.746,0.028,3.486,0.028,5.228c0.005,68.51,0.019,137.016-0.015,205.525c-0.004,7.462-0.117,14.896-1.703,22.289
		c-5.279,24.651-22.99,39.511-48.196,41.304c-18.671,1.331-35.465-3.858-51.383-12.719c-15.649-8.724-31.103-17.81-46.588-26.815
		c-14.379-8.362-21.479-20.906-21.466-37.559C1357.607,676.944,1357.578,641.07,1357.578,605.201z"/>
	<path fill="#86BD42" d="M1643.842,726.378c-22.294-0.259-44.286-2.353-64.637-12.507c-21.748-10.85-33.046-28.744-34.627-52.846
		c-0.564-8.625,1.025-10.215,9.435-10.394c1.242-0.028,2.493-0.062,3.731,0c6.196,0.315,12.808-1.576,18.516,0.875
		c6.813,2.927,4.507,10.921,6.766,16.469c4.047,9.952,10.832,16.868,20.948,19.767c26.171,7.491,52.61,7.633,78.876,0.579
		c9.886-2.653,17.104-8.869,19.094-19.805c2.113-11.589-0.969-18.106-11.796-22.694c-13.218-5.604-27.361-7.27-41.44-8.986
		c-19.014-2.315-38.217-3.516-56.676-9.162c-18.995-5.806-34.664-15.434-39.609-36.504c-6.277-26.75,4.988-51.335,29.503-63.898
		c22.538-11.552,46.851-12.582,71.432-11.011c13.198,0.843,26.166,3.068,38.603,7.967c25.494,10.041,37.657,29.634,40.621,55.979
		c0.611,5.416-1.929,7.928-7.194,8.013c-2.239,0.042-4.521-0.23-6.72,0.095c-13.23,1.947-22.547-0.57-25.78-16.187
		c-2.052-9.9-10.864-16.098-20.727-18.746c-21.551-5.802-43.337-6.122-64.92-0.235c-9.979,2.725-17.415,8.582-18.182,20.097
		c-0.691,10.337,1.835,14.708,11.542,18.209c12.244,4.423,25.141,6.028,37.93,7.934c19.678,2.937,39.539,4.842,58.742,10.446
		c1.67,0.489,3.336,1.002,4.992,1.533c20.807,6.696,35.619,18.883,37.681,42.193c2.122,23.987-5.562,43.68-26.431,57.02
		c-18.021,11.519-38.409,14.529-59.211,15.771C1650.83,726.556,1647.334,726.378,1643.842,726.378z"/>
</g>
<g>
	<path fill-rule="evenodd" clip-rule="evenodd" fill="#3F4036" d="M-1116,428.191c66.082-37.771,132.719-74.618,197.954-113.799
		c23.666-14.215,42.536-14.695,66.256-0.169c56.772,34.758,114.834,67.456,172.924,100.008
		c18.288,10.248,25.741,23.418,25.555,44.498c-0.84,95.481-0.324,190.977-0.536,286.462c-0.073,32.425-6.616,36.076-35.055,20.021
		c-31.439-17.749-62.431-36.312-94.152-53.538c-17.448-9.472-25.381-22.214-24.858-42.484c1.033-40.094-0.393-80.25,0.527-120.349
		c0.478-20.76-5.67-36.048-25.543-44.268c-0.736-0.306-1.395-0.791-2.089-1.195c-52.507-30.472-65.273-29.38-113.404,8.051
		c-11.644,9.058-13.538,20.915-13.514,34.185c0.073,42.526-0.391,85.059,0.125,127.58c0.195,16.229-5.86,27.489-19.915,35.427
		c-35.629,20.115-71.164,40.414-106.44,61.137c-8.964,5.266-18.306,4.932-27.834,5.351C-1116,659.469-1116,543.83-1116,428.191z"/>
	<path fill-rule="evenodd" clip-rule="evenodd" fill="#3F4036" d="M584.372,393.517c0.009,91.51-0.631,183.024,0.433,274.52
		c0.287,24.618-7.74,40.197-29.587,52.295c-59.669,33.051-118.585,67.488-177.223,102.346c-18.017,10.71-33.196,10.785-51.326-0.028
		c-59.974-35.751-120.447-70.688-181.323-104.887c-17.723-9.956-24.378-22.854-24.169-42.748c0.739-70.632,0.762-141.278,0-211.91
		c-0.219-20.247,7.764-32.584,25.096-42.334c58.059-32.65,116.168-65.31,172.919-100.148c23.795-14.61,42.889-14.323,66.393,0.141
		c43.595,26.834,44.301,25.687,44.306-25.512c0-87.491-0.108-174.987,0.07-262.483c0.066-31.126,6.446-34.867,33.657-19.96
		c31.677,17.349,62.718,35.906,94.813,52.422c18.84,9.698,26.34,23.155,26.203,44.132
		C584.014,204.08,584.363,298.799,584.372,393.517z M275.151,568.547c3.475,16.187-7.357,36.499,7.404,48.046
		c20.567,16.093,43.433,35.982,68.87,36.49c25.635,0.509,48.014-20.524,69.065-35.963c17.306-12.69,7.73-34.434,8.517-52.103
		c0.616-13.866,6.757-31.61-5.698-41.2c-21.409-16.492-44.833-37.205-70.528-38.579c-25.009-1.336-47.43,20.943-68.847,35.911
		C267.613,532.551,278.832,552.718,275.151,568.547z"/>
	<path fill-rule="evenodd" clip-rule="evenodd" fill="#82CC29" d="M-494.652,437.775c2.306-10.879,11.681-14.689,19.864-19.438
		c62.369-36.156,124.998-71.869,187.118-108.449c15.803-9.302,29.1-8.479,44.666,0.696
		c61.412,36.203,123.144,71.879,185.271,106.844c16.686,9.392,23.748,21.287,23.56,40.452c-0.706,71.338-0.691,142.689,0,214.027
		c0.184,19.043-6.517,31.211-23.256,40.649c-62.798,35.408-125.11,71.672-187.379,108.007c-12.751,7.439-24.604,10.333-38.212,2.339
		c-65.579-38.542-131.319-76.811-197.004-115.173c-8.893-15.772-10.796-32.764-10.655-50.668
		c0.494-62.124,0.205-124.259,0.172-186.388C-490.513,459.547-489.791,448.302-494.652,437.775z"/>
	<path fill-rule="evenodd" clip-rule="evenodd" fill="#3F4036" d="M738.156,566.006c-0.019-36.104,0.382-72.208-0.192-108.303
		c-0.264-16.873,5.237-28.693,20.524-37.38c63.471-36.047,126.645-72.627,189.583-109.597c15.048-8.832,28.035-7.872,42.669,0.744
		c61.521,36.222,123.232,72.119,185.249,107.479c15.759,8.982,20.521,21.245,22.868,38.814c5.98,44.828-8.234,74.712-51.73,92.441
		c-26.482,10.799-50.047,28.637-75.243,42.734c-19.636,10.982-31.488,5.595-27.78-16.44c8.027-47.67-17.246-69.446-55.189-87.209
		c-16.534-7.735-29.714-10.074-44.353,0.88c-1.275,0.955-2.767,1.623-4.155,2.428c-55.382,31.949-58.421,38.772-51.034,103.297
		c1.652,14.394,10.879,20.439,21.476,26.515c59.146,33.925,118.34,67.762,177.358,101.908c28.284,16.36,28.101,23.95-0.381,39.863
		c-32.914,18.389-66.162,36.189-98.784,55.076c-14.793,8.568-27.846,8.696-42.748,0.066
		c-62.468-36.175-125.261-71.799-188.105-107.334c-14.064-7.952-20.379-19.085-20.167-35.28
		C738.5,639.814,738.171,602.905,738.156,566.006z"/>
	<path fill-rule="evenodd" clip-rule="evenodd" fill="#7FC728" d="M1013.19,566.373c-0.033,20.892-25.95,49.086-45.097,49.053
		c-20.077-0.032-45.228-28.717-45.186-51.523c0.038-20.967,25.908-48.874,45.242-48.809
		C988.609,515.165,1013.222,543.189,1013.19,566.373z"/>
	<path fill-rule="evenodd" clip-rule="evenodd" fill="#6FAD23" d="M-494.652,437.775c4.861,10.526,4.139,21.771,4.143,32.9
		c0.033,62.129,0.322,124.264-0.172,186.388c-0.141,17.904,1.763,34.896,10.655,50.668c-13.646-4.447-18.002-15.43-18.045-28.082
		c-0.254-76.862-0.157-153.724,0.054-230.586C-498.004,445.295-495.823,441.535-494.652,437.775z"/>
	<path fill-rule="evenodd" clip-rule="evenodd" fill="#FFFFFF" d="M275.151,568.547c3.682-15.829-7.538-35.996,8.782-47.397
		c21.417-14.968,43.838-37.247,68.847-35.911c25.695,1.374,49.119,22.087,70.528,38.579c12.455,9.59,6.314,27.334,5.698,41.2
		c-0.786,17.669,8.789,39.412-8.517,52.103c-21.052,15.438-43.431,36.472-69.065,35.963c-25.437-0.508-48.303-20.397-68.87-36.49
		C267.794,605.046,278.625,584.733,275.151,568.547z"/>
</g>
</svg>
