<?xml version="1.0" encoding="utf-8"?>
<!-- Generator: Adobe Illustrator 16.0.0, SVG Export Plug-In . SVG Version: 6.00 Build 0)  -->
<!DOCTYPE svg PUBLIC "-//W3C//DTD SVG 1.1 Tiny//EN" "http://www.w3.org/Graphics/SVG/1.1/DTD/svg11-tiny.dtd">
<svg version="1.1" baseProfile="tiny" id="Layer_1" xmlns="http://www.w3.org/2000/svg" xmlns:xlink="http://www.w3.org/1999/xlink"
	 x="0px" y="0px" width="600px" height="320.984px" viewBox="-2.864 384.871 600 320.984" overflow="scroll" xml:space="preserve">
<g>
	<path fill-rule="evenodd" fill="#676767" d="M118.964,549.285c0,18.634-0.582,37.289,0.134,55.896
		c1.139,29.62-22.423,48.449-44.953,48.31c-25.958-0.16-44.974-20.237-45.042-48.218c-0.098-38.985-0.252-77.976,0.106-116.958
		c0.202-21.938,14.692-39.275,35.448-43.887c20.119-4.471,40.625,5.663,50.021,24.678c3.524,7.133,4.324,14.746,4.303,22.559
		C118.932,510.871,118.964,530.078,118.964,549.285z M89.353,548.743c0-19.796,0.194-39.595-0.085-59.388
		c-0.13-9.128-5.91-14.994-14.061-15.489c-8.844-0.538-14.777,4.639-16.04,14.238c-0.372,2.826-0.284,5.721-0.286,8.586
		c-0.019,29.838-0.017,59.676-0.007,89.514c0.001,7.171-0.229,14.358,0.168,21.51c0.412,7.428,3.454,13.273,11.51,15.094
		c10.53,2.379,18.635-4.451,18.766-16.397C89.533,587.189,89.377,567.966,89.353,548.743z"/>
	<path fill-rule="evenodd" fill="#676767" d="M234.385,549.299c-0.002,18.919,0.153,37.842-0.039,56.76
		c-0.279,27.571-19.138,47.395-44.793,47.393c-25.645-0.002-44.913-20.055-45.012-47.332c-0.145-39.559-0.348-79.123,0.155-118.678
		c0.294-23.196,18.035-41.7,40.48-43.849c22.219-2.126,42.731,12.444,47.945,34.447c1.107,4.671,1.181,9.655,1.214,14.499
		C234.464,511.458,234.386,530.378,234.385,549.299z M204.798,548.687c-0.008,0-0.017,0-0.025,0c0-19.797,0.197-39.595-0.089-59.388
		c-0.131-9.107-5.957-14.971-14.111-15.441c-8.839-0.509-14.747,4.684-15.996,14.3c-0.367,2.828-0.272,5.723-0.274,8.588
		c-0.017,30.411-0.032,60.823,0.005,91.234c0.008,7.165-0.14,14.358,0.427,21.486c0.582,7.305,4.536,12.207,12.14,13.52
		c10.213,1.761,17.749-5.005,17.87-16.634C204.944,587.134,204.798,567.91,204.798,548.687z"/>
	<path fill-rule="evenodd" fill="#C9C9C9" d="M428.742,593.631c0-2.58,0.003-5.163,0-7.743
		c-0.025-16.748-3.195-20.245-20.126-22.207c-22.107-2.563-39.518-21.363-40.088-43.612c-0.271-10.607-0.234-21.229-0.025-31.838
		c0.489-24.83,20.916-45.018,45.204-44.883c24.61,0.136,44.063,19.868,44.518,45.157c0.272,15.102,0.272,15.102-14.456,15.104
		c-1.722,0-3.476-0.221-5.158,0.037c-8.149,1.241-10.254-2.505-10.033-10.198c0.378-13.229-4.963-19.339-15.271-19.312
		c-7.352,0.019-12.284,3.74-13.741,10.605c-2.638,12.436-2.649,25.118-0.058,37.56c2.027,9.726,10.282,11.335,18.551,12.215
		c19.328,2.057,34.412,13.207,38.367,31.729c3.894,18.227,4.004,37.287-0.049,55.47c-4.549,20.412-26.175,33.699-47.426,31.581
		c-21.27-2.12-39.442-20.308-40.265-41.535c-0.879-22.617-1.62-17.978,16.926-18.353c11.328-0.229,11.318-0.026,12.545,12.028
		c0.834,8.179,3.267,15.313,12.461,17.458c8.499,1.983,16.972-3.972,17.868-12.926c0.541-5.395,0.099-10.888,0.099-16.337
		C428.638,593.631,428.69,593.631,428.742,593.631z"/>
	<path fill-rule="evenodd" fill="#C9C9C9" d="M535.549,593.332c0-2.581,0.004-5.163,0-7.746
		c-0.031-16.265-3.56-20.206-19.566-21.858c-22.488-2.321-40.134-21.281-40.66-43.959c-0.239-10.321-0.188-20.655-0.025-30.979
		c0.396-25.01,20.423-45.317,44.657-45.44c25.006-0.125,44.659,19.688,45.081,45.457c0.027,1.72-0.173,3.467,0.059,5.158
		c1.042,7.54-2.076,10.788-9.656,9.654c-0.562-0.084-1.147,0.012-1.72-0.013c-5.422-0.234-11.754,1.184-16.022-1.158
		c-4.779-2.621-1.469-9.505-2.257-14.461c-1.358-8.526-6.065-13.353-13.905-13.806c-8.556-0.494-13.688,3.579-15.699,12.514
		c-1.914,8.511-0.99,17.156-0.911,25.728c0.141,15.348,5.145,20.725,20.246,22.077c11.089,0.994,20.408,5.442,28.003,13.452
		c7.368,7.772,11.643,16.993,11.77,27.83c0.133,11.473,0.248,22.951,0.02,34.421c-0.469,23.497-19.496,42.683-42.621,43.246
		c-24.379,0.592-45.652-17.517-46.787-41.13c-1.136-23.567-1.696-17.974,17.156-19.114c9.138-0.554,13.556,1.909,12.331,11.687
		c-0.306,2.443,0.532,5.146,1.309,7.583c2.267,7.112,7.351,11.17,14.753,10.679c7.568-0.503,13.179-4.616,14.093-12.633
		c0.646-5.66,0.124-11.453,0.124-17.188C535.397,593.332,535.472,593.332,535.549,593.332z"/>
	<path fill-rule="evenodd" fill="#C9C9C9" d="M259.938,547.522c0.001-19.793-0.204-39.587,0.055-59.376
		c0.296-22.572,17.116-41.465,39.146-44.51c21.383-2.957,42.257,10.843,48.85,32.289c0.254,0.822,0.563,1.632,0.768,2.465
		c5.082,20.953-3.072,29.352-24.106,25.147c-3.869-0.772-4.312-3.015-4.426-6.082c-0.156-4.278,0.494-8.615-0.929-12.81
		c-2.411-7.105-7.172-10.721-14.85-10.536c-7.376,0.179-11.775,4.105-13.722,10.797c-0.941,3.242-1.241,6.771-1.25,10.168
		c-0.086,35.569-0.054,71.139-0.05,106.709c0,1.433-0.034,2.873,0.079,4.3c0.854,10.927,6.603,17.361,15.399,17.289
		c9.327-0.077,15.091-6.865,15.308-18.026c0.233-12.023,0.235-12.156,12.326-12.005c18.63,0.232,17.31-3.072,16.983,16.766
		c-0.396,23.972-20.415,43.267-44.538,43.346c-23.909,0.079-44.008-19.174-45.007-43.111c-0.024-0.574-0.037-1.147-0.037-1.721
		C259.936,588.255,259.936,567.888,259.938,547.522z"/>
	<path fill-rule="evenodd" fill="#FAFAFA" d="M89.365,548.743c0.012,19.223,0.168,38.446-0.045,57.667
		c-0.131,11.946-8.236,18.776-18.766,16.397c-8.057-1.82-11.098-7.666-11.51-15.094c-0.397-7.151-0.167-14.339-0.168-21.51
		c-0.01-29.838-0.012-59.676,0.007-89.514c0.001-2.865-0.086-5.76,0.286-8.586c1.262-9.6,7.195-14.776,16.04-14.238
		c8.151,0.495,13.931,6.361,14.061,15.489C89.547,509.148,89.353,528.947,89.365,548.743z"/>
	<path fill-rule="evenodd" fill="#FAFAFA" d="M204.798,548.687c0,19.223,0.146,38.446-0.054,57.665
		c-0.121,11.629-7.656,18.395-17.87,16.634c-7.604-1.313-11.558-6.215-12.14-13.52c-0.567-7.128-0.419-14.321-0.427-21.486
		c-0.037-30.411-0.022-60.823-0.005-91.234c0.001-2.865-0.093-5.76,0.274-8.588c1.249-9.616,7.157-14.809,15.996-14.3
		c8.154,0.471,13.98,6.334,14.111,15.441c0.286,19.793,0.089,39.591,0.089,59.388C204.781,548.687,204.789,548.687,204.798,548.687z
		"/>
</g>
</svg>
