<?xml version="1.0" encoding="utf-8"?>
<!-- Generator: Adobe Illustrator 16.0.0, SVG Export Plug-In . SVG Version: 6.00 Build 0)  -->
<!DOCTYPE svg PUBLIC "-//W3C//DTD SVG 1.1 Tiny//EN" "http://www.w3.org/Graphics/SVG/1.1/DTD/svg11-tiny.dtd">
<svg version="1.1" baseProfile="tiny" id="Layer_1" xmlns="http://www.w3.org/2000/svg" xmlns:xlink="http://www.w3.org/1999/xlink"
	 x="0px" y="0px" width="730.063px" height="833.57px" viewBox="0 0 730.063 833.57" overflow="scroll" xml:space="preserve">
<g>
	<path fill-rule="evenodd" fill="#EC1F5E" d="M-11.692-36.602c259.23,0,518.459,0,777.688,0c0.057,2.273,0.162,4.548,0.162,6.821
		c0.007,285.256,0.007,570.512,0.006,855.768c0,8.079-0.001,8.081-7.337,8.081c-254.45,0-508.9,0-763.35,0
		c-7.336,0-7.338-0.002-7.338-8.081c0-285.256,0-570.513,0.007-855.768C-11.853-32.054-11.748-34.328-11.692-36.602z
		 M120.233,637.783c0.467,0.369,0.899,0.58,1.146,0.924c17.08,23.969,41.282,34.383,69.766,35.902
		c32.835,1.754,61.621-8.449,84.343-32.471c39.148-41.385,44.892-111.607,13.911-159.953
		c-43.316-67.594-137.197-61.018-169.079-13.377c-0.606,0.906-1.134,2.377-2.561,1.773c-1.348-0.57-0.723-2.064-0.729-3.139
		c-0.053-7.996-0.194-16,0.05-23.99c0.103-3.365-1.031-4.146-4.221-4.115c-15.328,0.152-30.658,0.174-45.985-0.012
		c-3.549-0.043-4.441,1.078-4.439,4.51c0.08,111.467,0.088,222.934-0.022,334.4c-0.004,3.965,1.376,4.611,4.895,4.572
		c15.494-0.172,30.993-0.242,46.483,0.029c4.486,0.08,5.844-1.018,5.823-5.697c-0.188-44.486-0.12-88.973-0.081-133.461
		C119.533,641.793,118.96,639.775,120.233,637.783z M345.862,514.295c-0.622-0.213-0.428-0.07-0.313-0.119
		c1.377-0.576,2.729-1.217,4.113-1.775c29.068-11.762,58.874-18.74,90.569-14.959c33.064,3.945,56.674,25.627,58.413,59.982
		c1.104,21.799-3.756,41.438-20.969,56.305c-27.528,23.775-83.536,21.197-103.661-25.055c-1.863-4.283-2.986-4.271-6.129-1.25
		c-11.523,11.08-23.226,21.975-34.976,32.816c-2.108,1.945-2.438,3.338-0.766,5.818c11.332,16.799,25.797,30.047,44.184,38.654
		c27.697,12.967,56.761,14.82,86.401,9.172c24.472-4.664,46.034-15.381,63.291-33.672c25.478-27.004,34.161-59.813,30.526-95.848
		c-4.482-44.434-31.27-75.359-74.245-87.943c-25.323-7.414-50.931-7.314-76.606-2.486c-4.154,0.781-4.77,0.012-4.57-3.775
		c1.088-20.609,2.029-41.225,2.968-61.841c0.339-7.444-0.821-6.742,7.263-6.744c42.156-0.01,84.313-0.054,126.468,0.081
		c3.69,0.012,4.831-0.85,4.767-4.651c-0.23-13.659-0.299-27.33,0.025-40.985c0.11-4.663-1.302-5.725-5.809-5.714
		c-60.318,0.15-120.637,0.152-180.954-0.004c-4.514-0.012-5.826,1.177-5.947,5.701c-1.219,45.595-2.757,91.179-3.986,136.773
		C345.55,486.515,345.862,500.273,345.862,514.295z M654.382,404.174c6.704,8.848,13.192,17.246,19.466,25.8
		c1.735,2.365,2.918,2.953,5.445,0.924c4.669-3.746,9.559-7.242,14.543-10.561c2.54-1.689,2.787-2.982,0.963-5.463
		c-5.521-7.51-10.653-15.307-16.235-22.769c-2.276-3.044-1.533-3.843,1.723-4.873c8.552-2.708,16.948-5.903,25.493-8.633
		c3.142-1.003,3.725-2.259,2.544-5.338c-2.022-5.272-3.662-10.703-5.224-16.137c-0.839-2.917-1.807-3.987-5.165-2.846
		c-8.493,2.885-17.189,5.168-25.742,7.89c-3.056,0.972-4.151,0.467-4.086-2.948c0.173-8.993-0.076-17.996,0.129-26.989
		c0.071-3.148-0.958-3.991-3.978-3.888c-6.157,0.21-12.338,0.279-18.488-0.02c-3.713-0.18-4.411,1.32-4.334,4.62
		c0.193,8.326-0.093,16.664,0.13,24.989c0.108,4.045-0.687,5.339-4.976,3.785c-8.278-3-16.785-5.361-25.102-8.263
		c-2.915-1.017-4.035-0.526-4.868,2.505c-1.54,5.604-3.409,11.131-5.438,16.581c-1.091,2.93-0.69,4.245,2.511,5.288
		c8.375,2.729,16.564,6.022,24.92,8.818c3.778,1.264,5.253,2.259,2.118,6.145c-5.533,6.86-10.413,14.244-15.762,21.261
		c-1.698,2.229-1.646,3.393,0.718,5.043c4.776,3.332,9.465,6.828,13.898,10.598c2.707,2.303,4.166,2.043,6.222-0.803
		C641.742,420.676,647.966,412.668,654.382,404.174z"/>
	<path fill-rule="evenodd" fill="#FEFEFE" d="M2,69.57c-0.055,1.996-0.159,3.993-0.159,5.989
		C1.834,326.03,1.834,576.502,1.834,826.972c0,7.094,0.001,7.096,7.208,7.096c249.972,0,499.942,0,749.914,0
		c7.207,0,7.208-0.002,7.208-7.096c0.001-250.471,0.001-500.942-0.006-751.414c0-1.996-0.104-3.993-0.159-5.989
		c0.308,0.218,1.043-0.506,1.011,0.5c-0.043,1.332-0.011,2.667-0.011,4c0,252-0.01,504,0.094,756
		c0.001,3.748-0.845,4.594-4.594,4.594c-252.333-0.104-504.667-0.104-757,0c-3.749,0-4.595-0.846-4.593-4.594
		c0.103-252,0.091-504,0.155-756C1.062,72.606-0.092,70.679,2,69.57z"/>
	<path fill-rule="evenodd" fill="#FEFEFE" d="M120.233,637.783c-1.273,1.992-0.7,4.01-0.702,5.896
		c-0.039,44.488-0.106,88.975,0.081,133.461c0.021,4.68-1.337,5.777-5.823,5.697c-15.49-0.271-30.989-0.201-46.483-0.029
		c-3.519,0.039-4.898-0.607-4.895-4.572c0.11-111.467,0.103-222.934,0.022-334.4c-0.002-3.432,0.891-4.553,4.439-4.51
		c15.327,0.186,30.657,0.164,45.985,0.012c3.189-0.031,4.323,0.75,4.221,4.115c-0.244,7.99-0.103,15.994-0.05,23.99
		c0.007,1.074-0.618,2.568,0.729,3.139c1.427,0.604,1.954-0.867,2.561-1.773c31.882-47.641,125.763-54.217,169.079,13.377
		c30.98,48.346,25.237,118.568-13.911,159.953c-22.722,24.021-51.508,34.225-84.343,32.471
		c-28.483-1.52-52.686-11.934-69.766-35.902C121.133,638.363,120.7,638.152,120.233,637.783z M251.102,552.9
		c0.069-11.336-2.059-22.232-6.17-32.717c-18.327-46.738-72.215-51.59-101.735-25.264c-32.223,28.736-34.312,82.629-3.844,113.365
		c24.236,24.451,64.229,25.777,88.504,2.775C244.51,595.281,250.393,575.092,251.102,552.9z"/>
	<path fill-rule="evenodd" fill="#FEFEFE" d="M345.862,514.295c0-14.021-0.313-27.779,0.058-41.52
		c1.229-45.594,2.768-91.178,3.986-136.773c0.121-4.524,1.434-5.713,5.947-5.701c60.317,0.156,120.636,0.154,180.954,0.004
		c4.507-0.011,5.919,1.051,5.809,5.714c-0.324,13.655-0.256,27.326-0.025,40.985c0.064,3.802-1.076,4.663-4.767,4.651
		c-42.155-0.135-84.312-0.091-126.468-0.081c-8.084,0.002-6.924-0.7-7.263,6.744c-0.938,20.616-1.88,41.232-2.968,61.841
		c-0.199,3.787,0.416,4.557,4.57,3.775c25.676-4.828,51.283-4.928,76.606,2.486c42.976,12.584,69.763,43.51,74.245,87.943
		c3.635,36.035-5.049,68.844-30.526,95.848c-17.257,18.291-38.819,29.008-63.291,33.672c-29.641,5.648-58.704,3.795-86.401-9.172
		c-18.387-8.607-32.852-21.855-44.184-38.654c-1.673-2.48-1.343-3.873,0.766-5.818c11.75-10.842,23.452-21.736,34.976-32.816
		c3.143-3.021,4.266-3.033,6.129,1.25c20.125,46.252,76.133,48.83,103.661,25.055c17.213-14.867,22.073-34.506,20.969-56.305
		c-1.739-34.355-25.349-56.037-58.413-59.982c-31.695-3.781-61.501,3.197-90.569,14.959c-1.384,0.559-2.736,1.199-4.113,1.775
		C345.434,514.224,345.24,514.082,345.862,514.295z"/>
	<path fill-rule="evenodd" fill="#FEFEFE" d="M654.382,404.174c-6.416,8.494-12.64,16.501-18.574,24.718
		c-2.056,2.846-3.515,3.105-6.222,0.803c-4.434-3.77-9.122-7.266-13.898-10.598c-2.364-1.65-2.416-2.815-0.718-5.043
		c5.349-7.017,10.229-14.4,15.762-21.261c3.135-3.886,1.66-4.881-2.118-6.145c-8.355-2.796-16.545-6.089-24.92-8.818
		c-3.201-1.043-3.602-2.358-2.511-5.288c2.028-5.45,3.897-10.978,5.438-16.581c0.833-3.031,1.953-3.521,4.868-2.505
		c8.316,2.901,16.823,5.263,25.102,8.263c4.289,1.554,5.084,0.26,4.976-3.785c-0.223-8.325,0.063-16.663-0.13-24.989
		c-0.077-3.3,0.621-4.8,4.334-4.62c6.15,0.299,12.331,0.229,18.488,0.02c3.02-0.104,4.049,0.739,3.978,3.888
		c-0.205,8.993,0.044,17.996-0.129,26.989c-0.065,3.415,1.03,3.92,4.086,2.948c8.553-2.722,17.249-5.005,25.742-7.89
		c3.358-1.142,4.326-0.071,5.165,2.846c1.562,5.434,3.201,10.864,5.224,16.137c1.181,3.079,0.598,4.335-2.544,5.338
		c-8.545,2.729-16.941,5.925-25.493,8.633c-3.256,1.03-3.999,1.829-1.723,4.873c5.582,7.462,10.714,15.259,16.235,22.769
		c1.824,2.481,1.577,3.774-0.963,5.463c-4.984,3.318-9.874,6.814-14.543,10.561c-2.527,2.029-3.71,1.441-5.445-0.924
		C667.574,421.42,661.086,413.022,654.382,404.174z"/>
	<path fill-rule="evenodd" fill="#EC1F5E" d="M251.102,552.9c-0.709,22.191-6.593,42.381-23.245,58.16
		c-24.275,23.002-64.268,21.676-88.504-2.775c-30.468-30.736-28.379-84.629,3.844-113.365
		c29.521-26.326,83.408-21.475,101.735,25.264C249.044,530.668,251.172,541.564,251.102,552.9z"/>
</g>
</svg>
