<?xml version="1.0" encoding="utf-8"?>
<!-- Generator: Adobe Illustrator 16.0.0, SVG Export Plug-In . SVG Version: 6.00 Build 0)  -->
<!DOCTYPE svg PUBLIC "-//W3C//DTD SVG 1.1 Tiny//EN" "http://www.w3.org/Graphics/SVG/1.1/DTD/svg11-tiny.dtd">
<svg version="1.1" baseProfile="tiny" id="Layer_1" xmlns="http://www.w3.org/2000/svg" xmlns:xlink="http://www.w3.org/1999/xlink"
	 x="0px" y="0px" width="984.929px" height="512.632px" viewBox="-254.866 135.368 984.929 512.632" overflow="scroll"
	 xml:space="preserve">
<g>
	<path fill-rule="evenodd" fill="#8892BD" d="M-254.866,404.45c0-8.536,0-17.072,0-25.608c0.084,0.094,0.165,0.193,0.258,0.277
		c0.009,0.008,0.105-0.067,0.15-0.114c0.463-0.48,0.321-1.107,0.383-1.675c1.139-10.469,3.456-20.674,6.883-30.625
		c8.47-24.594,22.494-45.8,39.898-64.882c19.237-21.092,41.541-38.473,65.652-53.615c25.387-15.943,52.221-28.996,80.045-40.078
		c43.068-17.152,87.585-29.205,133.091-37.736c21.789-4.085,43.713-7.295,65.767-9.606c15.721-1.648,31.463-3.019,47.25-3.842
		c6.417-0.334,12.84-0.561,19.258-0.89c0.364-0.019,1.398,0.56,1.128-0.688c21.8,0,43.6,0,65.399,0
		c-0.096,0.087-0.195,0.17-0.281,0.265c-0.007,0.007,0.073,0.1,0.12,0.146c0.491,0.478,1.113,0.294,1.682,0.306
		c11.217,0.222,22.412,0.94,33.594,1.763c21.456,1.579,42.847,3.793,64.143,6.908c23.363,3.417,46.56,7.698,69.551,13.072
		c35.721,8.348,70.691,19.077,104.61,33.115c36.003,14.9,70.209,33.022,101.246,56.771c20.644,15.795,39.211,33.667,54.357,54.911
		c12.488,17.514,21.905,36.475,26.956,57.479c1.38,5.743,2.379,11.552,3.023,17.424c0.053,0.478-0.382,1.406,0.764,1.315
		c0,8.537,0,17.072,0,25.608c-0.089-0.089-0.173-0.183-0.271-0.261c-0.01-0.008-0.102,0.072-0.144,0.121
		c-0.432,0.493-0.313,1.114-0.374,1.686c-1.603,14.918-5.605,29.187-11.647,42.896c-9.864,22.381-24.153,41.701-41.156,59.098
		c-17.751,18.161-37.773,33.495-59.237,46.985c-33.91,21.315-70.22,37.516-108.011,50.545
		c-41.506,14.312-84.063,24.356-127.373,31.303c-20.857,3.345-41.822,5.843-62.875,7.651c-25.374,2.18-50.783,3.397-76.247,3.516
		c-21.92,0.102-43.815-0.518-65.693-1.941c-19.906-1.295-39.756-3.13-59.531-5.717c-24.648-3.225-49.122-7.482-73.392-12.893
		c-37.932-8.457-75.057-19.533-111.041-34.281c-33.041-13.542-64.601-29.847-93.707-50.668
		c-21.832-15.618-41.688-33.359-58.24-54.611c-12.382-15.897-22.294-33.163-28.719-52.328c-3.261-9.727-5.467-19.693-6.537-29.906
		C-254.175,405.235-253.716,404.272-254.866,404.45z M454.474,270.293c-20.877,0-41.754,0.031-62.631-0.05
		c-1.99-0.007-2.635,0.637-2.998,2.508c-3.965,20.403-8.021,40.789-12.047,61.18c-5.042,25.539-10.077,51.078-15.117,76.617
		c-5.435,27.537-10.866,55.074-16.308,82.609c-3.19,16.146-6.389,32.289-9.607,48.43c-0.265,1.326-0.209,1.979,1.505,1.975
		c20.221-0.06,40.441-0.051,60.661-0.008c1.263,0.003,1.693-0.458,1.906-1.596c1.97-10.501,3.976-20.995,5.968-31.491
		c2.272-11.979,4.561-23.956,6.79-35.944c0.262-1.406,0.801-1.935,2.296-1.886c3.606,0.116,7.22,0.037,10.831,0.037
		c15.952,0,31.907-0.115,47.859,0.054c7.036,0.074,14.054,0.088,21.002-1.015c26.692-4.236,49.477-16.22,67.557-36.179
		c27.74-30.625,37.343-67.001,31.04-107.458c-3.104-19.921-13.883-35.324-31.681-45.348c-15.106-8.509-31.635-11.961-48.729-12.335
		C493.347,269.966,473.908,270.293,454.474,270.293z M2.564,270.316c-20.942,0-41.885,0.02-62.828-0.038
		c-1.754-0.005-2.521,0.405-2.826,2.26c-0.798,4.85-1.846,9.659-2.801,14.482c-6.124,30.941-12.258,61.88-18.373,92.823
		c-6.381,32.292-12.739,64.589-19.116,96.882c-4.242,21.484-8.5,42.966-12.747,64.45c-0.463,2.342-0.448,2.347,2.034,2.347
		c19.827,0,39.653-0.02,59.479,0.036c1.59,0.005,2.264-0.352,2.564-2.022c1.651-9.166,3.439-18.307,5.178-27.457
		c2.522-13.274,5.046-26.548,7.553-39.825c0.191-1.011,0.49-1.607,1.733-1.604c20.154,0.037,40.311-0.159,60.462,0.105
		c10.511,0.138,20.845-0.674,30.989-3.348c20.843-5.493,38.799-16.005,53.941-31.35c10.065-10.199,17.962-21.859,23.872-34.903
		c5.571-12.297,8.987-25.181,10.489-38.562c1.419-12.641,1.551-25.276-1.107-37.808c-4.281-20.174-15.155-35.519-33.546-45.164
		c-14.519-7.614-30.237-10.885-46.459-11.212C41.567,270.015,22.063,270.316,2.564,270.316z M306.041,472.673
		c10.572,0,21.144-0.03,31.714,0.033c1.562,0.009,2.184-0.425,2.353-2.03c0.267-2.539,0.82-5.048,1.25-7.568
		c4.021-23.531,8.041-47.063,12.066-70.593c3.373-19.716,6.756-39.43,10.131-59.146c1.702-9.945,1.536-19.747-2.457-29.201
		c-4.999-11.835-14.094-19.556-25.461-24.837c-12.999-6.039-26.841-8.703-41.054-8.937c-19.102-0.315-38.213-0.097-57.321-0.046
		c-1.667,0.004-2.074-0.3-1.733-2.064c4.292-22.212,8.47-44.447,12.769-66.658c0.362-1.869-0.084-2.145-1.818-2.14
		c-19.83,0.055-39.66,0.072-59.489-0.021c-2.038-0.01-2.626,0.713-2.971,2.527c-1.983,10.438-4.064,20.856-6.125,31.28
		c-5.036,25.475-10.086,50.947-15.116,76.423c-5.856,29.658-11.692,59.32-17.547,88.979c-4.75,24.063-9.507,48.123-14.293,72.179
		c-0.271,1.36-0.032,1.85,1.468,1.847c20.219-0.04,40.438-0.036,60.658-0.005c1.195,0.002,1.744-0.339,1.97-1.56
		c0.874-4.708,1.838-9.399,2.777-14.096c8.95-44.773,17.909-89.546,26.825-134.326c0.288-1.448,0.889-1.821,2.316-1.817
		c17.006,0.052,34.013,0.009,51.019,0.052c3.95,0.01,7.857,0.499,11.59,1.923c4.359,1.663,6.938,4.733,7.665,9.398
		c0.525,3.368,0.248,6.701-0.364,9.987c-4.03,21.663-8.122,43.314-12.211,64.966c-3.98,21.072-7.96,42.144-12.013,63.202
		c-0.353,1.836-0.018,2.307,1.883,2.291C285.029,472.628,295.535,472.673,306.041,472.673z"/>
	<path fill-rule="evenodd" fill="#232531" d="M454.474,270.293c19.434,0,38.873-0.327,58.297,0.098
		c17.095,0.374,33.623,3.827,48.729,12.335c17.798,10.024,28.577,25.426,31.681,45.348c6.303,40.457-3.3,76.833-31.04,107.458
		c-18.08,19.959-40.864,31.942-67.557,36.179c-6.948,1.103-13.966,1.089-21.002,1.015c-15.952-0.169-31.907-0.054-47.859-0.054
		c-3.611,0-7.225,0.079-10.831-0.037c-1.495-0.049-2.034,0.479-2.296,1.886c-2.229,11.988-4.518,23.965-6.79,35.944
		c-1.992,10.496-3.998,20.99-5.968,31.491c-0.213,1.138-0.644,1.599-1.906,1.596c-20.22-0.043-40.44-0.052-60.661,0.008
		c-1.714,0.005-1.77-0.648-1.505-1.975c3.219-16.141,6.417-32.284,9.607-48.43c5.441-27.535,10.873-55.072,16.308-82.609
		c5.04-25.539,10.075-51.078,15.117-76.617c4.025-20.391,8.082-40.777,12.047-61.18c0.363-1.871,1.008-2.515,2.998-2.508
		C412.72,270.324,433.597,270.293,454.474,270.293z M447.388,422.114c4.201,0,8.405-0.116,12.601,0.026
		c7.211,0.244,14.248-0.861,21.249-2.379c20.189-4.375,33.841-16.119,40.532-35.811c3.642-10.715,5.521-21.753,5.785-33.007
		c0.257-10.958-4.848-19.121-14.406-24.395c-7.416-4.091-15.543-5.529-23.898-5.59c-14.504-0.107-29.011,0.013-43.516-0.082
		c-1.915-0.013-2.533,0.543-2.837,2.386c-5.323,32.278-10.711,64.545-16.112,96.811c-0.249,1.487-0.011,2.102,1.7,2.077
		C434.786,422.058,441.088,422.114,447.388,422.114z"/>
	<path fill-rule="evenodd" fill="#232531" d="M2.564,270.316c19.499,0,39.003-0.301,58.493,0.093
		c16.223,0.328,31.941,3.598,46.459,11.212c18.391,9.645,29.266,24.989,33.546,45.164c2.658,12.531,2.526,25.167,1.107,37.808
		c-1.502,13.381-4.918,26.265-10.489,38.562c-5.91,13.044-13.807,24.704-23.872,34.903c-15.143,15.345-33.099,25.856-53.941,31.35
		c-10.145,2.674-20.479,3.485-30.989,3.348c-20.151-0.265-40.308-0.068-60.462-0.105c-1.243-0.003-1.542,0.594-1.733,1.604
		c-2.507,13.277-5.031,26.551-7.553,39.825c-1.739,9.15-3.527,18.291-5.178,27.457c-0.301,1.671-0.975,2.027-2.564,2.022
		c-19.826-0.056-39.653-0.036-59.479-0.036c-2.482,0-2.497-0.005-2.034-2.347c4.247-21.484,8.505-42.966,12.747-64.45
		c6.376-32.293,12.735-64.59,19.116-96.882c6.114-30.943,12.249-61.882,18.373-92.823c0.955-4.824,2.003-9.632,2.801-14.482
		c0.305-1.854,1.071-2.265,2.826-2.26C-39.321,270.336-18.378,270.316,2.564,270.316z M-4.731,422.114
		c4.333,0,8.67-0.114,12.999,0.026c7.081,0.23,13.99-0.88,20.866-2.354c20.376-4.37,34.066-16.256,40.751-36.112
		c3.59-10.664,5.431-21.654,5.708-32.837c0.239-9.647-3.856-17.427-12.01-22.814c-7.947-5.251-16.938-6.958-26.243-7.054
		c-14.575-0.151-29.152-0.002-43.728-0.087c-1.843-0.011-2.399,0.554-2.686,2.316c-2.755,16.958-5.609,33.901-8.435,50.849
		c-2.556,15.331-5.094,30.665-7.693,45.987c-0.27,1.593-0.033,2.157,1.759,2.125C-17.208,422.046-10.969,422.114-4.731,422.114z"/>
	<path fill-rule="evenodd" fill="#232531" d="M306.041,472.673c-10.506,0-21.012-0.045-31.517,0.042
		c-1.901,0.016-2.236-0.455-1.883-2.291c4.052-21.059,8.032-42.13,12.013-63.202c4.09-21.652,8.181-43.304,12.211-64.966
		c0.612-3.286,0.89-6.619,0.364-9.987c-0.727-4.665-3.306-7.736-7.665-9.398c-3.733-1.424-7.64-1.913-11.59-1.923
		c-17.006-0.043-34.013,0-51.019-0.052c-1.428-0.004-2.028,0.37-2.316,1.817c-8.917,44.78-17.875,89.553-26.825,134.326
		c-0.939,4.696-1.903,9.388-2.777,14.096c-0.227,1.221-0.775,1.562-1.97,1.56c-20.219-0.031-40.438-0.035-60.658,0.005
		c-1.5,0.003-1.739-0.486-1.468-1.847c4.786-24.056,9.542-48.116,14.293-72.179c5.854-29.658,11.69-59.32,17.547-88.979
		c5.03-25.476,10.081-50.948,15.116-76.423c2.061-10.423,4.142-20.842,6.125-31.28c0.345-1.814,0.933-2.537,2.971-2.527
		c19.829,0.093,39.659,0.076,59.489,0.021c1.734-0.005,2.18,0.271,1.818,2.14c-4.299,22.211-8.477,44.445-12.769,66.658
		c-0.341,1.764,0.066,2.068,1.733,2.064c19.107-0.05,38.219-0.269,57.321,0.046c14.212,0.234,28.055,2.898,41.054,8.937
		c11.367,5.281,20.462,13.001,25.461,24.837c3.993,9.454,4.159,19.255,2.457,29.201c-3.375,19.715-6.758,39.43-10.131,59.146
		c-4.025,23.53-8.044,47.062-12.066,70.593c-0.431,2.521-0.983,5.029-1.25,7.568c-0.169,1.605-0.791,2.039-2.353,2.03
		C327.184,472.642,316.613,472.673,306.041,472.673z"/>
	<path fill-rule="evenodd" fill="#8892BD" d="M447.388,422.114c-6.301,0-12.603-0.056-18.902,0.037
		c-1.711,0.024-1.949-0.59-1.7-2.077c5.401-32.266,10.789-64.533,16.112-96.811c0.304-1.843,0.922-2.399,2.837-2.386
		c14.505,0.095,29.012-0.025,43.516,0.082c8.355,0.062,16.482,1.5,23.898,5.59c9.559,5.274,14.663,13.437,14.406,24.395
		c-0.265,11.254-2.144,22.292-5.785,33.007c-6.691,19.692-20.343,31.436-40.532,35.811c-7.001,1.518-14.038,2.623-21.249,2.379
		C455.794,421.998,451.59,422.114,447.388,422.114z"/>
	<path fill-rule="evenodd" fill="#8892BD" d="M-4.731,422.114c-6.238,0-12.477-0.068-18.712,0.044
		c-1.792,0.032-2.029-0.532-1.759-2.125c2.6-15.323,5.137-30.657,7.693-45.987c2.826-16.947,5.68-33.89,8.435-50.849
		c0.286-1.762,0.843-2.327,2.686-2.316c14.576,0.085,29.153-0.063,43.728,0.087c9.306,0.096,18.296,1.803,26.243,7.054
		c8.154,5.388,12.249,13.167,12.01,22.814c-0.277,11.183-2.118,22.173-5.708,32.837c-6.685,19.856-20.375,31.743-40.751,36.112
		c-6.876,1.475-13.785,2.585-20.866,2.354C3.939,422-0.398,422.114-4.731,422.114z"/>
</g>
</svg>
