<?xml version="1.0" encoding="utf-8"?>
<!-- Generator: Adobe Illustrator 16.0.0, SVG Export Plug-In . SVG Version: 6.00 Build 0)  -->
<!DOCTYPE svg PUBLIC "-//W3C//DTD SVG 1.1 Tiny//EN" "http://www.w3.org/Graphics/SVG/1.1/DTD/svg11-tiny.dtd">
<svg version="1.1" baseProfile="tiny" id="Layer_1" xmlns="http://www.w3.org/2000/svg" xmlns:xlink="http://www.w3.org/1999/xlink"
	 x="0px" y="0px" width="766.462px" height="272.986px" viewBox="-115.358 248.378 766.462 272.986" overflow="scroll"
	 xml:space="preserve">
<g>
	<path fill="#5D5D5D" d="M-29.697,295.5H-3.41c9.507,0,16.522,2.153,21.042,6.459c4.519,4.308,6.78,10.489,6.78,18.548
		c0,10.745-4.456,18.356-13.367,22.833l16.565,39.462H11.933l-13.57-36.457h-13.605v36.457h-14.455V295.5z M-15.242,306.693v28.461
		h11.065c4.946,0,8.58-1.365,10.905-4.093c2.324-2.728,3.486-6.29,3.486-10.681c0-9.124-4.755-13.687-14.263-13.687H-15.242z"/>
	<path fill="#5D5D5D" d="M45.991,295.5h50.016v11.576H60.446v24.944h27.886v11.641H60.446v27.31h36.137v11.833H45.991V295.5z"/>
	<path fill="#5D5D5D" d="M164.788,315.008l-12.344,4.285c-1.45-4.627-3.357-8.043-5.724-10.25c-2.366-2.207-5.596-3.31-9.689-3.31
		c-3.796,0-6.727,1.123-8.794,3.368c-2.069,2.246-3.102,4.821-3.102,7.73c0,3.208,1.161,5.763,3.486,7.666
		c2.324,1.903,6.961,4.176,13.911,6.82c5.926,2.261,10.489,4.413,13.688,6.459c3.198,2.047,5.788,4.787,7.771,8.219
		c1.982,3.433,2.974,7.41,2.974,11.928c0,7.334-2.591,13.582-7.771,18.74c-5.181,5.16-12.44,7.739-21.778,7.739
		c-16.118,0-26.095-8.144-29.933-24.432l12.919-3.646c2.26,10.745,8.144,16.118,17.652,16.118c4.647,0,8.176-1.205,10.585-3.614
		c2.408-2.408,3.613-5.382,3.613-8.922c0-2.6-0.831-5.01-2.494-7.228c-1.663-2.216-5.799-4.583-12.408-7.099
		c-6.994-2.644-12.035-4.882-15.126-6.716c-3.092-1.833-5.724-4.541-7.899-8.123c-2.174-3.582-3.262-7.653-3.262-12.216
		c0-6.949,2.42-12.792,7.259-17.524c4.838-4.733,11.267-7.1,19.283-7.1C151.805,293.901,160.865,300.937,164.788,315.008z"/>
	<path fill="#5D5D5D" d="M177.541,295.5h53.341v12.28h-19.507v75.023H196.92V307.78h-19.379V295.5z"/>
	<path fill="#5D5D5D" d="M258.091,318.205h11.576v10.745h-11.576v53.853h-13.048V328.95H236.6v-10.745h8.442
		c0.128-7.675,0.789-12.973,1.983-15.894c1.193-2.92,3.144-5.213,5.852-6.875c2.708-1.663,6.385-2.495,11.033-2.495
		c2.687,0,5.309,0.256,7.867,0.768v10.617c-1.833-0.297-3.518-0.448-5.053-0.448c-2.645,0-4.595,0.49-5.852,1.471
		c-1.258,0.981-2.037,2.229-2.334,3.742C258.24,310.605,258.091,313.643,258.091,318.205z"/>
	<path fill="#5D5D5D" d="M282.74,318.205h13.304v41.062c0,5.714,0.471,9.541,1.412,11.48c0.941,1.941,3.016,2.91,6.226,2.91
		c3.979,0,6.76-1.727,8.343-5.181s2.375-9.85,2.375-19.188v-31.084h13.303v64.598h-12.28v-9.722
		c-3.448,7.547-8.916,11.321-16.405,11.321c-3.831,0-6.97-0.81-9.417-2.431c-2.446-1.62-4.202-3.923-5.265-6.907
		c-1.065-2.984-1.597-8.165-1.597-15.542V318.205z"/>
	<path fill="#5D5D5D" d="M350.114,295.5h13.304v87.303h-13.304V295.5z"/>
	<path fill="#5D5D5D" d="M433.517,295.5h16.2l23.439,87.303h-14.634l-5.478-21.874h-25.598l-5.426,21.874h-13.783L433.517,295.5z
		 M450.198,349.545l-10.012-39.974l-9.916,39.974H450.198z"/>
	<path fill="#5D5D5D" d="M488.405,295.5h21.618c6.907,0,12.514,0.65,16.821,1.951c4.307,1.301,7.931,4.18,10.873,8.634
		c2.942,4.456,4.413,9.818,4.413,16.085c0,5.756-1.194,10.704-3.582,14.838c-2.389,4.136-5.596,7.122-9.626,8.955
		c-4.029,1.833-10.223,2.75-18.579,2.75h-7.483v34.09h-14.455V295.5z M502.86,306.693v30.444h7.163
		c6.396,0,10.819-1.193,13.271-3.582c2.452-2.388,3.678-6.268,3.678-11.641c0-4.007-0.811-7.259-2.431-9.753
		c-1.621-2.495-3.4-4.029-5.341-4.605s-4.999-0.863-9.178-0.863H502.86z"/>
	<path fill="#5D5D5D" d="M559.68,295.5h14.455v87.303H559.68V295.5z"/>
</g>
<g>
	<path fill="#DBDBDB" d="M7.04,462.95c-3.833,2.165-8.093,3.248-12.779,3.248c-5.449,0-9.855-1.757-13.218-5.271
		c-3.364-3.515-5.045-8.164-5.045-13.951c0-5.91,1.868-10.76,5.604-14.549c3.736-3.79,8.471-5.685,14.204-5.685
		c4.153,0,7.641,0.675,10.463,2.023v4.952c-3.088-1.952-6.745-2.929-10.969-2.929c-4.278,0-7.783,1.473-10.517,4.419
		c-2.733,2.947-4.1,6.763-4.1,11.448c0,4.828,1.269,8.622,3.807,11.382s5.981,4.14,10.33,4.14c2.982,0,5.564-0.594,7.748-1.783
		v-10.703h-8.36v-4.047H7.04V462.95z"/>
	<path fill="#DBDBDB" d="M38.865,465.559H18.632v-38.179h19.382v4.047H23.104v12.699h13.791v4.021H23.104v13.365h15.761V465.559z"/>
	<path fill="#DBDBDB" d="M71.623,431.427H60.601v34.132h-4.473v-34.132H45.133v-4.047h26.49V431.427z"/>
	<path fill="#DBDBDB" d="M102.475,451.129v14.431h-4.473v-38.179h10.49c4.083,0,7.246,0.994,9.491,2.982
		c2.246,1.987,3.368,4.792,3.368,8.413c0,3.62-1.247,6.585-3.741,8.892c-2.494,2.308-5.862,3.461-10.104,3.461H102.475z
		 M102.475,431.427v15.655h4.686c3.088,0,5.444-0.706,7.068-2.117s2.436-3.403,2.436-5.977c0-5.041-2.981-7.562-8.945-7.562H102.475
		z"/>
	<path fill="#DBDBDB" d="M159.193,450.117c0,10.721-4.836,16.081-14.51,16.081c-9.265,0-13.897-5.156-13.897-15.468v-23.35h4.473
		v23.057c0,7.827,3.302,11.74,9.904,11.74c6.372,0,9.558-3.78,9.558-11.341v-23.456h4.473V450.117z"/>
	<path fill="#DBDBDB" d="M194.028,431.427h-11.022v34.132h-4.473v-34.132h-10.996v-4.047h26.491V431.427z"/>
	<path fill="#DBDBDB" d="M224.879,451.129v14.431h-4.473v-38.179h10.49c4.082,0,7.246,0.994,9.491,2.982
		c2.245,1.987,3.368,4.792,3.368,8.413c0,3.62-1.247,6.585-3.741,8.892c-2.494,2.308-5.861,3.461-10.104,3.461H224.879z
		 M224.879,431.427v15.655h4.686c3.088,0,5.445-0.706,7.069-2.117s2.436-3.403,2.436-5.977c0-5.041-2.982-7.562-8.946-7.562H224.879
		z"/>
	<path fill="#DBDBDB" d="M269.058,466.198c-5.413,0-9.749-1.784-13.005-5.352s-4.885-8.209-4.885-13.924
		c0-6.142,1.659-11.04,4.979-14.696c3.319-3.656,7.836-5.484,13.551-5.484c5.271,0,9.518,1.774,12.739,5.324
		c3.222,3.55,4.832,8.191,4.832,13.925c0,6.229-1.65,11.155-4.952,14.775C279.015,464.387,274.596,466.198,269.058,466.198z
		 M269.378,430.789c-4.011,0-7.269,1.446-9.771,4.34c-2.502,2.893-3.754,6.691-3.754,11.395s1.22,8.488,3.661,11.354
		c2.44,2.867,5.622,4.3,9.544,4.3c4.189,0,7.49-1.366,9.904-4.1c2.414-2.733,3.621-6.559,3.621-11.475
		c0-5.041-1.171-8.937-3.514-11.688C276.726,432.164,273.495,430.789,269.378,430.789z"/>
	<path fill="#DBDBDB" d="M295.719,464.014v-5.271c0.604,0.532,1.327,1.011,2.17,1.438c0.843,0.426,1.73,0.785,2.663,1.078
		c0.932,0.293,1.868,0.519,2.809,0.679c0.941,0.16,1.811,0.239,2.609,0.239c2.751,0,4.805-0.51,6.163-1.53s2.037-2.489,2.037-4.406
		c0-1.029-0.226-1.926-0.679-2.689c-0.453-0.763-1.078-1.46-1.877-2.09s-1.744-1.233-2.835-1.811
		c-1.092-0.576-2.268-1.185-3.528-1.823c-1.331-0.675-2.573-1.357-3.727-2.05s-2.157-1.456-3.008-2.29
		c-0.852-0.834-1.522-1.779-2.01-2.835c-0.488-1.057-0.732-2.294-0.732-3.714c0-1.74,0.381-3.253,1.145-4.54
		c0.763-1.286,1.766-2.347,3.008-3.182c1.243-0.834,2.658-1.455,4.247-1.863s3.208-0.612,4.859-0.612
		c3.763,0,6.505,0.452,8.227,1.357v5.032c-2.254-1.562-5.147-2.343-8.679-2.343c-0.976,0-1.952,0.102-2.929,0.306
		c-0.976,0.204-1.846,0.537-2.609,0.999c-0.763,0.461-1.384,1.056-1.864,1.783c-0.479,0.729-0.719,1.615-0.719,2.663
		c0,0.976,0.182,1.819,0.546,2.529s0.9,1.357,1.61,1.943c0.71,0.585,1.576,1.153,2.596,1.703c1.021,0.551,2.196,1.154,3.527,1.811
		c1.367,0.675,2.663,1.385,3.887,2.13c1.225,0.746,2.298,1.571,3.221,2.477c0.923,0.905,1.655,1.908,2.197,3.008
		c0.541,1.101,0.812,2.361,0.812,3.781c0,1.881-0.369,3.474-1.105,4.778c-0.737,1.305-1.73,2.365-2.982,3.182
		s-2.693,1.407-4.326,1.771c-1.633,0.364-3.354,0.546-5.165,0.546c-0.604,0-1.349-0.049-2.236-0.146
		c-0.888-0.098-1.793-0.239-2.716-0.426s-1.797-0.417-2.622-0.692C296.877,464.658,296.216,464.352,295.719,464.014z"/>
	<path fill="#DBDBDB" d="M351.772,431.427h-11.022v34.132h-4.473v-34.132h-10.995v-4.047h26.49V431.427z"/>
	<path fill="#DBDBDB" d="M378.151,465.559v-38.179h10.544c13.453,0,20.181,6.203,20.181,18.61c0,5.893-1.868,10.627-5.604,14.203
		c-3.736,3.577-8.737,5.365-15.003,5.365H378.151z M382.623,431.427v30.085h5.698c5.005,0,8.901-1.34,11.688-4.021
		c2.787-2.68,4.18-6.479,4.18-11.395c0-9.78-5.2-14.67-15.601-14.67H382.623z"/>
	<path fill="#DBDBDB" d="M439.342,465.559h-20.233v-38.179h19.382v4.047h-14.909v12.699h13.791v4.021h-13.791v13.365h15.761V465.559
		z"/>
	<path fill="#DBDBDB" d="M469.224,465.559h-19.808v-38.179h4.473v34.132h15.335V465.559z"/>
	<path fill="#DBDBDB" d="M498.041,465.559h-20.233v-38.179h19.382v4.047h-14.909v12.699h13.791v4.021h-13.791v13.365h15.761V465.559
		z"/>
	<path fill="#DBDBDB" d="M530.798,431.427h-11.021v34.132h-4.473v-34.132h-10.996v-4.047h26.49V431.427z"/>
	<path fill="#DBDBDB" d="M559.749,465.559h-20.234v-38.179h19.383v4.047h-14.909v12.699h13.791v4.021h-13.791v13.365h15.761V465.559
		z"/>
</g>
</svg>
