<?xml version="1.0" encoding="utf-8"?>
<!-- Generator: Adobe Illustrator 16.0.0, SVG Export Plug-In . SVG Version: 6.00 Build 0)  -->
<!DOCTYPE svg PUBLIC "-//W3C//DTD SVG 1.1 Tiny//EN" "http://www.w3.org/Graphics/SVG/1.1/DTD/svg11-tiny.dtd">
<svg version="1.1" baseProfile="tiny" id="Layer_1" xmlns="http://www.w3.org/2000/svg" xmlns:xlink="http://www.w3.org/1999/xlink"
	 x="0px" y="0px" width="730.063px" height="833.57px" viewBox="0 0 730.063 833.57" overflow="scroll" xml:space="preserve">
<g>
	<path fill-rule="evenodd" fill="#F8F8F8" d="M-1793.266,1079.635c0-447.115,0.038-894.227-0.237-1341.341
		c-0.007-10.268,1.5-13.523,12.901-13.52c1430.474,0.323,2860.951,0.323,4291.426-0.003c11.416-0.003,12.896,3.278,12.891,13.531
		c-0.272,452.387-0.225,904.77-0.413,1357.155c-0.003,4.207,3.317,9.749-2.699,12.937c-0.143-29.102-0.143-29.102-29.149-29.102
		c-1421.534,0-2843.069,0-4264.604,0.014C-1779.856,1079.306-1786.561,1079.52-1793.266,1079.635z M365.118-58.375
		c-153.828,0-307.655,0.163-461.48-0.29c-13.225-0.039-16.82,3.528-16.806,16.787c0.368,306.694,0.368,613.39,0.002,920.084
		c-0.017,13.223,3.522,16.82,16.781,16.807c306.695-0.368,613.39-0.368,920.084-0.003c13.223,0.017,16.82-3.522,16.807-16.781
		c-0.368-306.694-0.368-613.39-0.003-920.084c0.017-13.223-3.519-16.851-16.78-16.812C670.855-58.21,517.984-58.375,365.118-58.375z
		"/>
	<path fill-rule="evenodd" fill="#35BDB2" d="M-1793.266,1079.635c6.705-0.115,13.41-0.329,20.114-0.329
		c1421.535-0.014,2843.07-0.014,4264.604-0.014c29.007,0,29.007,0,29.149,29.102c-1432.204,0-2864.408-0.028-4296.612,0.404
		c-14.754,0.003-20.347-2.876-17.367-17.683C-1792.635,1087.431-1793.266,1083.469-1793.266,1079.635z"/>
	<path fill-rule="evenodd" fill="#35BDB2" d="M365.118-58.375c152.866,0,305.737,0.166,458.604-0.292
		c13.262-0.04,16.797,3.589,16.78,16.812c-0.365,306.694-0.365,613.39,0.003,920.084c0.014,13.259-3.584,16.798-16.807,16.781
		c-306.694-0.365-613.389-0.365-920.084,0.003c-13.259,0.014-16.798-3.584-16.781-16.807c0.365-306.694,0.365-613.39-0.002-920.084
		c-0.015-13.259,3.581-16.826,16.806-16.787C57.463-58.212,211.29-58.375,365.118-58.375z M374.041,737.705
		c29.488,0.545,58.234-4.036,86.468-12.052c95.214-27.025,155.445-120.917,138.682-218.089
		c-8.62-49.969-41.103-83.09-82.989-108.063c-31.371-18.702-66.174-30.004-99.303-44.923c-31.852-14.34-65.871-23.619-96.669-40.206
		c-33.817-18.21-37.848-52.814-10.476-79.908c9.496-9.396,21.044-14.683,33.904-17.656c20.128-4.657,40.049-1.843,59.857,1.761
		c36.854,6.704,69.59,23.658,101.533,42.203c6.519,3.786,10.018,4.274,15.028-2.412c19.819-26.442,40.179-52.482,60.692-78.395
		c4.659-5.884,4.828-9.116-2.098-13.129c-16.975-9.839-33.408-20.612-50.349-30.515C469.791,102.114,407.787,82.648,339.066,93.2
		c-45.815,7.032-90.055,17.777-126.324,49.705c-91.476,80.528-87.586,242.214,42.518,293.135
		c42.757,16.736,85.235,34.186,127.933,51.078c15.599,6.174,31.27,12.061,44.776,22.367c22.813,17.413,30.579,38.848,23.263,64.259
		c-6.945,24.117-25.058,37.396-53.52,40.291c-43.278,4.401-83.609-5.487-122.273-24.119c-21.985-10.594-44.06-20.999-65.862-31.953
		c-6.962-3.496-10.684-2.137-15.377,4.033c-15.067,19.814-31.073,38.915-46.444,58.504c-7.664,9.769-21.125,20.469-20.435,29.905
		c0.834,11.363,18.531,15.346,29.425,21.553C224.153,710.361,295.183,737.093,374.041,737.705z"/>
	<path fill-rule="evenodd" fill="#F8F8F8" d="M374.041,737.705c-78.857-0.612-149.888-27.344-217.295-65.747
		c-10.894-6.207-28.591-10.189-29.425-21.553c-0.69-9.437,12.771-20.137,20.435-29.905c15.371-19.589,31.377-38.689,46.444-58.504
		c4.693-6.17,8.415-7.529,15.377-4.033c21.803,10.954,43.877,21.359,65.862,31.953c38.665,18.632,78.995,28.521,122.273,24.119
		c28.462-2.896,46.574-16.174,53.52-40.291c7.316-25.411-0.449-46.846-23.263-64.259c-13.507-10.307-29.178-16.193-44.776-22.367
		c-42.698-16.893-85.176-34.342-127.933-51.078c-130.104-50.921-133.994-212.606-42.518-293.135
		c36.27-31.928,80.509-42.673,126.324-49.705c68.721-10.552,130.725,8.914,189.257,43.122c16.94,9.902,33.374,20.676,50.349,30.515
		c6.926,4.013,6.757,7.245,2.098,13.129c-20.514,25.912-40.873,51.952-60.692,78.395c-5.011,6.687-8.51,6.198-15.028,2.412
		c-31.943-18.545-64.68-35.499-101.533-42.203c-19.809-3.604-39.729-6.418-59.857-1.761c-12.86,2.974-24.409,8.26-33.904,17.656
		c-27.372,27.094-23.342,61.698,10.476,79.908c30.798,16.587,64.817,25.866,96.669,40.206
		c33.129,14.919,67.932,26.221,99.303,44.923c41.887,24.973,74.369,58.094,82.989,108.063
		c16.764,97.172-43.468,191.063-138.682,218.089C432.275,733.669,403.529,738.25,374.041,737.705z"/>
</g>
</svg>
