<?xml version="1.0" encoding="utf-8"?>
<!-- Generator: Adobe Illustrator 16.0.0, SVG Export Plug-In . SVG Version: 6.00 Build 0)  -->
<!DOCTYPE svg PUBLIC "-//W3C//DTD SVG 1.1 Tiny//EN" "http://www.w3.org/Graphics/SVG/1.1/DTD/svg11-tiny.dtd">
<svg version="1.1" baseProfile="tiny" id="Layer_1" xmlns="http://www.w3.org/2000/svg" xmlns:xlink="http://www.w3.org/1999/xlink"
	 x="0px" y="0px" width="600px" height="600px" viewBox="-2.864 248.378 600 600" overflow="scroll" xml:space="preserve">
<g>
	<path fill-rule="evenodd" fill="#92C4DE" d="M611.979,538.756c0,101.112-0.119,202.226,0.209,303.34
		c0.027,8.729-0.949,11.562-10.982,11.543c-202.746-0.418-405.497-0.394-608.247-0.049c-9.063,0.019-10.285-2.268-10.273-10.641
		c0.28-202.749,0.276-405.499,0.009-608.25c-0.011-8.235,0.986-10.736,10.195-10.717c203.273,0.353,406.548,0.335,609.821,0.043
		c8.26-0.012,9.457,2.356,9.439,9.82C611.895,335.483,611.979,437.118,611.979,538.756z M457.981,591.981l0.113,0.096
		c-1.047-3.234-3.059-4.62-6.447-3.363l0.199,0.135c-2.033-5.563-6.426-2.003-9.762-2.525c-5-1.197-10.648,0.068-14.924-3.91
		c-0.043-2.568-0.264-5.136,3.365-5.624c13.191-1.775,19.629-11.085,24.484-22.122l-0.27,0.113c1.201-1.105,2.404-2.211,3.605-3.316
		c2.795-0.357,5.662-1.785,5.047-4.577c-0.848-3.874-4.539-5.065-8.361-5.154c-12.762-4.933-25.381-15.085-38.469-0.338
		c-2.986,3.363-5.531-1.705-7.881-1.646c-11.52,0.286-13.074-17.53-26.039-13.896c-2.971-4.106-9.723-5.034-9.746-11.61
		c11.955-7.637,12.006-19.542,10.846-31.549c-0.666-6.899-7.277-14.646,5.959-17.589c3.438-0.762,0.236-6.152-2.912-8.403
		c-4.334-3.404-5.879-10.779-13.512-9.488c-3.463-6.869-10.515-5.542-16.287-7.13l-0.59-0.79l0.707-0.685
		c-1.1-1.29-2.199-2.577-3.299-3.867l0.252,0.547c-6.742-19.069-30.253-32.996-52.919-31.349
		c-10.726-0.086-21.455-0.172-32.182-0.261c-4.196,1.06-5.873-3.188-9.043-4.288c-9.052-4.371-18.666-5.529-28.575-5.007
		c-13.823-2.74-27.233,1.76-40.872,2.329c-3.858-3.004-6.432-7.75-11.795-8.721c-16.716-9.353-40.192-0.467-51.398,19.45
		c-10.889,19.357-5.564,33.948,16.98,46.523c1.573-0.05,3.145-0.095,4.718-0.145c8.727,11.042,6.368,25.384,11.196,37.588
		c-1.585,3.054-4.405,3.683-7.482,3.812c-14.996-3.723-23.357,4.264-26.797,17.205c-6.195,23.289-1.04,44.727,14.698,63.018
		c7.166,8.327,16.442,12.966,28.022,9.354c11.116,9.62,15.883,23.107,21.846,35.867c4.325,10.014,12.542,16.993,19.465,24.982
		c50.222,60.041,173.67,71.919,233.649,22.37c13.594-11.232,24.287-24.646,27.266-42.619c1.92-11.577,1.645-22.908-9.531-30.614
		l0.014,0.441C461.516,592.789,460.281,591.837,457.981,591.981z"/>
	<path fill-rule="evenodd" fill="#4E2414" d="M455.035,541.738c3.818,0.083,7.51,1.274,8.357,5.148
		c0.615,2.792-2.252,4.22-5.047,4.577c-1.201,1.105-2.404,2.211-3.605,3.316l0.27-0.113c-13.055,9.627-32.563,10.852-37.961,30.594
		c-2.004,7.326-9.402,10.299-16.396,13.07c-11.326,4.48-22.354,1.342-33.512-0.047c-2.028-3.406,5.424-6.066,1.395-8.619
		c-3.352-2.122-7.643,0.308-11.215,2.154c-4.872,0.215-9.74,0.43-14.612,0.645l0.814,0.396
		c-16.556,9.426-33.81,15.416-53.213,10.784c-7.916-1.89-15.174-7.04-23.919-4.838c-2.279-0.132-4.555-0.265-6.834-0.394
		c3.529-5.102,5.87-10.004-2.227-13.143c-0.243-0.82-0.479-1.65-0.719-2.477c-2.175-4.619-7.104-7.766-7.329-13.401
		c-0.111-2.808,6.079-6.549-0.949-8.229c-5.188-1.24-9.249,1.689-11.666,5.889c-3.1,5.391,2.611,4.915,5.043,6.97
		c4.251,3.594,7.777,8.048,11.608,12.14c0.811,0.245,1.625,0.491,2.436,0.736c0.289,3.917,0.574,7.836,0.863,11.756l0.015-0.037
		c-15.245,2.059-29.405-3.108-43.82-6.573l-0.102-0.08c-0.129-2.444-0.473-5.578-3.628-4.543c-2.328,0.765-0.027,3.173,0.464,4.823
		c-5.651,11.334-13.168,9.875-21.139,2.822c-5.526-4.884-9.845-10.665-10.689-18.369l0.332-0.328
		c3.186-2.002,12.486,8.536,10.118-5.225c-1.505-8.758,6.352-8.207,10.29-6.506c11.691,5.05,14.019-2.381,16.482-10.558
		c3.674,3.861,8.717,4.716,13.076,3.22c17.597-6.045,31.706,0.141,47.094,8.846c18.636,10.542,39.48,11.945,59.609,1.41
		c11.516,4.178,22.954,3.557,34.334-0.565c8.533,3.2,15.863,1.595,23.088-4.175c4.717-3.768,9.568-8.231,16.338-8.434
		c2.291,3.609,3.199,5.185,6.727-0.053c4.217-6.257,13.797-13.813,19.166-8.379C445.655,557.37,448.674,544.766,455.035,541.738z"/>
	<path fill-rule="evenodd" fill="#4F2414" d="M209.924,645.643c-6.923-7.989-15.14-14.969-19.465-24.982
		c-0.547-6.545-0.556-12.781,8.625-12.597c5.637,0.11,9.19-4.054,13.647-6.358c2.061-0.055,4.122-0.107,6.183-0.16l0.28-0.295
		c5.947,21.281,11.921,24.513,31.884,17.567c2.896-1.007,6.128-1.06,9.203-1.554c-2.832,4.496-6.454,7.974-11.599,9.838
		c-3.901,1.413-3.864,3.889-1.742,7.216c6.515,10.216,20.021,13.029,29.368,5.482c8.22-6.641,14.993-14.402,15.149-25.891
		c2.045,0.218,4.091,0.438,6.137,0.66c-1.14,8.954-3.505,17.177-10.1,24.079c-12.634,13.223-11.448,16.233,5.919,20.828
		c5.038,1.33,7.744-0.73,11.123-3.409c12.216-9.682,16.928-23.194,19.262-41.286c5.388,20.636-1.219,34.734-12.247,48.157
		c11.645,5.09,23.974,9.648,33.69,4.491c16.851-8.954,16.381-26.441,11.233-46.864c13.107,15.097,11.236,27.768,5.477,40.094
		c-4.423,9.471-0.457,10.509,7.646,10.37c7.43-0.126,10.877-3.431,13.68-10.226c6.322-15.306-2.463-27.285-7.217-40.251
		c17.26,7.806,17.582,23.372,15.139,38.104c-2.564,15.462,4.406,12.375,13.424,9.614c6.576-2.013,10.174-6.098,12.713-12.37
		c7.883-19.456-1.51-33.969-12.885-48.09l1.053-0.163l1.064,0.114c16.531,7.673,23.092,22.174,18.721,45.052
		c-1.498,7.83-1.232,11.992,7.666,11.971c-2.752,2.297-5.16,5.378-8.311,6.772c-65.724,29.089-129.391,25.554-190.934-12.191
		C225.921,654.588,220.524,645.553,209.924,645.643z"/>
	<path fill-rule="evenodd" fill="#F6F6F6" d="M268.961,403.679c10.727,0.086,21.456,0.172,32.173,0.255
		c19.496,7.308,35.266,20.927,52.928,31.353l-0.252-0.547c1.097,1.29,2.199,2.581,3.299,3.867l-0.707,0.685l0.59,0.79
		c-12.935,6.981-27.251,1.761-40.653,4.62c-4.672,2.211-9.522,2.964-14.744,2.878c-26.689-0.437-52.74,1.634-73.802,21.038
		c-2.019,1.16-4.036,2.324-6.058,3.488c-3.373,1.125-7.237,1.629-7.854,6.23l-0.363,0.35c-3.732,0.498-8.705,0.033-4.908,6.352
		c0,0,0.498-0.576,0.495-0.574c-3.551-5.771-5.978,1.177-9.049,0.799c-8.858-8.766-13.125-19.389-12.882-31.838
		c17.216-20.426,37.36-36.574,63.776-43.528c3.462,0.94,6.101-0.685,8.592-2.761C263.032,406.939,267.281,408.809,268.961,403.679z"
		/>
	<path fill-rule="evenodd" fill="#130C09" d="M212.734,601.706c-4.46,2.305-8.014,6.469-13.65,6.358
		c-9.181-0.185-9.172,6.052-8.625,12.597c-5.962-12.76-10.729-26.247-21.846-35.867c1.069-11.252-9.369-10.506-15.189-14.572
		c-2.042-5.522,2.396-7.326,5.634-9.82c11.549,2.676,14.618-2.682,12.188-13.012c-0.931-3.953-2.236-7.816-3.373-11.721
		c-1.33-6.07-2.66-12.143-3.987-18.212c1.938-2.909,4.752-4.122,8.149-4.199c0.931,0.225,1.834,0.52,2.715,0.885
		c-5.95,15.325,5.341,27.437,8.087,41.126c0.615,3.061,5.296-0.009,7.925-1.326c4.835-0.412,11.292,3.277,14.081-1.976
		c2.503-4.721-4.693-7.114-6.336-11.255c-0.74-1.857-1.094-3.863-1.622-5.805c8.183-1.57,11.463,11.785,20.294,7.092
		c13.479-7.16,27.952-5.338,42.223-5.753c3.993,0.922,8.164,1.382,11.949,2.841c15.296,5.895,32.802,2.608,47.331,11.516
		c5.584,5.133,12.148,8.245,19.6,9.529c4.107,0.482,8.213,0.961,12.317,1.443c4.599,1.33,8.864,1.281,12.151-2.894
		c2.454-0.329,3.763-1.714,3.878-4.198c3.941-5.486,3.711-10.098-2.812-13.387c-1.797-0.943-3.594-1.887-5.391-2.829
		c-1.42-3.376-7.065-1.339-7.557-5.903c6.96-1.689,13.217,0.188,18.832,4.177c3.938,2.796,6.639,8.272,12.93,4.098
		c7.678-5.093-1.811-9.882,0.014-14.79c12.963-3.631,14.518,14.186,26.037,13.899c2.35-0.059,4.895,5.01,7.881,1.646
		c13.088-14.747,25.707-4.595,38.469,0.341c-6.357,3.031-9.377,15.635-20.66,4.215c-5.369-5.435-14.949,2.122-19.166,8.379
		c-3.527,5.237-4.436,3.662-6.732,0.053c-1.662-9.15-7.523-10.334-15.225-8.033c-11.105,3.314-19.568,9.729-24.195,20.642
		c-11.38,4.122-22.818,4.743-34.331,0.563c-21.059-10.724-43.298-18.504-66.686-21.004c-17.936-1.917-37.364-8.429-53.097,7.531
		c-2.463,8.177-4.792,15.607-16.482,10.558c-3.938-1.701-11.795-2.252-10.29,6.506c2.368,13.761-6.933,3.223-10.121,5.228
		c-0.452-0.147-0.906-0.295-1.358-0.445c0.344,0.259,0.685,0.513,1.029,0.771c0.845,7.704,5.163,13.485,10.689,18.369
		c7.971,7.053,15.487,8.512,21.139-2.822c1.054-0.093,2.11-0.188,3.164-0.28c0,0,0.102,0.08,0.098,0.08
		c-0.083,2.214-0.166,4.427-0.249,6.638C212.639,599.688,212.698,600.696,212.734,601.706z"/>
	<path fill-rule="evenodd" fill="#121212" d="M209.924,645.643c10.601-0.09,15.997,8.944,23.787,13.724
		c61.543,37.745,125.21,41.28,190.934,12.191c3.15-1.395,5.559-4.476,8.309-6.772c4.014-0.849,7.037-3.032,8.996-6.653
		c5.643-2.709,9.814-6.93,12.773-12.4c13.541-15.519,10.725-33.146,6.584-50.95c11.176,7.704,11.451,19.035,9.531,30.612
		c-2.979,17.973-13.672,31.387-27.266,42.619C383.594,717.562,260.145,705.684,209.924,645.643z"/>
	<path fill-rule="evenodd" fill="#6F3822" d="M441.949,658.133c-1.959,3.621-4.982,5.805-8.996,6.653
		c-8.896,0.021-9.162-4.141-7.664-11.971c4.371-22.878-2.189-37.379-18.713-45.049c8.051-7.488,16.352-14.769,20.584-25.354
		c4.275,3.979,9.924,2.713,14.928,3.91c2.623,3.277,6.18,2.934,9.758,2.525l-0.199-0.135c1.039,3.249,3.447,3.876,6.447,3.363
		l-0.113-0.096c-0.002,2.23,1.104,3.317,3.34,3.24c0,0-0.014-0.441-0.014-0.439c4.141,17.804,6.957,35.432-6.584,50.95
		c-4.605-4.107-2.609-9.663-3.215-14.646c-1.885-15.516-13.281-29.52-32.447-34.301
		C442.287,614.776,450.295,634.103,441.949,658.133z"/>
	<path fill-rule="evenodd" fill="#100906" d="M427.16,582.413c-4.232,10.585-12.533,17.865-20.584,25.354
		c-0.008-0.003-1.072-0.117-1.072-0.117s-1.053,0.163-1.053,0.166c-10.428,2.83-23.037-5.51-31.727,6.205
		c-11.851,4.576-23.584,3.883-34.649-1.99c-7.055-3.748-13.782-4.408-20.743-0.832c-6.294,3.234-13.011,3.129-19.738,3.372
		c-2.046-0.222-4.092-0.442-6.137-0.66c-6.414-5.363-13.405-9.354-22.091-9.345c-0.992-1.92-1.984-3.839-2.977-5.759
		c8.745-2.202,16.003,2.948,23.919,4.838c19.404,4.632,36.657-1.358,53.201-10.775c5.959,7.252-6.257,6.22-5.032,11.7
		c6.595,3.897,14.323,4.217,21.858,4.675c2.764,0.166,7.675-1.257,8.105-2.884c1.229-4.633-4.896-4.096-6.791-6.951
		c1.83-0.375,3.661-0.753,5.492-1.128c11.156,1.392,22.184,4.53,33.51,0.05c6.994-2.771,14.393-5.744,16.396-13.07
		c5.398-19.742,24.906-20.967,37.961-30.594c-4.855,11.037-11.293,20.347-24.484,22.122
		C426.897,577.277,427.117,579.844,427.16,582.413z"/>
	<path fill-rule="evenodd" fill="#211712" d="M386.789,456.7c3.148,2.251,6.35,7.642,2.912,8.403
		c-13.236,2.942-6.625,10.689-5.959,17.589c1.16,12.007,1.109,23.912-10.846,31.549c-0.971-1.227-1.941-2.451-2.912-3.678
		c8.096-11.518,9.746-24.72,3.434-36.46c-4.918-9.147-14.845-0.568-22.502-1.075c-4.221,0.096-8.441,0.191-12.665,0.286
		c-0.983-0.461-1.978-0.485-2.982-0.071c-8.389-1.406-5.882,5.025-6.358,9.056c-1.64,13.881,4.137,26.601,7.857,39.637
		c-20.875-20.085-20.887-46.379-1.413-71.266c1.483,0.685,2.967,1.373,4.436,2.034c-0.596,3.43-1.18,6.886-1.76,10.348
		c-0.332,0.289-0.667,0.571-1.004,0.854c0.209,0.209,0.417,0.418,0.624,0.624c0.298-0.325,0.593-0.651,0.888-0.979
		c14.495-1.026,29.506,1.594,43.067-6.064C383.334,457.225,385.063,456.964,386.789,456.7z"/>
	<path fill-rule="evenodd" fill="#F3F3F3" d="M178.676,387.99c5.363,0.971,7.938,5.716,11.795,8.724
		c-16.87,8.634-26.975,23.818-37.447,38.654c-7.891-8.54-14.191-17.807-13.779-30.139c3.222-5.501,8.8-8.069,13.779-11.534
		C160.934,388.196,171.267,394.83,178.676,387.99z"/>
	<path fill-rule="evenodd" fill="#15191F" d="M153.028,435.364c10.468-14.833,20.574-30.017,37.443-38.651
		c13.638-0.571,27.049-5.071,40.872-2.332c-0.056,1.788-0.111,3.579-0.169,5.363c-3.124,0.196-6.251,0.378-9.378,0.593
		c-44.13,3.063-61.802,22.725-59.86,66.646c0.221,5.022-1.186,10.987,6.432,12.115c-0.875,4.816-2.018,9.494-6.463,12.461
		c-0.538-0.51-1.115-0.559-1.732-0.153c-4.829-12.204-2.47-26.546-11.196-37.588C153.912,448.456,152.484,441.694,153.028,435.364z"
		/>
	<path fill-rule="evenodd" fill="#201E1D" d="M153.424,570.221c5.821,4.066,16.258,3.32,15.189,14.572
		c-11.58,3.612-20.856-1.026-28.022-9.354c-15.738-18.291-20.894-39.729-14.698-63.018c3.44-12.941,11.801-20.928,26.797-17.205
		c0.043,1.681,0.089,3.363,0.132,5.044c-16.278-1.327-19.588,9.587-21.022,22.27c-1.433,18.218,3.066,34.713,14.695,48.95
		C148.878,574.399,152.773,579.581,153.424,570.221z"/>
	<path fill-rule="evenodd" fill="#15191F" d="M178.676,387.99c-7.409,6.841-17.742,0.206-25.651,5.704
		c-4.979,3.465-10.557,6.033-13.782,11.534c-12.872,16.377-12.921,23.603,0.519,39.173c2.546,2.948,4.033,5.885,4.497,9.562
		c-22.544-12.575-27.869-27.166-16.98-46.523C138.483,387.523,161.96,378.636,178.676,387.99z"/>
	<path fill-rule="evenodd" fill="#E18963" d="M369.985,510.563c0.971,1.227,1.941,2.451,2.912,3.678
		c0.023,6.576,6.775,7.504,9.746,11.607c-1.822,4.908,7.666,9.697-0.012,14.79c-6.291,4.175-8.992-1.302-12.93-4.098
		c-5.615-3.989-11.872-5.866-18.832-4.177c0.012-1.048-0.01-2.096-0.059-3.14c-0.639-4.374-5.547-8.727-0.064-13.128
		c2.067-2.909,4.135-5.818,6.205-8.727C361.295,508.432,365.637,509.499,369.985,510.563z"/>
	<path fill-rule="evenodd" fill="#B0C4E5" d="M144.258,453.963c-0.464-3.677-1.951-6.613-4.497-9.562
		c-13.44-15.57-13.391-22.796-0.519-39.173c-0.409,12.333,5.892,21.599,13.782,30.139c-0.541,6.327,0.888,13.089-4.048,18.451
		C147.403,453.868,145.831,453.913,144.258,453.963z"/>
	<path fill-rule="evenodd" fill="#201E1D" d="M354.061,435.287c-17.662-10.426-33.432-24.045-52.928-31.353
		C323.808,402.291,347.319,416.218,354.061,435.287z"/>
	<path fill-rule="evenodd" fill="#040405" d="M339.805,452.727c-1.483-0.685-2.967-1.373-4.451-2.058l-0.031-0.236
		c-0.866-0.769-1.732-1.536-2.599-2.304c-5.452,5.271-10.868-1.293-16.308-0.047c-0.027-1.127-0.055-2.254-0.08-3.381
		c13.401-2.859,27.718,2.361,40.653-4.62c5.771,1.588,12.824,0.261,16.287,7.13l-0.396,0.417
		C361.648,447.988,350.065,446.062,339.805,452.727z"/>
	<path fill-rule="evenodd" fill="#202B32" d="M231.174,399.748c0.058-1.788,0.113-3.578,0.169-5.366
		c9.909-0.522,19.523,0.636,28.575,5.007c-0.126,2.583-0.251,5.167-0.377,7.747c-2.491,2.076-5.13,3.701-8.595,2.761
		c-0.23-2.138-0.464-4.276-0.697-6.411C244.778,397.715,237.271,402.337,231.174,399.748z"/>
	<path fill-rule="evenodd" fill="#413F41" d="M152.825,500.261c-0.046-1.681-0.092-3.363-0.135-5.044
		c3.078-0.129,5.897-0.758,7.482-3.812c0.618-0.405,1.195-0.356,1.732,0.153c-0.28,8.941,7.019,14.342,10.13,21.698
		c-3.397,0.077-6.211,1.29-8.149,4.205C159.951,511.893,161.815,502.587,152.825,500.261z"/>
	<path fill-rule="evenodd" fill="#040405" d="M386.789,456.7c-1.727,0.264-3.455,0.525-5.18,0.783
		c-5.221-1.232-8.932-3.813-8.729-9.854l0.396-0.417C380.91,445.921,382.455,453.296,386.789,456.7z"/>
	<path fill-rule="evenodd" fill="#040405" d="M259.54,407.135c0.126-2.581,0.251-5.164,0.377-7.747
		c3.17,1.1,4.847,5.348,9.043,4.291C267.281,408.809,263.032,406.939,259.54,407.135z"/>
	<path fill-rule="evenodd" fill="#121212" d="M451.846,588.848c-3.578,0.408-7.135,0.752-9.758-2.525
		C445.42,586.845,449.813,583.286,451.846,588.848z"/>
	<path fill-rule="evenodd" fill="#121212" d="M458.094,592.077c-3,0.513-5.408-0.114-6.447-3.363
		C455.035,587.457,457.047,588.843,458.094,592.077z"/>
	<path fill-rule="evenodd" fill="#100906" d="M454.74,554.78c1.201-1.105,2.404-2.211,3.605-3.316
		C457.145,552.569,455.942,553.675,454.74,554.78z"/>
	<path fill-rule="evenodd" fill="#201E1D" d="M357.108,438.607c-1.1-1.286-2.202-2.577-3.299-3.867
		C354.909,436.03,356.009,437.317,357.108,438.607z"/>
	<path fill-rule="evenodd" fill="#121212" d="M461.321,595.221c-2.236,0.077-3.342-1.01-3.34-3.24
		C460.281,591.837,461.516,592.789,461.321,595.221z"/>
	<path fill-rule="evenodd" fill="#6F3822" d="M214.94,554.08c15.733-15.96,35.161-9.448,53.097-7.531
		c23.388,2.5,45.626,10.28,66.686,21.004c-20.132,10.538-40.976,9.135-59.612-1.407c-15.389-8.705-29.497-14.891-47.094-8.846
		C223.657,558.796,218.614,557.941,214.94,554.08z"/>
	<path fill-rule="evenodd" fill="#6B3621" d="M266.39,598.806c0.992,1.92,1.984,3.839,2.973,5.766
		c-0.003,0.003-0.187,0.249-0.187,0.249c-6.202,0.789-6.534,5.262-6.322,10.078c-0.857,0.786-1.717,1.575-2.574,2.365
		c-3.075,0.494-6.306,0.547-9.203,1.554c-19.963,6.945-25.937,3.714-31.884-17.563c12.625,1.17,25.82,10.453,37.437-2.639
		l-0.015,0.037l1.483,0.061l1.456-0.301C261.835,598.542,264.111,598.675,266.39,598.806z"/>
	<path fill-rule="evenodd" fill="#6F3822" d="M369.053,566.99c4.627-10.913,13.09-17.327,24.195-20.642
		c7.701-2.301,13.563-1.117,15.225,8.033c-6.764,0.202-11.615,4.666-16.332,8.434C384.916,568.585,377.586,570.19,369.053,566.99z"
		/>
	<path fill-rule="evenodd" fill="#D18A59" d="M361.651,599.409c1.895,2.855,8.019,2.318,6.791,6.951
		c-0.43,1.627-5.341,3.05-8.105,2.884c-7.535-0.458-15.263-0.777-21.858-4.675c-1.226-5.48,10.991-4.448,5.032-11.7
		c0.012-0.009-0.802-0.405-0.795-0.409c1.471,12.601,10.161,0.031,14.093,4.043C358.423,597.47,360.036,598.44,361.651,599.409z"/>
	<path fill-rule="evenodd" fill="#130C09" d="M253.317,586.161c-3.831-4.092-7.357-8.546-11.608-12.14
		c-2.433-2.055-8.143-1.579-5.043-6.97c2.417-4.199,6.478-7.129,11.666-5.889c7.028,1.681,0.838,5.422,0.949,8.229
		c0.224,5.636,5.154,8.782,7.329,13.401C255.513,583.919,254.413,585.04,253.317,586.161z"/>
	<path fill-rule="evenodd" fill="#100906" d="M256.631,598.616c-11.617,13.092-24.813,3.809-37.437,2.639
		c0-0.004-0.28,0.291-0.28,0.291c-1.13-3.145-3.618-3.279-6.355-2.865c0.083-2.211,0.166-4.424,0.249-6.638
		C227.226,595.508,241.386,600.675,256.631,598.616z"/>
	<path fill-rule="evenodd" fill="#130C09" d="M361.651,599.409c-1.615-0.969-3.229-1.938-4.844-2.906
		c0.172-1.563,0.341-3.124,0.513-4.684c3.572-1.847,7.863-4.276,11.215-2.154c4.029,2.553-3.422,5.213-1.395,8.619
		C365.312,598.656,363.481,599.034,361.651,599.409z"/>
	<path fill-rule="evenodd" fill="#100906" d="M259.555,598.413l-1.456,0.301l-1.483-0.061c-0.289-3.92-0.574-7.839-0.857-11.765
		c0.5-0.577,1.023-1.115,1.579-1.625C265.426,588.409,263.085,593.311,259.555,598.413z"/>
	<path fill-rule="evenodd" fill="#100906" d="M357.32,591.819c-0.172,1.56-0.341,3.12-0.513,4.684
		c-3.932-4.012-12.622,8.558-14.093-4.043C347.58,592.249,352.448,592.034,357.32,591.819z"/>
	<path fill-rule="evenodd" fill="#100906" d="M212.71,591.963c-1.054,0.093-2.11,0.188-3.164,0.28
		c-0.491-1.65-2.792-4.059-0.464-4.823C212.237,586.385,212.581,589.518,212.71,591.963z"/>
	<path fill-rule="evenodd" fill="#100906" d="M253.317,586.161c1.096-1.121,2.196-2.242,3.292-3.367
		c0.24,0.826,0.476,1.656,0.719,2.477c-0.546,0.503-1.069,1.041-1.569,1.618C254.942,586.652,254.128,586.406,253.317,586.161z"/>
	<path fill-rule="evenodd" fill="#6F3822" d="M297.595,614.57c6.727-0.243,13.444-0.138,19.738-3.372
		c6.96-3.576,13.688-2.916,20.743,0.832c11.064,5.873,22.798,6.566,34.649,1.99l0.172,0.203c0.137,2.589,0.816,4.905,3.193,6.367
		l-0.029-0.037c4.754,12.966,13.539,24.945,7.217,40.251c-2.803,6.795-6.25,10.1-13.68,10.226
		c-8.103,0.139-12.069-0.899-7.646-10.37c5.759-12.326,7.63-24.997-5.477-40.094c5.148,20.423,5.618,37.91-11.233,46.864
		c-9.716,5.157-22.045,0.599-33.69-4.491c11.027-13.423,17.634-27.521,12.247-48.157c-2.334,18.092-7.046,31.604-19.262,41.286
		c-3.379,2.679-6.085,4.739-11.123,3.409c-17.367-4.595-18.553-7.605-5.919-20.828C294.09,631.747,296.455,623.524,297.595,614.57z"
		/>
	<path fill-rule="evenodd" fill="#6F3822" d="M372.725,614.02c8.689-11.715,21.299-3.375,31.727-6.205
		c11.375,14.118,20.768,28.631,12.885,48.087c-2.539,6.272-6.137,10.357-12.713,12.37c-9.018,2.761-15.988,5.848-13.424-9.614
		c2.443-14.732,2.121-30.299-15.139-38.104l0.029,0.037c-1.064-2.123-2.129-4.245-3.193-6.367L372.725,614.02z"/>
	<path fill-rule="evenodd" fill="#6F3822" d="M260.281,617.264c0.857-0.79,1.717-1.579,2.574-2.375
		c3.665-2.383,6.171-5.486,6.322-10.068c0,0,0.184-0.246,0.187-0.249c8.69-0.016,15.681,3.975,22.095,9.338
		c-0.157,11.488-6.93,19.25-15.149,25.891c-9.347,7.547-22.853,4.733-29.368-5.482c-2.123-3.327-2.159-5.803,1.742-7.216
		C253.827,625.238,257.448,621.76,260.281,617.264z"/>
	<path fill-rule="evenodd" fill="#6B3621" d="M212.559,598.68c2.737-0.414,5.225-0.279,6.355,2.865
		c-2.061,0.053-4.122,0.105-6.183,0.16C212.698,600.696,212.639,599.688,212.559,598.68z"/>
	<path fill-rule="evenodd" fill="#EB9D6A" d="M213.517,478.686c0,0,0.363-0.35,0.359-0.35c2.568,5.995,5.345,1.561,8.063,0.162
		c8.057,14.314,20.758,5.259,31.463,6.254c0.19,2.829,0.974,5.354,3.544,6.973c0.074,7.23,0.151,14.461,0.224,21.692
		c-13.546-4.924-27.998,3.817-41.437-2.737c-1.775-6.164-4.494-11.779-9.356-16.154l0.322,0.127
		c0.802-3.397,1.604-6.795,2.405-10.191c0,0-0.498,0.576-0.498,0.574C212.572,484.714,217.934,485.481,213.517,478.686z"/>
	<path fill-rule="evenodd" fill="#A8BADC" d="M172.035,513.258c-3.112-7.356-10.41-12.757-10.13-21.698
		c4.445-2.967,5.587-7.645,6.463-12.461c6.217-5.031,7.682-13.156,12.44-19.143c2.12-2.176,4.242-4.354,6.365-6.531
		c-0.243,12.449,4.024,23.072,12.882,31.838c-3.127,3.324-6.248,6.647-9.369,9.968c0.006-0.007-0.301,0.885-0.301,0.885
		c-3.726,1.364-7.301,2.847-6.451,7.931l0.077-0.092c-2.891,1.269-5.474,2.805-5.566,6.479c-1.232,1.237-2.463,2.473-3.692,3.71
		C173.869,513.777,172.966,513.482,172.035,513.258z"/>
	<path fill-rule="evenodd" fill="#1C110B" d="M253.403,484.753c-10.705-0.995-23.406,8.061-31.463-6.254
		c-0.068-2.131-0.135-4.26-0.206-6.393c2.021-1.164,4.039-2.328,6.058-3.492c1.345,3.318,3.563,5.809,6.855,7.286
		c-0.03,1.051-0.058,2.099-0.089,3.146c-0.184,0.322-0.366,0.648-0.547,0.974c0.166-0.341,0.335-0.679,0.501-1.02
		c22.389-4.629,45.669-5.751,66.4-16.894c6.25,2.174,10.379,3.734,0.943,8.535C286.497,478.46,269.084,478.505,253.403,484.753z"/>
	<path fill-rule="evenodd" fill="#121212" d="M234.651,475.9c-3.296-1.478-5.514-3.968-6.859-7.286
		c21.062-19.4,47.113-21.471,73.802-21.034c5.222,0.086,10.072-0.667,14.744-2.878c0.024,1.127,0.052,2.254,0.08,3.381
		c-4.337,6-11.521,3.198-17.204,5.283c-5.842,2.145-1.604,4.384-1.478,6.66c-3.176-0.019-6.355-0.04-9.531-0.059
		c-14.861-5.182-28.926-5.225-41.206,6.346l0.064,0.013c-1.49,1.06-2.979,2.116-4.469,3.173
		C239.946,471.634,237.298,473.768,234.651,475.9z"/>
	<path fill-rule="evenodd" fill="#040405" d="M187.172,453.425c-2.123,2.178-4.245,4.355-6.365,6.531
		c-5.329-5.195-5.243-5.324,1.407-12.483c18.964-20.424,40.248-37.226,68.034-43.986c0.233,2.135,0.467,4.272,0.697,6.411
		C224.532,416.851,204.388,432.999,187.172,453.425z"/>
	<path fill-rule="evenodd" fill="#100906" d="M190.683,495.233c3.124-3.323,6.245-6.646,9.372-9.971
		c3.072,0.378,5.498-6.57,9.049-0.799c-0.799,3.395-1.601,6.792-2.405,10.189C201.36,494.846,196.021,495.04,190.683,495.233z"/>
	<path fill-rule="evenodd" fill="#121212" d="M221.734,472.106c0.071,2.133,0.138,4.262,0.206,6.393
		c-2.719,1.398-5.495,5.833-8.063-0.162C214.497,473.735,218.362,473.231,221.734,472.106z"/>
	<path fill-rule="evenodd" fill="#100906" d="M213.517,478.686c4.417,6.795-0.946,6.027-4.908,6.35
		C204.812,478.719,209.785,479.184,213.517,478.686z"/>
	<path fill-rule="evenodd" fill="#E89C69" d="M297.736,460.026c-0.126-2.276-4.365-4.516,1.478-6.66
		c5.683-2.085,12.867,0.717,17.204-5.283c5.44-1.246,10.855,5.318,16.308,0.047c0.866,0.768,1.732,1.535,2.599,2.304l0.031,0.236
		c-19.474,24.887-19.462,51.181,1.413,71.266c-3.72-13.036-9.498-25.756-7.857-39.637c0.476-4.03-2.03-10.462,6.358-9.056
		c0.995,0.025,1.99,0.05,2.982,0.071c4.224-0.095,8.444-0.19,12.665-0.286c-0.19,2.448-0.384,4.896-0.577,7.348
		c-5.087-2.39-8.936-1.668-11.436,3.938c-4.675,10.465,0.556,24.764,11.844,31.783c-5.483,4.401-0.574,8.754,0.064,13.128
		c-25.258,0.479-28.278,2.487-32.129,21.378c-14.529-8.907-32.035-5.621-47.331-11.516c-3.785-1.459-7.956-1.919-11.949-2.841
		c3.378-3.95,7.449-7.547,6.89-13.506c12.056-3.099,14.28-19.612,4.46-31.297c-4.979-5.925-9.316-5.256-13.804,0.282
		c-2.571-1.619-3.354-4.144-3.544-6.973c15.681-6.248,33.094-6.293,48.452-14.111c9.436-4.801,5.308-6.361-0.943-8.535
		C299.852,461.411,298.796,460.718,297.736,460.026z"/>
	<path fill-rule="evenodd" fill="#E79467" d="M266.292,522.74c0.559,5.959-3.511,9.556-6.89,13.506
		c-14.271,0.415-28.745-1.407-42.223,5.753c-8.831,4.693-12.112-8.662-20.294-7.092c-0.028-1.662-0.055-3.324-0.083-4.988
		c2.798-0.047,5.775,0.23,6.5-3.578l-0.092,0.086c6.914-3.069,9.531-9.56,12.526-15.746c13.438,6.555,27.891-2.187,41.437,2.737
		c0.971,0.685,1.941,1.366,2.915,2.052c-0.16,4.38,1.628,7.099,6.285,7.369L266.292,522.74z"/>
	<path fill-rule="evenodd" fill="#6F3822" d="M196.802,529.919c0.028,1.664,0.055,3.326,0.083,4.988
		c0.528,1.941,0.882,3.947,1.622,5.805c1.643,4.141,8.84,6.534,6.336,11.255c-2.789,5.253-9.246,1.563-14.081,1.979
		c-3.148-14.274-6.293-28.554-9.439-42.837c2.559-1.761,3.855-3.994,2.688-7.154l-0.077,0.092c5.867,0.378,7.372-2.789,6.451-7.931
		c0,0,0.307-0.892,0.301-0.885c5.335-0.19,10.674-0.384,16.013-0.577c0.003,0-0.319-0.127-0.319-0.127
		c-1.057,10.635-2.113,21.27-3.17,31.9l0.092-0.086C199.898,525.286,198.107,527.163,196.802,529.919z"/>
	<path fill-rule="evenodd" fill="#E29360" d="M153.424,570.221c-0.651,9.359-4.546,4.178-6.93,1.26
		c-11.629-14.237-16.127-30.732-14.695-48.95c2.692-0.854,5.385-1.708,8.076-2.562c3.357,4.387,11.807,5.538,9.252,13.639
		c-1.782,5.636-1.515,8.336,5.643,8.535c2.331,0.064,4.623,5.139,4.398,9.09c-0.037,3.056-0.074,6.112-0.11,9.168
		C155.82,562.895,151.381,564.699,153.424,570.221z"/>
	<path fill-rule="evenodd" fill="#E89C69" d="M139.875,519.969c-2.691,0.854-5.383,1.707-8.076,2.562
		c1.435-12.683,4.745-23.597,21.022-22.27c8.994,2.325,7.129,11.632,11.064,17.201c1.327,6.063,2.657,12.136,3.987,18.206
		c-2.027,0.021-4.058,0.04-6.088,0.062C155.429,520.67,149.99,516.76,139.875,519.969z"/>
	<path fill-rule="evenodd" fill="#E3885C" d="M318.682,550.602c3.852-18.891,6.871-20.898,32.129-21.378
		c0.049,1.044,0.07,2.092,0.059,3.14c0.491,4.564,6.137,2.527,7.557,5.903c-19.149,2.199-22.986,6.361-20.145,21.864
		C330.83,558.847,324.266,555.735,318.682,550.602z"/>
	<path fill-rule="evenodd" fill="#E37C54" d="M338.282,560.132c-2.841-15.503,0.995-19.665,20.145-21.864
		c1.797,0.942,3.594,1.886,5.391,2.829c-0.114,4.682-1.358,9.602,2.812,13.387c-0.115,2.484-1.424,3.869-3.888,4.189
		c-4.527-1.023-8.873-1.306-12.142,2.902C346.495,561.093,342.389,560.614,338.282,560.132z"/>
	<path fill-rule="evenodd" fill="#4E2414" d="M181.323,511.108c3.146,14.283,6.291,28.563,9.439,42.837
		c-2.629,1.314-7.31,4.384-7.925,1.323c-2.746-13.689-14.037-25.801-8.087-41.126c1.232-1.237,2.463-2.473,3.695-3.71
		C179.441,510.509,180.399,510.733,181.323,511.108z"/>
	<path fill-rule="evenodd" fill="#F0B578" d="M161.785,535.73c2.03-0.021,4.061-0.04,6.088-0.062
		c1.137,3.904,2.442,7.768,3.373,11.721c2.43,10.33-0.639,15.688-12.188,13.012c0.037-3.056,0.073-6.112,0.107-9.172
		c1.333,0.117,2.663,0.236,3.996,0.356c0.316-0.347,0.964-0.805,0.891-1.02c-0.27-0.802-0.777-1.526-1.198-2.282
		c0.071-1.094,0.141-2.188,0.209-3.281c0.298-0.951,0.599-1.906,0.897-2.862C163.235,540.006,162.51,537.868,161.785,535.73z"/>
	<path fill-rule="evenodd" fill="#E3885C" d="M366.629,554.483c-4.17-3.785-2.926-8.705-2.812-13.387
		C370.34,544.385,370.571,548.997,366.629,554.483z"/>
	<path fill-rule="evenodd" fill="#E3885C" d="M350.599,561.575c3.269-4.208,7.614-3.926,12.142-2.902
		C359.464,562.856,355.198,562.905,350.599,561.575z"/>
	<path fill-rule="evenodd" fill="#4E2414" d="M177.718,576.696c-0.344-0.258-0.685-0.512-1.029-0.771
		c0.452,0.15,0.906,0.298,1.358,0.445C178.049,576.368,177.718,576.696,177.718,576.696z"/>
	<path fill-rule="evenodd" fill="#4F2414" d="M441.949,658.133c8.346-24.029,0.338-43.356-22.889-61.347
		c19.166,4.781,30.563,18.785,32.447,34.301c0.605,4.982-1.391,10.538,3.215,14.646
		C451.764,651.203,447.592,655.424,441.949,658.133z"/>
	<path fill-rule="evenodd" fill="#EB9D6A" d="M350.339,480.376c0.193-2.451,0.387-4.899,0.577-7.348
		c7.657,0.507,17.584-8.072,22.502,1.075c6.313,11.74,4.662,24.942-3.434,36.46c-4.348-1.064-8.69-2.131-13.033-3.193
		c-0.133-5.174-0.262-10.343-0.394-15.512c5.664-6.497,0.55-7.784-4.42-9.139C351.54,481.936,350.94,481.156,350.339,480.376z"/>
	<path fill-rule="evenodd" fill="#612F1C" d="M372.881,447.629c-0.203,6.042,3.508,8.622,8.729,9.854
		c-13.566,7.66-28.578,5.04-43.073,6.066l-0.51-0.501c0.583-3.459,1.167-6.915,1.763-10.345
		C350.065,446.062,361.648,447.988,372.881,447.629z"/>
	<path fill-rule="evenodd" fill="#612F1C" d="M338.537,463.55c-0.295,0.328-0.59,0.654-0.888,0.979
		c-0.206-0.206-0.415-0.415-0.624-0.624c0.338-0.282,0.673-0.564,1.004-0.854C338.027,463.049,338.537,463.55,338.537,463.55z"/>
	<path fill-rule="evenodd" fill="#EB9D6A" d="M338.251,473.314c-0.992-0.021-1.987-0.046-2.982-0.071
		C336.273,472.829,337.268,472.853,338.251,473.314z"/>
	<path fill-rule="evenodd" fill="#6078A0" d="M250.248,403.486c-27.786,6.761-49.07,23.563-68.034,43.986
		c-6.65,7.159-6.736,7.288-1.407,12.483c-4.758,5.986-6.223,14.111-12.44,19.143c-7.618-1.128-6.211-7.093-6.432-12.115
		c-1.941-43.921,15.73-63.583,59.86-66.646c3.127-0.215,6.254-0.396,9.378-0.593C237.271,402.337,244.778,397.715,250.248,403.486z"
		/>
	<path fill-rule="evenodd" fill="#130C09" d="M350.339,480.376c0.602,0.78,1.201,1.561,1.8,2.344
		c1.474,3.047,2.945,6.091,4.42,9.139c0.132,5.169,0.261,10.338,0.394,15.512c-2.07,2.908-4.138,5.817-6.205,8.727
		c-11.289-7.02-16.52-21.318-11.844-31.783C341.403,478.708,345.252,477.986,350.339,480.376z"/>
	<path fill-rule="evenodd" fill="#211712" d="M335.324,450.433c-0.866-0.769-1.732-1.536-2.599-2.304
		C333.592,448.897,334.458,449.665,335.324,450.433z"/>
	<path fill-rule="evenodd" fill="#4F2414" d="M269.176,604.821c-0.151,4.582-2.657,7.686-6.322,10.068
		C262.642,610.083,262.974,605.61,269.176,604.821z"/>
	<path fill-rule="evenodd" fill="#4F2414" d="M372.897,614.223c1.064,2.122,2.129,4.244,3.193,6.367
		C373.713,619.129,373.033,616.812,372.897,614.223z"/>
	<path fill-rule="evenodd" fill="#130C09" d="M260.087,515.469c-0.974-0.686-1.944-1.367-2.915-2.052
		c-0.073-7.231-0.15-14.462-0.224-21.692c4.488-5.538,8.825-6.207,13.804-0.282c9.82,11.685,7.596,28.198-4.46,31.297
		c0,0,0.08,0.099,0.077,0.099C264.274,520.382,262.182,517.927,260.087,515.469z"/>
	<path fill-rule="evenodd" fill="#100906" d="M203.209,526.427c1.057-10.631,2.113-21.266,3.17-31.9
		c4.862,4.375,7.581,9.99,9.356,16.154C212.74,516.867,210.123,523.357,203.209,526.427z"/>
	<path fill-rule="evenodd" fill="#100906" d="M190.385,496.115c0.921,5.142-0.583,8.309-6.451,7.931
		C183.084,498.962,186.659,497.479,190.385,496.115z"/>
	<path fill-rule="evenodd" fill="#100906" d="M181.323,511.108c-0.924-0.375-1.883-0.6-2.878-0.676
		c0.092-3.674,2.675-5.21,5.566-6.479C185.178,507.114,183.882,509.347,181.323,511.108z"/>
	<path fill-rule="evenodd" fill="#4F2414" d="M297.736,460.026c1.06,0.691,2.116,1.385,3.176,2.08
		c-20.731,11.143-44.011,12.265-66.4,16.894l0.046,0.046c0.031-1.047,0.059-2.095,0.089-3.146c2.651-2.132,5.299-4.267,7.956-6.401
		c1.493-1.06,2.976-2.116,4.46-3.173l-0.064-0.013c13.635-2.758,27.989-0.872,41.206-6.346
		C291.381,459.986,294.56,460.008,297.736,460.026z"/>
	<path fill-rule="evenodd" fill="#4F2414" d="M234.512,479c-0.166,0.341-0.335,0.679-0.501,1.02
		c0.181-0.325,0.363-0.651,0.547-0.974L234.512,479z"/>
	<path fill-rule="evenodd" fill="#6B3621" d="M288.205,459.968c-13.217,5.474-27.571,3.588-41.206,6.346
		C259.279,454.743,273.344,454.786,288.205,459.968z"/>
	<path fill-rule="evenodd" fill="#6B3621" d="M247.063,466.326c-1.484,1.057-2.967,2.113-4.46,3.173
		C244.084,468.442,245.573,467.385,247.063,466.326z"/>
	<path fill-rule="evenodd" fill="#E89C69" d="M260.087,515.469c2.095,2.457,4.187,4.912,6.282,7.369
		C261.715,522.568,259.927,519.849,260.087,515.469z"/>
	<path fill-rule="evenodd" fill="#100906" d="M196.802,529.919c1.306-2.756,3.096-4.633,6.5-3.578
		C202.576,530.149,199.6,529.872,196.802,529.919z"/>
	<path fill-rule="evenodd" fill="#040405" d="M163.063,545.003c-0.068,1.094-0.138,2.188-0.209,3.281
		c0.101,1.1,0.206,2.199,0.307,3.302c-1.333-0.12-2.663-0.239-3.996-0.356c0.227-3.947-2.064-9.021-4.396-9.086
		c-7.157-0.199-7.424-2.899-5.643-8.535c2.555-8.101-5.895-9.252-9.252-13.639c10.115-3.21,15.555,0.7,21.91,15.761
		c0.725,2.138,1.45,4.275,2.175,6.41C163.241,542.964,162.94,543.919,163.063,545.003z"/>
	<path fill-rule="evenodd" fill="#E29360" d="M163.161,551.586c-0.102-1.103-0.206-2.202-0.307-3.302
		c0.421,0.756,0.928,1.48,1.198,2.282C164.125,550.781,163.477,551.239,163.161,551.586z"/>
	<path fill-rule="evenodd" fill="#E89C69" d="M163.063,545.003c-0.123-1.084,0.178-2.039,0.897-2.862
		C163.661,543.096,163.361,544.052,163.063,545.003z"/>
	<path fill-rule="evenodd" fill="#E89C69" d="M356.558,491.858c-1.475-3.048-2.946-6.092-4.42-9.139
		C357.108,484.074,362.222,485.361,356.558,491.858z"/>
</g>
</svg>
