<?xml version="1.0" encoding="utf-8"?>
<!-- Generator: Adobe Illustrator 16.0.0, SVG Export Plug-In . SVG Version: 6.00 Build 0)  -->
<!DOCTYPE svg PUBLIC "-//W3C//DTD SVG 1.1 Tiny//EN" "http://www.w3.org/Graphics/SVG/1.1/DTD/svg11-tiny.dtd">
<svg version="1.1" baseProfile="tiny" id="Layer_1" xmlns="http://www.w3.org/2000/svg" xmlns:xlink="http://www.w3.org/1999/xlink"
	 x="0px" y="0px" width="600px" height="600px" viewBox="0 0 600 600" xml:space="preserve">
<g>
	<path fill-rule="evenodd" fill="#020202" d="M-17.629,300.5c0-105.941,0.036-211.882-0.125-317.824
		c-0.006-4.47,0.877-5.349,5.346-5.345c209.272,0.142,418.544,0.142,627.818,0c4.468-0.003,5.347,0.875,5.345,5.345
		c-0.142,211.882-0.142,423.765,0,635.648c0.002,4.467-0.875,5.348-5.345,5.345c-209.272-0.142-418.545-0.142-627.818,0
		c-4.468,0.003-5.353-0.874-5.346-5.345C-17.593,512.383-17.629,406.441-17.629,300.5z M378.203,274.977
		c0-0.006-0.001-0.013-0.001-0.02c4.995,0,10.039,0.451,14.977-0.079c19.626-2.109,37.806-7.806,51.861-22.678
		c6.839-7.236,10.692-15.643,9.858-25.932c-0.853-10.509-8.898-19.31-18.353-19.42c-8.285-0.098-14.59,3.62-19.029,10.527
		c-4.235,6.588-2.299,12.645,1.335,18.833c6.004,10.225,4.737,14.173-5.796,19.459c-15.196,7.626-31.42,7.316-47.762,6.045
		c-3.194-0.249-3.098-1.917-2.588-4.474c3.438-17.222,6.339-34.561,10.159-51.695c4.481-20.096,9.76-40.043,20.805-57.784
		c9.423-15.137,21.898-25.74,40.929-25.808c15.223-0.054,18.116,4.73,10.782,17.888c-6.64,11.912-3.994,24.592,6.419,30.75
		c11.46,6.777,27.087,3.219,33.929-7.728c9.64-15.427,4.699-34.505-11.78-44.388c-13.963-8.374-29.306-10.275-45.2-8.433
		c-29.174,3.381-51.855,18.438-70.791,39.966c-21.372,24.299-36.017,52.46-46.616,82.804c-2.062,5.898-3.491,5.706-7.725,1.753
		c-9.195-8.586-18.121-17.507-28.362-24.935c-33.474-24.279-73.826-25.034-103.66-0.76c-17.435,14.186-25.51,33.08-22.369,55.922
		c2.297,16.707,10.34,30.622,21.501,42.898c6.431,7.074,13.219,13.831,19.513,21.021c9.753,11.138,10.026,24.336,1.113,35.588
		c-10.974,13.853-32.895,16.264-49.642,5.458c-8.354-5.389-9.434-10.22-4.176-18.862c4.287-7.047,6.571-14.518,5.386-22.884
		c-1.696-11.974-10.44-19.892-22.54-20.229c-11.737-0.326-19.542,6.26-21.884,18.727c-3.25,17.299,3.5,31.137,15.876,42.425
		c15.731,14.349,35.115,20.369,55.878,21.812c23.1,1.604,44.059-4.672,60.878-21.006c19.779-19.21,26.761-48.44,5.749-77.887
		c-8.871-12.432-19.41-23.399-29.511-34.763c-8.15-9.168-11.415-19.587-6.044-31.163c5.547-11.956,15.313-18.08,28.638-17.5
		c17.149,0.747,31.778,7.952,44.706,18.768c8.827,7.385,17.11,15.426,26.02,22.706c3.136,2.563,3.44,4.689,2.377,8.205
		c-5.71,18.883-10.026,38.117-13.907,57.447c-7.204,35.881-12.459,72.169-22.222,107.516c-6.13,22.195-13.169,44.05-27.619,62.563
		c-9.452,12.107-20.798,21.568-36.547,24.176c-4.436,0.734-9.141,0.606-11.31-4.161c-2.221-4.884,1.594-7.569,5.004-10.023
		c12.799-9.204,13.866-24.28,2.465-35.35c-15.402-14.954-43.254-6.229-49.393,15.474c-5.056,17.874,5.15,36.015,24.527,43.092
		c18.236,6.658,36.34,4.56,54.129-1.84c30.006-10.795,51.686-31.938,70.207-56.977c25.692-34.729,38.943-74.571,48.138-116.136
		c4.591-20.749,8.155-41.684,11.724-62.619c0.775-4.549,1.879-7.485,7.595-6.433C369.844,275.57,374.078,274.977,378.203,274.977z"
		/>
	<path fill-rule="evenodd" fill="#FBFAFA" d="M378.203,274.977c-4.125,0-8.359,0.593-12.349-0.142
		c-5.716-1.052-6.819,1.883-7.595,6.433c-3.568,20.936-7.133,41.87-11.724,62.619c-9.195,41.564-22.446,81.407-48.138,116.136
		c-18.521,25.038-40.201,46.182-70.207,56.977c-17.789,6.399-35.893,8.498-54.129,1.84c-19.377-7.077-29.583-25.218-24.527-43.092
		c6.139-21.702,33.99-30.428,49.393-15.474c11.401,11.069,10.334,26.146-2.465,35.35c-3.41,2.454-7.225,5.14-5.004,10.023
		c2.168,4.768,6.874,4.896,11.31,4.161c15.749-2.607,27.095-12.068,36.547-24.176c14.45-18.513,21.489-40.367,27.619-62.563
		c9.763-35.347,15.018-71.635,22.222-107.516c3.881-19.33,8.197-38.564,13.907-57.447c1.063-3.516,0.759-5.643-2.377-8.205
		c-8.909-7.28-17.193-15.32-26.02-22.706c-12.928-10.816-27.557-18.021-44.706-18.768c-13.325-0.58-23.091,5.544-28.638,17.5
		c-5.371,11.576-2.106,21.995,6.044,31.163c10.102,11.364,20.641,22.332,29.511,34.763c21.012,29.447,14.03,58.677-5.749,77.887
		c-16.819,16.334-37.779,22.61-60.878,21.006c-20.763-1.442-40.147-7.463-55.878-21.812c-12.376-11.288-19.126-25.126-15.876-42.425
		c2.342-12.467,10.146-19.053,21.884-18.727c12.1,0.337,20.844,8.255,22.54,20.229c1.186,8.366-1.099,15.837-5.386,22.884
		c-5.257,8.643-4.177,13.474,4.176,18.862c16.747,10.806,38.668,8.395,49.642-5.458c8.913-11.252,8.64-24.45-1.113-35.588
		c-6.294-7.19-13.082-13.947-19.513-21.021c-11.162-12.276-19.205-26.192-21.501-42.898c-3.141-22.842,4.934-41.737,22.369-55.922
		c29.834-24.274,70.186-23.519,103.66,0.76c10.241,7.428,19.167,16.349,28.362,24.935c4.233,3.953,5.663,4.145,7.725-1.753
		c10.6-30.344,25.244-58.504,46.616-82.804c18.936-21.528,41.617-36.585,70.791-39.966c15.895-1.842,31.237,0.06,45.2,8.433
		c16.479,9.883,21.42,28.961,11.78,44.388c-6.842,10.946-22.469,14.505-33.929,7.728c-10.413-6.158-13.059-18.838-6.419-30.75
		c7.334-13.157,4.44-17.942-10.782-17.888c-19.03,0.068-31.506,10.671-40.929,25.808c-11.045,17.741-16.323,37.688-20.805,57.784
		c-3.82,17.134-6.721,34.473-10.159,51.695c-0.51,2.557-0.606,4.226,2.588,4.474c16.342,1.271,32.565,1.581,47.762-6.045
		c10.533-5.287,11.8-9.235,5.796-19.459c-3.634-6.188-5.57-12.246-1.335-18.833c4.439-6.907,10.744-10.625,19.029-10.527
		c9.454,0.111,17.5,8.911,18.353,19.42c0.834,10.289-3.02,18.696-9.858,25.932c-14.056,14.872-32.235,20.569-51.861,22.678
		c-4.938,0.53-9.981,0.079-14.977,0.079C378.202,274.964,378.203,274.97,378.203,274.977z"/>
</g>
</svg>
