<?xml version="1.0" encoding="utf-8"?>
<!-- Generator: Adobe Illustrator 16.0.0, SVG Export Plug-In . SVG Version: 6.00 Build 0)  -->
<!DOCTYPE svg PUBLIC "-//W3C//DTD SVG 1.1 Tiny//EN" "http://www.w3.org/Graphics/SVG/1.1/DTD/svg11-tiny.dtd">
<svg version="1.1" baseProfile="tiny" id="Layer_1" xmlns="http://www.w3.org/2000/svg" xmlns:xlink="http://www.w3.org/1999/xlink"
	 x="0px" y="0px" width="730.063px" height="833.57px" viewBox="0 0 730.063 833.57" overflow="scroll" xml:space="preserve">
<g>
	<path fill-rule="evenodd" fill="#007ACB" d="M398.304,833.492c-138.016,0-276.029-0.011-414.045,0.078
		c-2.636,0-3.229-0.697-3.229-3.786c0.07-323.572,0.07-647.143,0-970.714c0-3.09,0.593-3.786,3.229-3.785
		c276.03,0.081,552.061,0.081,828.091,0c2.636-0.001,3.229,0.694,3.229,3.785c-0.071,323.571-0.071,647.142,0,970.714
		c0,3.089-0.593,3.786-3.229,3.786C674.334,833.481,536.32,833.492,398.304,833.492z M578.558,780.443
		c19.059,0.619,36.487-2.58,53.021-10.131c18.845-8.607,33.416-21.643,41.229-41.235c5.771-14.472,6.799-29.556,4.996-44.937
		c-2.71-23.101-13.103-41.738-31.867-55.639c-12.307-9.115-25.87-15.993-39.634-22.526c-12.27-5.823-24.976-10.69-37.062-16.912
		c-5.329-2.746-10.6-5.631-14.725-10.103c-7.296-7.907-9.013-17.229-6.071-27.324c2.757-9.46,9.646-14.756,19.075-16.536
		c16.709-3.154,30.666,1.332,40.848,15.558c1.687,2.356,3.477,4.641,5.267,6.922c0.779,0.992,1.606,1.512,2.987,0.626
		c14.269-9.151,28.543-18.291,42.302-28.208c1.442-1.041,1.506-1.904,0.624-3.338c-2.621-4.264-5.705-8.18-8.803-12.088
		c-10.634-13.426-23.864-23.148-40.303-28.348c-9.709-3.07-19.733-3.722-29.801-4.15c-13.132-0.562-26.09,0.182-38.648,4.574
		c-23.653,8.27-40.738,23.359-49.76,47.126c-4.34,11.431-4.165,23.246-3.995,35.153c0.229,16.104,5.726,30.328,15.086,43.161
		c9.396,12.885,22.041,21.891,35.906,29.377c14.764,7.97,30.422,14.005,45.566,21.146c8.275,3.902,16.532,7.845,23.78,13.589
		c13.546,10.736,13.324,34.572-3.034,44.183c-7.534,4.425-15.629,6.698-24.27,7.044c-16.095,0.643-30.981-2.688-43.472-13.644
		c-7-6.141-13.145-13.005-18.125-20.89c-0.646-1.02-1.108-1.912-2.704-0.977c-14.93,8.749-29.901,17.428-44.894,26.07
		c-1.836,1.06-2.367,2.054-1.215,4.062c10.42,18.138,23.955,33.055,42.69,43.041C534.217,776.103,556.156,781.154,578.558,780.443z
		 M309.377,657.648c0,38.655,0.026,77.312-0.059,115.967c-0.006,2.632,0.471,3.515,3.353,3.488
		c17.602-0.155,35.207-0.068,52.812-0.085c3.954-0.004,3.435,0.406,3.435-3.513c0.01-77.402,0.025-154.806-0.063-232.209
		c-0.003-2.814,0.752-3.389,3.445-3.378c25.951,0.107,51.904,0.034,77.855,0.116c2.246,0.008,2.877-0.527,2.84-2.824
		c-0.255-15.696-0.404-31.394-0.449-47.092c-0.008-2.369-0.608-3.014-3.025-3.013c-56.621,0.006-113.244-0.102-169.867-0.133
		c-16.695-0.009-33.391,0.138-50.086,0.246c-3.737,0.024-3.717,0.091-3.893,3.62c-0.769,15.416-0.229,30.847-0.494,46.268
		c-0.043,2.48,0.692,2.937,3.006,2.929c25.951-0.084,51.904,0,77.857-0.127c2.869-0.015,3.395,0.841,3.389,3.499
		C309.35,580.154,309.377,618.902,309.377,657.648z"/>
	<g>
		<path fill-rule="evenodd" fill="#FDFEFE" d="M578.558,780.443c-22.402,0.711-44.342-4.34-65.003-15.353
			c-18.735-9.986-32.271-24.903-42.69-43.041c-1.152-2.008-0.621-3.002,1.215-4.062c14.992-8.643,29.964-17.321,44.894-26.07
			c1.596-0.936,2.059-0.043,2.704,0.977c4.98,7.885,11.125,14.749,18.125,20.89c12.49,10.956,27.377,14.286,43.472,13.644
			c8.641-0.346,16.735-2.619,24.27-7.044c16.358-9.61,16.58-33.446,3.034-44.183c-7.248-5.744-15.505-9.687-23.78-13.589
			c-15.145-7.142-30.803-13.177-45.566-21.146c-13.865-7.486-26.51-16.492-35.906-29.377c-9.36-12.833-14.856-27.057-15.086-43.161
			c-0.17-11.907-0.345-23.723,3.995-35.153c9.021-23.767,26.106-38.856,49.76-47.126c12.559-4.393,25.517-5.136,38.648-4.574
			c10.067,0.429,20.092,1.08,29.801,4.15c16.438,5.199,29.669,14.922,40.303,28.348c3.098,3.908,6.182,7.824,8.803,12.088
			c0.882,1.434,0.818,2.297-0.624,3.338c-13.759,9.917-28.033,19.057-42.302,28.208c-1.381,0.886-2.208,0.366-2.987-0.626
			c-1.79-2.281-3.58-4.565-5.267-6.922c-10.182-14.226-24.139-18.712-40.848-15.558c-9.43,1.78-16.318,7.076-19.075,16.536
			c-2.941,10.095-1.225,19.417,6.071,27.324c4.125,4.472,9.396,7.356,14.725,10.103c12.086,6.222,24.792,11.089,37.062,16.912
			c13.764,6.533,27.327,13.411,39.634,22.526c18.765,13.9,29.157,32.538,31.867,55.639c1.803,15.381,0.775,30.465-4.996,44.937
			c-7.813,19.593-22.385,32.628-41.229,41.235C615.046,777.863,597.617,781.062,578.558,780.443z"/>
		<path fill-rule="evenodd" fill="#FDFEFE" d="M309.377,657.648c0-38.746-0.027-77.494,0.057-116.24
			c0.006-2.658-0.521-3.514-3.389-3.499c-25.953,0.127-51.906,0.043-77.857,0.127c-2.313,0.008-3.049-0.448-3.006-2.929
			c0.265-15.421-0.275-30.852,0.494-46.268c0.176-3.529,0.156-3.596,3.893-3.62c16.695-0.108,33.391-0.255,50.086-0.246
			c56.623,0.031,113.246,0.139,169.867,0.133c2.417-0.001,3.018,0.644,3.025,3.013c0.045,15.698,0.194,31.396,0.449,47.092
			c0.037,2.297-0.594,2.832-2.84,2.824c-25.951-0.082-51.904-0.009-77.855-0.116c-2.693-0.011-3.448,0.563-3.445,3.378
			c0.088,77.403,0.072,154.807,0.063,232.209c0,3.919,0.52,3.509-3.435,3.513c-17.604,0.017-35.209-0.07-52.812,0.085
			c-2.882,0.026-3.359-0.856-3.353-3.488C309.403,734.96,309.377,696.303,309.377,657.648z"/>
	</g>
</g>
</svg>
