<?xml version="1.0" encoding="utf-8"?>
<!-- Generator: Adobe Illustrator 16.0.0, SVG Export Plug-In . SVG Version: 6.00 Build 0)  -->
<!DOCTYPE svg PUBLIC "-//W3C//DTD SVG 1.1 Tiny//EN" "http://www.w3.org/Graphics/SVG/1.1/DTD/svg11-tiny.dtd">
<svg version="1.1" baseProfile="tiny" id="Layer_1" xmlns="http://www.w3.org/2000/svg" xmlns:xlink="http://www.w3.org/1999/xlink"
	 x="0px" y="0px" width="572.589px" height="357.044px" viewBox="0 0 572.589 357.044" xml:space="preserve">
<g>
	<path fill-rule="evenodd" fill="#719876" d="M286.24,321.923c-9.118,5.523-17.754,11.779-27.435,16.455
		c-17.961,8.678-36.587,14.686-56.45,17.104c-39.683,4.83-77.429-1.344-112.119-21.274c-40.609-23.331-67.971-57.723-82.443-102.558
		c-7.675-23.776-9.053-48.165-6.856-72.407c3.163-34.919,16.61-66.439,38.897-93.709C62.462,37.845,91.162,19.025,125.214,7.89
		c23.936-7.827,48.563-9.177,73.012-6.88c31.818,2.989,61.109,14.408,86.824,33.987c0.296,0.226,0.788,0.194,1.188,0.282
		c-0.017,0.326-0.034,0.65-0.053,0.975c-16.011,11.143-28.769,25.442-39.649,41.448c-27.636,40.654-36.296,85.583-27.825,133.536
		c7.982,45.185,30.621,81.974,67.474,109.713C286.205,321.273,286.224,321.599,286.24,321.923z M77.693,177.386
		c0.176,0,0.352,0,0.527,0c0,10.26-0.374,20.538,0.085,30.776c0.745,16.631,9.595,26.494,26,29.42
		c7.713,1.374,15.555,1.42,23.269-0.058c15.466-2.965,23.042-11.311,24.685-27.062c1.943-18.632,0.613-37.33,0.9-55.996
		c0.188-12.231,0.023-11.908-12.1-12.361c-5.821-0.217-7.647,1.187-7.513,7.309c0.409,18.67,0.259,37.36-0.031,56.035
		c-0.176,11.378-6.076,16.743-17.469,16.805c-11.61,0.064-18.22-5.488-18.692-17.28c-0.647-16.192-0.423-32.423-0.492-48.636
		c-0.061-14.578-0.01-14.394-14.579-14.208c-4.087,0.052-4.698,1.637-4.645,5.08C77.792,157.266,77.693,167.327,77.693,177.386z
		 M163.328,189.415c0,11.269,0,22.536,0,33.806c0,14.209,0.001,14.034,14.072,14.08c4.291,0.015,5.529-1.189,5.496-5.502
		c-0.194-25.199-0.094-50.4-0.094-75.601c0-14.171-0.001-14.001-14.033-14.053c-4.253-0.016-5.619,1.121-5.537,5.476
		C163.494,161.548,163.329,175.483,163.328,189.415z"/>
	<path fill-rule="evenodd" fill="#375F60" d="M286.24,321.923c-0.016-0.324-0.035-0.649-0.053-0.973
		c10.738-7.321,19.868-16.28,28.326-26.169c24.251-28.354,38.381-61.189,41.786-98.034c3.371-36.463-2.644-71.671-20.842-104.033
		c-12.479-22.19-27.944-41.92-49.271-56.46c0.019-0.325,0.036-0.649,0.053-0.975c9.738-5.525,18.831-12.083,28.91-17.111
		c30.983-15.454,63.987-20.491,97.91-17.173c36.885,3.608,69.756,17.86,97.954,42.471c33.957,29.638,54.215,66.644,59.901,111.264
		c6.471,50.765-5.72,96.86-38.075,136.687c-29.466,36.27-67.847,57.824-114.354,63.911c-38.609,5.054-75.452-1.006-109.842-19.763
		C300.975,331.383,293.697,326.488,286.24,321.923z M375.835,178.807c0.179,0,0.359,0,0.54,0c0,10.249-0.349,20.513,0.079,30.744
		c0.681,16.254,9.455,26.046,25.448,29.195c7.319,1.44,14.762,1.396,22.047,0.39c16.264-2.247,24.843-11.212,26.437-27.364
		c2.118-21.476,0.437-43.032,1.023-64.543c0.154-5.619-4.051-4.111-6.298-3.555c-4.415,1.094-11.239-4.247-13.022,3.46
		c-1.217,5.256-0.224,11.021-0.237,16.558c-0.032,14.355,0.102,28.714-0.171,43.063c-0.189,10.005-4.283,14.736-13.229,16.374
		c-13.647,2.498-22.499-4.074-23.037-18.153c-0.602-15.769-0.323-31.572-0.371-47.361c-0.043-14.401-0.011-14.184-14.348-14.264
		c-4.386-0.024-4.998,1.607-4.928,5.311C375.96,158.707,375.835,168.758,375.835,178.807z M541.588,237.865
		c-8.141-12.339-15.17-24.716-23.918-35.727c-7.523-9.467-8.088-16.71-0.165-26.316c7.982-9.677,14.017-20.96,21.425-32.342
		c-4.135,0-7.234,0.421-10.179-0.078c-9.015-1.529-14.941,1.617-19.046,9.994c-3.064,6.253-7.616,11.778-11.817,18.097
		c-5.785-8.732-10.98-16.598-16.204-24.444c-1.09-1.637-1.743-3.66-4.429-3.604c-6.491,0.132-12.988,0.042-19.312,0.042
		c-0.213,0.747-0.383,1.017-0.309,1.131c8.457,13.079,16.744,26.274,25.521,39.135c2.606,3.823,2.707,6.409,0.096,10.206
		c-8.949,13.005-17.543,26.253-26.204,39.455c-0.932,1.422-2.698,2.593-2.081,4.946c5.964,0,11.92-0.16,17.859,0.066
		c3.028,0.116,4.771-0.893,6.403-3.487c5.893-9.36,12.078-18.536,18.533-28.358c3.538,5.359,6.676,10.361,10.07,15.186
		c3.854,5.476,5.827,13.565,11.702,15.966c5.813,2.376,13.336,0.578,20.109,0.593C540.018,238.33,540.392,238.156,541.588,237.865z"
		/>
	<path fill-rule="evenodd" fill="#426E6C" d="M286.186,36.254c21.327,14.54,36.793,34.27,49.271,56.46
		c18.198,32.362,24.213,67.569,20.842,104.033c-3.405,36.845-17.535,69.681-41.786,98.034c-8.458,9.889-17.588,18.848-28.326,26.169
		c-36.854-27.738-59.493-64.527-67.475-109.712c-8.471-47.953,0.189-92.882,27.825-133.536
		C257.417,61.696,270.175,47.397,286.186,36.254z"/>
	<path fill-rule="evenodd" fill="#FAFAFA" d="M77.693,177.386c0-10.059,0.099-20.12-0.055-30.176
		c-0.053-3.443,0.558-5.027,4.645-5.08c14.569-0.187,14.518-0.371,14.579,14.208c0.069,16.213-0.155,32.444,0.492,48.636
		c0.472,11.792,7.082,17.345,18.692,17.28c11.394-0.062,17.293-5.427,17.469-16.805c0.29-18.675,0.439-37.365,0.031-56.035
		c-0.134-6.123,1.692-7.526,7.513-7.309c12.123,0.453,12.288,0.129,12.1,12.361c-0.287,18.666,1.042,37.364-0.9,55.996
		c-1.643,15.751-9.219,24.097-24.685,27.062c-7.714,1.478-15.556,1.432-23.269,0.058c-16.405-2.926-25.255-12.789-26-29.42
		c-0.458-10.238-0.085-20.516-0.085-30.776C78.045,177.385,77.869,177.385,77.693,177.386z"/>
	<path fill-rule="evenodd" fill="#FAFAFA" d="M163.328,189.415c0.001-13.932,0.166-27.867-0.097-41.794
		c-0.082-4.354,1.284-5.491,5.537-5.476c14.032,0.052,14.033-0.118,14.033,14.053c0,25.2-0.1,50.401,0.094,75.601
		c0.033,4.313-1.205,5.517-5.496,5.502c-14.071-0.046-14.072,0.129-14.072-14.08C163.328,211.951,163.328,200.684,163.328,189.415z"
		/>
	<path fill-rule="evenodd" fill="#FAFAFA" d="M375.835,178.807c0-10.049,0.125-20.1-0.066-30.145
		c-0.07-3.703,0.542-5.334,4.928-5.311c14.337,0.08,14.305-0.138,14.348,14.264c0.048,15.789-0.23,31.592,0.371,47.361
		c0.538,14.079,9.39,20.651,23.037,18.153c8.945-1.638,13.039-6.369,13.229-16.374c0.272-14.35,0.139-28.708,0.171-43.063
		c0.014-5.537-0.979-11.302,0.237-16.558c1.783-7.707,8.607-2.367,13.022-3.46c2.247-0.556,6.452-2.064,6.298,3.555
		c-0.587,21.511,1.095,43.068-1.023,64.543c-1.594,16.152-10.173,25.117-26.437,27.364c-7.285,1.006-14.728,1.051-22.047-0.39
		c-15.993-3.149-24.768-12.941-25.448-29.195c-0.428-10.231-0.079-20.495-0.079-30.744
		C376.195,178.807,376.014,178.807,375.835,178.807z"/>
	<path fill-rule="evenodd" fill="#FAFAFA" d="M541.588,237.865c-1.196,0.291-1.57,0.465-1.944,0.462
		c-6.773-0.015-14.296,1.783-20.109-0.593c-5.875-2.4-7.848-10.49-11.702-15.966c-3.395-4.824-6.532-9.826-10.07-15.186
		c-6.455,9.822-12.641,18.998-18.533,28.358c-1.633,2.595-3.375,3.604-6.403,3.487c-5.939-0.227-11.896-0.066-17.859-0.066
		c-0.617-2.354,1.149-3.524,2.081-4.946c8.661-13.202,17.255-26.45,26.204-39.455c2.611-3.797,2.511-6.383-0.096-10.206
		c-8.776-12.861-17.063-26.056-25.521-39.135c-0.074-0.114,0.096-0.384,0.309-1.131c6.323,0,12.82,0.09,19.312-0.042
		c2.686-0.056,3.339,1.967,4.429,3.604c5.224,7.846,10.419,15.711,16.204,24.444c4.201-6.319,8.753-11.844,11.817-18.097
		c4.104-8.377,10.031-11.523,19.046-9.994c2.944,0.5,6.044,0.078,10.179,0.078c-7.408,11.381-13.442,22.665-21.425,32.342
		c-7.923,9.606-7.358,16.849,0.165,26.316C526.418,213.149,533.448,225.526,541.588,237.865z"/>
</g>
</svg>
