<?xml version="1.0" encoding="utf-8"?>
<!-- Generator: Adobe Illustrator 16.0.0, SVG Export Plug-In . SVG Version: 6.00 Build 0)  -->
<!DOCTYPE svg PUBLIC "-//W3C//DTD SVG 1.1//EN" "http://www.w3.org/Graphics/SVG/1.1/DTD/svg11.dtd">
<svg version="1.1" id="Layer_1" xmlns="http://www.w3.org/2000/svg" xmlns:xlink="http://www.w3.org/1999/xlink" x="0px" y="0px"
	 width="606px" height="519.97px" viewBox="0 0 606 519.97" enable-background="new 0 0 606 519.97" xml:space="preserve">
<g>
	<path fill-rule="evenodd" clip-rule="evenodd" fill="#43B783" d="M606,1.583c-5.391,5.705-8.366,12.946-12.224,19.593
		C498.673,185.041,403.658,348.957,308.623,512.86c-1.365,2.355-2.789,4.675-4.244,7.11c-3.2-1.278-3.761-4.229-5.064-6.476
		C201.584,345.055,103.901,176.587,6.181,8.141C4.842,5.834,4.236,2.945,1.532,1.583c0-0.504,0-1.007,0-1.511
		c40.339,0.071,80.677,0.142,121.016,0.214c28.209,48.746,56.402,97.501,84.63,146.237c30.877,53.306,61.847,106.559,92.597,159.939
		c3.249,5.638,4.913,5.752,7.981-0.006c4.846-9.091,10.264-17.877,15.43-26.797C377.121,186.535,431.052,93.411,484.984,0.287
		C525.322,0.215,565.662,0.143,606,0.072C606,0.576,606,1.079,606,1.583z"/>
	<path fill-rule="evenodd" clip-rule="evenodd" fill="#364A5E" d="M122.548,0.286C158.016,0.221,193.484,0.236,228.951,0
		c4.977-0.033,7.023,2.719,9.137,6.379c20.243,35.05,40.553,70.062,60.913,105.044c1.308,2.247,1.816,6.035,5.125,5.723
		c2.526-0.238,3.197-3.58,4.433-5.709c20.323-35.005,40.645-70.01,60.887-105.06c2.114-3.661,4.163-6.41,9.139-6.377
		c35.466,0.235,70.934,0.22,106.401,0.286c-53.934,93.125-107.865,186.249-161.798,279.373c-5.166,8.92-10.584,17.706-15.43,26.797
		c-3.068,5.758-4.733,5.644-7.981,0.006c-30.75-53.38-61.72-106.633-92.597-159.939C178.95,97.787,150.757,49.032,122.548,0.286z"/>
</g>
</svg>
