<?xml version="1.0" encoding="utf-8"?>
<!-- Generator: Adobe Illustrator 16.0.0, SVG Export Plug-In . SVG Version: 6.00 Build 0)  -->
<!DOCTYPE svg PUBLIC "-//W3C//DTD SVG 1.1//EN" "http://www.w3.org/Graphics/SVG/1.1/DTD/svg11.dtd">
<svg version="1.1" id="Layer_1" xmlns="http://www.w3.org/2000/svg" xmlns:xlink="http://www.w3.org/1999/xlink" x="0px" y="0px"
	 width="464.005px" height="464.065px" viewBox="23.993 23.972 464.005 464.065"
	 enable-background="new 23.993 23.972 464.005 464.065" xml:space="preserve">
<path fill="#FFFFFF" d="M453.499,256.676c0-20.459-3.162-40.263-8.897-58.819L356.425,426.69
	C414.507,392.325,453.498,329.072,453.499,256.676L453.499,256.676z"/>
<path fill="#FFFFFF" d="M193.628,443.884c19.63,6.594,40.644,10.137,62.526,10.137c22.866,0,44.771-3.87,65.188-11.029
	L261.1,286.812L193.628,443.884L193.628,443.884z"/>
<path fill="#FFFFFF" d="M66.837,200.888c-5.212,17.684-8.059,36.403-8.059,55.787c0,73.954,40.714,138.393,100.894,172.153
	L67.442,202.127L66.837,200.888z"/>
<path fill="#FFFFFF" d="M167.383,188.16l-8.478-0.381c-18.494-0.307-16.446,18.895-16.446,18.895l65.618,164.577l44.114-105.37
	l-24.627-62.7c-9.861-16.578-33.925-16.404-33.925-16.404v-8.732h137.974l-0.205,9.687l-14.354,0.893
	c-17.879,0-14.266,17.008-14.266,17.008l59.873,159.938l17.162-44.288c30.443-69.017,11.663-120.094,11.663-120.094
	c-30.484-62.72,8.038-71.721,8.038-71.721c2.438-0.348,4.721-0.542,6.963-0.646c-36.199-42.535-90.122-69.519-150.323-69.519
	c-81.396,0-151.314,49.326-181.474,119.706l92.365-0.952l0.325,10.107L167.383,188.16z"/>
<path fill="#FFFFFF" d="M477.841,256.021c0,122.308-99.522,221.839-221.8,221.839c-122.338,0-221.858-99.531-221.858-221.839
	c0-122.338,99.521-221.829,221.858-221.829C378.317,34.202,477.841,133.684,477.841,256.021z M256.041,23.972
	c-127.938,0-232.048,104.11-232.048,232.059c0,127.949,104.11,232.007,232.048,232.007c127.918,0,231.957-104.059,231.957-232.007
	C487.998,128.083,383.962,23.972,256.041,23.972z"/>
</svg>
