<?xml version="1.0" encoding="utf-8"?>
<!-- Generator: Adobe Illustrator 16.0.0, SVG Export Plug-In . SVG Version: 6.00 Build 0)  -->
<!DOCTYPE svg PUBLIC "-//W3C//DTD SVG 1.1//EN" "http://www.w3.org/Graphics/SVG/1.1/DTD/svg11.dtd">
<svg version="1.1" id="Layer_1" xmlns="http://www.w3.org/2000/svg" xmlns:xlink="http://www.w3.org/1999/xlink" x="0px" y="0px"
	 width="548.485px" height="594.003px" viewBox="0 0 548.485 594.003" enable-background="new 0 0 548.485 594.003"
	 xml:space="preserve">
<g>
	<path fill-rule="evenodd" clip-rule="evenodd" fill="#0B0909" d="M549.234,359.373c-1.754,4.974-1.496,10.248-2.18,15.37
		c-5.464,40.957-19.804,78.512-43.348,112.408c-33.4,48.084-78.009,81.309-133.826,99.181
		c-31.619,10.124-64.047,13.352-97.14,10.669C171.892,588.823,84.444,519.72,51.819,421.73c-2.864-8.602-5.979-17.133-7.658-26.083
		c22.007-0.58,42.822-5.601,62.026-16.638c15.573,23.998,37.646,38.845,65.004,46.336c12.347,3.381,24.949,4.917,37.674,5.719
		c0.188,0.87,0.501,1.734,0.547,2.613c0.59,11.317,1.197,22.635,1.655,33.96c0.079,1.944,0.664,3.388,1.921,4.817
		c7.108,8.081,15.9,13.863,25.513,18.382c20.88,9.814,43.084,13.144,65.979,13.438c32.695,0.422,62.941-7.77,90.265-25.668
		c13.864-9.081,11.467-5.102,12.185-21.26c0.019-0.388,0.029-0.773,0.045-1.16c1.746-0.189,2.436,1.288,3.349,2.261
		c11.084,11.825,21.284,24.377,30.496,37.714c6.844,9.905,13.129,20.165,19.066,30.813c4.928-4.116,9.268-8.448,13.552-12.835
		c1.829-2.042,3.658-4.084,5.487-6.126c2.479-2.919,5.002-5.803,7.425-8.77c1.603-1.966,3.721-3.881,4.307-6.156
		c0.306-1.175-2.225-3.082-3.468-4.662c-0.076-0.097-0.11-0.229-0.165-0.346c0.136-0.22,0.259-0.449,0.407-0.656
		c41.041-56.213,56.198-118.853,45.387-187.456c-6.972-44.259-25.549-83.535-54.449-117.826
		c-14.27-16.93-30.407-31.823-48.947-44.027c0.479-3.169,0.776-6.38,1.491-9.493c0.684-2.976-0.24-3.59-3.169-3.578
		c-27.584,0.114-55.168,0.064-82.754,0.088c-0.821,0.001-1.766-0.377-2.521,0.425c7.277,20.673,1.51,36.864-17.185,48.932
		c10.603,0,20.764,0.015,30.925-0.003c22.296-0.041,44.592-0.099,66.888-0.149c14.405,0,28.812,0,43.787,0
		c-3.122,9.202-6.092,17.895-9,26.606c-0.598,1.789-1.997,1.304-3.191,1.314c-7.724,0.064-15.447,0.084-23.17,0.119
		c-5.021-0.007-10.042-0.018-15.063-0.018c-50.273-0.001-100.547-0.008-150.821,0.002c-23.073,0.005-46.145,0.046-69.218,0.071
		c-3.342-0.008-6.685-0.016-10.027-0.024c-3.139-0.003-6.277-0.008-9.416-0.011c-4.486-0.043-8.98-0.273-13.453-0.056
		c-2.577,0.125-3.574-0.89-4.226-3.175c-0.91-3.186-2.146-6.278-3.243-9.411c-1.578-4.896-3.157-9.793-4.735-14.69
		c0.332-0.231,0.664-0.463,0.997-0.694c14.071,0.128,28.142,0.416,42.211-0.146c1.277,0.089,2.554,0.253,3.832,0.254
		c30.032,0.014,60.065,0.011,90.097,0.011c1.082,0,2.165,0,3.604,0c-0.507-0.577-0.619-0.799-0.799-0.896
		c-14.74-7.941-24.113-26.593-16.624-46.185c1.288-3.368-1.289-2.254-2.551-2.256c-27.713-0.05-55.425-0.041-83.137-0.026
		c-0.893,0-1.785,0.168-2.678,0.258c-0.36-0.984-0.72-1.967-1.097-2.996c-8.363,4.014-15.928,8.819-23.552,13.519
		c-1.622-4.134-3.768-8.062-4.863-12.401c7.95-4.968,16.033-9.709,24.45-13.843c1.59-0.78,1.852-1.489,1.542-3.212
		c-2.587-14.412-4.957-28.863-7.572-43.27c-0.554-3.049-0.375-5.813,0.763-8.651c5.246-13.065,14.66-22.533,26.149-30.128
		c15.449-10.212,32.686-15.913,50.726-19.291c30.733-5.756,61.661-6.826,92.616-2.3c28.969,4.236,55.596,14.309,78.138,33.664
		c6.386,5.483,11.864,11.758,16.853,18.536c2.107,2.863,2.468,5.626,1.867,8.958c-3.338,18.585-6.525,37.198-9.857,55.784
		c-0.527,2.945,0.113,4.642,2.815,6.504c57.323,39.485,93.655,93.177,108.565,161.243c2.397,10.94,4.002,22.006,4.67,33.197
		c0.036,0.61-0.093,1.315,0.749,1.542C549.234,334.616,549.234,346.995,549.234,359.373z M174.015,453.789
		c-4.655,2.802-8.906,6.157-12.172,10.486c-14.293,18.944-23.574,40.257-29.389,63.161c-0.338,1.333-0.89,2.835,0.551,3.912
		c2.222,1.663,4.024,3.899,6.787,5.188c5.227-29.535,16.716-56.235,33.452-80.751c0.417-0.61,1.06-1.178,0.711-2.066
		c0.486,0.137,0.725,0.056,0.438-0.493C174.267,453.413,174.141,453.602,174.015,453.789z M271.139,558.255
		c-28.639,1.347-57.236,3.162-85.683,7.52c4.516,1.77,8.235,5.503,13.55,4.826c12.757-1.625,25.572-2.646,38.396-3.523
		c11.028-0.754,22.057-1.6,33.125-1.593c0.024,6.947,0.237,13.901-0.01,20.838c-0.115,3.255,1.087,4.275,4.087,4.308
		c3.469,0.036,6.953,0.189,10.396,0.585c2.668,0.306,3.318-0.704,3.266-3.195c-0.137-6.301-0.015-12.606-0.053-18.909
		c-0.017-2.729,1.157-3.95,3.96-3.934c11.063,0.066,22.128,0.082,33.192-0.006c3.231-0.025,4.271,1.424,4.193,4.479
		c-0.139,5.4,0.075,10.811-0.09,16.208c-0.073,2.38,0.856,2.892,2.92,2.505c4.286-0.805,8.571-1.614,12.875-2.325
		c1.879-0.312,2.066-1.467,2.062-3.041c-0.016-5.916,0.062-11.832,0.104-17.746c14.143,0.805,28.349,1.041,42.398,2.65
		c7.196,0.823,12.665-1.422,19.111-5.276c-21.281-2.361-41.783-3.328-62.277-4.364c-2.472-6.538-7.32-9.82-14.194-9.863
		c-15.715-0.099-31.431-0.117-47.144,0.008C278.496,548.458,273.562,551.652,271.139,558.255z M308.659,173.091
		c17.838,0.064,32.085-13.824,32.296-31.477c0.21-17.72-14.512-32.632-32.225-32.643c-17.543-0.01-31.859,14.306-31.934,31.932
		C276.72,158.963,290.642,173.026,308.659,173.091z M407.8,504.412c1.958-0.864,4.616,0.826,4.546-2.716
		c-0.068-3.518-2.521-2.172-4.098-2.244c-3.599-0.167-7.207-0.048-10.813-0.056c-1.544-0.002-3.009-0.3-3.059,2.193
		c-0.052,2.662,1.47,2.477,3.21,2.455c1.891-0.024,3.751-0.313,5.204,1.618c3.015,4.007,6.446,7.71,9.34,11.797
		c2.062,2.911,1.194,6.543,0.641,9.7c-0.299,1.691-2.938,0.72-4.5,0.763c-1.7,0.048-2.203,0.676-2.2,2.302
		c0.004,1.654,0.593,2.296,2.252,2.273c4.375-0.062,8.755-0.011,13.131-0.021c1.637-0.005,3.389,0.407,3.375-2.34
		c-0.016-2.901-2.02-2.257-3.473-2.107c-3.004,0.31-3.564-0.984-3.676-3.755c-0.154-3.853,0.677-7,3.493-9.732
		c1.647-1.598,2.899-3.602,4.339-5.417c2.379-3.001,4.5-6.349,9.299-5.145c1.802,0.452,2.021-0.965,2.023-2.405
		c0-1.359-0.314-2.205-1.917-2.187c-4.634,0.048-9.27,0.059-13.905-0.005c-1.63-0.021-1.714,0.797-1.84,2.143
		c-0.347,3.683,3.15,1.814,4.643,3.047c-2.305,2.81-4.448,5.37-6.528,7.981c-0.946,1.188-1.698,1.766-2.884,0.178
		C412.341,509.978,410.132,507.335,407.8,504.412z"/>
	<path fill-rule="evenodd" clip-rule="evenodd" fill="#F3CF8C" d="M156.055,189.753c1.097,3.133,2.333,6.226,3.243,9.411
		c0.652,2.285,1.649,3.3,4.226,3.175c4.473-0.217,8.967,0.013,13.455,0.056c-0.095,2.586,0.815,3.512,3.404,2.299
		c1.936-0.906,4.001-1.535,6.009-2.287c3.342,0.008,6.685,0.016,10.027,0.024c-0.341,3.354,0.715,6.62,0.691,9.924
		c-0.019,2.69,1.131,3.182,3.482,3.158c9.376-0.094,18.753-0.059,28.13-0.016c1.359,0.006,2.848-0.481,4.051,0.641
		c-2.95,2.478-6.184,4.649-8.472,7.841c0,0-0.184,0.206-0.184,0.206l0.15-0.239c1.099,0.189,1.94-0.415,2.862-0.862
		c5.848-2.836,11.722-5.615,17.902-7.676c11.553,0.026,23.105,0.054,34.659,0.08c0.988,1.698-0.123,2.93-0.941,4.223
		c-4.914,7.766-11.776,13.161-20.183,16.739c-3.528,1.502-7.248,2.392-10.865,3.599c12.928,1.141,23.94-2.81,33.178-13.431
		c-1.328,9.271-0.184,17.309,0.56,25.367c0.159,1.721,0.793,3.608-0.606,5.193c-1.581-0.456-3.135-1.074-4.748-1.339
		c-11.38-1.867-22.7-1.376-34.096,0.332c-6.412,0.962-11.371,3.491-15.852,8.203c-8.039,8.453-16.616,16.391-24.969,24.545
		c-0.036-2.448-0.16-4.899-0.081-7.342c0.065-2.003-0.624-2.712-2.703-2.544c-14.232,1.152-25.469-4.394-34.143-15.514
		c-5.773-7.402-7.619-16.109-8.172-25.694c-12.634,6.146-24.795,7.73-36.3-3.379c0,2.79,0.099,4.68-0.017,6.558
		c-0.573,9.318-3.956,17.062-12.794,21.355c-6.154,2.99-12.817,3.601-19.58,3.332c-10.628-5.356-21.521-10.128-32.511-14.687
		c2.088-6.617,4.044-13.243,3.843-20.311c-0.253-8.868-2.299-17.28-5.816-25.404c-1.07-2.472-2.698-3.711-5.214-4.533
		c-14.596-4.768-27.114-12.746-35.759-25.617c-9.975-14.85-15.206-31.007-9.667-48.95c3.202-10.375,11.812-16.926,20.797-16.715
		c6.012,0.141,9.625,3.761,9.472,9.731c-0.186,7.207-0.823,14.419,2.115,21.332c1.909,4.493,4.159,8.713,8.113,12.706
		c1.539-7.628,2.501-14.692,4.257-21.604c5.227-20.578,14.035-39.294,28.754-54.79c10.956-11.535,24.016-19.808,39.918-22.79
		c4.433-0.832,9.071-0.951,13.47-0.008c10.168,2.179,13.373,9.645,12.728,21.112c-0.445,7.909-5.308,12.908-12.134,16.625
		c-13.139,7.154-24.705,16.293-33.548,28.561c-1.947,2.7-3.816,5.442-5.286,9.631c4.608-2.57,8.463-4.66,12.261-6.85
		c9.147-5.275,18.345-10.472,27.365-15.958c3.912-2.379,7.379-1.521,10.919,0.346c5.521,2.91,9.421,7.508,12.738,12.658
		c0.765,1.188,1.325,2.519,2.571,3.328c1.093,4.341,3.24,8.269,4.861,12.402c0.667,3.885,1.596,7.747,1.95,11.66
		c0.983,10.866-0.824,20.679-11.257,26.804c-0.333,0.231-0.664,0.463-0.995,0.697c-1.254,0.204-2.524,0.336-3.76,0.616
		c-8.819,1.992-15.188-0.537-20.143-8.024c-0.562-0.849-1.167-1.669-1.752-2.502c-1.433-4.524-3.12-8.97-3.851-13.972
		c-0.785,0.551-1.253,0.777-1.588,1.131c-5.923,6.241-10.619,13.45-15.934,20.172c-0.646,0.816-0.729,1.492-0.25,2.426
		c1.505,2.928,2.271,6.204,4.197,8.937c3.438,8.163,6.886,16.322,10.306,24.493c0.666,1.593,1.403,1.953,2.735,0.573
		c1.876-1.943,3.75-3.919,5.835-5.624C135.61,196.348,144.09,189.304,156.055,189.753z M174.583,259.573
		c8.302-0.07,13.694-3.711,17.279-9.708c4.107-6.87,2.927-13.879-1.289-20.337c-3.304-5.062-10.139-8.123-15.159-7.247
		C189.996,232.937,190.066,250.068,174.583,259.573z"/>
	<path fill-rule="evenodd" clip-rule="evenodd" fill="#DB212D" d="M54.866,251.003c10.99,4.558,21.882,9.33,32.511,14.687
		c-1.646,7.47-1.478,15.136-2.478,22.675c-0.985,5.062-0.947,10.122,0.022,15.183c0.209,2.266,0.419,4.531,0.629,6.798
		c-3.695,3.347-8.276,4.992-12.875,6.497c-10.928,3.576-21.981,2.632-33.037,0.633c2.2-22.165,6.872-43.781,14.439-64.75
		C54.29,252.134,54.601,251.577,54.866,251.003z"/>
	<path fill-rule="evenodd" clip-rule="evenodd" fill="#0B0909" d="M39.637,317.476c11.056,1.999,22.109,2.943,33.037-0.633
		c4.6-1.505,9.181-3.15,12.875-6.494c0.772,12.71,3.227,25.123,6.517,37.393c-16.92,8.065-34.813,11.702-53.497,11.721
		c-1.302-7.166-0.745-14.394-0.475-21.583C38.349,331.069,39.103,324.277,39.637,317.476z"/>
	<path fill-rule="evenodd" clip-rule="evenodd" fill="#0B0909" d="M41.794,384.155c-1.248-4.742-1.953-9.571-2.286-14.46
		c8.848-0.005,17.622-0.773,26.344-2.3c10.403-1.818,20.193-5.429,29.736-9.818c1.939,4.419,3.879,8.838,5.817,13.257
		C82.453,379.38,62.541,383.636,41.794,384.155z"/>
	<path fill-rule="evenodd" clip-rule="evenodd" fill="#D8202C" d="M41.794,384.155c20.747-0.519,40.659-4.774,59.611-13.321
		c1.594,2.726,3.187,5.45,4.78,8.176c-19.202,11.037-40.017,16.058-62.024,16.638C42.894,391.914,41.957,388.114,41.794,384.155z"/>
	<path fill-rule="evenodd" clip-rule="evenodd" fill="#DB212D" d="M95.588,357.577c-9.542,4.39-19.333,8-29.736,9.818
		c-8.722,1.526-17.496,2.295-26.344,2.3c-1.124-3.334-0.946-6.792-0.938-10.232c18.685-0.019,36.577-3.655,53.497-11.721
		C93.457,350.942,94.837,354.148,95.588,357.577z"/>
	<path fill-rule="evenodd" clip-rule="evenodd" fill="#FEFEFE" d="M431.521,202.375c7.723-0.034,15.446-0.054,23.17-0.119
		c1.194-0.01,2.594,0.475,3.191-1.314c2.908-8.712,5.878-17.405,9-26.606c-14.976,0-29.382,0-43.787,0
		c2.11-12.073,4.218-24.147,6.325-36.221c18.54,12.204,34.678,27.097,48.947,44.027c28.9,34.292,47.478,73.567,54.449,117.826
		c10.812,68.604-4.346,131.243-45.387,187.456c-0.148,0.207-0.271,0.437-0.402,0.653c-0.917-0.673-1.896-1.275-2.746-2.025
		c-8.38-7.404-17.054-14.429-26.353-20.659l-0.018-0.017c-0.763-0.656-1.525-1.313-2.286-1.969
		c-3.717-3.979-7.868-7.438-12.411-10.432l0.061,0.042c-0.226-0.219-0.452-0.438-0.679-0.657
		c-10.604-8.19-21.848-15.359-33.96-21.13c0.138-3.56,0.278-7.118,0.416-10.675c1.304-21.964,2.717-43.921,3.4-65.917
		c1.649-0.229,3.296-0.521,4.952-0.673c16.205-1.489,31.394-6.12,45.484-14.358c2.399-1.403,2.739-2.479,1.498-5.037
		c-10.016-20.685-22.964-39.196-39.899-54.826c1.623-1.499,3.705-0.587,5.532-1.056c14.357-3.687,24.771-12.079,29.19-26.384
		c4.57-14.792,1.207-28.088-9.624-39.412C444.538,207.614,438.073,204.964,431.521,202.375z"/>
	<path fill-rule="evenodd" clip-rule="evenodd" fill="#FEFEFE" d="M95.588,357.577c-0.75-3.429-2.131-6.635-3.521-9.835
		c-3.29-12.27-5.745-24.683-6.517-37.393c-0.21-2.27-0.419-4.535-0.629-6.8c-0.007-5.062-0.015-10.123-0.022-15.184
		c1-7.539,0.832-15.206,2.478-22.675c6.763,0.269,13.426-0.342,19.58-3.332c8.839-4.293,12.221-12.037,12.794-21.355
		c0.116-1.878,0.017-3.768,0.017-6.558c11.505,11.109,23.667,9.525,36.3,3.379c0.553,9.585,2.399,18.292,8.172,25.694
		c8.673,11.12,19.91,16.666,34.143,15.514c2.08-0.168,2.768,0.541,2.703,2.544c-0.08,2.443,0.045,4.894,0.08,7.343
		c-15.548,15.361-31.024,30.795-46.71,46.014c-2.694,2.612-1.982,3.505,0.731,5.043c6.044,3.427,12.349,6.22,18.883,8.535
		c9.991,3.54,20.399,4.967,30.867,6.095c1.316,22.196,2.632,44.393,3.948,66.59c-0.007,3.289-0.014,6.579-0.021,9.868
		c-12.725-0.802-25.327-2.338-37.674-5.719c-27.358-7.491-49.431-22.338-65.004-46.336c-1.595-2.726-3.188-5.45-4.782-8.176
		C99.467,366.415,97.527,361.996,95.588,357.577z"/>
	<path fill-rule="evenodd" clip-rule="evenodd" fill="#DB212D" d="M208.865,431.064c0.007-3.289,0.014-6.579,0.021-9.868
		c12.992,14.319,29.95,21.878,47.772,27.903c5.498,1.857,11.375,2.24,16.953,3.528c6.196,1.43,12.458,2.311,18.606,2.458
		c10.089,0.242,20.215,0.453,30.357-0.431c11.069-0.964,21.766-3.314,32.328-6.441c19.749-5.852,37.747-15.214,54.148-27.658
		c-0.138,3.558-0.278,7.116-0.416,10.675c-0.115,2.865-0.231,5.732-0.347,8.598c-0.948,1.26-0.516,2.728-0.582,4.107
		c-0.189,4.088,0.235,8.211-0.733,12.252c-0.016,0.387-0.026,0.772-0.045,1.16c-0.718,16.158,1.68,12.179-12.185,21.26
		c-27.323,17.898-57.569,26.09-90.265,25.668c-22.894-0.295-45.098-3.624-65.979-13.438c-9.613-4.519-18.405-10.301-25.513-18.382
		c-1.257-1.43-1.842-2.873-1.921-4.817c-0.458-11.325-1.064-22.643-1.655-33.96C209.367,432.798,209.054,431.934,208.865,431.064z
		 M322.519,486.217c3.354,2.278,6.885,2.145,9.205-0.349c2.27-2.439,2.229-5.878-0.102-8.83c-1.35-1.867-2.72-3.665-5.282-3.958
		c-3.462-0.398-6.046,0.876-7.44,4.062C317.503,480.333,318.796,483.346,322.519,486.217z M308.761,457.021
		c-3.717,15.198-3.934,30.314,0.04,45.404C312.555,487.271,312.64,472.118,308.761,457.021z"/>
	<path fill-rule="evenodd" clip-rule="evenodd" fill="#E6BE7E" d="M431.521,202.375c6.553,2.589,13.018,5.239,18.065,10.517
		c10.831,11.324,14.194,24.62,9.624,39.412c-4.42,14.306-14.833,22.697-29.19,26.384c-1.827,0.469-3.909-0.443-5.532,1.057
		c-1.216-0.926-2.458-1.821-3.643-2.786c-11.419-9.297-24.089-16.016-38.548-19.32c-15.003-3.429-30.015-3.976-45.138-1.061
		c0.851-9.646,1.242-19.316,0.921-29.492c12.185,10.688,21.978,14.563,32.235,12.673c-5.563-1.226-10.435-2.759-14.964-5.223
		c-7.064-3.84-12.871-9.041-16.787-16.095c-2.249-4.054-3.262-4.651-7.994-3.184c-0.246,0.076-0.481,0.184-0.721,0.277
		c-13.844-0.007-27.688-0.015-41.532-0.022c-2.874-1.2-5.75-1.434-8.631-0.023c-11.551-0.026-23.104-0.054-34.655-0.08
		c-4.166-1.11-8.295-1.575-12.259,0.729c-1.203-1.122-2.691-0.634-4.051-0.641c-9.377-0.043-18.754-0.079-28.13,0.016
		c-2.351,0.024-3.501-0.468-3.482-3.158c0.024-3.305-1.032-6.571-0.691-9.924c23.073-0.025,46.145-0.066,69.218-0.071
		c50.274-0.011,100.548-0.004,150.821-0.002C421.479,202.357,426.5,202.369,431.521,202.375z M441.742,221.964
		c-6.802,0.116-13.72,4.435-16.32,10.71c-2.841,6.852-2.46,13.538,2.377,19.528c3.81,4.719,8.527,6.919,12.492,5.982
		C428.405,250.252,427.892,230.174,441.742,221.964z M392.535,223.427c-5.062-7.655-10.223-9.783-19.073-8.291
		C379.659,217.829,385.676,220.445,392.535,223.427z M393.103,223.587l0.209,0.109l0.016-0.181L393.103,223.587z"/>
	<path fill-rule="evenodd" clip-rule="evenodd" fill="#DB212D" d="M429.42,138.115c-2.107,12.074-4.215,24.148-6.325,36.221
		c-22.296,0.051-44.592,0.109-66.888,0.149c-10.161,0.019-20.322,0.003-30.925,0.003c18.694-12.068,24.462-28.259,17.185-48.932
		c0.756-0.803,1.7-0.424,2.521-0.425c27.586-0.024,55.17,0.026,82.754-0.088c2.929-0.012,3.853,0.602,3.169,3.578
		C430.196,131.735,429.899,134.946,429.42,138.115z"/>
	<path fill-rule="evenodd" clip-rule="evenodd" fill="#DB212D" d="M186.271,125.382c0.893-0.09,1.785-0.257,2.678-0.258
		c27.712-0.014,55.424-0.023,83.137,0.026c1.262,0.002,3.839-1.112,2.551,2.256c-7.489,19.592,1.883,38.244,16.624,46.185
		c0.18,0.097,0.292,0.319,0.799,0.896c-1.439,0-2.522,0-3.604,0c-30.032,0-60.065,0.003-90.097-0.011
		c-1.277,0-2.555-0.165-3.833-0.253c-1.04-5.923-2.111-11.843-3.107-17.775C189.678,146.097,187.984,135.738,186.271,125.382z"/>
	<path fill-rule="evenodd" clip-rule="evenodd" fill="#931A26" d="M406.974,456.187c0.969-4.041,0.544-8.164,0.733-12.252
		c0.066-1.38-0.366-2.848,0.582-4.107c10.736,3.945,20.938,9.044,31.057,14.333c1.896,0.991,3.456,2.757,5.844,2.696
		c9.566,14.513,17.641,29.771,23.727,46.098c1.395,3.747,1.669,8.013,4.521,11.186c-4.284,4.387-8.624,8.719-13.552,12.835
		c-5.938-10.648-12.223-20.908-19.066-30.813c-9.212-13.337-19.412-25.889-30.496-37.714
		C409.409,457.475,408.72,455.998,406.974,456.187z"/>
	<path fill-rule="evenodd" clip-rule="evenodd" fill="#F6AC1A" d="M347.429,565.251c-0.043,5.914-0.12,11.83-0.104,17.746
		c0.005,1.574-0.183,2.729-2.062,3.041c-4.304,0.711-8.589,1.521-12.875,2.325c-2.063,0.387-2.993-0.125-2.92-2.505
		c0.165-5.397-0.049-10.808,0.09-16.208c0.078-3.056-0.962-4.505-4.193-4.479c-11.063,0.088-22.129,0.072-33.192,0.006
		c-2.803-0.017-3.977,1.205-3.96,3.934c0.038,6.303-0.084,12.608,0.053,18.909c0.053,2.491-0.598,3.501-3.266,3.195
		c-3.444-0.396-6.927-0.549-10.396-0.585c-3-0.032-4.202-1.053-4.087-4.308c0.247-6.937,0.034-13.891,0.01-20.833
		c0.205-2.409,0.409-4.821,0.612-7.234c2.422-6.604,7.357-9.797,14.184-9.85c15.713-0.125,31.429-0.106,47.144-0.008
		c6.874,0.043,11.723,3.325,14.194,9.863C346.917,560.59,347.173,562.92,347.429,565.251z"/>
	<path fill-rule="evenodd" clip-rule="evenodd" fill="#FEFEFE" d="M186.271,125.382c1.713,10.356,3.407,20.715,5.146,31.067
		c0.997,5.932,2.068,11.852,3.107,17.775c-14.067,0.561-28.138,0.273-42.209,0.145c10.433-6.125,12.239-15.938,11.256-26.804
		c-0.354-3.913-1.283-7.774-1.95-11.66c7.624-4.7,15.189-9.505,23.552-13.519C185.551,123.415,185.912,124.398,186.271,125.382z"/>
	<path fill-rule="evenodd" clip-rule="evenodd" fill="#FEFEFE" d="M156.055,189.753c-11.965-0.45-20.445,6.595-28.938,13.538
		c-2.085,1.705-3.959,3.681-5.835,5.624c-1.333,1.38-2.069,1.021-2.735-0.573c-3.42-8.17-6.867-16.33-10.305-24.493
		c5.72-6.314,11.193-12.857,17.424-18.694c0.585,0.833,1.19,1.653,1.752,2.502c4.955,7.488,11.324,10.017,20.143,8.024
		c1.236-0.28,2.506-0.413,3.76-0.616C152.897,179.96,154.477,184.857,156.055,189.753z"/>
	<path fill-rule="evenodd" clip-rule="evenodd" fill="#D6202C" d="M308.659,173.091c-18.017-0.064-31.939-14.128-31.862-32.188
		c0.075-17.626,14.391-31.942,31.934-31.932c17.713,0.011,32.435,14.923,32.225,32.643
		C340.744,159.267,326.497,173.155,308.659,173.091z M336.7,140.904c-0.019-15.686-12.238-27.76-28.048-27.715
		c-15.67,0.044-27.89,12.301-27.884,27.964c0.004,15.633,12.267,27.912,27.916,27.952
		C324.535,169.147,336.719,156.883,336.7,140.904z"/>
	<path fill-rule="evenodd" clip-rule="evenodd" fill="#D8202C" d="M173.955,453.718c0.349,0.89-0.293,1.457-0.711,2.067
		c-16.736,24.516-28.226,51.216-33.452,80.751c-2.763-1.289-4.565-3.525-6.787-5.188c-1.441-1.077-0.889-2.579-0.551-3.912
		c5.815-22.904,15.095-44.217,29.389-63.161c3.266-4.329,7.517-7.685,12.172-10.486L173.955,453.718z"/>
	<path fill-rule="evenodd" clip-rule="evenodd" fill="#D8202C" d="M271.139,558.255c-0.204,2.413-0.407,4.825-0.612,7.234
		c-11.067-0.012-22.096,0.834-33.125,1.588c-12.824,0.877-25.639,1.898-38.396,3.523c-5.315,0.677-9.035-3.057-13.55-4.826
		C213.903,561.417,242.5,559.602,271.139,558.255z"/>
	<path fill-rule="evenodd" clip-rule="evenodd" fill="#D6202C" d="M407.8,504.412c2.332,2.924,4.541,5.566,6.604,8.321
		c1.186,1.588,1.938,1.011,2.884-0.178c2.08-2.611,4.224-5.172,6.528-7.981c-1.492-1.232-4.989,0.636-4.643-3.047
		c0.126-1.346,0.21-2.164,1.84-2.143c4.636,0.063,9.271,0.053,13.905,0.005c1.603-0.019,1.917,0.827,1.917,2.187
		c-0.002,1.44-0.222,2.857-2.023,2.405c-4.799-1.204-6.92,2.144-9.299,5.145c-1.439,1.815-2.691,3.819-4.339,5.417
		c-2.816,2.732-3.647,5.88-3.493,9.732c0.111,2.771,0.672,4.064,3.676,3.755c1.453-0.149,3.457-0.794,3.473,2.107
		c0.014,2.747-1.738,2.335-3.375,2.34c-4.376,0.01-8.756-0.041-13.131,0.021c-1.659,0.022-2.248-0.619-2.252-2.273
		c-0.003-1.626,0.5-2.254,2.2-2.302c1.562-0.043,4.201,0.929,4.5-0.763c0.554-3.157,1.421-6.789-0.641-9.7
		c-2.894-4.087-6.325-7.79-9.34-11.797c-1.453-1.932-3.313-1.643-5.204-1.618c-1.74,0.021-3.262,0.207-3.21-2.455
		c0.05-2.493,1.515-2.195,3.059-2.193c3.605,0.008,7.214-0.111,10.813,0.056c1.576,0.072,4.029-1.273,4.098,2.244
		C412.416,505.238,409.758,503.547,407.8,504.412z"/>
	<path fill-rule="evenodd" clip-rule="evenodd" fill="#931A26" d="M457.929,465.393c9.299,6.23,17.973,13.255,26.353,20.659
		c0.85,0.75,1.829,1.353,2.746,2.025c0.05,0.119,0.084,0.252,0.16,0.349c1.243,1.58,3.773,3.487,3.468,4.662
		c-0.586,2.275-2.704,4.19-4.307,6.156c-2.423,2.967-4.946,5.851-7.425,8.77c-0.199-0.863-0.301-1.766-0.613-2.587
		c-4.849-12.693-10.888-24.768-18.641-35.963C458.842,468.271,457.472,467.187,457.929,465.393z"/>
	<path fill-rule="evenodd" clip-rule="evenodd" fill="#D8202C" d="M457.929,465.393c-0.457,1.794,0.913,2.878,1.741,4.071
		c7.753,11.195,13.792,23.27,18.641,35.963c0.313,0.821,0.414,1.724,0.613,2.587c-1.829,2.042-3.658,4.084-5.487,6.126
		c-2.852-3.173-3.126-7.438-4.521-11.186c-6.086-16.327-14.16-31.585-23.727-46.098c-0.586-1.33-2.03-2.226-1.976-3.881
		c4.543,2.993,8.694,6.453,12.411,10.432c0.21,1.295,0.842,2.102,2.286,1.969L457.929,465.393z"/>
	<path fill-rule="evenodd" clip-rule="evenodd" fill="#D8202C" d="M347.429,565.251c-0.256-2.331-0.512-4.661-0.768-6.99
		c20.494,1.036,40.996,2.003,62.277,4.364c-6.446,3.854-11.915,6.1-19.111,5.276C375.777,566.292,361.571,566.056,347.429,565.251z"
		/>
	<path fill-rule="evenodd" clip-rule="evenodd" fill="#FEFEFE" d="M186.392,202.407c-2.008,0.752-4.074,1.381-6.009,2.287
		c-2.589,1.213-3.5,0.288-3.404-2.299C180.115,202.399,183.253,202.403,186.392,202.407z"/>
	<path fill-rule="evenodd" clip-rule="evenodd" fill="#D8202C" d="M174.015,453.789c0.126-0.187,0.252-0.376,0.379-0.563
		c0.287,0.549,0.048,0.63-0.438,0.493C173.955,453.718,174.015,453.789,174.015,453.789z"/>
	<path fill-rule="evenodd" clip-rule="evenodd" fill="#4F1E0F" d="M337.159,256.578c15.123-2.915,30.135-2.368,45.138,1.061
		c14.459,3.305,27.129,10.023,38.548,19.32c1.185,0.965,2.427,1.859,3.643,2.786c16.936,15.629,29.884,34.141,39.899,54.826
		c1.241,2.559,0.901,3.634-1.498,5.037c-14.091,8.238-29.279,12.869-45.484,14.358c-1.656,0.151-3.303,0.443-4.955,0.673
		c-1.276-0.038-2.555-0.13-3.829-0.106c-18.657,0.313-36.075-3.849-51.987-13.916c-10.963-6.934-20.215-15.73-28.771-25.354
		c-1.588-2.508-3.268-4.948-5.372-7.063c-0.263-0.213-0.523-0.427-0.786-0.641l-0.022,0.121c-1.096-3.593-2.829-6.819-5.466-9.528
		c-2.704-6.97-6.272-13.639-7.155-21.955c-1.44,4.811-2.647,8.83-3.847,12.85c-0.941,3.151-3.209,5.784-3.574,9.159
		c-2.893,2.808-5.048,6.07-6.143,9.984c-2.513,1.844-4.093,4.433-5.64,7.049c-1.317,1.398-2.653,2.779-3.947,4.196
		c-13.536,14.815-29.312,26.19-48.834,31.811c-10.512,3.026-21.32,3.244-32.137,3.359c-10.467-1.127-20.875-2.554-30.867-6.094
		c-6.535-2.315-12.839-5.108-18.883-8.535c-2.713-1.538-3.425-2.431-0.731-5.043c15.686-15.219,31.162-30.652,46.71-46.014
		c8.353-8.155,16.931-16.093,24.969-24.546c4.481-4.712,9.44-7.241,15.852-8.203c11.396-1.708,22.716-2.198,34.096-0.332
		c1.613,0.265,3.167,0.883,4.747,1.339c1.291,0.236,2.581,0.471,3.871,0.707c8.127,2.633,15.625,6.424,22.095,12.083
		c1.081,0.945,1.957,2.013,3.512,0.515c6.326-6.09,14.122-9.624,22.243-12.56C334.087,257.475,335.623,257.026,337.159,256.578z"/>
	<path fill-rule="evenodd" clip-rule="evenodd" fill="#B48032" d="M284.701,257.885c-1.29-0.236-2.58-0.471-3.871-0.707
		c1.401-1.585,0.767-3.472,0.608-5.193c-0.744-8.059-1.888-16.096-0.56-25.367c-9.238,10.621-20.25,14.571-33.178,13.431
		c3.617-1.207,7.337-2.096,10.865-3.599c8.407-3.578,15.269-8.973,20.183-16.739c0.818-1.293,1.929-2.525,0.941-4.223
		c2.879-1.411,5.755-1.176,8.629,0.023c-0.379,3.807-0.856,7.608-1.12,11.424c-0.523,7.578-0.367,15.146,0.716,22.681
		c0.32,2.228,1.343,3.144,3.807,3.113c11.569-0.143,23.143-0.143,34.711-0.004c2.714,0.032,3.549-1.08,3.859-3.518
		c1.17-9.225,1.181-18.436,0.063-27.66c-0.242-1.997-1.268-3.931-0.506-6.013c0.239-0.093,0.475-0.201,0.721-0.277
		c4.732-1.467,5.745-0.87,7.994,3.184c3.916,7.055,9.723,12.255,16.787,16.095c4.529,2.463,9.4,3.997,14.964,5.223
		c-10.258,1.89-20.051-1.985-32.235-12.673c0.321,10.176-0.07,19.846-0.921,29.492c-1.536,0.448-3.072,0.897-4.608,1.345
		c-0.8-0.915-1.886-0.667-2.886-0.669c-14.02-0.011-28.039-0.011-42.059,0.001C286.605,257.256,285.523,257.004,284.701,257.885z"/>
	<path fill-rule="evenodd" clip-rule="evenodd" fill="#0B0909" d="M125.666,165.155c-6.231,5.837-11.705,12.38-17.424,18.694
		c-1.927-2.733-2.693-6.009-4.198-8.937c-0.48-0.934-0.396-1.61,0.25-2.426c5.314-6.722,10.011-13.932,15.934-20.172
		c0.335-0.354,0.804-0.58,1.588-1.131C122.546,156.186,124.233,160.631,125.666,165.155z"/>
	<path fill-rule="evenodd" clip-rule="evenodd" fill="#D9B070" d="M174.583,259.573c15.484-9.505,15.414-26.636,0.832-37.292
		c5.02-0.876,11.854,2.185,15.159,7.247c4.216,6.458,5.396,13.467,1.289,20.337C188.277,255.862,182.884,259.503,174.583,259.573z"
		/>
	<path fill-rule="evenodd" clip-rule="evenodd" fill="#B48032" d="M232.772,216.138c3.964-2.304,8.093-1.839,12.259-0.729
		c-6.181,2.061-12.055,4.839-17.903,7.676c-0.922,0.447-1.763,1.051-2.862,0.862l0.034,0.032
		C226.589,220.787,229.822,218.616,232.772,216.138z"/>
	<polygon fill-rule="evenodd" clip-rule="evenodd" fill="#B48032" points="224.267,223.946 224.116,224.185 224.3,223.979 	"/>
	<path fill-rule="evenodd" clip-rule="evenodd" fill="#931A26" d="M84.898,288.366c0.007,5.061,0.015,10.122,0.022,15.184
		C83.951,298.488,83.913,293.427,84.898,288.366z"/>
	<path fill-rule="evenodd" clip-rule="evenodd" fill="#F3CF8C" d="M327.862,315.263c8.556,9.623,17.808,18.42,28.771,25.354
		c15.912,10.067,33.33,14.229,51.987,13.916c1.274-0.023,2.553,0.068,3.829,0.106c-0.681,21.996-2.094,43.953-3.397,65.917
		c-16.401,12.443-34.399,21.806-54.148,27.657c-10.563,3.127-21.259,5.478-32.328,6.441c-10.143,0.884-20.269,0.673-30.357,0.431
		c-6.148-0.147-12.41-1.028-18.606-2.458c-5.579-1.288-11.456-1.671-16.953-3.528c-17.823-6.025-34.781-13.584-47.772-27.903
		c-1.315-22.197-2.631-44.394-3.948-66.59c10.817-0.116,21.625-0.334,32.137-3.36c19.522-5.62,35.298-16.995,48.834-31.811
		c1.294-1.417,2.63-2.798,3.949-4.196C302.522,321.006,315.19,320.821,327.862,315.263z M289.254,330.002
		c-0.084-0.07-0.169-0.142-0.253-0.211c0.1,0.055,0.2,0.11,0.301,0.166c9.122,12.175,30.106,12.42,38.376,0.44
		c-0.546-0.551-1.15-0.286-1.745-0.113c-7.701,2.233-15.47,3.082-23.525,2.224C297.914,332.03,293.704,330.464,289.254,330.002z
		 M341.811,394.098c-0.629,0.108-1.286,0.144-1.888,0.339c-15.293,4.944-30.856,6.142-46.763,3.738
		c-6.213-0.939-12.15-2.876-18.187-4.537c-0.223,1.151,0.465,1.625,0.981,2.146c12.631,12.745,27.669,17.332,45.052,12.543
		c8.383-2.311,15.915-6.455,21.044-13.947c0.289-0.175,0.579-0.351,0.866-0.526c-0.083-0.081-0.205-0.246-0.242-0.228
		C342.379,393.763,342.098,393.935,341.811,394.098z"/>
	<path fill-rule="evenodd" clip-rule="evenodd" fill="#1D0807" d="M443.214,452.976c-0.055,1.655,1.39,2.551,1.976,3.881
		c-2.388,0.061-3.947-1.705-5.844-2.696c-10.118-5.289-20.32-10.388-31.057-14.333c0.115-2.865,0.231-5.732,0.347-8.598
		c12.112,5.771,23.355,12.94,33.96,21.131c0.063,0.387,0.158,0.74,0.679,0.657L443.214,452.976z"/>
	<path fill-rule="evenodd" clip-rule="evenodd" fill="#931A26" d="M457.911,465.376c-1.444,0.133-2.076-0.674-2.286-1.969
		C456.386,464.064,457.148,464.72,457.911,465.376z"/>
	<path fill-rule="evenodd" clip-rule="evenodd" fill="#D8202C" d="M443.274,453.018c-0.521,0.083-0.615-0.271-0.679-0.657
		C442.822,452.581,443.049,452.799,443.274,453.018z"/>
	<path fill-rule="evenodd" clip-rule="evenodd" fill="#1D0807" d="M308.761,457.021c3.879,15.097,3.794,30.25,0.04,45.404
		C304.827,487.335,305.044,472.219,308.761,457.021z"/>
	<path fill-rule="evenodd" clip-rule="evenodd" fill="#FEFEFE" d="M322.519,486.217c-3.723-2.871-5.016-5.884-3.619-9.075
		c1.395-3.186,3.979-4.46,7.44-4.062c2.563,0.293,3.933,2.091,5.28,3.958C332.343,484.224,329.938,486.649,322.519,486.217z"/>
	<path fill-rule="evenodd" clip-rule="evenodd" fill="#931A26" d="M322.519,486.217c7.419,0.432,9.824-1.993,9.102-9.179
		c2.333,2.952,2.373,6.391,0.104,8.83C329.403,488.362,325.873,488.496,322.519,486.217z"/>
	<path fill-rule="evenodd" clip-rule="evenodd" fill="#F3CF8C" d="M329.85,215.534c-0.762,2.082,0.264,4.016,0.506,6.013
		c1.117,9.224,1.106,18.436-0.063,27.66c-0.311,2.438-1.146,3.55-3.859,3.518c-11.568-0.139-23.142-0.139-34.711,0.004
		c-2.464,0.03-3.487-0.885-3.807-3.113c-1.083-7.535-1.239-15.103-0.716-22.681c0.264-3.815,0.741-7.617,1.12-11.424
		C302.161,215.519,316.006,215.526,329.85,215.534z"/>
	<path fill-rule="evenodd" clip-rule="evenodd" fill="#D9B070" d="M441.742,221.964c-13.851,8.21-13.337,28.288-1.451,36.22
		c-3.965,0.937-8.683-1.263-12.492-5.982c-4.837-5.99-5.218-12.676-2.377-19.528C428.022,226.399,434.94,222.081,441.742,221.964z"
		/>
	<path fill-rule="evenodd" clip-rule="evenodd" fill="#B48032" d="M392.535,223.427c-6.859-2.981-12.876-5.598-19.073-8.291
		C382.313,213.644,387.474,215.771,392.535,223.427z"/>
	<polygon fill-rule="evenodd" clip-rule="evenodd" fill="#B48032" points="393.103,223.587 393.327,223.515 393.312,223.696 	"/>
	<path fill-rule="evenodd" clip-rule="evenodd" fill="#1D0807" d="M336.7,140.904c0.019,15.979-12.165,28.243-28.016,28.201
		c-15.649-0.041-27.912-12.319-27.916-27.952c-0.006-15.663,12.214-27.92,27.884-27.964
		C324.462,113.144,336.682,125.218,336.7,140.904z M331.841,141.223c-0.023-12.803-10.254-23.175-22.923-23.241
		c-12.769-0.066-23.465,10.599-23.368,23.3c0.096,12.574,10.668,23.047,23.267,23.05
		C321.534,164.336,331.866,153.965,331.841,141.223z"/>
	<path fill-rule="evenodd" clip-rule="evenodd" fill="#DB212D" d="M327.862,315.263c-12.672,5.558-25.34,5.743-38.004-0.024
		c1.546-2.616,3.126-5.205,5.639-7.049c8.671-3.063,17.414-2.562,26.185-0.51l0.022-0.121c-0.013,0.553,0.36,0.627,0.786,0.641
		C324.595,310.315,326.274,312.755,327.862,315.263z"/>
	<path fill-rule="evenodd" clip-rule="evenodd" fill="#CA8E2D" d="M284.701,257.885c0.822-0.881,1.904-0.628,2.905-0.629
		c14.02-0.013,28.039-0.013,42.059-0.001c1,0.001,2.086-0.246,2.886,0.669c-8.121,2.936-15.917,6.47-22.243,12.56
		c-1.555,1.498-2.431,0.43-3.512-0.515C300.327,264.309,292.829,260.518,284.701,257.885z"/>
	<path fill-rule="evenodd" clip-rule="evenodd" fill="#0B0909" d="M321.682,307.68c-8.771-2.052-17.514-2.554-26.185,0.51
		c1.095-3.914,3.25-7.177,6.144-9.984c4.859-0.018,9.717-0.035,14.575-0.054C318.853,300.861,320.586,304.087,321.682,307.68z"/>
	<path fill-rule="evenodd" clip-rule="evenodd" fill="#FEFEFE" d="M316.216,298.152c-4.858,0.019-9.716,0.036-14.575,0.054
		c0.364-3.375,2.632-6.007,3.573-9.159c1.199-4.02,2.406-8.039,3.847-12.85C309.943,284.513,313.512,291.182,316.216,298.152z"/>
	<path fill-rule="evenodd" clip-rule="evenodd" fill="#0B0909" d="M322.49,308.2c-0.426-0.014-0.799-0.088-0.786-0.641
		C321.967,307.773,322.228,307.987,322.49,308.2z"/>
	<path fill-rule="evenodd" clip-rule="evenodd" fill="#CA8E2D" d="M342.055,394.386c-5.133,7.485-12.665,11.63-21.048,13.94
		c-17.383,4.789-32.421,0.202-45.052-12.543c-0.516-0.521-1.204-0.994-0.981-2.146c6.036,1.661,11.973,3.598,18.187,4.537
		c15.906,2.403,31.47,1.206,46.763-3.738c0.602-0.195,1.259-0.23,1.888-0.339L342.055,394.386z"/>
	<path fill-rule="evenodd" clip-rule="evenodd" fill="#CA8E2D" d="M289.254,330.002c4.449,0.462,8.66,2.027,13.154,2.506
		c8.056,0.858,15.824,0.01,23.525-2.224c0.595-0.173,1.199-0.438,1.745,0.117c-8.271,11.976-29.254,11.73-38.376-0.444
		L289.254,330.002z"/>
	<path fill-rule="evenodd" clip-rule="evenodd" fill="#CA8E2D" d="M341.811,394.098c0.287-0.163,0.568-0.335,0.864-0.473
		c0.037-0.019,0.159,0.146,0.242,0.228c-0.287,0.176-0.577,0.352-0.864,0.529C342.055,394.386,341.811,394.098,341.811,394.098z"/>
	<path fill-rule="evenodd" clip-rule="evenodd" fill="#CA8E2D" d="M289.302,329.958c-0.101-0.056-0.202-0.111-0.301-0.166
		c0.084,0.069,0.169,0.141,0.253,0.211L289.302,329.958z"/>
	<path fill-rule="evenodd" clip-rule="evenodd" fill="#D6202C" d="M331.841,141.223c0.025,12.742-10.307,23.113-23.023,23.109
		c-12.599-0.003-23.171-10.477-23.267-23.05c-0.097-12.701,10.599-23.366,23.368-23.3
		C321.587,118.048,331.817,128.42,331.841,141.223z M323.329,153.629c-2.411-1.318-4.821-2.636-7.448-4.071
		c-0.015,3.286,2.454,5.659,2.045,8.695c-1.814-2.216-3.628-4.433-6.172-7.54c0,3.094,0.132,5.102-0.029,7.086
		c-0.245,3.022,1.111,3.258,3.431,2.25c1.032-0.448,2.315-0.487,2.719-1.849c2.665-0.53,4.964-1.492,5.399-4.627
		c1.922-0.037,2.44-1.635,3.134-2.939c0.47-0.882,1.708-2.157-0.307-2.676c-2.33-0.6-4.669-1.485-7.283-1.225
		C319.7,149.787,322.909,150.764,323.329,153.629z M317.146,123.376c0.012,3.082-1.828,5.734-2.17,9.202
		c2.728-1.923,5.159-3.64,7.593-5.356c-0.284,3.185-3.804,4.537-4.557,7.699c2.867,0.108,5.178-1.22,7.683-1.585
		c1.076-0.158,1.585-0.811,0.898-1.907c-1.051-1.683-1.621-3.84-4.074-4.147c-0.714-2.827-2.74-3.805-5.427-3.85
		c-0.329-1.438-1.634-1.421-2.677-1.85c-2.987-1.227-4.3-0.634-3.62,2.889c0.373,1.935,0.259,3.963,0.389,6.419
		C314.013,128.54,314.671,125.23,317.146,123.376z M303.198,122.618c-2.971-0.776-5.13,0.063-6.176,3.111
		c-3.115,0.453-4.842,2.094-4.625,5.401c-2.779,0.79-3.218,3.335-2.9,5.35c0.265,1.67,2.58,0.674,3.969,0.805
		c1.692,0.159,3.41,0.038,5.493,0.038c-2.068-2.777-5.106-3.704-6.623-6.248c2.974,0.044,5.3,2.323,8.414,2.593
		c-0.75-3.078-3.336-5.04-3.779-7.999c2.632,1.215,3.896,4.251,6.896,5.339c0.12-3.002-1.263-5.657-0.715-8.453
		c2.119,2.079,2.367,5.263,4.337,7.476c1.245-1.533,1.001-3.412,1.454-5.087c0.346-1.282,1.296-3.293-0.173-3.741
		C307.011,120.667,304.481,119.987,303.198,122.618z M292.382,152.004c0.297,1.953,1.859,2.98,3.13,4.198
		c0.702,0.673,1.653,1.064,2.201-0.088c1.09-2.295,2.793-4.37,3.107-7.393c-3.101,1.22-5.796,2.281-8.491,3.34
		c1.676-2.689,4.713-4.094,6.99-6.971c-2.081,0-3.59-0.11-5.075,0.03c-1.601,0.15-3.857-0.655-4.607,0.976
		c-0.737,1.601,0.8,3.328,1.628,4.884C291.49,151.401,292.001,151.667,292.382,152.004z M308.791,134.21
		c-3.983-0.009-7.171,3.127-7.097,6.983c0.073,3.941,3.259,7.021,7.188,6.954c3.792-0.066,6.727-3.034,6.787-6.863
		C315.735,137.168,312.867,134.219,308.791,134.21z M298.208,140.923c-2.522-0.806-4.433-1.557-6.414-1.989
		c-1.027-0.225-2.649-0.625-3.089,0.655c-0.478,1.387-0.74,3.241,0.222,4.461c0.768,0.973,2.128,0.121,3.187-0.311
		C293.971,142.982,296.025,142.666,298.208,140.923z M319.198,138.607c3.016,1.521,5.712,0.698,8.149,1.481
		c1.013,0.326,1.367-0.277,1.41-1.19c0.075-1.569,0.035-3.322-1.05-4.366c-1.362-1.311-2.474,0.468-3.599,1.045
		C322.546,136.378,321.104,137.414,319.198,138.607z M304.899,150.119c-2.893,3.103-4.958,5.318-7.045,7.556
		c5.338,3.671,5.672,3.561,6.564-2.207C304.631,154.09,304.675,152.687,304.899,150.119z M308.612,151.391
		c-0.758,1.485-1.14,2.138-1.435,2.827c-0.6,1.402-1.045,2.881-1.753,4.223c-0.964,1.825-0.312,2.467,1.519,2.748
		c3.58,0.548,4.161-0.059,3.261-3.702C309.781,155.784,309.32,154.093,308.612,151.391z M318.69,142.747
		c3.106,1.622,5.289,2.67,7.378,3.883c1.477,0.858,1.979,0.208,2.409-1.104c1.201-3.656,0.256-4.823-3.48-4.139
		C323.266,141.704,321.553,142.125,318.69,142.747z"/>
	<path fill-rule="evenodd" clip-rule="evenodd" fill="#1D0807" d="M308.791,134.21c4.076,0.008,6.944,2.958,6.879,7.074
		c-0.061,3.83-2.995,6.797-6.787,6.863c-3.93,0.068-7.115-3.013-7.188-6.954C301.62,137.337,304.808,134.202,308.791,134.21z"/>
	<path fill-rule="evenodd" clip-rule="evenodd" fill="#290908" d="M292.382,152.004c-0.38-0.336-0.892-0.603-1.116-1.023
		c-0.828-1.556-2.365-3.283-1.628-4.884c0.75-1.631,3.007-0.826,4.607-0.976c1.485-0.141,2.994-0.03,5.075-0.03
		c-2.277,2.876-5.313,4.281-6.99,6.971L292.382,152.004z"/>
	<path fill-rule="evenodd" clip-rule="evenodd" fill="#290908" d="M296.969,125.668c0.444,2.959,3.03,4.921,3.78,8
		c-3.114-0.27-5.439-2.548-8.414-2.593l0.061,0.054c-0.216-3.306,1.511-4.947,4.625-5.4L296.969,125.668z"/>
	<path fill-rule="evenodd" clip-rule="evenodd" fill="#290908" d="M322.519,127.281c2.453,0.307,3.023,2.464,4.074,4.147
		c0.687,1.096,0.178,1.75-0.898,1.907c-2.505,0.365-4.815,1.693-7.683,1.585c0.753-3.162,4.272-4.515,4.557-7.699
		C322.568,127.223,322.519,127.281,322.519,127.281z"/>
	<path fill-rule="evenodd" clip-rule="evenodd" fill="#290908" d="M303.151,122.553c-0.548,2.798,0.835,5.453,0.715,8.455
		c-3-1.088-4.265-4.124-6.896-5.34c-0.001,0,0.052,0.06,0.052,0.06c1.046-3.048,3.205-3.887,6.176-3.111L303.151,122.553z"/>
	<path fill-rule="evenodd" clip-rule="evenodd" fill="#1D0807" d="M298.208,140.923c-2.183,1.743-4.237,2.059-6.093,2.816
		c-1.059,0.431-2.419,1.283-3.187,0.311c-0.962-1.22-0.7-3.074-0.222-4.461c0.439-1.279,2.062-0.879,3.089-0.655
		C293.775,139.366,295.686,140.117,298.208,140.923z"/>
	<path fill-rule="evenodd" clip-rule="evenodd" fill="#290908" d="M319.198,138.607c1.906-1.193,3.348-2.229,4.911-3.029
		c1.125-0.577,2.236-2.355,3.599-1.045c1.085,1.044,1.125,2.796,1.05,4.366c-0.043,0.913-0.397,1.516-1.41,1.19
		C324.91,139.305,322.214,140.128,319.198,138.607z"/>
	<path fill-rule="evenodd" clip-rule="evenodd" fill="#1D0807" d="M292.335,131.075c1.517,2.544,4.555,3.47,6.623,6.248
		c-2.083,0-3.8,0.121-5.493-0.038c-1.39-0.131-3.704,0.866-3.969-0.805c-0.318-2.014,0.121-4.56,2.9-5.35
		C292.396,131.129,292.335,131.075,292.335,131.075z"/>
	<path fill-rule="evenodd" clip-rule="evenodd" fill="#290908" d="M317.144,123.376c-2.473,1.854-3.131,5.164-5.96,7.514
		c-0.13-2.456-0.016-4.485-0.389-6.419c-0.68-3.523,0.633-4.115,3.62-2.889c1.043,0.429,2.348,0.413,2.677,1.85L317.144,123.376z"/>
	<path fill-rule="evenodd" clip-rule="evenodd" fill="#290908" d="M304.899,150.119c-0.225,2.568-0.269,3.972-0.481,5.35
		c-0.892,5.767-1.226,5.878-6.564,2.207C299.941,155.437,302.007,153.221,304.899,150.119z"/>
	<path fill-rule="evenodd" clip-rule="evenodd" fill="#290908" d="M292.33,152.062c2.695-1.06,5.39-2.12,8.491-3.34
		c-0.313,3.023-2.017,5.098-3.107,7.393c-0.548,1.152-1.5,0.761-2.201,0.088c-1.271-1.218-2.833-2.245-3.13-4.198L292.33,152.062z"
		/>
	<path fill-rule="evenodd" clip-rule="evenodd" fill="#290908" d="M308.612,151.391c0.708,2.702,1.169,4.393,1.592,6.095
		c0.9,3.644,0.319,4.25-3.261,3.702c-1.83-0.281-2.482-0.922-1.519-2.748c0.708-1.342,1.153-2.821,1.753-4.223
		C307.473,153.529,307.854,152.876,308.612,151.391z"/>
	<path fill-rule="evenodd" clip-rule="evenodd" fill="#290908" d="M317.874,158.202c-0.403,1.361-1.687,1.4-2.719,1.848
		c-2.319,1.007-3.676,0.771-3.431-2.25c0.161-1.984,0.029-3.992,0.029-7.086c2.544,3.107,4.357,5.324,6.172,7.54L317.874,158.202z"
		/>
	<path fill-rule="evenodd" clip-rule="evenodd" fill="#290908" d="M317.092,123.432c2.687,0.045,4.713,1.023,5.427,3.85
		c0,0,0.05-0.059,0.05-0.06c-2.434,1.717-4.865,3.434-7.593,5.356c0.342-3.468,2.182-6.12,2.17-9.202
		C317.144,123.376,317.092,123.432,317.092,123.432z"/>
	<path fill-rule="evenodd" clip-rule="evenodd" fill="#290908" d="M318.69,142.747c2.862-0.622,4.575-1.042,6.307-1.359
		c3.736-0.684,4.682,0.482,3.48,4.139c-0.431,1.312-0.933,1.962-2.409,1.104C323.979,145.417,321.797,144.368,318.69,142.747z"/>
	<path fill-rule="evenodd" clip-rule="evenodd" fill="#290908" d="M303.198,122.618c1.283-2.631,3.813-1.951,5.571-1.414
		c1.469,0.448,0.519,2.459,0.173,3.741c-0.453,1.675-0.209,3.555-1.454,5.087c-1.97-2.213-2.218-5.397-4.337-7.478
		C303.151,122.553,303.198,122.618,303.198,122.618z"/>
	<path fill-rule="evenodd" clip-rule="evenodd" fill="#290908" d="M317.926,158.253c0.409-3.036-2.06-5.409-2.045-8.695
		c2.627,1.435,5.037,2.752,7.448,4.071l-0.056-0.054c-0.436,3.134-2.734,4.096-5.399,4.626L317.926,158.253z"/>
	<path fill-rule="evenodd" clip-rule="evenodd" fill="#1D0807" d="M323.329,153.629c-0.42-2.866-3.629-3.843-4.512-6.895
		c2.614-0.26,4.953,0.625,7.283,1.225c2.015,0.519,0.776,1.794,0.307,2.676c-0.693,1.304-1.212,2.902-3.134,2.939
		C323.273,153.576,323.329,153.629,323.329,153.629z"/>
</g>
</svg>
