<?xml version="1.0" encoding="utf-8"?>
<!-- Generator: Adobe Illustrator 16.0.0, SVG Export Plug-In . SVG Version: 6.00 Build 0)  -->
<!DOCTYPE svg PUBLIC "-//W3C//DTD SVG 1.1//EN" "http://www.w3.org/Graphics/SVG/1.1/DTD/svg11.dtd">
<svg version="1.1" id="Layer_1" xmlns="http://www.w3.org/2000/svg" xmlns:xlink="http://www.w3.org/1999/xlink" x="0px" y="0px"
	 width="600px" height="600px" viewBox="0 0 600 600" enable-background="new 0 0 600 600" xml:space="preserve">
<g>
	<circle fill="#2C3338" cx="300.011" cy="300" r="300"/>
	<path fill="#E4CD8A" d="M41.637,319.143c0-12.778,0-25.557,0-38.334c0.287-0.933,0.702-1.848,0.841-2.802
		c1.39-9.623,2.358-19.323,4.151-28.868c19.2-102.192,104.445-185.933,206.965-203.41c8.868-1.513,17.793-2.683,26.691-4.011
		c12.753,0,25.51,0,38.265,0c1.099,0.298,2.184,0.766,3.301,0.869c61.627,5.663,114.955,29.969,158.604,73.709
		c56.286,56.407,81.769,125.083,75.799,204.76c-4.662,62.217-29.184,116.181-73.279,159.985
		c-65.117,64.689-143.821,88.902-234.058,72.13C146.14,534.062,63.139,448.767,45.643,345.903
		C44.131,337.013,42.964,328.065,41.637,319.143z M187.051,283.503c32.342,0,64.141,0,95.863,0c0-26.95,0-53.565,0-80.159
		c-27.881,0-55.371,0-82.944,0C192.186,229.58,188.13,256.218,187.051,283.503z M282.949,396.695c0-27.094,0-53.704,0-80.272
		c-32.154,0-63.949,0-95.742,0c0.021,23.31,7.109,66.557,13.446,80.272C227.942,396.695,255.26,396.695,282.949,396.695z
		 M398.858,203.485c-27.915,0-55.486,0-82.931,0c0,26.961,0,53.563,0,80.133c32.051,0,63.703,0,95.84,0
		C410.668,256.169,406.677,229.477,398.858,203.485z M315.88,316.306c0,27.032,0,53.634,0,80.337c27.811,0,55.271,0,82.948,0
		c7.803-26.233,11.93-52.899,12.889-80.337C379.551,316.306,347.903,316.306,315.88,316.306z M164.889,203.25
		c0.537,0.081-0.098-0.098-0.733-0.098c-21.784-0.019-43.568-0.089-65.35,0.126c-1.565,0.017-4.008,1.834-4.527,3.338
		c-5.297,15.33-10.854,30.611-15.142,46.233c-2.707,9.855-3.388,20.269-5.029,30.761c27.476,0,53.72,0,79.105,0
		C157.13,256.65,160.999,230.025,164.889,203.25z M523.689,283.592c0.15-0.684,0.372-1.154,0.338-1.608
		c-1.964-26.706-8.662-52.192-20.001-76.418c-0.594-1.267-3.075-2.323-4.687-2.334c-21.281-0.153-42.564-0.104-63.85-0.087
		c-0.922,0-1.846,0.189-1.53,0.154c3.898,26.886,7.755,53.49,11.641,80.293C471.145,283.592,497.392,283.592,523.689,283.592z
		 M75,316.364c-0.073,0.86-0.215,1.498-0.167,2.122c2.018,26.524,8.652,51.85,19.978,75.896c0.597,1.269,3.071,2.325,4.681,2.338
		c21.28,0.154,42.563,0.104,63.843,0.089c0.92,0,1.841-0.186,1.541-0.153c-3.904-26.89-7.768-53.495-11.659-80.292
		C127.674,316.364,101.431,316.364,75,316.364z M445.629,316.371c-3.945,27.099-7.818,53.696-11.713,80.445
		c21.67,0,44.281,0.063,66.89-0.157c1.346-0.013,3.364-2.056,3.894-3.564c4.926-14.05,10.243-28.011,14.125-42.358
		c2.985-11.041,4.071-22.6,6.076-34.366C497.426,316.371,471.179,316.371,445.629,316.371z M283.117,77.458
		c-32.244,25.229-54.811,56.504-71.159,93.087c24.197,0,47.584,0,71.159,0C283.117,139.725,283.117,109.206,283.117,77.458z
		 M282.96,522.343c0-31.689,0-62.322,0-92.932c-23.695,0-47.043,0-71.037,0C228.443,466.053,250.91,497.334,282.96,522.343z
		 M387.009,170.698c-16.693-36.845-39.142-68.177-71.136-93.066c0,31.663,0,62.291,0,93.066
		C339.473,170.698,362.73,170.698,387.009,170.698z M315.85,429.244c0,31.087,0,61.675,0,93.127
		c32.101-25.122,54.66-56.389,71.092-93.127C362.749,429.244,339.489,429.244,315.85,429.244z M483.927,170.846
		c-20.71-34.078-87.57-84.107-110.824-83.161c0.951,1.167,1.783,2.195,2.625,3.219c17.467,21.251,31.402,44.637,42.169,69.943
		c4.253,10,4.255,9.999,15.197,9.999C449.799,170.846,466.502,170.846,483.927,170.846z M483.794,429.105
		c-19.536,0-38.439,0.122-57.34-0.105c-3.736-0.045-5.108,1.364-6.388,4.592c-10.83,27.311-25.439,52.427-44.095,75.146
		c-0.975,1.187-1.851,2.451-3.082,4.089C404.982,507.318,465.066,461.957,483.794,429.105z M225.018,86.69
		c-45.387,16.462-81.998,44.084-110.525,84.154c20.64,0,40.065,0.081,59.486-0.158c1.479-0.02,3.523-1.995,4.301-3.56
		c6.103-12.295,11.169-25.181,18.097-36.974C205.088,115.32,215.261,101.351,225.018,86.69z M114.441,429.109
		c28.788,40.161,65.342,67.855,110.934,83.603c-20.171-24.711-35.929-51.825-47.708-81.318c-0.41-1.024-2.105-2.182-3.21-2.189
		C154.869,429.072,135.282,429.109,114.441,429.109z"/>
	<path fill="#2C3338" d="M187.051,283.503c1.079-27.286,5.135-53.923,12.919-80.159c27.573,0,55.063,0,82.944,0
		c0,26.594,0,53.209,0,80.159C251.191,283.503,219.393,283.503,187.051,283.503z"/>
	<path fill="#2C3338" d="M282.949,396.695c-27.689,0-55.008,0-82.296,0c-6.335-13.717-13.424-56.963-13.446-80.272
		c31.793,0,63.588,0,95.742,0C282.949,342.99,282.949,369.601,282.949,396.695z"/>
	<path fill="#2C3338" d="M398.858,203.485c7.819,25.992,11.81,52.684,12.909,80.133c-32.137,0-63.79,0-95.84,0
		c0-26.569,0-53.172,0-80.133C343.372,203.485,370.943,203.485,398.858,203.485z"/>
	<path fill="#2C3338" d="M315.88,316.306c32.022,0,63.671,0,95.836,0c-0.958,27.437-5.085,54.104-12.888,80.337
		c-27.677,0-55.139,0-82.949,0C315.88,369.939,315.88,343.338,315.88,316.306z"/>
	<path fill="#2C3338" d="M164.889,203.25c-3.89,26.775-7.759,53.4-11.677,80.361c-25.385,0-51.629,0-79.104,0
		c1.641-10.492,2.322-20.906,5.028-30.762c4.289-15.622,9.846-30.903,15.143-46.233c0.52-1.504,2.961-3.322,4.526-3.338
		c21.782-0.215,43.566-0.145,65.35-0.126C164.791,203.151,165.426,203.331,164.889,203.25z"/>
	<path fill="#2C3338" d="M523.689,283.592c-26.297,0-52.544,0-78.091,0c-3.886-26.804-7.741-53.407-11.64-80.293
		c-0.315,0.035,0.607-0.153,1.529-0.154c21.285-0.018,42.568-0.065,63.851,0.087c1.61,0.012,4.091,1.067,4.686,2.334
		c11.34,24.227,18.038,49.712,20.002,76.419C524.061,282.438,523.84,282.908,523.689,283.592z"/>
	<path fill="#2C3338" d="M75,316.364c26.43,0,52.674,0,78.218,0c3.891,26.797,7.753,53.401,11.659,80.292
		c0.3-0.032-0.62,0.153-1.541,0.153c-21.282,0.017-42.563,0.065-63.843-0.089c-1.609-0.013-4.084-1.069-4.681-2.338
		c-11.325-24.048-17.96-49.373-19.978-75.896C74.785,317.862,74.927,317.224,75,316.364z"/>
	<path fill="#2C3338" d="M445.629,316.371c25.551,0,51.797,0,79.272,0c-2.005,11.767-3.091,23.325-6.076,34.365
		c-3.882,14.348-9.2,28.31-14.125,42.359c-0.529,1.509-2.549,3.552-3.894,3.563c-22.609,0.221-45.22,0.158-66.89,0.158
		C437.81,370.068,441.683,343.469,445.629,316.371z"/>
	<path fill="#2C3338" d="M283.117,77.458c0,31.748,0,62.267,0,93.087c-23.574,0-46.962,0-71.159,0
		C228.307,133.963,250.874,102.687,283.117,77.458z"/>
	<path fill="#2C3338" d="M282.96,522.343c-32.05-25.009-54.517-56.29-71.037-92.932c23.993,0,47.341,0,71.037,0
		C282.96,460.021,282.96,490.654,282.96,522.343z"/>
	<path fill="#2C3338" d="M387.009,170.698c-24.278,0-47.536,0-71.136,0c0-30.775,0-61.403,0-93.066
		C347.867,102.522,370.316,133.854,387.009,170.698z"/>
	<path fill="#2C3338" d="M315.85,429.244c23.639,0,46.898,0,71.092,0c-16.432,36.738-38.991,68.005-71.092,93.127
		C315.85,490.919,315.85,460.332,315.85,429.244z"/>
	<path fill="#2C3338" d="M483.927,170.846c-17.425,0-34.129,0-50.832,0c-10.942,0-10.944,0-15.197-10
		c-10.768-25.306-24.702-48.691-42.169-69.943c-0.842-1.024-1.674-2.052-2.625-3.219
		C396.357,86.739,463.218,136.769,483.927,170.846z"/>
	<path fill="#2C3338" d="M483.794,429.105c-18.728,32.853-78.812,78.213-110.903,83.721c1.231-1.638,2.107-2.902,3.082-4.089
		c18.656-22.72,33.265-47.836,44.095-75.146c1.279-3.228,2.65-4.637,6.388-4.592C445.354,429.227,464.258,429.105,483.794,429.105z"
		/>
	<path fill="#2C3338" d="M225.018,86.69c-9.756,14.661-19.93,28.629-28.642,43.462c-6.927,11.793-11.993,24.679-18.097,36.974
		c-0.777,1.565-2.822,3.541-4.301,3.56c-19.422,0.238-38.848,0.158-59.486,0.158C143.02,130.774,179.631,103.153,225.018,86.69z"/>
	<path fill="#2C3338" d="M114.441,429.109c20.841,0,40.428-0.037,60.015,0.095c1.103,0.008,2.8,1.165,3.21,2.189
		c11.779,29.493,27.538,56.607,47.708,81.318C179.783,496.964,143.229,469.27,114.441,429.109z"/>
</g>
</svg>
